<?xml version="1.0" standalone="no"?>
<!DOCTYPE svg PUBLIC "-//W3C//DTD SVG 1.1//EN" "http://www.w3.org/Graphics/SVG/1.1/DTD/svg11.dtd" >
<svg xmlns="http://www.w3.org/2000/svg" xmlns:xlink="http://www.w3.org/1999/xlink" version="1.1">
    <metadata></metadata>
    <defs>
        <font id="212_moon_child_sansregular" horiz-adv-x="933">
            <font-face units-per-em="2048" ascent="1638" descent="-410"/>
            <missing-glyph horiz-adv-x="614"/>
            <glyph unicode="&#xd;" horiz-adv-x="1040"/>
            <glyph horiz-adv-x="0"/>
            <glyph horiz-adv-x="0"/>
            <glyph unicode=" " horiz-adv-x="614"/>
            <glyph unicode="&#x09;" horiz-adv-x="614"/>
            <glyph unicode="&#xa0;" horiz-adv-x="614"/>
            <glyph unicode="!" horiz-adv-x="571"
                   d="M315 86v6q3 29 33 48.5t70 19.5h14q86 -6 86 -72v-8q-5 -33 -28.5 -55.5t-61.5 -22.5h-12q-43 3 -72 28t-29 56zM322 500q0 121 8 325q3 63 6 161t5.5 152t6.5 76q11 54 76 54q23 0 41 -6q9 -3 18 -9q62 -32 62 -153q0 -55 -8 -117q-11 -94 -11 -207l2 -217 q0 -111 -10 -194q-8 -49 -20 -66q-22 -31 -82 -31q-55 0 -78 29q-14 21 -14 80z"/>
            <glyph unicode="&#x22;" horiz-adv-x="514"
                   d="M127 1290q0 7 12 37q2 3 6.5 11.5t6.5 13t5.5 12t5.5 13.5t3.5 13.5t1.5 14.5q0 17 -10 37q-1 3 -6 12.5t-7 14.5t-4 14t-2 18l2 6q1 32 21.5 54t48.5 22l12 -2q56 -11 62 -80l2 -12q0 -56 -62 -133q-4 -4 -16 -17.5t-17 -18.5t-14.5 -13.5t-18.5 -14t-18 -8.5l-8 -2 q-6 0 -6 8zM346 1292q0 5 12 35q2 3 6.5 11.5t6.5 13t5.5 12t5.5 13.5t3.5 13.5t1.5 14.5q0 21 -8 37q-1 3 -6 12.5t-7 14.5t-4 14t-2 18v6q3 33 22.5 54.5t47.5 21.5l14 -2q23 -5 40.5 -25.5t21.5 -54.5v-12q0 -62 -62 -133q-1 -2 -4 -5q-45 -51 -72 -64l-8 -3l-6 -2 q-8 0 -8 10z"/>
            <glyph unicode="#" horiz-adv-x="1044"
                   d="M20 477q0 16 19 29.5t47 13.5h113q56 161 67 193q-96 0 -114 2q-40 1 -60 14.5t-20 32.5q0 18 18.5 32.5t46.5 14.5q88 0 164 -2q99 276 160 426q1 4 4.5 14t4.5 13.5t4 12t5.5 11.5t6.5 9t8 8.5t10 6.5t13 5.5t16 2.5t20 1q27 0 44 -18.5t17 -45.5l-4 -20 q-6 -19 -58 -159.5t-83 -246.5l-6 -20h180q109 303 154 414q1 4 4.5 14t4.5 13.5t4 12t5.5 11.5t6.5 9t8 8.5t10 6.5t13 5.5t16 2.5t20 1q27 0 44 -19t17 -43q0 -6 -4 -22q-12 -38 -61.5 -172.5t-79.5 -235.5l-2 -4q74 0 90 2h8q31 0 50.5 -16t19.5 -37q0 -20 -21 -34.5 t-61 -14.5h-117l-63 -189l143 2q31 0 49.5 -13.5t18.5 -33.5t-21 -33.5t-61 -13.5h-158q-58 -168 -96 -293q-2 -4 -10.5 -31.5t-15.5 -47t-20.5 -49t-26 -48.5t-30 -33t-35.5 -14q-24 0 -49 22q-28 22 -28 72l2 25q4 16 9.5 31.5t15.5 37t14 29.5q17 42 34 92t36 113.5 t30 95.5h-172l-92 -283q-1 -3 -7.5 -25.5t-12 -38t-15.5 -41.5t-20 -44.5t-23 -36.5t-28 -27.5t-31 -9.5q-25 0 -48 23q-28 25 -28 73l2 25q5 21 39 96q17 40 33 88t35 111t28 92q-58 0 -70 2q-40 1 -60 13.5t-20 29.5zM369 520h172l67 191h-176z"/>
            <glyph unicode="$" horiz-adv-x="796"
                   d="M57 973q0 113 67.5 209t174.5 143q15 7 51 21v114q0 21 13 32t32 11q17 0 30 -11.5t13 -31.5v-96l33 2q169 0 234 -129q43 -84 43 -170q0 -35 -13 -61q-20 -35 -41 -35q-24 0 -44 35.5t-25 70.5q-12 90 -37 127q-41 68 -111 68q-21 0 -39 -6v-537l70 -55 q190 -155 190 -342q0 -87 -43 -174q-29 -60 -87.5 -101t-129.5 -53v-121q0 -19 -13 -30t-30 -11q-18 0 -31.5 11t-13.5 30v107h-35q-196 0 -219 125l-2 16q0 29 12 55.5t33 26.5q14 0 31 -14q9 -8 21.5 -27t17.5 -25q36 -49 102 -49h6q18 0 33 6v463q-25 22 -70 57t-74 60 t-61.5 59.5t-53 75.5t-28.5 90q-6 30 -6 64zM281 991q0 -89 49 -155l20 -25v383q-69 -87 -69 -203zM438 164q26 26 41 53l4 12q25 42 25 93q-6 93 -70 147v-305z"/>
            <glyph unicode="%" horiz-adv-x="1228"
                   d="M94 1014q0 51 17 114l12 39q20 40 59.5 73.5t91.5 47.5q50 12 99 12q100 0 137 -53q4 -6 12.5 -18t13 -18.5t9 -16.5t6.5 -20q16 -73 16 -140q0 -80 -16 -123q-11 -39 -45 -82q-65 -71 -182 -71l-48 4q-123 17 -167 160q-15 47 -15 92zM217 1020q0 -84 49 -139 q39 -45 107 -45q59 0 80 38q2 2 5.5 8.5t4.5 8.5q28 57 35 139l2 37q0 73 -29.5 124.5t-91.5 51.5q-21 0 -31 -2q-57 -10 -100 -94q-31 -60 -31 -127zM371 59l2 27q4 24 37 96q25 58 61 175t43 139q52 156 146 413t137 365q2 5 6.5 17.5t6 16.5t6 13.5t8 13t10 9.5t14 8 t18 4t23.5 2q27 0 44 -18t17 -44q0 -6 -4 -22q-9 -30 -59.5 -166t-79.5 -240q-26 -84 -114.5 -349.5t-108.5 -330.5q-2 -4 -12.5 -38.5t-21 -60t-26.5 -57t-36 -49.5t-42 -18q-23 0 -49 23t-26 71zM719 248q0 52 16 114q7 21 15 37q19 40 58 73.5t93 47.5q47 12 96 12 q101 0 138 -53q5 -7 13 -18.5t12.5 -17.5t9 -15.5t6.5 -19.5q16 -78 16 -119v-23q0 -76 -14 -123q-13 -39 -48 -82q-63 -69 -180 -69l-49 4q-70 8 -110 54.5t-58 103.5q-14 43 -14 94zM842 250q0 -82 49 -137q42 -45 106 -45q57 0 80 38q9 13 10 17q28 60 35 139l2 37 q0 74 -29 125t-91 51q-21 0 -31 -2q-55 -7 -99 -94q-32 -62 -32 -129z"/>
            <glyph unicode="&#x26;" horiz-adv-x="1081"
                   d="M98 483q0 101 43 209q32 86 72 142q40 51 104 92q17 13 60 39q-33 79 -45 133q-13 47 -13 88q0 42 13 74q43 108 139 145q27 10 51 10q40 0 90 -24q60 -30 109 -95.5t49 -130.5q0 -25 -4 -37q-3 -11 -13 -18.5t-20 -7.5q-12 0 -27.5 21t-30.5 48t-20 33q-42 53 -82 53 t-66 -48.5t-26 -110.5v-15q0 -21 4 -61q3 -33 33 -51l45 -29q31 -24 33 -51v-8q0 -19 -11 -32.5t-28 -14.5l-29 2q-24 4 -32 4q-54 0 -93 -45q-76 -81 -104 -228q-12 -59 -12 -123q4 -124 43 -204q51 -104 135 -133q41 -13 72 -13q59 0 108 35q41 31 70 98q14 28 14 52 l-4 24q-6 18 -37 53q-2 2 -6 2h-4q-38 -5 -70 -41q-3 -4 -13.5 -16.5t-18 -21t-18 -18.5t-21 -15.5t-19.5 -5.5l-8 2q-12 3 -21 18q-6 9 -6 25q0 47 31 94q49 75 145 94q94 21 150 55q67 41 123 117q16 22 16 39t-20 47q-4 6 -16 18.5t-18.5 23t-6.5 20.5q0 8 2 12 q12 24 53 24l19 -2q73 -26 81 -94l2 -18q0 -29 -18 -74q-43 -110 -156 -186q-47 -28 -67 -39q-6 -3 -6 -10v-5q20 -59 20 -127q0 -149 -131 -227q-85 -49 -180 -49q-133 0 -238 88q-93 78 -141 215q-29 95 -29 180z"/>
            <glyph unicode="'" horiz-adv-x="286"
                   d="M121 1296q0 9 12 33q2 3 8.5 14.5t9 16t6.5 14t5.5 17.5t1.5 16q0 16 -10 39q-19 34 -19 57v6q3 34 23 55t49 21l14 -2q24 -5 42.5 -25.5t21.5 -54.5v-12q0 -58 -64 -131q-3 -3 -12 -13t-12 -13l-11 -11t-12.5 -11.5t-11.5 -9t-13.5 -8.5t-13.5 -6h-6q-8 0 -8 8z"/>
            <glyph unicode="(" horiz-adv-x="571"
                   d="M164 696l2 54q12 241 87 462t142 299q24 27 58 27q25 0 39 -14l5 -6q5 -5 6 -6.5t5 -6.5t5 -8.5t3.5 -8.5t3 -10.5t0.5 -11.5q0 -20 -18 -61q-33 -67 -77.5 -282t-49.5 -386v-57q0 -327 104 -625q10 -22 10 -55q0 -53 -32 -53q-22 0 -54 28q-32 27 -71.5 96t-77.5 163.5 t-64 219t-26 242.5z"/>
            <glyph unicode=")" horiz-adv-x="561"
                   d="M197 14q0 23 20 64q35 65 86 280t62 387l4 113q0 314 -88 565q-11 33 -11 54q0 25 9.5 41t27.5 16q20 0 53 -29q69 -62 143.5 -265.5t74.5 -420.5l-5 -86q-21 -241 -102.5 -462t-151.5 -300q-23 -26 -57 -26q-25 0 -39 14q-2 2 -7 8.5t-7.5 10t-5.5 9.5t-4.5 12.5 t-1.5 14.5z"/>
            <glyph unicode="*" horiz-adv-x="622"
                   d="M33 1112q0 21 20 41q27 27 56 27q13 0 29 -5t25 -10t29.5 -16.5t24.5 -13.5l12 -5q14 0 25.5 27t19.5 59.5t29 59.5t53 27q47 0 47 -52q0 -15 -4 -35t-9.5 -40t-6.5 -27v-6q0 -14 17.5 -25.5t37.5 -11.5h6q36 8 62 8q65 0 65 -47q0 -42 -34 -66q-11 -8 -50 -15.5 t-68.5 -18.5t-29.5 -31l4 -14q3 -6 17.5 -29t23 -41.5t8.5 -34.5q0 -30 -39 -43l-20 -4q-15 0 -28.5 9t-21 17.5t-17 29t-11.5 27t-10 28.5q-9 24 -33 24q-15 0 -26 -14q-4 -5 -18.5 -23.5t-23 -27.5t-22.5 -18t-27 -9q-8 0 -20 6q-37 18 -37 66q0 29 16 45q1 1 9.5 9t13 13 t11.5 13.5t10.5 16.5t3.5 15q0 19 -23 31q-29 14 -43.5 22t-33.5 26t-19 36z"/>
            <glyph unicode="+" horiz-adv-x="837"
                   d="M164 530q0 19 16 33t49 15q101 0 187 2q0 80 -4 186v2q0 33 13.5 50.5t33.5 17.5q25 0 45 -22t20 -54l-2 -178q126 4 183 4h2q33 0 50 -13.5t17 -33.5q0 -24 -22 -44t-54 -20l-178 2l-4 -192q0 -26 -14.5 -43t-32.5 -17q-19 0 -32.5 17.5t-14.5 50.5l-2 186l-199 4 q-26 0 -41.5 14t-15.5 33z"/>
            <glyph unicode="," horiz-adv-x="409"
                   d="M147 -225q0 12 15 32q2 3 9.5 14.5t10.5 16.5t8 15t7 18.5t2 17.5q0 19 -11 35q-24 40 -24 60v6q3 34 29 56t61 22l16 -2q31 -3 53.5 -24t28.5 -58v-13q0 -60 -80 -135q-67 -60 -108 -69l-8 -3q-9 0 -9 11z"/>
            <glyph unicode="-" horiz-adv-x="1019"
                   d="M438 666q0 19 16.5 32.5t49.5 14.5q159 0 475 8h2q33 0 50.5 -13.5t17.5 -33.5q0 -24 -22 -44t-54 -20q-50 0 -248.5 4t-228.5 4q-26 0 -42 14.5t-16 33.5z"/>
            <glyph unicode="." horiz-adv-x="598"
                   d="M246 86v6q3 29 32.5 48.5t69.5 19.5h14q42 -3 64.5 -22t22.5 -50v-8q-5 -33 -29 -55.5t-62 -22.5h-12q-42 3 -71 28t-29 56z"/>
            <glyph unicode="/" horiz-adv-x="514"
                   d="M-131 20l2 25q5 21 39 96q18 44 35.5 96.5t36.5 118.5t30 99q158 458 285 778q2 5 7 22.5t7 21.5t10 15.5t17.5 14.5t27.5 6.5t42 3.5q13 0 27 -20.5t14 -45.5q0 -9 -3 -18q-6 -19 -58 -159.5t-83 -246.5q-26 -84 -114.5 -349.5t-108.5 -330.5q-1 -3 -7.5 -25.5t-12 -38 t-15.5 -41.5t-20 -44.5t-23 -36.5t-28 -27.5t-31 -9.5q-24 0 -47 23q-29 26 -29 73z"/>
            <glyph unicode="0" horiz-adv-x="899"
                   d="M16 668q0 139 27 315q4 33 20 104q32 108 95 199.5t147 128.5q78 35 156 35q160 -3 219 -145q3 -6 11 -25.5t11 -25.5t9.5 -22.5t9 -24.5t7.5 -22.5t7.5 -25t5 -25t4.5 -28.5q11 -87 15.5 -122.5t8 -92t3.5 -121.5v-47q0 -66 -7 -175.5t-17 -162.5q-20 -109 -74 -221 q-47 -93 -122 -142t-165 -49q-37 0 -78 9q-49 11 -90.5 44.5t-69.5 76.5t-51 100.5t-36 107.5t-23 105q-23 118 -23 252zM197 604q0 -105 19 -205.5t54 -169.5q28 -55 82 -92t109 -37q75 0 119 76q14 30 32 74q31 82 49.5 186t18.5 195v14q0 106 -1 165.5t-8.5 150.5 t-21.5 163q-11 52 -32.5 100t-57 83.5t-74.5 35.5q-49 0 -94 -51q-55 -58 -91.5 -127t-56 -155t-27 -149.5t-15.5 -168.5q-4 -58 -4 -88z"/>
            <glyph unicode="1" horiz-adv-x="393"
                   d="M109 342l2 119q0 40 11 264.5t17 288.5q2 24 7 133.5t16 174t37 89.5q19 19 51 19l20 -3q61 -11 64 -47q4 -47 4 -176q0 -193 -16.5 -583t-16.5 -435q0 -153 -94 -161h-4q-98 0 -98 317z"/>
            <glyph unicode="2" horiz-adv-x="745"
                   d="M-53 104q0 124 176 418q91 152 162.5 312t93.5 258q16 72 16 131q0 124 -80 135h-6q-46 0 -114.5 -47t-116.5 -107q-17 -20 -33 -20q-22 0 -22 26q0 28 22 56q59 72 133 123t135 51h2q254 -8 254 -269q0 -121 -57 -290t-120 -292.5t-118 -205.5q-18 -26 -33.5 -52 t-32 -58t-26 -50t-29 -59t-26.5 -55q156 2 158 2l336 4q53 -7 53 -29q0 -15 -17.5 -30.5t-46.5 -18.5q-264 -23 -407 -23q-209 0 -242 41q-14 21 -14 49z"/>
            <glyph unicode="3" horiz-adv-x="612"
                   d="M-82 150q0 26 25 26q16 0 32 -16q4 -4 20 -30.5t38.5 -42t60.5 -15.5q98 0 174 116t76 281q0 111 -39.5 161t-120.5 50q-34 0 -86 -10l-10 -2q-18 0 -30.5 15t-24.5 50l-4 19q0 24 43 67q125 125 166 307q16 78 16 127q0 86 -57 86q-117 0 -224 -90q-8 -8 -18 -8 q-9 0 -15 7.5t-6 19.5q0 31 33 57q49 43 118.5 70.5t117.5 27.5q114 0 174.5 -63.5t60.5 -183.5q0 -18 -4 -64q-11 -94 -60.5 -193.5t-99.5 -123.5q33 -1 66.5 -11t69.5 -35.5t63.5 -63t45.5 -98t18 -136.5q0 -91 -26 -171.5t-74.5 -144t-126 -100.5t-173.5 -37 q-86 0 -129.5 23.5t-75.5 82.5q-14 25 -14 46z"/>
            <glyph unicode="4" horiz-adv-x="806"
                   d="M8 600q0 15 5.5 30t17 37t14.5 29q46 97 70 191q13 46 32 170t19 162q0 6 0.5 32.5t1 39.5t2.5 37.5t6.5 38.5t11 30.5t18 25.5t25.5 11q10 2 29 2q76 0 76 -101q0 -7 -6 -82q-2 -21 -29 -237q-20 -209 -96 -393q275 -10 325 -11q13 299 23 402q3 26 6.5 134t15 173 t37.5 90q19 19 52 19l18 -3q60 -11 63 -47q7 -86 7 -194q0 -193 -16.5 -574.5t-16.5 -425.5q-1 -29 -3.5 -48t-11 -48t-28.5 -45.5t-51 -19.5h-4q-99 0 -99 317l2 119q0 32 2 63q-71 4 -217 8q-21 0 -64.5 2.5t-66.5 2.5q-14 0 -44 -5.5t-44 -5.5q-37 0 -59 25 q-23 23 -23 49z"/>
            <glyph unicode="5" horiz-adv-x="688"
                   d="M-25 236q0 31 11 63q11 33 45 33q20 0 33.5 -11.5t13.5 -31.5l-2 -15q-6 -18 -6 -34q0 -62 77 -107q42 -22 70 -22q43 0 88 45q119 114 119 401q0 149 -43.5 228t-116.5 79q-39 0 -78 -20q-12 -4 -28.5 -12t-29.5 -12.5t-30 -4.5q-2 -2 -10 -2q-39 2 -65.5 25.5 t-26.5 70.5l4 230q0 162 25.5 235.5t83.5 73.5l409 -2q24 -4 46 -14.5t22 -22.5q0 -18 -33 -31q-14 -6 -64 -10h-18l-135 -6l-103 2q-73 -25 -73 -139l-4 -205q0 -86 32 -88l25 -2q19 0 51 5t49 5q27 0 62 -12q104 -43 170 -123q90 -108 96 -254v-29q0 -103 -37 -207.5 t-100 -191.5q-26 -37 -96 -84q-56 -39 -138 -39q-111 0 -203 68.5t-92 167.5z"/>
            <glyph unicode="6" horiz-adv-x="696"
                   d="M-53 475q0 113 22 242q31 177 91.5 343.5t121.5 254.5q56 83 113 102q21 6 37 6q30 0 48.5 -17.5t18.5 -45.5q0 -15 -6 -33q-19 -48 -57.5 -123.5t-66 -130.5t-50 -127.5t-22.5 -136.5v-25q37 50 76 78.5t89 28.5q46 0 93.5 -26t91.5 -78t72 -146.5t28 -216.5 q0 -86 -18 -160t-55.5 -135.5t-102 -97t-149.5 -35.5q-102 0 -176.5 37.5t-117 104.5t-62 150.5t-19.5 186.5zM158 397q0 -98 71 -231q36 -64 84 -64q43 0 90 47t77.5 106t35.5 103q10 72 10 111q0 52 -13.5 97t-47.5 118q-50 102 -115 102q-45 0 -86.5 -50t-66.5 -124 l-19 -69q-20 -95 -20 -146z"/>
            <glyph unicode="7" horiz-adv-x="706"
                   d="M-119 1274q0 9 8 33q29 61 170 61q1 0 125 -8q54 -4 76 -4q98 0 184 43h2q7 14 23 26q16 13 41 13q11 0 31 -4q57 -20 57 -56v-2q-8 -119 -53.5 -381.5t-96 -525t-57.5 -311.5q-23 -148 -108 -148h-7q-71 5 -71 162q0 38 5 86.5t10 82t12 72.5t8 44q8 48 53.5 286.5 t58.5 298.5q8 29 21 98.5t20 100.5q-14 -2 -45 -2q-52 0 -117 10q-15 2 -48 7.5t-60.5 8.5t-52.5 3q-54 0 -101 -21q-32 -18 -45 -18q-17 0 -30 16t-13 29z"/>
            <glyph unicode="8" horiz-adv-x="698"
                   d="M-33 289l2 37q1 7 11 53q24 174 223 348q-162 225 -162 436q0 24 4 78q13 98 94.5 158.5t179.5 60.5q76 0 136 -40.5t84 -116.5q14 -41 14 -142q0 -61 -18 -119q-18 -61 -74 -151q-1 -4 -10 -17l-50 -102l23 -43q118 -156 158 -293q28 -89 28 -174q0 -111 -55 -166 q-52 -54 -123 -83t-147 -29l-29 2q-156 12 -229 123q-60 83 -60 180zM72 287q0 -140 155 -197q24 -8 62 -8l30 2q49 15 77.5 55.5t31.5 100.5l2 39q0 89 -34.5 161t-125.5 197q-84 -84 -129 -143q-69 -93 -69 -207zM186 1208q0 -139 103 -313l35 -45l63 102q46 110 59 224 l3 43q0 109 -54 137q-35 18 -67 18q-54 0 -95 -39.5t-47 -97.5v-29z"/>
            <glyph unicode="9" horiz-adv-x="714"
                   d="M-82 874q0 69 10.5 141t34.5 146t60 131.5t91.5 94t123.5 36.5q83 0 147.5 -25t106.5 -67.5t69.5 -104t39 -130t11.5 -150.5q0 -115 -22 -244q-31 -178 -91.5 -343.5t-121.5 -254.5q-56 -83 -113 -102q-18 -6 -37 -6q-32 0 -53.5 16t-21.5 43l4 21q3 10 44.5 42t47.5 40 q35 45 59.5 113.5t33 116t19.5 126.5q-64 -106 -163 -106q-36 0 -73 15t-74.5 51t-66.5 88t-47 133t-18 179zM39 907q0 -178 55 -293q48 -102 115 -102q45 0 86.5 50t66.5 124q14 42 19 70q20 95 20 180q0 185 -71 315q-35 66 -84 66q-62 0 -125 -92t-72 -164 q-10 -82 -10 -154z"/>
            <glyph unicode=":" horiz-adv-x="518"
                   d="M315 242v6q4 29 33.5 48t69.5 19h16q84 -6 84 -71v-8q-3 -32 -27 -55t-61 -23h-12q-44 3 -73.5 28t-29.5 56zM315 694v6q4 30 33.5 49t69.5 19h16q41 -3 62.5 -22t21.5 -50v-8q-3 -32 -27 -55t-61 -23h-12q-44 3 -73.5 28t-29.5 56z"/>
            <glyph unicode=";" horiz-adv-x="534"
                   d="M348 694v6q3 30 32 49t69 19h16q86 -6 86 -72v-8q-5 -33 -28.5 -55.5t-61.5 -22.5h-12q-42 3 -71.5 28t-29.5 56zM350 51q0 3 15 33q1 2 6.5 9.5t7.5 10.5t6 9.5t6 10.5t4 10t3 11t1 11q0 17 -10 32q-22 29 -22 54v6q3 29 28 48t60 19h12q28 -3 49 -22t25 -51v-13 q0 -56 -72 -118q-1 -1 -10.5 -9.5t-11 -9.5t-10 -8.5t-11.5 -9t-10.5 -7t-11.5 -7.5l-11 -5.5t-13 -5.5t-13 -4h-7q-10 0 -10 6z"/>
            <glyph unicode="&#x3c;" horiz-adv-x="686"
                   d="M176 504q0 29 23 55q97 119 340 248q42 22 77 22q46 0 46 -45l-3 -14q-2 -16 -11.5 -31.5t-29 -31t-30.5 -23.5t-37.5 -24t-28.5 -17q-19 -12 -73 -51q-3 -2 -40 -26.5t-53 -41.5q-14 -14 -14 -28q0 -21 31 -52q26 -29 70.5 -61.5t82 -66t60.5 -76.5q16 -32 16 -54v-6 q-3 -37 -35 -37q-23 0 -57 27q-31 25 -100 78t-117.5 92.5t-65.5 60.5q-51 59 -51 103z"/>
            <glyph unicode="=" horiz-adv-x="905"
                   d="M344 686q0 18 12.5 32.5t30.5 14.5l301 -2q151 0 205 4h6q21 0 33 -15t12 -36t-14 -35t-41 -14h-2q-45 1 -254.5 2t-235.5 2q-53 3 -53 47zM367 401q0 18 12.5 31.5t30.5 13.5l303 -2q135 0 202 5h7q21 0 34 -15t13 -33q0 -20 -15 -34.5t-43 -14.5h-2q-33 1 -148.5 1.5 t-216.5 1.5t-124 3q-27 1 -40 13.5t-13 29.5z"/>
            <glyph unicode="&#x3e;" horiz-adv-x="598"
                   d="M264 784q0 45 45 45q36 0 78 -22q246 -131 342 -248q21 -27 21 -55q0 -43 -52 -103q-17 -21 -63.5 -59t-120 -95t-98.5 -77q-34 -27 -56 -27q-31 0 -34 37v8q0 27 14 52q31 56 110.5 116.5t102.5 87.5q31 31 31 52q0 13 -15 28q-12 13 -26.5 24t-34 24t-29.5 20 q-54 39 -73 51q-4 2 -29 17t-37 23.5t-31.5 24t-29.5 31t-13 31.5z"/>
            <glyph unicode="?" horiz-adv-x="727"
                   d="M287 1153q2 20 18 47q35 51 86.5 88t104.5 37q151 0 228 -78.5t77 -230.5q0 -59 -21.5 -108t-67 -115t-65.5 -103q-10 -19 -48 -65t-48 -74q-6 -14 -6 -43q0 -14 3 -43t3 -43l-2 -25q-6 -41 -31 -68.5t-55 -27.5q-41 0 -64 55q-12 27 -12 125q0 107 12 131 q31 61 107 167.5t100 176.5q12 44 12 93q0 106 -51 165q-24 27 -57 27q-36 0 -72 -23t-51 -53q-19 -37 -25 -45q-13 -20 -34 -20l-11 2q-11 4 -20.5 21t-9.5 30zM373 86v6q3 30 31.5 49t68.5 19h16q84 -6 84 -68v-12q-3 -33 -26.5 -55.5t-61.5 -22.5h-12q-43 3 -71.5 27.5 t-28.5 56.5z"/>
            <glyph unicode="@" horiz-adv-x="1179"
                   d="M12 625q0 142 35 252.5t94 181.5t143 117t175 65t198 19q228 0 376.5 -140.5t148.5 -371.5v-37q-3 -59 -13.5 -113.5t-32.5 -111t-63.5 -99.5t-97.5 -63q-33 -13 -60 -13q-67 0 -117 59t-73 154q-33 -65 -47 -108q-35 -71 -51 -92q-56 -68 -119 -68q-25 0 -41 8 q-57 24 -98 84.5t-66 132.5q-16 52 -16 123q0 39 8 121q11 111 51 186q21 41 65 77t87 46q21 6 41 6q67 0 143 -61q10 -5 23 -21.5t14 -29.5q0 4 1 19.5t2 22t3 20.5t4.5 21t7 17.5t10.5 16.5t15 11.5t20 8.5l19 2q22 0 40.5 -10t22.5 -29l2 -22l-2 -27l-12 -420v-14 q0 -47 11 -92.5t32 -61.5q19 -16 43 -16q47 0 113 84q65 89 73 252v20q0 98 -31.5 184.5t-91 152.5t-152.5 104t-208 38q-143 0 -258 -75t-179.5 -207.5t-64.5 -296.5q0 -90 31.5 -172.5t80 -140.5t108 -103t113.5 -68.5t97 -29.5q66 -8 103 -8q88 0 169 20.5t124 52.5 q11 8 20 8t15 -6.5t6 -15.5q0 -13 -15 -25q-45 -44 -142.5 -77t-211.5 -33q-24 0 -82 4q-38 6 -80 16.5t-96.5 33t-104 52.5t-98.5 76.5t-84.5 103.5t-57.5 136t-22 170zM434 592q0 -106 33 -201q13 -47 45 -47q34 0 78 55q18 26 73.5 188t55.5 193q-5 65 -41 112.5 t-100 53.5h-5q-34 0 -69 -49q-41 -64 -60 -192q-10 -46 -10 -113z"/>
            <glyph unicode="A"
                   d="M49 66q0 35 18.5 91.5t44.5 118t29 70.5l129 377q152 455 183 545q34 95 99 154t150 59q38 0 82 -15q29 -11 47.5 -35.5t26.5 -63t11.5 -67t3.5 -76.5t1 -63q6 -222 15 -459q0 -52 2 -81l6 -250q1 -11 11 -94.5t10 -126.5q0 -68 -21 -101q-32 -51 -70 -51 q-42 0 -76.5 58.5t-43.5 117.5q-18 123 -21 197q-8 188 -8 229q0 12 -2 16q-4 7 -55 7q-38 0 -97 -3.5t-117.5 -8.5t-60.5 -5q-42 -148 -59 -196l-66 -191q-1 -3 -6 -18.5t-8.5 -25.5t-9.5 -29t-12 -32.5t-14 -30.5t-16 -29t-17.5 -22.5t-19.5 -16t-20 -5.5q-20 0 -39 19 q-10 13 -10 37zM381 723q74 4 115 4h30q129 0 129 23q9 58 9 114q0 61 -10.5 185.5t-10.5 187.5l2 20q0 62 -27 62q-15 0 -36 -25t-33 -55q-17 -41 -46 -125t-46 -125q-22 -58 -29 -92q-8 -32 -25 -86q-17 -61 -22 -86v-2z"/>
            <glyph unicode="B" horiz-adv-x="1034"
                   d="M31 1341q0 32 43 56t84 33q187 48 272 57q78 8 117 8q117 0 194 -43q67 -34 113 -102q51 -73 51 -170l-2 -15q-3 -102 -55 -180q-63 -92 -133 -129q-60 -34 -88 -39h-4v-2q131 -13 254 -115q53 -45 79 -120q25 -73 25 -152l-2 -35q-3 -44 -20.5 -84t-49 -74.5t-61.5 -60 t-72 -55.5q-42 -31 -97.5 -54.5t-95.5 -35t-108 -27.5q-93 -20 -176 -20q-123 0 -158 51q-28 38 -37 137q-6 68 -6 135l2 133q0 39 11.5 269.5t17.5 298.5q3 31 7 131.5t11 150.5q-10 -2 -34 -2q-48 0 -70 25q-12 15 -12 30zM295 195q0 -55 22 -79t86 -24h15q57 1 122 34.5 t117 78.5q57 50 91 124t40 154l3 19q0 50 -19 102q-17 56 -70 88q-62 35 -118 49q-77 15 -121 15q-35 0 -72 -6l-43 -7l-24 -6l-5 -2l-5 -108q-1 -33 -7 -115.5t-6 -126.5v-35q0 -33 -3 -85t-3 -70zM324 831q3 3 8 3h2l8 2q37 8 98 34q67 31 142 86q60 42 94 115 q31 74 37 137l2 17q0 37 -15 71q-15 43 -51 62q-49 24 -121 24h-16q-69 -2 -176 -36q10 -49 10 -123q0 -49 -6.5 -139.5t-7.5 -102.5z"/>
            <glyph unicode="C" horiz-adv-x="1003"
                   d="M102 694q0 151 31 312q10 59 23 106q37 110 109.5 202.5t168.5 129.5q87 35 176 35q183 0 252 -146q37 -80 37 -170q0 -46 -16 -78q-19 -36 -43 -36q-25 0 -45.5 39.5t-24.5 76.5q0 3 -2 17t-2.5 19t-2.5 17.5t-3.5 18.5t-4 16.5t-5.5 17.5t-6.5 16t-8.5 16 q-35 63 -100 63q-62 0 -109 -47q-52 -47 -90 -105.5t-59.5 -111t-37.5 -126t-22.5 -125t-13.5 -134.5l-4 -84q0 -234 86 -379q53 -87 160 -127q44 -14 78 -14q62 0 114 34q66 47 105 117q14 25 30.5 68t28.5 65q5 13 20.5 30.5t26.5 18.5q13 0 19 -6q19 -12 22 -28v-9 q0 -32 -15.5 -78.5t-35.5 -82.5q-61 -114 -173.5 -181t-240.5 -67q-49 0 -88 8q-55 11 -102.5 45t-79.5 77.5t-58.5 102t-41.5 109t-27 106.5q-25 117 -25 252z"/>
            <glyph unicode="D" horiz-adv-x="1112"
                   d="M29 1362q0 32 44 57t85 33q190 48 280 59q67 5 74 5q56 0 139 -17q17 -3 66 -20q53 -23 114 -74q107 -84 154 -201q50 -124 68 -321q6 -50 6 -101q0 -48 -6 -100q-1 -15 -11 -98q-14 -120 -22 -152q-24 -98 -37 -125q-25 -56 -73 -102.5t-117 -95.5q-62 -44 -133 -69.5 t-177 -51.5q-106 -25 -182 -25q-148 0 -158 88q-28 76 -28 258q0 33 1 77.5t1 49.5q0 41 11 277.5t17 304.5q3 31 8.5 136t12.5 157q-27 -6 -51 -6q-51 0 -74 26q-12 15 -12 31zM317 174q0 -51 9 -98q3 -8 24 -8q30 0 82 11t66 17q84 27 172 101q78 65 123.5 162t56.5 206 q18 155 18 260q0 85 -10 144q-14 106 -58.5 198t-119.5 154q-84 70 -170 70q-49 0 -152 -29q11 -56 11 -125q0 -49 -7 -138.5t-8 -105.5l-20 -362q-2 -48 -4 -145.5t-4 -145.5q-1 -19 -5 -77t-4 -89z"/>
            <glyph unicode="E" horiz-adv-x="858"
                   d="M29 1333q0 17 14.5 33t37 27t41 18t36.5 12q249 58 653 97h6q32 0 49 -27q13 -19 13 -35q0 -61 -203 -72q-209 -8 -310 -26q2 -14 3 -41q4 -45 4 -164q0 -141 -7 -319q39 7 142.5 22.5t148.5 24.5l19 2q24 0 39.5 -10t15.5 -27q0 -31 -53 -64q-18 -11 -42 -15t-58 -4 t-46 -1q-135 -9 -170 -16q-4 -102 -10 -243t-9.5 -231.5t-4.5 -128.5q0 -40 -4 -63q1 4 151.5 18t192.5 17q2 0 53 8t78 8q30 0 41 -8q16 -16 16 -35t-14.5 -38.5t-34.5 -28.5q-34 -15 -96 -19q-39 -1 -162 -7t-190 -7q-19 -1 -60.5 -8t-62.5 -7q-59 0 -84 52 q-31 63 -31 170q0 40 5 116t5 109q16 382 31 559q3 31 6.5 119.5t7.5 134.5l9 76q-1 0 -22 -9.5t-29.5 -12.5t-25 -7t-28.5 -4q-33 0 -49 22q-12 18 -12 33z"/>
            <glyph unicode="F" horiz-adv-x="870"
                   d="M29 1348q0 33 44 57t87 33q211 50 661 100h6q33 0 52 -29q10 -15 10 -34q0 -23 -25.5 -39t-64.5 -22t-66.5 -8.5t-50.5 -2.5q-204 -8 -311 -29q4 -24 4 -41q4 -94 4 -166q0 -145 -6 -323q50 9 157.5 25.5t135.5 21.5l18 2q24 0 39.5 -10t15.5 -27q0 -32 -53 -63 q-32 -19 -100 -19h-45q-118 -8 -172 -18q-4 -103 -10.5 -246.5t-10.5 -234.5t-4 -130q0 -157 -98 -165h-4q-101 0 -101 317l4 127q0 40 11.5 270.5t17.5 298.5q4 35 8 124.5t8 129.5l9 80q-5 -2 -30.5 -13.5t-43 -16.5t-33.5 -5q-31 0 -51 23q-12 18 -12 33z"/>
            <glyph unicode="G" horiz-adv-x="974"
                   d="M102 713q0 161 31 325q11 68 25 109q37 111 110.5 205t171.5 133q84 35 166 35h15q185 0 256 -148q41 -88 41 -182q0 -44 -15 -74q-18 -33 -41 -33q-18 0 -32 22.5t-17 51.5q-3 34 -24 92t-41 92q-36 64 -103 64q-63 0 -113 -47q-64 -59 -107 -130.5t-66 -160.5 t-33 -154.5t-19 -173.5q-4 -29 -4 -90q0 -109 23 -213t65 -176q33 -57 95 -95t128 -38q37 0 62 10q45 17 79.5 61t53 103.5t27.5 109.5t14 103l4 59q0 31 -6 58l-76 -2h-35q-13 0 -44 -2t-48 -2q-74 0 -86 45l-2 14q0 51 133 51l51 -2q78 -8 115 -8l47 2q53 0 53 -82v-16 l-2 -51q0 -137 -33.5 -263.5t-111.5 -208.5q-104 -110 -277 -110q-51 0 -90 8q-57 11 -105 45.5t-81 79t-59.5 104t-42 111.5t-27.5 109q-25 119 -25 260z"/>
            <glyph unicode="H" horiz-adv-x="997"
                   d="M78 688l4 25q6 20 60.5 39t54.5 20q12 234 16 277q2 23 6.5 141t17 185t39.5 93q24 21 56 21l18 -2q21 -3 41.5 -16.5t26.5 -32.5q14 -49 14 -168q0 -115 -22 -449q113 21 226.5 34t145.5 13h4l9 127q2 128 23 278.5t59 178.5q43 31 94 31q71 0 71 -90q0 -29 -6.5 -65 t-15 -71.5t-10.5 -44.5q-46 -327 -49 -573q0 -156 8 -248q0 -3 12 -84t12 -129q0 -124 -69 -147q-8 -4 -31 -4q-30 0 -57 16t-39 43q-10 28 -13 70q-10 188 -10 354q0 118 6 229q-18 -2 -44 -3.5t-31 -2.5q-207 -6 -287 -33l-17 -4q-10 -140 -10 -196l4 -117q0 -29 -4 -89 t-4 -120q0 -164 -98 -172h-4q-105 0 -105 334l2 127q0 6 3 39.5t6.5 81t5.5 80.5q-52 -13 -70 -13q-49 0 -49 37z"/>
            <glyph unicode="I" horiz-adv-x="409"
                   d="M205 332l2 125q16 406 31 587q2 23 6.5 140.5t17 185.5t39.5 94q19 19 57 19h19q20 -4 41 -17.5t26 -33.5q17 -72 16 -162q0 -46 -9 -221q-33 -491 -33 -564v-16q2 -37 2 -88q0 -31 -3 -92t-3 -121q0 -164 -101 -172h-6q-102 0 -102 336z"/>
            <glyph unicode="J" horiz-adv-x="802"
                   d="M143 387v2q0 18 15.5 30.5t34.5 12.5q22 0 39 -15.5t20 -47.5q1 -16 2 -55t3 -63t12.5 -53.5t29.5 -47.5q56 -52 127 -52q39 0 66 21q18 14 26 31q39 60 39 198q0 192 12 487t13 476q0 162 98 172h6q102 0 102 -334l-2 -127q-2 -99 -7.5 -203.5t-8.5 -183.5l-2 -137 q0 -69 -2 -111.5t-14.5 -100t-36.5 -102.5q-83 -163 -232 -180l-49 -4q-170 0 -252 154q-29 56 -39 233z"/>
            <glyph unicode="K" horiz-adv-x="1101"
                   d="M246 340l2 127q2 56 15 300t18 310q2 22 7 145.5t17.5 192.5t40.5 96q21 21 60 21h18q22 -3 43 -17t27 -34q14 -52 14 -172q0 -72 -4.5 -164.5t-13 -220t-11.5 -176.5q0 -3 6 -3q18 0 81 14.5t71 18.5q84 39 160 111q68 63 113.5 166t58.5 205q14 92 26 120q27 64 90 64 h17q61 -5 61 -86q0 -34 -24 -133q-42 -153 -84 -230l-35 -57q-69 -99 -172 -176q-13 -9 -88 -51t-96 -56q55 -83 203.5 -274.5t197.5 -237.5q1 -1 11 -9.5t14.5 -12.5t14 -13t14.5 -15.5t11 -15t8.5 -16.5t2.5 -16q0 -16 -15 -31q-47 -41 -106 -41q-49 0 -95.5 24.5 t-80.5 63.5q-94 107 -193 293q-3 6 -20.5 39t-24.5 45t-25 38.5t-32 39t-35.5 25t-44.5 16.5l-4 -45l6 -129q0 -31 -4 -93t-4 -124q0 -170 -105 -180h-4q-108 0 -108 354z"/>
            <glyph unicode="L" horiz-adv-x="892"
                   d="M168 270q0 33 2 99.5t2 97.5q15 395 31 588q3 32 7.5 143.5t16.5 181t39 95.5q22 20 62 20h14q21 -4 42 -17.5t26 -33.5q12 -52 12 -164q0 -62 -4 -153.5t-7.5 -147.5t-12 -177t-9.5 -140q-6 -102 -6 -162v-21q2 -33 2 -114q0 -106 -6 -259q31 2 83 4t60 3l223 22 q4 0 59.5 8.5t82.5 8.5q31 -3 41 -11q16 -13 16 -32q0 -21 -16 -43t-37 -31q-29 -15 -100 -19q-49 -2 -175 -8.5t-194 -7.5q-15 -1 -62 -4.5t-73 -3.5h-17q-42 3 -58 20.5t-26 63.5q-18 81 -18 194z"/>
            <glyph unicode="M" horiz-adv-x="1540"
                   d="M135 326l2 127q3 66 14.5 301t16.5 299q3 31 7.5 145.5t17 185.5t40.5 97q22 20 62 20h14q60 -14 70 -51q12 -46 13 -168q0 -97 -11.5 -323t-10.5 -230q10 36 47.5 209.5t51.5 218.5q23 78 74 154q24 36 43 53q33 29 76 29q24 0 57 -13q55 -24 86 -92q43 -88 53 -213 q4 -45 4 -135v-254l-2 -80l4 8q9 17 19.5 60.5t11.5 48.5l31 111q49 183 63 219q87 243 219 395q66 72 150 72q59 0 105.5 -37.5t64.5 -104.5q18 -66 18 -164q0 -13 -6 -190q-1 -68 -8.5 -195t-9.5 -182q-4 -54 -4 -82v-33q0 -32 2 -111t2 -120q0 -133 -21 -203 q-9 -34 -37.5 -58t-60.5 -24q-15 0 -21 2q-77 21 -77 265q0 39 2 94.5t2 66.5v39q0 72 5.5 151.5t15 180.5t13.5 152q2 35 16.5 125.5t14.5 140.5v10q0 90 -35 117q-15 12 -32 12q-82 0 -196 -285q-4 -9 -5 -12q-51 -122 -90 -260q-45 -162 -74 -315q-6 -28 -13 -81.5 t-9 -68.5q-1 -6 -8 -62.5t-15 -84.5q-19 -73 -63 -88l-23 -4q-54 0 -72 34q-12 22 -12 62q0 121 -8 371q-2 47 -6.5 193t-11.5 244.5t-21 192.5q-4 22 -8 31q-9 25 -35 25q-18 0 -33 -15q-16 -22 -26 -51q-7 -21 -20.5 -59t-23.5 -70t-16 -61q-54 -227 -102 -445 q-26 -118 -46 -221q-6 -33 -10 -70t-8 -83.5t-6 -69.5q-12 -130 -100 -137h-6q-105 0 -105 344z"/>
            <glyph unicode="N" horiz-adv-x="1028"
                   d="M135 326l2 125q15 393 31 587q2 23 6.5 140t17 184.5t39.5 93.5q24 21 60 21h14q22 -3 43 -17.5t25 -34.5q20 -74 19 -278q0 -129 -5 -273q28 107 47 160q88 241 215 387q75 82 166 82l31 -2q33 -6 66 -29.5t46 -52.5q31 -65 43 -213q13 -211 13 -485q-1 -61 -7.5 -182 t-7.5 -181q0 -21 5.5 -77.5t5.5 -87.5q0 -98 -39 -142q-45 -45 -88 -45q-15 0 -27 6q-27 17 -47 119q-14 62 -14 158l2 125v188q0 189 8 283q4 44 5.5 107.5t1.5 143.5t1 109q0 109 -47 109q-35 0 -85 -54.5t-75 -107.5q-92 -193 -145 -389q-47 -165 -72 -307 q-6 -28 -12.5 -79.5t-9.5 -68.5q-3 -20 -4 -69.5t-5 -92.5t-13.5 -88.5t-35 -74.5t-65.5 -33h-4q-105 0 -105 336z"/>
            <glyph unicode="O" horiz-adv-x="1038"
                   d="M143 698q0 139 31 322q10 63 25 106q35 110 108 203.5t170 132.5q87 35 178 35q186 -3 252 -147q5 -10 16.5 -34.5t16.5 -34.5t13.5 -30t12.5 -33.5t9 -32.5t8 -38q20 -125 26.5 -197.5t6.5 -195.5q-6 -236 -31 -344q-25 -125 -86 -226q-53 -95 -138.5 -144.5 t-191.5 -49.5q-49 0 -90 8q-55 11 -103 45t-80 78t-59 102.5t-42 109.5t-27 107q-25 131 -25 258zM342 635q0 -107 22.5 -209.5t63.5 -173.5q33 -56 95 -93.5t126 -37.5q92 0 142 76q31 55 38 73q38 87 62 196.5t24 199.5v10q0 305 -43 489q-12 53 -37.5 102t-67 85.5 t-87.5 36.5q-56 0 -111 -52q-52 -48 -90.5 -108t-60 -112.5t-37 -129.5t-21.5 -126.5t-14 -135.5q-4 -58 -4 -90z"/>
            <glyph unicode="P" horiz-adv-x="952"
                   d="M147 840l3 184l-3 213q0 197 43 242q22 24 62 24h14q23 -2 45.5 -15.5t28.5 -33.5q4 -24 4 -139v-154q47 96 100 185q31 52 78.5 83t106.5 31l26 -2q75 -8 144 -60.5t92 -121.5q33 -106 33 -207l-2 -63q-1 -15 -11 -82q-20 -119 -69.5 -211t-136.5 -172q-51 -46 -156 -86 q-74 -19 -107 -19q-52 0 -98 27q7 -97 15.5 -169t14.5 -108l7 -36v-35q0 -142 -94 -158h-11q-26 0 -46.5 22t-33.5 62.5t-21.5 83.5t-13 97.5t-6.5 92.5t-3.5 81t-1.5 50zM330 643q0 -55 23 -88t85 -37h17q50 0 93 21t72.5 54t52 77t34.5 87.5t18 88.5q6 38 6 74v90 q0 80 -8 145q-8 49 -33.5 100.5t-62.5 59.5q-8 2 -21 2q-39 0 -65 -29q-33 -29 -60 -74q-120 -200 -143 -471q-1 -8 -4.5 -44t-3.5 -56z"/>
            <glyph unicode="Q" horiz-adv-x="983"
                   d="M143 692q0 141 31 320q11 65 23 104q37 110 109 202.5t167 131.5q90 35 178 35q182 -3 250 -148q4 -9 16.5 -33.5t16.5 -33.5t13 -29.5t13 -33.5t9 -32t8 -38q37 -249 47 -402v-14q0 -107 -45 -315q-30 -132 -86 -224q0 -4 -4 -8l10 -8q4 -3 39 -22t56 -37.5t24 -38.5 q0 -15 -4 -23q-11 -27 -35 -27q-26 0 -77.5 43t-61.5 43l-4 -2q-108 -114 -273 -114q-47 0 -86 8q-55 11 -102.5 45.5t-79.5 78t-58.5 101.5t-41.5 108.5t-27 106.5q-25 131 -25 256zM340 633q0 -107 22.5 -210.5t63.5 -174.5q33 -55 94.5 -92t124.5 -37q70 0 117 47 q-18 15 -35.5 29.5t-26.5 22t-16 15.5q-45 52 -45 82q0 15 4 23q12 37 45 37l14 -2q21 -4 41 -27t42 -58.5t28 -43.5q8 16 10 24q38 87 62 194t24 197v11q0 304 -43 485q-17 82 -69.5 151.5t-120.5 69.5q-57 0 -111 -51q-43 -40 -76.5 -85t-56 -97.5t-37 -97.5t-25 -109 t-15.5 -106t-11 -113z"/>
            <glyph unicode="R" horiz-adv-x="870"
                   d="M143 174l2 107l2 192q0 5 -1 160.5t-1 249.5v151l2 60l-2 137q0 200 41 246q22 24 62 24h12q22 -2 44.5 -14.5t27.5 -32.5q4 -18 4 -287q53 108 98 181q69 112 178 112l27 -2q73 -8 139.5 -59t89.5 -119q33 -98 33 -190l-4 -74q-4 -52 -10 -78q-7 -60 -33 -135 q-50 -132 -168 -238q-14 -13 -40 -28.5t-60 -33t-43 -22.5q-4 -2 -4 -10q0 -22 50.5 -81.5t111.5 -124t71 -77.5q3 -4 41.5 -39.5t68 -72t29.5 -60.5q0 -38 -75 -41h-7q-34 0 -66.5 16t-61.5 46t-50.5 57.5t-48.5 66t-41 56.5q-12 14 -44.5 57.5t-55.5 71.5t-57 57.5 t-64 38.5q1 -22 9.5 -117t8.5 -147q0 -77 -16 -129q-12 -45 -78 -45q-35 0 -65 16.5t-41 47.5q-15 47 -15 106zM324 664q0 -84 51 -109q18 -3 39 -10l14 -2q71 0 136.5 60t104.5 143.5t48 166.5q8 62 8 131q0 250 -113 275l-16 2q-35 0 -68 -29q-32 -28 -59 -73 q-120 -199 -139 -457q-6 -93 -6 -98z"/>
            <glyph unicode="S" horiz-adv-x="874"
                   d="M141 1057q0 149 105 272q63 73 156 119.5t184 46.5q162 0 235 -147q43 -92 43 -183q0 -40 -12 -67q-19 -39 -43 -39t-45.5 40t-26.5 77q-17 101 -39 135q-41 69 -104 69q-64 0 -127 -63q-94 -97 -94 -223q0 -35 10 -80q9 -39 25.5 -71.5t43.5 -61t48 -47.5t58.5 -49 t55.5 -46q195 -165 203 -348v-33q0 -234 -170 -333q-66 -41 -158 -41q-61 0 -116 18q-99 29 -168 98q-53 61 -53 103q0 14 6 26q17 25 39 25q18 0 39 -15t47 -43t28 -30q64 -57 142 -57q35 0 67 16q54 30 74 77t22 117v5q0 61 -35.5 123.5t-86.5 113.5q-24 23 -90 89.5 t-105 101.5q-129 115 -152 241q-6 30 -6 64z"/>
            <glyph unicode="T" horiz-adv-x="1007"
                   d="M25 1280q0 75 270 142q7 2 10 3q75 20 203 43q14 7 39 7q141 23 420 51h6q34 0 53 -29q12 -18 12 -35q0 -66 -215 -76q-177 -10 -190 -12q2 -41 3 -145q0 -209 -19 -624.5t-19 -440.5q0 -30 -2.5 -52t-11 -52t-30 -47.5t-54.5 -20.5h-6q-103 0 -103 336l2 123 q15 393 31 587q5 38 9.5 143t10.5 154q-54 -14 -130.5 -36.5t-77.5 -22.5q-2 -1 -27.5 -9.5t-44 -14.5t-44.5 -11.5t-44 -5.5q-32 0 -39 12q-12 15 -12 33z"/>
            <glyph unicode="U" horiz-adv-x="944"
                   d="M115 485q0 77 4 187t8 190.5t4 85.5q10 220 10 277t-2 86q-1 8 -3.5 27.5t-2.5 29.5q0 33 36.5 70t86.5 37q27 0 49 -19q9 -9 15 -26.5t8 -32t3.5 -37.5t2.5 -29q14 -89 14 -225v-59q0 -115 -21.5 -327t-21.5 -317q0 -55 6 -114q1 -7 3.5 -34t5 -42t8.5 -38.5t14 -36.5 t22 -23.5t33 -10.5q25 2 48 16t38 31.5t31 47.5t23.5 48.5t19.5 49.5q66 169 101.5 360t60.5 433q3 30 7.5 144.5t17 185t40.5 96.5q23 20 56 20l20 -2q24 -4 45.5 -16.5t22.5 -32.5q8 -88 8 -201l-6 -252q-4 -180 -6 -401t-6 -412l2 -86q0 -61 -22.5 -100t-66.5 -39 q-35 0 -57.5 19.5t-32.5 57t-13 70.5t-3 80q0 66 1 104.5t3.5 88t3.5 100.5q-13 -33 -53 -159t-74 -191q-70 -128 -137 -158q-55 -22 -98 -22q-62 0 -112.5 38.5t-80.5 99.5t-45.5 129.5t-15.5 135.5z"/>
            <glyph unicode="V" horiz-adv-x="866"
                   d="M141 1323q0 87 25 119q19 27 70 31q25 -2 48 -11.5t27 -27.5q28 -121 66 -438t66 -579t36 -278q4 -4 6 -4q13 0 31 37q7 11 13 22t11.5 26.5t8 23.5t8 27t6.5 24q40 135 72 287t48.5 257.5t39.5 278.5q29 194 37 291q1 11 2 30t2 28.5t6 22t16 19.5t29 11l19 2 q47 0 47 -76q0 -21 -11 -90q-25 -119 -65 -397t-76 -427q-43 -181 -94 -313q-2 -6 -9.5 -25t-11 -27.5l-10.5 -25.5t-12.5 -27t-13.5 -23t-16.5 -24t-18.5 -20q-24 -24 -62 -39.5t-75 -15.5q-43 0 -68 22q-36 32 -64 133q-7 22 -12.5 48t-9.5 44.5t-8.5 50.5t-6.5 45.5 t-6.5 50.5t-5.5 46q-50 441 -59 586q-1 31 -13 141t-12 164z"/>
            <glyph unicode="W" horiz-adv-x="1349"
                   d="M143 700q0 166 19 359q2 22 6.5 136t17 179t39.5 90q24 21 62 21h14q23 -4 45 -17.5t23 -31.5q6 -76 5 -195q0 -116 -12 -471l5 -84l-5 -100q0 -4 -2 -56.5t-2 -93.5q0 -317 105 -317h10q27 4 51 23t43.5 52.5t29.5 54t24 54.5q18 50 41 194t35 242.5t18 159.5 q2 22 6.5 136.5t17 179.5t39.5 90q23 20 56 20l20 -2q23 -4 45 -16.5t23 -30.5l4 -90q0 -42 -4 -127t-4 -127v-172q0 -88 -3 -174q0 -5 -2 -59.5t-2 -96.5q0 -311 105 -311h10q34 6 69 47.5t56 83.5t33 80q47 146 65 346q14 122 31 424q12 280 12 284l-2 50q0 25 9.5 40 t37.5 23q6 2 19 2q53 0 53 -113q0 -23 -6 -83q-4 -44 -23.5 -325t-44.5 -441q-88 -543 -354 -543q-35 0 -68 8q-76 18 -131 102q-65 112 -65 164l2 15q-12 -35 -47 -107q-70 -120 -140 -149q-64 -25 -110 -25q-67 0 -117.5 43.5t-80.5 111t-49 163t-25.5 186.5t-6.5 194z "/>
            <glyph unicode="X" horiz-adv-x="899"
                   d="M143 106q0 17 4 23q14 33 66.5 88.5t65.5 75.5q81 117 151 244q-113 369 -172 524q-19 52 -29.5 83t-22 70.5t-20.5 67.5q-12 46 -12 72q0 43 27 73q43 46 78 46q36 0 63 -41q31 -45 61.5 -123t49 -141.5t43.5 -157t34 -125.5l29 -109q18 36 71 164.5t110.5 271 t68.5 168.5q3 7 8 22.5t8 22t8.5 17t11.5 15t16 8t22 3.5h10q26 -1 36.5 -13t10.5 -34q0 -31 -43 -125q-39 -87 -103.5 -237.5t-93.5 -214.5q-63 -142 -102 -213q14 -47 36 -98t53.5 -115t45.5 -94q4 -8 25 -49t36 -72t28.5 -72t13.5 -68q0 -30 -15 -45q-28 -28 -78 -28h-8 q-31 2 -56.5 14.5t-42 27t-34 43.5t-26 46.5t-23.5 52.5q-39 88 -82 234q-74 -113 -147 -207q-1 -2 -11.5 -16l-18 -24t-20.5 -26.5t-24.5 -28.5t-24.5 -23.5t-25 -17.5t-22 -6q-11 0 -22 11q-13 16 -13 36z"/>
            <glyph unicode="Y" horiz-adv-x="862"
                   d="M143 1352q0 46 25 71q42 45 80 45q34 0 61 -41q31 -44 62 -123t48 -137.5t44 -160.5t33 -123q1 -3 30 -107q23 47 131 313.5t117 286.5q11 25 16 35t15 26t22.5 22.5t28.5 6.5h4q47 -3 47 -45q0 -34 -45 -127q-21 -49 -90 -210.5t-104 -239.5q-3 -8 -36.5 -96.5 t-56.5 -135.5v-32q0 -90 -6 -238.5t-6 -173.5q0 -162 -98 -170h-6q-84 0 -84 223q0 52 5 127.5t5 83.5q0 109 4 162q-19 33 -84.5 232t-79.5 233q-20 52 -29.5 82.5t-20.5 70t-19 66.5q-13 50 -13 74z"/>
            <glyph unicode="Z" horiz-adv-x="1013"
                   d="M147 74v2q0 42 54 152t133.5 249.5t208 387t241.5 495.5l-174 2q-160 0 -215 -6q-9 -1 -55.5 -4t-71.5 -11q-40 -10 -51 -10q-27 0 -43 19q-8 11 -8 30q0 24 16 43q37 37 135 37h54q126 4 188 4h68q41 0 122.5 2t122.5 2h41q25 0 41 -4t25 -8t16.5 -20t10.5 -24.5 t10 -37.5q2 -6 2 -20q0 -8 -1.5 -17t-5.5 -19t-7 -16.5l-9 -19.5t-8 -18q-22 -45 -291.5 -544.5t-314.5 -586.5q12 -1 33 -2.5t38 -2.5t33 -1l50 -2q55 0 157 8q36 2 106.5 10.5t96.5 8.5q51 0 59 -21q9 -21 9 -37q0 -18 -11.5 -30.5t-35 -19t-47 -9t-60.5 -4.5 q-31 -1 -117.5 -7t-142.5 -6q-132 0 -301 -18l-21 -2q-77 0 -80 76z"/>
            <glyph unicode="[" horiz-adv-x="653"
                   d="M418 436q0 655 39 953q13 75 75 75q34 0 54 -4q123 0 211 -10q12 -2 22 -14t10 -27q0 -38 -71 -51q-11 -2 -40 -2.5t-45.5 -2.5t-31 -16.5t-14.5 -42.5v-18q0 -40 -10.5 -254t-10.5 -320l8 -620q2 -62 60 -62q14 0 37 3.5t30 3.5q70 -4 72 -52q0 -53 -207 -53h-45 q-28 0 -49 11.5t-34.5 29.5t-24 50.5t-16 63.5t-11.5 79q-8 60 -8 280z"/>
            <glyph unicode="\" horiz-adv-x="483"
                   d="M-197 1243q0 23 15 43.5t28 20.5q24 0 42 -3.5t27.5 -6.5t17.5 -14.5t10 -15.5t7 -21.5t7 -22.5q44 -113 137.5 -369.5t145.5 -411.5q7 -20 43.5 -137.5t60.5 -173.5q4 -8 14 -29.5t15.5 -37t9.5 -31.5l2 -25q0 -48 -29 -71q-26 -23 -49 -23q-21 0 -41 17t-36 50 t-26 56.5t-22 61t-12 38.5q-20 65 -107.5 329.5t-113.5 348.5q-30 101 -80 235.5t-62 172.5z"/>
            <glyph unicode="]" horiz-adv-x="479"
                   d="M-16 -25q0 39 71 50h8q8 0 31 -2.5t35 -2.5q62 0 64 62q6 255 6 639q0 105 8 308.5t8 242.5v16q-3 42 -20.5 58t-47.5 16q-13 0 -36.5 -2t-34.5 -2h-13q-73 11 -73 49q0 14 11 26.5t24 14.5q106 12 223 12q20 4 53 4q27 0 50 -17.5t24 -55.5q1 -69 6.5 -232.5t5.5 -267.5 q0 -117 -2 -191q-3 -113 -5 -288.5t-5 -243.5q-5 -59 -12.5 -99.5t-22 -76t-39 -53t-59.5 -17.5h-6q-17 1 -68.5 3t-87.5 5t-62 7q-13 2 -23.5 13t-10.5 25z"/>
            <glyph unicode="^" horiz-adv-x="645"
                   d="M-135 420q0 18 12 39q41 75 147 303t115 260q8 22 44.5 45t72.5 23q46 0 68 -39q23 -38 90.5 -167t139 -267t79.5 -154q12 -24 12 -53q0 -63 -55 -80l-17 -2q-17 0 -33 10.5t-25.5 22t-23.5 32t-20 27.5q-30 39 -70.5 113.5t-69.5 137t-58 127.5t-31 68q-17 35 -33 35 q-12 0 -23 -16.5t-23.5 -44.5t-21.5 -41q-38 -56 -200 -410q-9 -20 -29 -20q-18 0 -32.5 14.5t-14.5 36.5z"/>
            <glyph unicode="_" horiz-adv-x="1351"
                   d="M184 55q0 19 33.5 32.5t99.5 14.5l967 9q66 0 99.5 -14t33.5 -34q0 -25 -42.5 -44t-108.5 -19q-103 0 -504.5 4t-458.5 4q-53 0 -86 14.5t-33 32.5z"/>
            <glyph unicode="`" horiz-adv-x="247"
                   d="M-29 1614q0 21 39 33q18 6 41 6q22 0 51 -11q91 -38 119 -129q8 -62 8 -69q0 -32 -18 -37l-8 -2l-10 2q-50 18 -116.5 76t-101.5 121z"/>
            <glyph unicode="a" horiz-adv-x="929"
                   d="M106 481q0 39 9 154q17 153 65 246q30 55 84.5 100.5t112.5 62.5q27 9 53 9q88 0 184 -78q91 -76 113 -201q0 7 1.5 36t2.5 38.5t2.5 34.5t3.5 36t5 31.5t6.5 31.5t8.5 25t11 23.5t14 16.5q18 18 52 18h18q22 -4 42.5 -16.5t23.5 -30.5q6 -68 6 -144q0 -141 -17.5 -389 t-17.5 -303q0 -154 -94 -164h-4q-99 0 -99 312l2 82q-31 -94 -67 -168q-26 -65 -84 -135q-72 -91 -154 -91q-24 0 -53 13q-73 31 -126.5 112t-80.5 172q-23 76 -23 166zM295 457q0 -131 41 -262q20 -64 55 -64q37 0 90 68q49 68 68 123q31 84 69.5 213t38.5 172v4 q-2 84 -48 148t-128 71h-4q-49 0 -92 -66q-48 -79 -76 -256q-14 -69 -14 -151z"/>
            <glyph unicode="b" horiz-adv-x="1024"
                   d="M236 342l2 115q18 449 28 571q2 23 7 138.5t16.5 180.5t38.5 89q23 20 57 20h12q22 -4 43.5 -17.5t22.5 -31.5q6 -76 6 -203q0 -207 -14 -508q41 110 123 248q73 117 184 117l26 -2q75 -9 142.5 -60.5t91.5 -121.5q33 -100 33 -197l-4 -84q-30 -346 -306 -539 q-79 -57 -178 -57q-97 0 -149 66q-24 -53 -78 -58h-6q-98 0 -98 334zM469 274q0 -63 29.5 -110t85.5 -51h12q57 0 106 38t79.5 96t49 114.5t25.5 105.5q8 46 8 65q2 25 2 70q0 74 -12 154q-6 46 -32 98.5t-62 60.5q-9 3 -19 3q-38 0 -67 -29q-33 -29 -60 -74 q-143 -241 -143 -508v-12q-2 -4 -2 -21z"/>
            <glyph unicode="c" horiz-adv-x="735"
                   d="M42 588q24 244 153 401q53 63 119 80q22 6 45 5q42 0 80 -20q59 -32 91 -108q34 -71 34 -134q0 -23 -5 -46q-11 -45 -32 -45q-8 0 -17 6q-25 19 -31 74t-12 69q-12 26 -30 43.5t-41 23t-44 -16.5q-46 -45 -67.5 -105t-34.5 -145q-9 -72 -12.5 -124.5t-3.5 -123.5 t12.5 -133t38.5 -111q28 -59 72 -72q11 -3 22 -3q35 0 74 30q15 11 27 22.5t23 27.5t17.5 24t17 30.5t13 27.5t14.5 33.5t13 31.5q13 35 30 39q17 9 35 -9q14 -10 14 -28q0 -26 -24 -93q-26 -73 -51 -110q-80 -114 -181 -127q-17 -2 -34 -2q-65 0 -130 36q-83 46 -122 120 q-78 151 -78 338q0 46 5 94z"/>
            <glyph unicode="d" horiz-adv-x="997"
                   d="M141 487q0 63 11 156q18 164 67 258q30 57 87.5 105t117.5 65q24 6 51 6q94 0 195 -80q71 -60 102 -147l10 184q2 23 7 138t16.5 181t38.5 91q22 20 59 20h15q21 -4 42.5 -17.5t24.5 -31.5q4 -49 4 -188q0 -200 -17.5 -604t-17.5 -449q0 -160 -98 -170h-6 q-100 0 -100 326l2 84q-21 -71 -68 -178q-49 -91 -90 -140q-77 -92 -158 -92q-28 0 -55 12q-52 22 -97.5 74t-73 107.5t-44.5 113.5q-25 79 -25 176zM336 461q0 -135 45 -275q19 -63 57 -63q36 0 92 70q45 59 72 124q113 326 113 402v4q-2 88 -51 154t-134 73h-4 q-56 0 -94 -67q-23 -36 -40 -88.5t-22.5 -80t-17.5 -96.5q-16 -85 -16 -157z"/>
            <glyph unicode="e" horiz-adv-x="661"
                   d="M53 510q0 135 40.5 261.5t115.5 217.5q75 84 162 84q54 0 99.5 -32.5t72.5 -94.5q41 -87 41 -158q0 -122 -135 -219q-86 -63 -201 -82v-43q0 -162 49 -260q39 -73 96 -73q37 0 72 28q32 25 56.5 61t34.5 58.5t32 77.5q14 33 30 39l11 2q15 0 24 -12q15 -11 15 -25v-2 q0 -26 -25.5 -96t-50.5 -105q-76 -114 -178 -127l-31 -2q-74 0 -145 44.5t-107 111.5q-78 156 -78 346zM254 582q66 12 127 51q40 25 78 63q30 30 30 101q0 53 -18 88q-9 21 -28.5 35t-39.5 14q-19 0 -36 -14q-47 -45 -68.5 -104t-34.5 -144z"/>
            <glyph unicode="f" horiz-adv-x="649"
                   d="M33 854q5 26 16 37t37 12l31 -4q6 53 6 105v96q0 143 47 237q79 162 223 181q20 2 37 2q71 0 135 -34t99 -93q33 -53 47 -199q0 -20 -13.5 -31.5t-35.5 -11.5h-5q-19 0 -34.5 15.5t-18.5 45.5q-2 12 -5 39t-5.5 40.5t-8 34t-16 36.5t-26.5 31q-46 37 -84 37h-6 q-33 0 -64 -25q-12 -8 -29 -29q-32 -56 -32 -164v-108l-2 -180q132 22 182 24q44 -3 60.5 -13.5t19.5 -45.5q0 -42 -39 -45l-51 2q-75 -3 -174 -17q0 -99 -6.5 -279t-6.5 -292v-84q-1 -32 -3.5 -50t-10.5 -49.5t-29 -49t-53 -21.5l-4 -2q-101 0 -111 338q0 104 11 465 q-24 1 -33.5 2t-22.5 5.5t-17.5 14.5t-4.5 27z"/>
            <glyph unicode="g" horiz-adv-x="847"
                   d="M-74 473q0 54 8 156q17 159 68 258q30 56 88 104.5t119 67.5q24 8 53 8q93 0 193 -82q55 -46 86 -106v8q1 24 2 38.5t7 41t15.5 42.5t28.5 30t45 16h6q100 0 100 -328l-2 -127q-2 -95 -13.5 -294t-14.5 -281v-129q0 -100 -10.5 -174.5t-45.5 -139.5q-79 -158 -227 -178 l-29 -2q-73 0 -138.5 36t-98.5 97q-36 65 -45 199v2q0 18 15 30.5t34 12.5q22 0 38.5 -16t20.5 -48q1 -6 2.5 -28t2.5 -29.5t3.5 -26t6 -27.5t9 -23t13.5 -25t19 -21q41 -41 90 -41q32 0 65 23q20 16 27 30q17 25 26 63.5t10 63.5t1 68q1 130 20 614q-9 -28 -53 -135 q-40 -81 -90 -141q-77 -92 -160 -92q-28 0 -55 12q-76 31 -132 116t-83 181q-25 76 -25 176zM123 446q0 -143 43 -276q20 -66 59 -66q33 0 92 70q50 73 72 129q35 100 74 231.5t39 174.5v2q-3 88 -51.5 154t-133.5 73h-4q-51 0 -96 -68q-22 -36 -38.5 -87t-23.5 -84t-18 -95 q-14 -71 -14 -158z"/>
            <glyph unicode="h" horiz-adv-x="862"
                   d="M111 356l2 119q16 429 30 598q2 22 7 142t17.5 188.5t39.5 95.5q19 19 55 19h19q23 -4 44.5 -17.5t22.5 -34.5v-49q0 -58 -22 -919l71 141q51 105 146 272q27 45 80 84q49 37 100 37q46 0 80 -32t41 -87q8 -63 8 -141q0 -64 -4 -190q0 -15 -2 -23q0 -79 -9.5 -226.5 t-11.5 -207.5q0 -74 -30 -102q-20 -17 -43 -17q-18 0 -35 10q-20 12 -34 37.5t-21 65t-10.5 67.5t-5.5 73t-3 52q-2 31 -2 90q0 73 8 219t8 218v16q-2 7 -12 12q-5 0 -11.5 -6t-11.5 -13t-11 -16t-7 -10q-18 -25 -35 -56.5t-36 -72.5t-29 -59q-42 -80 -94 -201 q-24 -57 -57.5 -179t-39.5 -142q-16 -97 -94 -105h-4q-104 0 -104 350z"/>
            <glyph unicode="i" horiz-adv-x="358"
                   d="M123 193l2 55q7 83 15 234t12 206q1 19 2 80t3.5 97t16.5 81.5t41 71.5q20 20 51 20l21 -2q22 -4 43 -17t22 -32q6 -77 6 -160q0 -138 -17 -370.5t-17 -290.5q0 -163 -97 -174h-6q-98 0 -98 201zM213 1284v2q3 21 22.5 34t47.5 13h10q55 -6 55 -47v-8q-2 -21 -18 -37 t-41 -16h-8q-30 1 -49 18.5t-19 40.5z"/>
            <glyph unicode="j" horiz-adv-x="505"
                   d="M-492 -231q0 18 15.5 30.5t34.5 12.5q22 0 38.5 -16t20.5 -48q1 -7 2.5 -28.5t2.5 -29.5t3.5 -26t6 -27.5t9 -23.5t14 -25t19.5 -22q43 -43 90 -43q34 0 64 24q15 10 29 31q35 54 39 185v12q0 186 17 554.5t17 555.5q0 162 99 170h6q102 0 102 -330l-2 -127 q-2 -97 -14 -276t-15 -261q-1 -53 -1.5 -114t-2 -115t-14 -112.5t-37.5 -106.5q-82 -161 -229 -178l-35 -2q-72 0 -137.5 36t-98.5 97q-34 60 -43 201v2zM-51 1305v6q1 20 20 33.5t45 13.5l15 -2q59 -3 59 -49v-4q-3 -22 -18.5 -38t-40.5 -16h-11q-30 1 -49.5 17.5 t-19.5 38.5z"/>
            <glyph unicode="k" horiz-adv-x="808"
                   d="M180 332v18q6 560 19 717q2 23 6.5 142t17 188t39.5 96q23 20 53 20l21 -2q24 -4 45 -17t23 -34q0 -84 -3 -268l-6 -207q0 -164 -6 -250q80 62 291 244q23 20 57 20q19 0 29 -10q20 -17 20 -47q0 -17 -6 -29q-5 -12 -88.5 -86t-164.5 -143l-81 -68q90 -111 225.5 -308.5 t135.5 -250.5q0 -26 -16 -37q-36 -20 -64 -20q-11 0 -22.5 3.5t-19 7.5t-18 14t-15 15t-16.5 18.5t-15 17.5q-27 30 -60.5 71t-53 66t-68 88.5t-62.5 81.5l-4 -205q0 -165 -99 -176q-22 0 -38 12.5t-26 38t-16.5 53t-9 70t-3.5 75t-1 81.5z"/>
            <glyph unicode="l" horiz-adv-x="442"
                   d="M217 330l4 131q0 46 12 287t19 309q2 27 6 144t16 186t39 96q23 20 54 20l20 -2q24 -4 46 -17t22 -32v-53q0 -139 -14.5 -649.5t-14.5 -581.5q0 -30 -2.5 -52.5t-11 -52.5t-30.5 -48.5t-56 -22.5h-4q-105 0 -105 338z"/>
            <glyph unicode="m" horiz-adv-x="1308"
                   d="M123 289q0 54 3 126.5t3 80.5q1 17 1 66.5t1.5 101t5.5 96.5l4 94v51q0 60 7 96t32 62q23 20 72 20l22 -2q24 -4 45 -17.5t21 -35.5v-49q0 -19 -16 -483q6 14 28.5 71.5t34.5 81.5q79 159 143 266q27 50 74 82q49 37 101 37q45 0 76.5 -30.5t37.5 -85.5q10 -56 10 -138 l-7 -209v-49l44 90q60 116 142 252q24 42 77 78q46 35 97 35q46 0 78.5 -29t39.5 -82q9 -64 9 -129q0 -1 -6 -178v-18q-1 -88 -10 -229.5t-11 -194.5q0 -69 -33 -97q-17 -14 -41 -14q-14 0 -30 8q-17 9 -29.5 30.5t-19.5 42.5t-12 55.5t-6.5 53t-3 54t-1.5 39.5q-2 29 -2 90 q0 84 7.5 222.5t8.5 195.5q0 10 -2 14q-2 6 -10 10q-16 0 -41 -41q-18 -23 -34 -50.5t-35.5 -68t-26.5 -53.5q-61 -113 -92 -207q-24 -70 -76 -297q-3 -53 -31 -81q-20 -17 -43 -17q-13 0 -33 8q-19 12 -32 38t-19.5 63.5t-9.5 67t-5 71t-3 51.5q-4 66 -4 96q0 88 8.5 236 t9.5 209q0 10 -2 14q-3 8 -10 12q-6 0 -12.5 -6t-11.5 -12.5t-10.5 -15t-6.5 -9.5q-23 -33 -59 -106t-40 -80q-35 -70 -90 -199q-21 -62 -51.5 -184t-44.5 -160q-19 -86 -88 -94h-6q-86 0 -86 283z"/>
            <glyph unicode="n" horiz-adv-x="833"
                   d="M143 289q0 52 3.5 124.5t3.5 80.5q1 17 1 66t1.5 101t5.5 97l4 94v51q0 62 7 97.5t32 60.5q20 22 75 22h19q24 -6 45 -20t22 -35v-31q0 -172 -18 -503l66 153q59 127 141 271q24 41 78 81q46 35 96 35q46 0 79 -30.5t40 -85.5q8 -60 8 -140q0 -30 -2 -93t-2 -93 q0 -15 -2 -21q0 -95 -9 -249t-11 -203q-1 -27 -2 -39t-8.5 -31t-20.5 -31q-19 -16 -43 -16q-15 0 -31 8q-14 9 -25 25t-18.5 40t-12 44.5t-7.5 52t-4.5 48t-3 46.5t-1.5 35q-2 33 -2 96q0 89 8 238t9 209q0 12 -2 16q-3 8 -11 12q-5 0 -11.5 -6t-11.5 -13t-11 -16t-7 -10 q-18 -25 -34.5 -56t-34.5 -71t-27 -57q-46 -87 -92 -199q-25 -57 -56 -189.5t-40 -158.5q-8 -37 -30 -63.5t-58 -30.5h-7q-88 0 -88 287z"/>
            <glyph unicode="o" horiz-adv-x="823"
                   d="M-16 524q12 92 53 201q50 133 121 201q64 66 211 104q46 12 93 12q2 0 4 1q45 0 88 -11q45 -11 81 -41t53 -76q8 -21 14 -48.5t9 -47t5 -57t2.5 -49.5t1.5 -55t1 -46q1 -13 1 -27q0 -33 -5 -73q-9 -83 -17 -134.5t-29.5 -120t-54.5 -118.5q-65 -101 -166 -137 q-50 -18 -100 -19t-102 19q-102 38 -170 139q-63 95 -85 193q-14 62 -14 123q0 34 5 67zM184 578q-3 -70 -3 -131q0 -101 9 -175q8 -88 105 -143q38 -20 72.5 -22.5t61.5 10t51 38t42 56.5t33.5 70t25 74t17.5 73q9 54 12 88q10 84 10 151q0 120 -32 187q-22 44 -92 54 q-17 2 -33 3q-55 0 -111 -24q-74 -31 -102 -90q-24 -52 -34 -76.5t-19.5 -62t-12.5 -80.5z"/>
            <glyph unicode="p" horiz-adv-x="960"
                   d="M111 -168l2 129q14 389 28 633q2 27 7 153t16 199.5t37 100.5q22 22 55 22l16 -2q21 -4 42 -18t24 -35q6 -79 6 -203l-2 -145q57 149 133 274q75 115 178 115l29 -4q74 -6 142.5 -58.5t93.5 -122.5q30 -89 30 -198q0 -45 -2 -68q-2 -4 -2 -12q-31 -348 -305 -537 q-80 -57 -174 -57q-91 0 -143 55q-13 -394 -13 -403q0 -177 -96 -187h-4q-98 0 -98 369zM367 272q0 -64 28.5 -110t85.5 -49h13q56 0 104.5 37.5t79 94.5t49 113t25.5 105q3 22 8 67q2 23 2 68q0 74 -12 154q-8 49 -33 100t-62 59l-18 2q-36 0 -68 -28q-25 -25 -59 -76 q-141 -240 -141 -504v-12q-2 -6 -2 -21z"/>
            <glyph unicode="q" horiz-adv-x="860"
                   d="M-98 502q0 55 8 157q18 166 70 263q30 58 88 106.5t120 65.5q24 8 56 8q92 0 192 -82q89 -71 117 -184q8 199 51 245q23 23 58 23h18q21 -4 43 -19.5t25 -37.5q6 -85 6 -218q0 -230 -18.5 -696t-18.5 -518q0 -186 -101 -197h-6q-102 0 -102 389l2 134l22 528 q-27 -109 -79 -223q-44 -86 -93 -144q-32 -40 -74 -66t-85 -26q-29 0 -58 13q-76 32 -133 118t-84 181q-24 76 -24 180zM100 473q0 -145 43 -278q22 -66 60 -66q37 0 94 72q51 67 72 127q33 90 73.5 226.5t40.5 182.5v4q-2 91 -51 157.5t-135 72.5h-8q-53 0 -92 -68 q-23 -37 -40 -88.5t-24 -84.5t-18 -95q-15 -79 -15 -162z"/>
            <glyph unicode="r" horiz-adv-x="720"
                   d="M160 293l4 557l-2 43v26q0 43 5 71q7 38 32 63q20 22 73 22l23 2q20 0 42.5 -15t22.5 -36q2 -86 3 -180q0 -158 -7 -340q42 101 92 201.5t80 150.5l29 51q27 50 76 86q33 27 78 27q25 1 41.5 -12.5t23.5 -37t9.5 -45.5t3 -48.5t2.5 -36.5l2 -21q1 -21 -5.5 -35.5t-17 -20 t-17.5 -7.5t-12 -2l-6 -2q-29 -1 -46 17t-20 40t-5 40t-5 17q-16 0 -43 -45l-100 -207q-47 -95 -81 -185.5t-46 -135.5t-26 -113t-15 -73q-6 -21 -11 -34.5t-14.5 -29.5t-25 -24t-35.5 -9q-29 -1 -49 20.5t-30.5 63t-15.5 88t-7 109.5z"/>
            <glyph unicode="s" horiz-adv-x="579"
                   d="M4 174q0 22 14 39q13 16 33 16q21 0 45 -18.5t49.5 -45.5t34.5 -34q45 -31 76 -31q41 0 63.5 43t22.5 101q0 48 -14 80q-13 32 -39.5 60t-64 58t-54.5 47q-92 99 -117 201q-10 48 -10 84q0 131 94 236q77 86 178 86q59 0 109 -33.5t78 -97.5q2 -4 10 -21t12.5 -27 t8.5 -25.5t4 -27.5q0 -24 -17 -41q-18 -18 -33 -18q-17 0 -34 24.5t-29 53.5t-31 53.5t-39 24.5q-22 0 -45 -23q-57 -51 -57 -129q0 -54 33 -115q30 -51 95.5 -110.5t88.5 -87.5q73 -94 80 -160q2 -14 2 -45q0 -74 -25 -144q-22 -68 -98.5 -109.5t-157.5 -41.5l-32 2 q-20 2 -58 18.5t-78 40.5t-69 56t-29 61z"/>
            <glyph unicode="t" horiz-adv-x="563"
                   d="M-94 1208q0 20 11.5 33.5t33.5 13.5q31 0 90.5 -2t87.5 -2q6 101 17.5 165t37.5 89q21 21 60 21q29 0 55 -12.5t27 -38.5q0 -120 -2 -222h194q21 0 32 -13t11 -32q0 -20 -12.5 -35t-34.5 -16l-192 -2q-27 -923 -27 -960q0 -167 -98 -177h-4q-105 0 -105 349q6 399 33 714 q4 46 4 74l-172 2q-22 1 -34.5 16t-12.5 35z"/>
            <glyph unicode="u" horiz-adv-x="866"
                   d="M143 616l13 244q3 56 18 105q18 38 55 53q36 8 50 8q79 0 88 -96q-11 -101 -13 -148q-4 -63 -4 -204q0 -139 6 -256q12 -116 21 -172q15 -37 37 -37h4q24 0 43 37q173 377 211 751q6 27 6 53q4 44 8 62q12 98 98 98l27 -2q46 -6 59 -39q11 -26 11 -55l-7 -109 q-6 -68 -11.5 -291t-6.5 -239q-2 -23 -2 -70q0 -42 3.5 -119t4.5 -100q0 -47 -10 -67q-3 -6 -10 -13q-14 -14 -39.5 -22t-46.5 -8q-29 0 -48 20t-28 57t-12.5 75.5t-3.5 90.5l2 142q0 47 -2 63l-19 -57l-35 -97q-7 -25 -32 -86q-27 -71 -72 -133q-56 -65 -131 -65l-29 2 q-90 18 -133 108l-37 117q-33 149 -33 399z"/>
            <glyph unicode="v" horiz-adv-x="825"
                   d="M82 918v18q0 119 96 129l17 2q20 0 35.5 -9t24.5 -21t16 -32.5t10.5 -36t7.5 -38.5t6 -33q12 -52 32.5 -119t26.5 -88q68 -265 103 -389q21 -63 47 -117q1 5 25.5 95t50 185.5t52.5 204t38 162.5q24 114 45 164q26 70 59 70h4q11 0 27 -8q20 -14 20 -47q0 -24 -12 -69.5 t-12 -47.5q-9 -50 -106 -395.5t-124 -423.5q-38 -92 -98 -92q-52 0 -92 73q-42 76 -99.5 224t-64.5 165q-1 3 -72 213q-55 153 -63 261z"/>
            <glyph unicode="w" horiz-adv-x="1163"
                   d="M143 553v35q2 46 7 100.5t13 124t11 100.5q12 99 47 140q10 12 33 22l20 4q42 0 78 -28q21 -18 21 -54l-6 -61q-2 -49 -15.5 -169.5t-13.5 -180.5q0 -14 0.5 -60.5t1 -65t1.5 -59.5t3 -65.5t5 -59t7.5 -64.5t10.5 -60q5 -16 6 -17l8 -4q6 0 14 9.5t13 20t10 23.5l6 13 q26 123 71 364.5t66 345.5l8 49q17 80 82 80h13q40 -5 55 -30q33 -30 39 -103q18 -280 20 -356q5 -176 15 -258q1 -12 6 -59.5t7.5 -65.5t11.5 -49.5t22 -55.5l10 -2q4 0 6 2q6 1 16 17q65 88 103 235q36 135 55 291q12 113 25 354q5 43 14 58q21 24 41 24q18 0 31 -16 q4 -4 4 -6q8 -12 12 -45q6 -53 6 -107q0 -93 -22 -276q-17 -137 -62 -285q-48 -168 -108 -285q-18 -36 -53.5 -62.5t-73.5 -27.5h-10q-88 0 -150 131q-23 44 -39.5 108t-34 153t-32.5 143q0 -2 -11.5 -60.5t-22 -112.5t-14.5 -69q-11 -49 -19.5 -78.5t-31.5 -70t-53 -60.5 q-42 -22 -76 -22q-94 0 -141 155q-66 201 -66 408z"/>
            <glyph unicode="x" horiz-adv-x="817"
                   d="M143 37v10q3 14 11 27t22 30t19 23q11 17 33 47t30 41l64 90q2 3 16.5 22t26.5 36.5t12 21.5v2l-15 37q-41 94 -109.5 301t-72.5 260v10q0 73 53 86q27 6 52 6q49 0 77 -26t48 -74q11 -28 53 -173.5t59 -211.5q87 142 215 391q24 48 49 78q18 23 39 23h2q22 0 33.5 -17 t11.5 -39q0 -14 -6 -26q-134 -265 -301 -527v-4q12 -38 26 -74.5t34.5 -78.5t33 -67t40 -76.5t36.5 -69.5q25 -48 25 -70q0 -9 -4 -25q-9 -33 -49 -47q-21 -8 -43 -8q-48 0 -101 53q-24 25 -41 54.5t-34.5 71t-28.5 61.5l-35 69q0 -9 -51 -77q-24 -41 -51 -78 q-2 -3 -17 -27.5t-21.5 -33t-21 -26t-28 -26t-29.5 -12.5l-15 -2q-25 0 -38 16q-9 15 -9 29z"/>
            <glyph unicode="y" horiz-adv-x="886"
                   d="M119 590l12 244q3 47 19 104q17 36 55 51q24 8 51 8q77 0 86 -94q-10 -89 -12 -147q-6 -94 -6 -205q0 -102 8 -254q9 -125 20 -174q15 -37 37 -37h4q26 3 41 37q168 360 213 772q4 32 4 53q4 20 8 60q12 98 99 98l26 -2q49 -6 62 -39q8 -28 8 -53l-2 -25q0 -49 -4 -84 l-6 -127v-31q0 -47 -3 -114.5t-3 -77.5v-4q-2 -27 -2 -76l-11 -446q-1 -52 -1.5 -112.5t-2 -113.5t-14 -111.5t-37.5 -105.5q-80 -157 -223 -174l-31 -2q-72 0 -136 35.5t-99 97.5q-34 63 -43 197v2q0 18 14 29.5t33 11.5q22 0 38.5 -16t20.5 -48q1 -7 2.5 -28t2.5 -29 t3 -25t5.5 -26.5t9 -23t13.5 -24.5t19 -22q44 -41 88 -41q35 0 66 25q20 16 27 28q17 26 25.5 65t9.5 62.5t1 67.5q0 98 3.5 205.5t10 243.5t9.5 204l-51 -151q-18 -50 -33 -84q-26 -68 -72 -133q-54 -66 -129 -66l-30 2q-90 15 -134 107l-36 116q-33 149 -33 400z"/>
            <glyph unicode="z" horiz-adv-x="770"
                   d="M90 1016q0 35 62 45q120 16 268 16q45 0 107 -6t106 -6q43 -2 63 -17t23 -61q0 -27 -9 -62t-24.5 -79t-19.5 -58q-17 -51 -130.5 -279.5t-205.5 -402.5q115 -2 125 -2l141 2q1 0 40 5.5t64 5.5q45 0 68.5 -13.5t26.5 -48.5q0 -45 -56 -45l-47 2q-4 0 -127 -6l-137 -2 q-77 0 -221 4q-48 0 -74.5 24.5t-26.5 63.5q0 26 21 70q299 629 340 741q3 7 16 36t15 32q-33 2 -101 2q-136 0 -245 -16h-2q-19 0 -39.5 18.5t-20.5 36.5z"/>
            <glyph unicode="{" horiz-adv-x="647"
                   d="M258 606q0 21 6 33q8 18 34 28t34 21q16 19 16 57l-4 52q-14 157 -14 282q0 155 24 226q18 53 60 89.5t83 50t78 13.5h15q19 -2 33 -9t14 -17q0 -11 -21 -23q-8 -5 -29.5 -8.5t-31.5 -9.5q-34 -24 -49 -62q-17 -40 -21 -135q0 -86 -4 -258l2 -113q0 -74 -16 -123 q-1 -3 -20 -39t-19 -45v-2q4 -9 21 -22q39 -31 52 -74t13 -102v-103q0 -41 -2 -61q-10 -78 -10 -92q0 -33 8 -54q20 -59 88 -88q9 -4 46.5 -10.5t47.5 -17.5q4 -4 4 -13q0 -14 -20.5 -32t-38.5 -25q-18 -6 -39 -6q-13 0 -41 4q-93 19 -162 119q-49 71 -49 229q0 31 1.5 64.5 t3.5 68t3 47.5v25q0 56 -18 72q-9 8 -32.5 11.5t-31.5 10.5q-14 11 -14 41z"/>
            <glyph unicode="|" horiz-adv-x="516"
                   d="M301 145l2 35q8 115 11.5 337t4.5 255l3 150q0 78 -2.5 231.5t-2.5 226.5q0 66 34.5 102t78.5 36q32 0 55 -20t23 -54v-357q0 -186 -2 -276q0 -93 6 -269.5t6 -269.5q0 -151 -20 -227q-6 -21 -33.5 -33t-61.5 -12q-64 0 -81 39q-21 50 -21 106z"/>
            <glyph unicode="}" horiz-adv-x="636"
                   d="M33 -10q10 11 47.5 17.5t46.5 10.5q67 28 88 88q6 16 8 36.5t0.5 35t-4.5 38.5t-4 36q-2 23 -2.5 66t-1.5 57q0 45 1 62.5t6 52.5t19.5 58.5t38.5 43.5q17 13 21 22q2 5 -6.5 22.5t-19.5 38t-13 25.5q-11 32 -14 70.5t-1 92t1 73.5q-1 43 -2 129t-2 129q0 85 -21 135 q-17 43 -49 62q-10 6 -30.5 9.5t-28.5 8.5q-29 18 -16.5 32.5t40.5 16.5q26 2 58.5 -4.5t68 -23t66.5 -49.5t45 -76q19 -57 21.5 -172.5t-2 -193t-11.5 -142.5q-6 -85 12 -109q8 -11 34 -21t34 -28q9 -14 7.5 -38.5t-15.5 -35.5q-8 -7 -31.5 -10.5t-32.5 -11.5 q-22 -19 -16 -97q1 -12 4.5 -67t4 -90t-2 -86t-14.5 -93t-33 -73q-72 -101 -164 -119q-45 -10 -78 2q-25 9 -47.5 31.5t-9.5 38.5z"/>
            <glyph unicode="~" horiz-adv-x="706"
                   d="M80 668q66 153 235 153q48 -2 92 -20t80.5 -35.5t67.5 -17.5q61 3 111 26q21 11 41 0.5t21.5 -30.5t-19.5 -42q-114 -97 -244 -71q-30 6 -71.5 23.5t-80 26.5t-82.5 3q-19 -3 -37 -12.5t-27.5 -18t-22 -21.5t-15.5 -16q-23 -19 -40.5 5.5t-8.5 46.5z"/>
            <glyph unicode="&#xa1;" horiz-adv-x="468"
                   d="M199 944q-3 32 26 58.5t74 29.5q43 6 70 -18t32 -60q3 -33 -19 -54.5t-67 -25.5q-44 -5 -78.5 15.5t-37.5 54.5zM207 657q0 61 14 80q23 29 80.5 29t79.5 -31q12 -18 20 -63q12 -102 8.5 -310.5t10.5 -310.5q12 -117 6 -164q-10 -80 -59 -106q-14 -5 -19 -8 q-33 -14 -71 -2.5t-46 49.5q-4 22 -6.5 77t-5.5 152t-6 160q-11 265 -6 448z"/>
            <glyph unicode="&#xa2;" horiz-adv-x="899"
                   d="M152 575q0 143 38 261q41 126 109 202q59 71 137 80q0 18 1 46t1 40l-2 39q0 20 15 41q13 23 34 23q5 0 17 -4q3 -2 20 -19l10 -33q0 -75 -2 -118v-33q33 -18 70 -62q64 -79 64 -190q-1 -10 -7 -53q-6 -21 -26 -21q-8 0 -17 6q-19 14 -26 37q-4 15 -8 45q-3 31 -15 58 q-12 24 -33 45q-2 0 -4 2v-23q1 -60 3.5 -232.5t3.5 -273.5q0 -213 2 -293q33 8 73 58q43 54 84 131q37 76 49 108q2 2 2 4q3 6 14 30.5t17 39.5q14 34 29 100q6 34 18 58q20 26 45 26q41 0 41 -53q0 -19 -6 -37q-50 -176 -131 -331q-1 -1 -2 -3.5t-2 -3.5 q-40 -88 -109 -157q-54 -57 -120 -66v-14q0 -53 -9 -109q-9 -59 -32 -73l-13 -5q-7 0 -22 9q-24 21 -33 61q-1 3 -2 8.5t-2 7.5v13q-2 4 -2 20q0 28 4 78v8q-71 14 -125 72q-78 81 -115 203q-36 115 -36 247zM350 539q0 -85 15 -168q13 -86 49 -152q1 -2 6.5 -10.5 t9.5 -11.5q0 9 -1 29t-1 30q-2 41 -2 119q0 88 4 440q0 23 1 66t1 63q-34 -46 -49 -98q-22 -71 -25 -137q-8 -71 -8 -170z"/>
            <glyph unicode="&#xa3;" horiz-adv-x="727"
                   d="M-41 762q9 47 49 53q40 3 96 12v4q9 190 35 291q40 144 148 193q67 31 168 31q143 -9 198 -101q6 -15 6 -31q-9 -55 -49 -55q-35 0 -65 43q-27 35 -88 35h-23q-100 0 -121 -184q-13 -122 -10 -207l182 6q43 -9 43 -47q-9 -43 -47 -43q-78 0 -180 -6q-2 -174 -27 -480 l-8 -155h41q10 -2 29 -2h41q8 -1 24 -2t23 -2q104 0 238 16q60 8 118 8q51 0 66 -18q8 -16 8 -33q0 -36 -41 -45q-48 -13 -135 -16q-138 -9 -240 -9q-120 0 -231 -18q-67 0 -94 41q-45 68 -45 231l6 181l26 284l-16 -2q-40 -18 -86 -18q-39 9 -39 45z"/>
            <glyph unicode="&#xa4;" horiz-adv-x="763"
                   d="M156 440q0 25 71 84q-40 52 -51 99q-14 46 -14 100q0 59 18 121l13 41q18 39 57 71q-1 1 -2 3.5t-2 3.5q-36 47 -39 51q-17 27 -17 33q9 43 48 43q23 0 38 -21q26 -31 50 -65l28 10q52 12 105 12q45 0 86 -12q23 -10 41 -25q32 36 51 55q21 21 29 31q12 12 12 15 q24 12 35 12q43 -9 43 -47q0 -5 -17 -29q-23 -32 -34 -45q-30 -34 -66 -68q5 -10 8 -22q14 -65 15 -70q4 -36 4 -78q0 -11 -4 -65q-6 -46 -15 -66q-9 -32 -37 -75q25 -25 39 -43l43 -50v-12q-6 -43 -51 -43q-6 0 -25 19q-18 15 -41 38q-20 20 -30 35q-54 -32 -139 -32l-50 4 q-34 8 -49 14l-26 -12l-9 -9q-12 -12 -20 -18q-5 -5 -25 -20q-4 -2 -9 -5.5t-8.5 -6t-6.5 -3.5h-4q-43 9 -43 47zM291 727q0 -79 53 -147q53 -50 115 -50q50 0 84 43q1 1 3 4.5t3 4.5t3 4t3 4q31 73 37 149l2 39q0 63 -29 129q-28 60 -100 60q-13 0 -33 -4q-34 -8 -63 -37 q-29 -33 -43 -64q-35 -65 -35 -135z"/>
            <glyph unicode="&#xa5;" horiz-adv-x="974"
                   d="M41 465q0 15 22 31q18 13 70 16l227 2q0 9 1 27t1 26q-7 12 -20 49q-78 0 -113 2h-106q-36 0 -60 17q-22 16 -22 31q0 14 22 30q20 14 70 17l174 2q0 1 -35 108q-35 109 -59 176q-5 15 -13 35t-12.5 33.5l-7.5 22.5q-1 4 -8.5 28t-11.5 37q-2 14 -13 47q-10 38 -10 66 q0 52 35 82q36 28 61 28q35 0 58 -39q48 -75 84 -186q36 -119 61 -219q2 -6 27 -98q8 -24 26 -99q28 58 68 156q9 22 42.5 103t51.5 126q55 138 70 170q2 2 2 6q15 37 27 54q16 22 43 22q51 0 51 -41q0 -19 -10 -49q-4 -9 -12 -25.5t-11 -23.5l-8 -18q-68 -151 -103 -232 q-52 -126 -79 -186q-8 -19 -21 -56l-8 -24l207 2q49 0 69 -14q23 -16 23 -33q0 -20 -29 -43q-27 -21 -78 -21q-89 0 -161 2h-74q-2 -4 -6 -13t-6 -13v-70l262 4q49 0 69 -14q23 -16 23 -33q0 -20 -29 -43q-26 -20 -78 -20q-89 0 -161 2h-88l-7 -117q-4 -110 -4 -121 q0 -43 -14 -92q-15 -57 -76 -66h-6q-46 0 -61 66q-17 73 -17 143q0 94 8 154q2 14 2 35l-131 4h-106q-38 0 -60 16t-22 31z"/>
            <glyph unicode="&#xa6;" horiz-adv-x="532"
                   d="M328 74l2 14v516q0 29 34 44.5t78 15.5q32 0 55 -9t23 -24l10 -504q0 -64 -20 -98q-13 -19 -94 -19q-52 0 -70 18t-18 46zM328 866l2 15v516q0 29 33.5 44t78.5 15q32 0 55 -9t23 -24l10 -503q0 -65 -20 -99q-12 -18 -94 -18q-52 0 -70 17.5t-18 45.5z"/>
            <glyph unicode="&#xa7;" horiz-adv-x="796"
                   d="M98 668q0 94 56 174q50 71 118 110q-25 25 -49 52q-46 52 -61 135q-6 27 -6 53q0 97 55 176q54 78 141 119q11 7 33 14l8 4l51 11l48 6q60 0 112 -25q47 -25 78 -84q11 -17 25 -65q10 -45 10 -76q0 -30 -10 -53q-16 -29 -33 -29q-22 0 -37 31q-17 38 -19 59 q-6 56 -30 106q-40 58 -90 58q-61 -18 -105 -68q-55 -76 -55 -170q0 -69 39 -131l88 -88l57 -47q66 -55 113 -131q41 -69 41 -158q0 -72 -33 -145q-50 -92 -145 -121q51 -47 80 -102q40 -65 40 -156q0 -74 -32 -145q-56 -108 -178 -129l-70 -13h-29q-58 0 -112 23 q-54 22 -66 82l-2 14q0 24 8 45q10 23 29 23q6 0 24 -11q2 -2 9.5 -10.5t9.5 -13.5q1 -2 3.5 -6.5t5 -8t5.5 -6.5q33 -39 82 -39h4q13 0 47 15q41 16 66 57q5 6 12 15.5t8 11.5l4 10q19 40 19 78q-6 77 -57 125l-70 82q-37 29 -66 55q-61 46 -106 96q-47 57 -62 137 q-6 24 -6 54zM281 682q0 -73 38 -131l84 -84q1 1 11 6q32 10 65 55q14 18 21 29l4 8q18 37 18 78q-6 77 -57 125l-72 82l-31 27q-16 -12 -24 -25q-57 -75 -57 -170z"/>
            <glyph unicode="&#xa8;" horiz-adv-x="819"
                   d="M193 1548v6q4 30 33 49t69 19h16q41 -3 62.5 -22t21.5 -50v-8q-3 -32 -27 -55t-61 -23h-12q-43 3 -72.5 28t-29.5 56zM555 1548v6q5 29 33.5 48.5t68.5 19.5h17q41 -3 62.5 -22t21.5 -50v-8q-3 -32 -27 -55t-61 -23h-13q-43 3 -72.5 28t-29.5 56z"/>
            <glyph unicode="&#xa9;" horiz-adv-x="1284"
                   d="M281 672q0 126 30 224.5t81.5 162t124 105t152 58.5t171.5 17q197 0 325.5 -128t128.5 -335v-28q-8 -141 -22 -211q-14 -80 -49 -131q-4 -5 -18.5 -25.5t-24 -32t-25.5 -22.5t-31 -11h-6q-16 4 -16 19q3 10 8 12q8 8 24.5 21t20.5 16q17 14 33 47q28 64 37 127 q17 110 20 191v18q0 180 -112 302t-308 122q-187 0 -310.5 -146.5t-123.5 -367.5q0 -99 41 -186t101.5 -142t120.5 -87.5t108 -39.5q44 -6 84 -6q78 0 150 18.5t110 47.5q9 6 18 6q8 0 13.5 -5.5t5.5 -13.5q0 -12 -13 -22q-42 -39 -125.5 -69t-181.5 -30q-40 0 -71 5 q-33 4 -69.5 13.5t-83.5 29t-90 46t-85.5 68.5t-73.5 92t-50 120t-19 151zM649 672q0 87 26.5 167.5t76.5 139.5q47 53 102 53q73 0 111 -80q20 -45 20 -88l-2 -26q-7 -29 -20 -29q-5 0 -13 4q-15 11 -18 45.5t-8 44.5q-18 41 -47 41q-15 0 -25 -10q-50 -46 -66 -158 q-12 -86 -12 -145q0 -101 33 -166q24 -47 63 -47q21 0 45 18q20 16 35.5 39t22 38t20.5 50q10 21 21 25h4q12 0 18 -6q8 -8 8 -17v-2q0 -17 -16 -60.5t-31 -66.5q-49 -71 -116 -82l-21 -2q-46 0 -91 29.5t-69 71.5q-51 92 -51 219z"/>
            <glyph unicode="&#xaa;" horiz-adv-x="1075"
                   d="M176 657q0 19 17.5 33t50.5 15l483 8q33 0 49.5 -13.5t16.5 -33.5q0 -25 -21 -44.5t-55 -19.5q-51 0 -251 4t-230 4q-26 0 -43 14.5t-17 32.5zM215 1102q0 14 1 29t2.5 34t2.5 29q11 91 43 147q19 32 56 60.5t75 38.5q20 4 35 4q60 0 121 -47q61 -46 74 -121 q6 106 19 137q7 17 18 27q12 12 34 12h13q41 -12 43 -29q2 -27 2 -86q0 -85 -11.5 -233t-11.5 -182q0 -93 -61 -99h-2q-66 0 -66 187v49q-12 -36 -43 -101q-11 -25 -55 -81q-50 -54 -103 -54q-18 0 -34 8q-86 33 -138 170q-14 46 -14 101zM340 1085q0 -69 27 -155 q14 -39 36 -39q28 0 60 41q21 27 45 74q72 194 72 231v2q-2 51 -32.5 89t-84.5 42h-2q-31 0 -62 -39q-33 -48 -49 -153q-10 -39 -10 -93z"/>
            <glyph unicode="&#xab;" horiz-adv-x="1091"
                   d="M360 694q0 40 35 84q7 8 97 84l34 27l33 26q29 20 64 50q30 24 51 24h6q26 -3 41 -55v-4q0 -48 -35 -66l-88 -65q-64 -43 -113 -113q55 -73 125 -115l27 -18l31 -18q46 -28 51 -31q31 -22 31 -41q0 -12 -9 -21q-13 -16 -32 -16q-18 0 -47 16q-12 6 -74 43q-33 20 -90 58 q-112 79 -127 108q-11 26 -11 43zM627 680q0 40 32 78q16 19 93 80l32 24l33 27q16 11 36.5 27t23.5 18q27 24 49 24h6q25 -4 39 -53v-4q0 -43 -35 -61l-84 -64q-65 -45 -107 -106q50 -69 119 -111l27 -16l29 -19q18 -9 49 -28q28 -19 28 -39q0 -13 -8 -21q-11 -14 -31 -14 t-45 14q-8 5 -31 19.5t-38 23.5q-34 18 -86 56q-108 73 -121 102q-10 23 -10 43z"/>
            <glyph unicode="&#xac;" horiz-adv-x="950"
                   d="M164 496v10q6 26 67 26h17l125 5l504 2q20 -3 20 -23v-4l4 -266q0 -20 -8 -33q-6 -6 -12 -8h-21q-17 9 -20 28l-4 226h-2l-617 -8q-53 6 -53 45z"/>
            <glyph unicode="&#xad;" horiz-adv-x="1019"
                   d="M438 666q0 19 16.5 32.5t49.5 14.5q159 0 475 8h2q33 0 50.5 -13.5t17.5 -33.5q0 -24 -22 -44t-54 -20q-50 0 -248.5 4t-228.5 4q-26 0 -42 14.5t-16 33.5z"/>
            <glyph unicode="&#xae;" horiz-adv-x="1202"
                   d="M121 559q0 134 32 239.5t86.5 173.5t131.5 112t161.5 62.5t182.5 18.5q142 0 254 -64.5t173.5 -185t53.5 -274.5q-8 -145 -25 -225q-14 -87 -53 -142q-12 -20 -19.5 -31t-23.5 -30t-32.5 -27.5t-32.5 -5.5q-8 2 -13 7.5t-4 11.5q0 6 8 14t25 20.5t23 18.5q17 17 32 51 q26 46 41 135q18 99 21 203q4 129 -44 234.5t-152.5 171t-248.5 65.5q-199 0 -329.5 -156t-130.5 -391q0 -86 29 -164t74 -132.5t99 -97t103.5 -64.5t89.5 -27q99 -17 204.5 1.5t159.5 59.5q21 18 33.5 1t-6.5 -36l-2 -2q-51 -49 -163.5 -82.5t-237.5 -17.5q-35 5 -73.5 15 t-88.5 31t-95.5 49t-91 72.5t-78 98t-53 128.5t-20.5 161zM509.5 587q-0.5 115 0.5 158q2 41 0 85.5t2.5 89t19.5 59.5q12 14 39 14q31 -5 39 -26q3 -17 0 -152q9 18 54 96q41 66 108 58q39 -5 74 -32t47 -63q22 -64 16 -139l-6 -43q-6 -40 -18 -69q-24 -67 -88 -127 q-7 -6 -21 -14t-32 -17t-23 -12q-10 -5 15.5 -37.5t63 -72t42.5 -46.5q3 -3 17 -16q65 -62 56 -83q-6 -13 -38 -14q-24 -1 -47.5 13.5t-37 30t-35 45.5t-28.5 38q-2 3 -22 29.5t-30.5 39.5t-29.5 29.5t-35 22.5q1 -17 5 -68.5t4 -73t-7 -67.5q-7 -27 -46.5 -24t-51.5 34 q-5 16 -6 36.5t0 45.5t0 37q0 16 1 48t1 49q-2 23 -2.5 138zM604.5 550.5q0.5 -8.5 2 -22.5t7.5 -22.5t17 -13.5q4 -1 11 -3.5t11 -3.5h6q56 0 101 63t53 132q22 198 -55 215q-25 6 -45 -14q-14 -12 -31 -37q-65 -108 -74 -244q0 -5 -2 -23t-1.5 -26.5z"/>
            <glyph unicode="&#xaf;" horiz-adv-x="1019"
                   d="M385 1405q0 19 19 32.5t55 14.5q184 0 540 8h5q38 0 56.5 -13.5t18.5 -33.5q0 -24 -24.5 -43.5t-61.5 -19.5q-57 0 -283 4t-259 4q-29 0 -47.5 14.5t-18.5 32.5z"/>
            <glyph unicode="&#xb0;" horiz-adv-x="630"
                   d="M139 1118q0 52 17 115l12 39q20 40 59.5 73.5t91.5 47.5q49 12 99 12q100 0 137 -53q4 -6 13 -18.5t12.5 -18.5t8.5 -16.5t7 -20.5q16 -73 16 -139q0 -80 -16 -123q-11 -39 -45 -82q-66 -72 -182 -72l-47 4q-48 6 -85.5 35t-54.5 59.5t-28 65.5q-15 46 -15 92zM262 1124 q0 -84 49 -139q39 -45 107 -45q58 0 80 39q2 2 5.5 8t4.5 8q28 57 35 140l2 36q0 74 -29.5 125.5t-91.5 51.5q-21 0 -31 -2q-56 -10 -100 -95q-31 -60 -31 -127z"/>
            <glyph unicode="&#xb1;" horiz-adv-x="819"
                   d="M108 572.5q15 23.5 60 25.5q16 0 188 4q-4 132 -4 186q-1 49 27 64t56 -7.5t28 -62.5q0 -14 -1 -75t-1 -103q76 0 182 4q49 1 64 -27t-7.5 -56.5t-62.5 -28.5q-30 0 -178 4q-4 -176 -4 -195q0 -34 -23 -50.5t-46.5 -1.5t-25.5 60q0 103 -2 189q-51 0 -121 1t-77 1 q-34 0 -50.5 22.5t-1.5 46zM123.5 164.5q15.5 23.5 60.5 25.5q28 0 210.5 4t262.5 5q51 1 65.5 -27t-8.5 -56t-63 -28q-50 0 -248.5 4t-226.5 4q-35 0 -51.5 22.5t-1 46z"/>
            <glyph unicode="&#xb2;" horiz-adv-x="745"
                   d="M258 702q0 70 109 234q57 86 100 174t55 143q10 42 10 74q0 71 -49 76h-4q-27 0 -68 -26t-73 -60q-9 -12 -21 -12t-12 16q0 13 12 31q38 39 83 67.5t81 28.5h2q156 -3 156 -150q0 -97 -61 -228.5t-119 -211.5q-26 -35 -90 -153h96l205 4q32 -5 32 -17q0 -9 -10.5 -18 t-27.5 -10q-152 -13 -250 -13q-125 0 -148 23q-8 12 -8 28z"/>
            <glyph unicode="&#xb3;" horiz-adv-x="753"
                   d="M340 707q0 16 14 16q9 0 19 -10q3 -3 12.5 -15t17.5 -20.5t23.5 -16.5t32.5 -8q58 0 102.5 68t44.5 166q0 65 -23 95t-71 30q-24 0 -51 -6l-6 -2q-20 0 -31 38l-4 11q0 18 26 41q73 73 97 180q10 48 10 74q0 51 -33 51q-72 0 -131 -53q-10 -5 -12 -5q-5 0 -8.5 4.5 t-3.5 10.5q0 18 20 35q28 25 68.5 41t68.5 16q68 0 104 -37.5t36 -107.5q0 -19 -3 -37q-6 -56 -35.5 -115t-58.5 -72q25 -1 49.5 -11t49 -31.5t40 -63t15.5 -96.5q0 -111 -62 -189t-172 -78q-98 0 -137 70q-8 13 -8 27z"/>
            <glyph unicode="&#xb4;" horiz-adv-x="196"
                   d="M-14 1509q0 7 6 13q42 45 76 63q40 21 102 45l8 -4l12 -2q26 -20 29 -47q-59 -73 -143 -129h-25q-36 6 -63 33q-6 14 -2 28z"/>
            <glyph unicode="&#xb5;" horiz-adv-x="804"
                   d="M-66 -346l13 1173q4 28 4 52q0 149 121 149q73 0 82 -92q-8 -74 -13 -143v-361q5 -129 23 -250q15 -37 37 -37q28 3 43 37q167 360 207 746l6 55q0 28 6 55q9 97 98 97q65 -6 80 -41q8 -21 8 -56q0 -32 -4 -102q-24 -363 -31 -541v-78q0 -303 -57 -303l-25 -2 q-50 0 -59 45q-13 48 -16 154q-17 136 -17 240l-51 -148q-82 -276 -235 -285l-21 2q-2 -76 -2 -239q0 -154 -20 -227q-15 -46 -74 -46q-23 0 -49 11q-54 22 -54 135z"/>
            <glyph unicode="&#xb6;" horiz-adv-x="1126"
                   d="M49 1169v17q0 110 49 180q62 92 178 92l465 6h179q59 -2 114 -2q32 0 35 -28v-4q0 -28 -51 -37q-80 -14 -103 -15l3 -10l2 -14v-146q-2 -33 -2 -90l16 -966q0 -48 -4 -80q-12 -66 -60 -66q-37 0 -53 29q-10 20 -10 43q3 1098 10 1253q0 37 2 47h-246l5 -20q6 -95 6 -262 l8 -969q0 -47 -2 -61q-12 -66 -55 -66q-34 0 -50 29q-8 13 -8 41v82q-2 10 -2 348q0 372 -2 448q-115 -16 -162 -16q-104 0 -180 67q-79 67 -82 170z"/>
            <glyph unicode="&#xb7;" horiz-adv-x="473"
                   d="M246 731v4q3 25 28 42.5t58 17.5l14 -2q34 -1 53 -18t19 -44v-6q-3 -28 -23.5 -48t-52.5 -20l-10 2q-36 1 -61 23t-25 49z"/>
            <glyph unicode="&#xb8;" horiz-adv-x="319"
                   d="M123 -319q0 24 61 30q29 16 29 47q0 19 -8 35q-3 20 -53 64q-11 42 -11 73q0 12 4 58q6 42 39 45h4q37 0 43 -43q1 -5 2.5 -15.5t2.5 -20.5l2 -20l2 -26l2 -31l14 -10l12 -10l23 -23q28 -31 28 -70v-6q0 -44 -30 -71q-28 -32 -80 -35h-19q-59 0 -65 24z"/>
            <glyph unicode="&#xb9;" horiz-adv-x="393"
                   d="M244 950v56q0 18 5.5 122.5t8.5 135.5q2 14 3.5 62t6.5 79t17 43q11 8 24 8l8 -2q10 0 20 -6t11 -14q2 -23 2 -82q0 -90 -8 -271.5t-8 -201.5q0 -72 -43 -76h-2q-45 0 -45 147z"/>
            <glyph unicode="&#xba;" horiz-adv-x="618"
                   d="M-20 651q0 19 17 32.5t50 14.5l483 9q33 0 50.5 -14t17.5 -34q0 -24 -22 -43.5t-54 -19.5q-52 0 -253 4t-228 4q-28 0 -44.5 14t-16.5 33zM47 1141q8 55 35 121q30 73 80 120q48 43 139 62q42 8 82.5 7.5t77 -20t51.5 -55.5q7 -15 11 -32.5t6.5 -40.5t3 -36t1.5 -40 t1 -33q0 -14 -5 -59q-15 -153 -65 -226q-66 -92 -176 -91t-178 93q-43 57 -57.5 116t-6.5 114zM178 1171q-5 -114 4 -182q6 -55 70 -86q31 -12 55.5 -13.5t45.5 13t36.5 32.5t28 45t21 51.5t14.5 51.5q1 5 8 54q18 137 -15 200q-14 28 -60.5 34t-95 -12.5t-67.5 -53.5 q-38 -72 -45 -134z"/>
            <glyph unicode="&#xbb;" horiz-adv-x="1091"
                   d="M360 457q0 20 29 39q31 19 49 28l29 19l27 16q67 41 118 111q-43 62 -106 106l-84 64q-35 18 -35 61v4q14 49 39 53h6q22 0 49 -24q3 -2 23.5 -18t36.5 -27l32 -27l33 -24q74 -59 92 -80q33 -39 33 -78q0 -20 -10 -43q-13 -29 -121 -102q-52 -38 -86 -56 q-15 -9 -38.5 -23.5t-31.5 -19.5q-25 -14 -45 -14q-19 0 -30 14q-9 9 -9 21zM608 463q0 19 31 41q5 3 51 31l31 18l27 18q69 41 124 115q-50 71 -112 113l-88 65q-35 18 -35 66v4q15 52 41 55h6q21 0 51 -24q35 -30 64 -50l32 -26l35 -27q90 -76 97 -84q34 -43 34 -84 q0 -20 -10 -43q-15 -29 -127 -108q-57 -38 -90 -58q-62 -37 -74 -43q-29 -16 -47 -16q-20 0 -33 16q-8 8 -8 21z"/>
            <glyph unicode="&#xbc;" horiz-adv-x="1044"
                   d="M332 731v363q6 47 45 47q49 -3 49 -43v-379q-6 -38 -35 -45q-22 0 -35 10q-21 21 -24 47zM422 391q0 16 8 35q6 20 471 821q38 53 100 53q37 0 31 -55q-39 -54 -465 -805q-47 -80 -106 -80q-39 0 -39 31zM862 537q0 4 6 16q138 244 156 262q17 13 27 16q12 3 22 3 q38 0 47 -43q1 -3 4 -236q35 -7 37 -8q6 -3 6 -15q0 -2 -6 -8l-31 -10v-96q0 -34 -38 -37q-46 0 -52 33l4 104l-24 -4q-158 0 -158 23zM948 549h101l2 192z"/>
            <glyph unicode="&#xbd;" horiz-adv-x="1157"
                   d="M332 731v363q6 47 45 47q49 -3 49 -43v-379q-6 -38 -35 -45q-22 0 -35 10q-21 21 -24 47zM422 391q0 16 8 35q6 20 471 821q38 53 100 53q37 0 31 -55q-39 -54 -465 -805q-47 -80 -106 -80q-39 0 -39 31zM940 645v6q0 9 2 15q15 63 82 94q37 16 66 16t61 -16 q28 -15 43 -43q16 -37 16 -72q0 -31 -8 -55q-16 -44 -158 -246h154q13 0 25 -12v-4q0 -15 -13 -15l-229 -2q-29 3 -37 17l2 8q1 1 2 4t2 4q168 247 180 305q5 25 5 35q0 15 -2 23q-3 45 -50 45q-15 0 -36 -7q-53 -22 -72 -65l-8 -23l-11 -20q-2 -2 -6 -2q-2 0 -4 2 q-4 4 -6 8z"/>
            <glyph unicode="&#xbe;" horiz-adv-x="1062"
                   d="M82 807q0 6 2 8q4 4 8 4q11 0 14 -6l5 -10q9 -32 16 -45q27 -53 88 -56q23 0 41 21q24 27 27 68v6q0 36 -21 63q-25 31 -55 31h-25l-18 6q-2 0 -4 2t-2 6t2 6q1 1 2 3.5t2 3.5q15 6 33 12q36 8 59 41q22 32 25 76q-6 42 -50 63q-6 2 -20 2q-29 0 -53 -18q-22 -16 -37 -50 l-10 -16l-9 -14q-9 0 -12 6q-2 2 -2 10q3 40 29 66q47 41 92 41h16q50 0 101 -54q20 -26 20 -55q0 -12 -2 -18v-6q0 -34 -22 -62l-13 -12l-16 -19l16 -4q54 -22 66 -92v-6q0 -78 -45 -111q-20 -14 -49 -24q-21 -8 -50 -8q-31 0 -65 12q-84 27 -84 129zM242 391q0 16 8 35 q6 20 471 821q38 53 100 53q37 0 31 -55q-39 -54 -465 -805q-47 -80 -106 -80q-39 0 -39 31zM682 537q0 4 6 16q138 244 156 262q17 14 26 16q12 3 23 3q38 0 47 -43q1 -3 4 -236q35 -7 37 -8q6 -3 6 -15q0 -2 -6 -8l-31 -10v-96q0 -34 -39 -37q-45 0 -51 33l4 104l-24 -4 q-158 0 -158 23zM768 549h100l2 192z"/>
            <glyph unicode="&#xbf;" horiz-adv-x="643"
                   d="M100 -61q0 13 10 30t21 21q23 7 45 -19q6 -7 15 -25l10 -20q16 -29 48.5 -50.5t67.5 -24.5t62 26q41 48 51 123.5t-12 132.5q-14 43 -44 87.5t-59 76.5t-59.5 76t-44.5 86q-11 34 -11 132t11 124q20 47 54.5 53t62.5 -22t34 -72q2 -19 -3 -77.5t6 -76.5q9 -30 49.5 -80 t46.5 -59q15 -25 62.5 -88.5t68 -110.5t20.5 -106q0 -309 -305 -309q-52 0 -104 37t-84 87q-19 27 -19 48zM184 979q-3 32 27 59t76 31q43 4 70 -20t30 -58q3 -35 -18 -56t-66 -24q-45 -6 -79.5 14t-39.5 54z"/>
            <glyph unicode="&#xc0;"
                   d="M49 66q0 35 18.5 91.5t44.5 118t29 70.5l129 377q152 455 183 545q34 95 99 154t150 59q38 0 82 -15q29 -11 47.5 -35.5t26.5 -63t11 -67t3.5 -76.5t1.5 -63q6 -222 15 -459q0 -52 2 -81l6 -250q1 -11 11 -94.5t10 -126.5q0 -68 -21 -101q-32 -51 -70 -51 q-42 0 -76.5 58.5t-43.5 117.5q-18 123 -21 197q-8 188 -8 229q0 12 -2 16q-4 7 -55 7q-38 0 -97 -3.5t-117.5 -8.5t-60.5 -5q-42 -148 -59 -196l-66 -191q-1 -3 -6 -18.5t-8.5 -25.5t-9.5 -29t-12 -32.5t-14 -30.5t-16 -29t-17.5 -22.5t-19.5 -16t-20 -5.5q-20 0 -39 19 q-10 13 -10 37zM381 723q74 4 115 4h30q129 0 129 23q9 58 9 114q0 61 -10.5 185.5t-10.5 187.5l2 20q0 62 -27 62q-15 0 -36 -25t-33 -55q-17 -41 -46 -125t-46 -125q-22 -58 -29 -92q-8 -32 -25 -86q-17 -61 -22 -86v-2zM477 1749q0 22 37 33q18 6 41 6q28 0 51 -10 q91 -38 119 -129q8 -41 8 -70q0 -32 -18 -37l-6 -2l-13 2q-50 18 -116 76t-101 121z"/>
            <glyph unicode="&#xc1;"
                   d="M49 66q0 35 18.5 91.5t44.5 118t29 70.5l129 377q152 455 183 545q34 95 99 154t150 59q38 0 82 -15q29 -11 47.5 -35.5t26.5 -63t11 -67t3.5 -76.5t1.5 -63q6 -222 15 -459q0 -52 2 -81l6 -250q1 -11 11 -94.5t10 -126.5q0 -68 -21 -101q-32 -51 -70 -51 q-42 0 -76.5 58.5t-43.5 117.5q-18 123 -21 197q-8 188 -8 229q0 12 -2 16q-4 7 -55 7q-38 0 -97 -3.5t-117.5 -8.5t-60.5 -5q-42 -148 -59 -196l-66 -191q-1 -3 -6 -18.5t-8.5 -25.5t-9.5 -29t-12 -32.5t-14 -30.5t-16 -29t-17.5 -22.5t-19.5 -16t-20 -5.5q-20 0 -39 19 q-10 13 -10 37zM381 723q74 4 115 4h30q129 0 129 23q9 58 9 114q0 61 -10.5 185.5t-10.5 187.5l2 20q0 62 -27 62q-15 0 -36 -25t-33 -55q-17 -41 -46 -125t-46 -125q-22 -58 -29 -92q-8 -32 -25 -86q-17 -61 -22 -86v-2zM555 1589q-3 16 0 29q0 4 4 12q42 45 78 64 q41 21 102 45l9 -4l12 -2q26 -23 26 -47q-54 -70 -143 -130h-22q-36 6 -66 33z"/>
            <glyph unicode="&#xc2;"
                   d="M49 66q0 35 18.5 91.5t44.5 118t29 70.5l129 377q152 455 183 545q34 95 99 154t150 59q38 0 82 -15q29 -11 47.5 -35.5t26.5 -63t11 -67t3.5 -76.5t1.5 -63q6 -222 15 -459q0 -52 2 -81l6 -250q1 -11 11 -94.5t10 -126.5q0 -68 -21 -101q-32 -51 -70 -51 q-42 0 -76.5 58.5t-43.5 117.5q-18 123 -21 197q-8 188 -8 229q0 12 -2 16q-4 7 -55 7q-38 0 -97 -3.5t-117.5 -8.5t-60.5 -5q-42 -148 -59 -196l-66 -191q-1 -3 -6 -18.5t-8.5 -25.5t-9.5 -29t-12 -32.5t-14 -30.5t-16 -29t-17.5 -22.5t-19.5 -16t-20 -5.5q-20 0 -39 19 q-10 13 -10 37zM381 723q74 4 115 4h30q129 0 129 23q9 58 9 114q0 61 -10.5 185.5t-10.5 187.5l2 20q0 62 -27 62q-15 0 -36 -25t-33 -55q-17 -41 -46 -125t-46 -125q-22 -58 -29 -92q-8 -32 -25 -86q-17 -61 -22 -86v-2zM545 1593l4 15q3 9 6 12q11 13 86 100q13 13 31 19 q28 4 37 4q39 0 75 -25q26 -21 80 -78q8 -8 8 -20q0 -6 -2 -10q-7 -17 -24 -23q-24 -6 -47 -6q-43 0 -80 27l-21 18l-22 23q-3 -2 -8.5 -6t-11.5 -8.5t-11 -8.5l-14 -12l-15 -12q-18 -15 -41 -15q-12 0 -30 6z"/>
            <glyph unicode="&#xc3;"
                   d="M49 66q0 35 18.5 91.5t44.5 118t29 70.5l129 377q152 455 183 545q34 95 99 154t150 59q38 0 82 -15q29 -11 47.5 -35.5t26.5 -63t11 -67t3.5 -76.5t1.5 -63q6 -222 15 -459q0 -52 2 -81l6 -250q1 -11 11 -94.5t10 -126.5q0 -68 -21 -101q-32 -51 -70 -51 q-42 0 -76.5 58.5t-43.5 117.5q-18 123 -21 197q-8 188 -8 229q0 12 -2 16q-4 7 -55 7q-38 0 -97 -3.5t-117.5 -8.5t-60.5 -5q-42 -148 -59 -196l-66 -191q-1 -3 -6 -18.5t-8.5 -25.5t-9.5 -29t-12 -32.5t-14 -30.5t-16 -29t-17.5 -22.5t-19.5 -16t-20 -5.5q-20 0 -39 19 q-10 13 -10 37zM381 723q74 4 115 4h30q129 0 129 23q9 58 9 114q0 61 -10.5 185.5t-10.5 187.5l2 20q0 62 -27 62q-15 0 -36 -25t-33 -55q-17 -41 -46 -125t-46 -125q-22 -58 -29 -92q-8 -32 -25 -86q-17 -61 -22 -86v-2zM406 1606l2 10q54 129 196 129q51 -1 112 -31.5 t89 -30.5q44 0 92 23q12 4 18 4q14 0 24.5 -10t10.5 -25q0 -17 -16 -30q-80 -64 -164 -64q-13 0 -41 4q-22 4 -75.5 25.5t-90.5 21.5l-28 -2q-16 -2 -31 -10t-23.5 -15.5t-18.5 -18t-13 -13.5q-6 -6 -15 -6q-11 0 -19.5 13t-8.5 26z"/>
            <glyph unicode="&#xc4;"
                   d="M49 66q0 35 18.5 91.5t44.5 118t29 70.5l129 377q152 455 183 545q34 95 99 154t150 59q38 0 82 -15q29 -11 47.5 -35.5t26.5 -63t11 -67t3.5 -76.5t1.5 -63q6 -222 15 -459q0 -52 2 -81l6 -250q1 -11 11 -94.5t10 -126.5q0 -68 -21 -101q-32 -51 -70 -51 q-42 0 -76.5 58.5t-43.5 117.5q-18 123 -21 197q-8 188 -8 229q0 12 -2 16q-4 7 -55 7q-38 0 -97 -3.5t-117.5 -8.5t-60.5 -5q-42 -148 -59 -196l-66 -191q-1 -3 -6 -18.5t-8.5 -25.5t-9.5 -29t-12 -32.5t-14 -30.5t-16 -29t-17.5 -22.5t-19.5 -16t-20 -5.5q-20 0 -39 19 q-10 13 -10 37zM381 723q74 4 115 4h30q129 0 129 23q9 58 9 114q0 61 -10.5 185.5t-10.5 187.5l2 20q0 62 -27 62q-15 0 -36 -25t-33 -55q-17 -41 -46 -125t-46 -125q-22 -58 -29 -92q-8 -32 -25 -86q-17 -61 -22 -86v-2zM387 1630v6q4 30 33 49t69 19h17q41 -3 62.5 -22 t21.5 -50v-8q-3 -33 -26.5 -55.5t-61.5 -22.5h-13q-43 3 -72.5 28t-29.5 56zM750 1630v6q5 29 34 48.5t70 19.5h14q41 -3 62.5 -22t21.5 -50v-8q-3 -33 -26.5 -55.5t-61.5 -22.5h-12q-43 3 -72.5 28t-29.5 56z"/>
            <glyph unicode="&#xc5;"
                   d="M49 66q0 35 18.5 91.5t44.5 118t29 70.5l129 377q152 455 183 545q34 95 99 154t150 59q38 0 82 -15q29 -11 47.5 -35.5t26.5 -63t11 -67t3.5 -76.5t1.5 -63q6 -222 15 -459q0 -52 2 -81l6 -250q1 -11 11 -94.5t10 -126.5q0 -68 -21 -101q-32 -51 -70 -51 q-42 0 -76.5 58.5t-43.5 117.5q-18 123 -21 197q-8 188 -8 229q0 12 -2 16q-4 7 -55 7q-38 0 -97 -3.5t-117.5 -8.5t-60.5 -5q-42 -148 -59 -196l-66 -191q-1 -3 -6 -18.5t-8.5 -25.5t-9.5 -29t-12 -32.5t-14 -30.5t-16 -29t-17.5 -22.5t-19.5 -16t-20 -5.5q-20 0 -39 19 q-10 13 -10 37zM381 723q74 4 115 4h30q129 0 129 23q9 58 9 114q0 61 -10.5 185.5t-10.5 187.5l2 20q0 62 -27 62q-15 0 -36 -25t-33 -55q-17 -41 -46 -125t-46 -125q-22 -58 -29 -92q-8 -32 -25 -86q-17 -61 -22 -86v-2zM434 1741q0 128 113 160q27 6 59 6q121 0 121 -156 q0 -30 -10 -64.5t-29 -54.5q-38 -41 -110 -41q-76 4 -110 48t-34 102zM510 1743q0 -41 26.5 -74t69.5 -33q42 0 58 36.5t20 99.5q0 42 -18 72t-56 30q-39 0 -69.5 -41.5t-30.5 -89.5z"/>
            <glyph unicode="&#xc6;" horiz-adv-x="1429"
                   d="M49 66q0 42 25 112q24 63 49 119l20 49l129 377l78 233l105 312q29 93 96 153q66 60 151 60q38 0 84 -15q19 -8 37 -26q284 56 570 80h6q28 0 49 -27q12 -18 12 -35q0 -31 -39 -45q-47 -17 -86 -20q-54 -7 -73 -7h-5q-167 -3 -309 -26q2 -12 2 -41q4 -94 4 -164 q0 -137 -6 -319q32 4 135 22q52 7 156 25l18 2q23 0 41 -11q15 -9 15 -26q0 -26 -53 -64q-46 -21 -105 -18q-27 0 -41 -2q-14 0 -22 -2q-64 -2 -148 -14l-12 -320q-9 -195 -12 -283q0 -7 -1 -16.5t-2 -23t-2 -23.5q1 1 52 8q8 1 110 10q17 2 117 13q14 1 29.5 2t24 1.5 t12.5 0.5q3 1 13 2t15 2q4 1 22.5 4t28.5 4q36 4 52 4q28 0 41 -8q16 -16 16 -35q0 -22 -14 -39q-12 -16 -35 -28q-49 -19 -96 -19q-24 -1 -70 -3t-70 -3q-75 -4 -213 -8q-9 -1 -59 -6q-35 -9 -64 -9q-24 0 -47 13q-20 9 -37 39q-20 49 -26 108q-4 13 -8 39q-18 123 -21 197 q-1 9 -2 34t-2 37q-2 31 -2 95q-2 31 -2 63q0 12 -2 16q-10 7 -57 7q-62 0 -101 -2q-22 -1 -57.5 -4.5t-48.5 -4.5q-52 -3 -66 -6q-6 -18 -12 -39q-27 -97 -47 -157l-66 -191q0 -1 -3.5 -8.5t-4.5 -13.5q-3 -13 -13.5 -40.5t-13.5 -35.5q-11 -31 -38 -76q-21 -35 -52 -35 q-18 0 -37 19q-12 12 -12 37zM383 723q74 4 115 4h28q36 0 56 2q30 0 51 6q20 3 24 15q7 68 7 114q0 73 -11 185q-8 84 -8 188v20q0 68 -24 62q-18 0 -37 -25q-20 -23 -33 -55q-38 -97 -47 -125q-8 -23 -23.5 -65t-21.5 -60q-20 -43 -29 -92q-11 -45 -24 -86 q-13 -38 -23 -86v-2z"/>
            <glyph unicode="&#xc7;" horiz-adv-x="1003"
                   d="M102 694q0 151 31 312q10 59 23 106q37 110 109.5 202.5t168.5 129.5q87 35 176 35q183 0 252 -146q37 -80 37 -170q0 -46 -16 -78q-19 -36 -43 -36q-25 0 -45.5 39.5t-24.5 76.5q0 3 -2 17t-2.5 19t-2.5 17.5t-3.5 18.5t-4 16.5t-5.5 17.5t-6.5 16t-8.5 16 q-35 63 -100 63q-62 0 -109 -47q-52 -47 -90 -105.5t-59.5 -111t-37.5 -126t-22.5 -125t-13.5 -134.5l-4 -84q0 -234 86 -379q53 -87 160 -127q44 -14 78 -14q62 0 114 34q66 47 105 117q14 25 30.5 68t28.5 65q5 13 20.5 30.5t26.5 18.5q13 0 19 -6q19 -12 22 -28v-9 q0 -32 -15.5 -78.5t-35.5 -82.5q-61 -114 -173.5 -181t-240.5 -67q-49 0 -88 8q-55 11 -102.5 45t-79.5 77.5t-58.5 102t-41.5 109t-27 106.5q-25 117 -25 252zM446 -319q0 24 62 30q29 16 29 47q0 14 -7 35q-6 21 -55 64q-8 31 -8 73q0 35 2 58q9 42 39 45h4q37 0 43 -43 q2 -7 6 -56l2 -26l4 -31l13 -10l12 -10q5 -4 24 -23q27 -30 27 -70v-6q0 -42 -29 -71q-32 -32 -82 -35h-18q-59 0 -65 24z"/>
            <glyph unicode="&#xc8;" horiz-adv-x="858"
                   d="M29 1333q0 17 14.5 33t37 27t41 18t36.5 12q249 58 653 97h6q32 0 49 -27q13 -19 13 -35q0 -61 -203 -72q-209 -8 -309 -26q2 -14 2 -41q4 -45 4 -164q0 -141 -6 -319q39 7 142 22.5t148 24.5l19 2q24 0 39.5 -10t15.5 -27q0 -31 -53 -64q-18 -11 -42 -15t-58 -4t-46 -1 q-135 -9 -170 -16q-4 -102 -10 -243t-9.5 -231.5t-4.5 -128.5q0 -40 -4 -63q1 4 151.5 18t192.5 17q2 0 53 8t78 8q30 0 41 -8q16 -16 16 -35t-14.5 -38.5t-34.5 -28.5q-34 -15 -96 -19q-39 -1 -162 -7t-190 -7q-19 -1 -60.5 -8t-62.5 -7q-59 0 -84 52q-31 63 -31 170 q0 40 5 116t5 109q16 382 31 559q3 31 6.5 119.5t7.5 134.5l9 76q-1 0 -22 -9.5t-29.5 -12.5t-25 -7t-28.5 -4q-33 0 -49 22q-12 18 -12 33zM305 1739q0 23 39 33q18 6 39 6q24 0 53 -11q91 -38 119 -129q6 -46 6 -69q0 -32 -16 -37l-8 -2l-11 2q-50 18 -116 76t-101 121z "/>
            <glyph unicode="&#xc9;" horiz-adv-x="858"
                   d="M29 1333q0 17 14.5 33t37 27t41 18t36.5 12q249 58 653 97h6q32 0 49 -27q13 -19 13 -35q0 -61 -203 -72q-209 -8 -309 -26q2 -14 2 -41q4 -45 4 -164q0 -141 -6 -319q39 7 142 22.5t148 24.5l19 2q24 0 39.5 -10t15.5 -27q0 -31 -53 -64q-18 -11 -42 -15t-58 -4t-46 -1 q-135 -9 -170 -16q-4 -102 -10 -243t-9.5 -231.5t-4.5 -128.5q0 -40 -4 -63q1 4 151.5 18t192.5 17q2 0 53 8t78 8q30 0 41 -8q16 -16 16 -35t-14.5 -38.5t-34.5 -28.5q-34 -15 -96 -19q-39 -1 -162 -7t-190 -7q-19 -1 -60.5 -8t-62.5 -7q-59 0 -84 52q-31 63 -31 170 q0 40 5 116t5 109q16 382 31 559q3 31 6.5 119.5t7.5 134.5l9 76q-1 0 -22 -9.5t-29.5 -12.5t-25 -7t-28.5 -4q-33 0 -49 22q-12 18 -12 33zM350 1638q0 7 6 13q42 45 76 63q37 19 103 45l8 -4l12 -2q26 -20 29 -47q-58 -71 -144 -129h-24q-38 7 -64 33q-6 14 -2 28z"/>
            <glyph unicode="&#xca;" horiz-adv-x="858"
                   d="M29 1333q0 17 14.5 33t37 27t41 18t36.5 12q249 58 653 97h6q32 0 49 -27q13 -19 13 -35q0 -61 -203 -72q-209 -8 -309 -26q2 -14 2 -41q4 -45 4 -164q0 -141 -6 -319q39 7 142 22.5t148 24.5l19 2q24 0 39.5 -10t15.5 -27q0 -31 -53 -64q-18 -11 -42 -15t-58 -4t-46 -1 q-135 -9 -170 -16q-4 -102 -10 -243t-9.5 -231.5t-4.5 -128.5q0 -40 -4 -63q1 4 151.5 18t192.5 17q2 0 53 8t78 8q30 0 41 -8q16 -16 16 -35t-14.5 -38.5t-34.5 -28.5q-34 -15 -96 -19q-39 -1 -162 -7t-190 -7q-19 -1 -60.5 -8t-62.5 -7q-59 0 -84 52q-31 63 -31 170 q0 40 5 116t5 109q16 382 31 559q3 31 6.5 119.5t7.5 134.5l9 76q-1 0 -22 -9.5t-29.5 -12.5t-25 -7t-28.5 -4q-33 0 -49 22q-12 18 -12 33zM291 1602l4 14q0 9 6 12q47 59 86 101q9 12 31 18q24 4 37 4q36 0 75 -25q30 -24 80 -77q8 -12 8 -21q0 -1 -1 -4.5t-1 -5.5 q-7 -17 -24 -23q-24 -6 -47 -6q-45 0 -80 27l-21 18l-22 23q-20 -12 -31 -23l-14 -12l-15 -12q-21 -15 -40 -15q-14 0 -31 7z"/>
            <glyph unicode="&#xcb;" horiz-adv-x="858"
                   d="M29 1333q0 17 14.5 33t37 27t41 18t36.5 12q249 58 653 97h6q32 0 49 -27q13 -19 13 -35q0 -61 -203 -72q-209 -8 -309 -26q2 -14 2 -41q4 -45 4 -164q0 -141 -6 -319q39 7 142 22.5t148 24.5l19 2q24 0 39.5 -10t15.5 -27q0 -31 -53 -64q-18 -11 -42 -15t-58 -4t-46 -1 q-135 -9 -170 -16q-4 -102 -10 -243t-9.5 -231.5t-4.5 -128.5q0 -40 -4 -63q1 4 151.5 18t192.5 17q2 0 53 8t78 8q30 0 41 -8q16 -16 16 -35t-14.5 -38.5t-34.5 -28.5q-34 -15 -96 -19q-39 -1 -162 -7t-190 -7q-19 -1 -60.5 -8t-62.5 -7q-59 0 -84 52q-31 63 -31 170 q0 40 5 116t5 109q16 382 31 559q3 31 6.5 119.5t7.5 134.5l9 76q-1 0 -22 -9.5t-29.5 -12.5t-25 -7t-28.5 -4q-33 0 -49 22q-12 18 -12 33zM170 1657l2 6q3 30 31.5 49t70.5 19h17q41 -3 62.5 -22t21.5 -50v-8q-3 -32 -27.5 -55t-62.5 -23h-11q-44 3 -74 28t-30 56z M532 1657l3 6q3 29 32 48.5t70 19.5h16q41 -3 62.5 -22t21.5 -50v-8q-3 -32 -27.5 -55t-62.5 -23h-10q-44 3 -74.5 28t-30.5 56z"/>
            <glyph unicode="&#xcc;" horiz-adv-x="409"
                   d="M205 332l2 125q16 406 31 587q2 23 6.5 140.5t17 185.5t39.5 94q19 19 57 19h19q20 -4 41 -17.5t26 -33.5q17 -72 17 -162q0 -46 -10 -221q-33 -491 -33 -564v-16q2 -37 2 -88q0 -31 -3 -92t-3 -121q0 -164 -101 -172h-6q-102 0 -102 336zM209 1761q0 23 39 33q18 6 39 6 q26 0 53 -10q91 -38 119 -129q6 -47 6 -70q0 -32 -16 -37l-9 -2l-10 2q-50 18 -116 76t-101 121z"/>
            <glyph unicode="&#xcd;" horiz-adv-x="409"
                   d="M205 332l2 125q16 406 31 587q2 23 6.5 140.5t17 185.5t39.5 94q19 19 57 19h19q20 -4 41 -17.5t26 -33.5q17 -72 17 -162q0 -46 -10 -221q-33 -491 -33 -564v-16q2 -37 2 -88q0 -31 -3 -92t-3 -121q0 -164 -101 -172h-6q-102 0 -102 336zM272 1630q0 5 7 12q45 48 75 64 q37 19 103 45l8 -4l12 -2q26 -20 29 -47q-58 -71 -144 -129h-24q-38 7 -64 33q-6 14 -2 28z"/>
            <glyph unicode="&#xce;" horiz-adv-x="409"
                   d="M205 332l2 125q16 406 31 587q2 23 6.5 140.5t17 185.5t39.5 94q19 19 57 19h19q20 -4 41 -17.5t26 -33.5q17 -72 17 -162q0 -46 -10 -221q-33 -491 -33 -564v-16q2 -37 2 -88q0 -31 -3 -92t-3 -121q0 -164 -101 -172h-6q-102 0 -102 336zM225 1542l4 14q0 10 7 13 q41 52 86 100q10 13 30 19q24 4 37 4q37 0 76 -25q26 -21 80 -78q8 -12 8 -20q0 -1 -1 -4.5t-1 -5.5q-7 -17 -25 -23q-24 -6 -47 -6q-47 0 -80 26l-20 19l-23 22q-20 -12 -30 -22l-15 -12l-14 -13q-20 -14 -41 -14q-16 0 -31 6z"/>
            <glyph unicode="&#xcf;" horiz-adv-x="409"
                   d="M-27 1634l2 6q3 30 32 49t71 19h16q41 -3 62.5 -22t21.5 -50v-8q-3 -32 -27.5 -55t-62.5 -23h-10q-44 3 -74.5 28t-30.5 56zM90 332l2 125q16 406 31 587q2 23 6.5 140.5t17 185.5t39.5 94q19 19 58 19h18q21 -4 42 -17.5t26 -33.5q16 -68 16 -162q0 -46 -10 -221 q-33 -491 -33 -564v-16q2 -37 2 -88q0 -31 -3 -92t-3 -121q0 -164 -100 -172h-6q-103 0 -103 336zM336 1634l2 6q3 29 32 48.5t70 19.5h17q41 -3 62.5 -22t21.5 -50v-8q-3 -32 -27.5 -55t-62.5 -23h-11q-44 3 -74 28t-30 56z"/>
            <glyph unicode="&#xd0;" horiz-adv-x="1112"
                   d="M-57 739q0 18 18 33q16 11 59 14h70q0 8 1 25t1 25q2 37 4 73t3.5 67t2.5 42q6 53 9 119q3 93 12 174q-27 -6 -51 -6q-48 0 -74 26q-12 15 -12 31q0 26 26 43q25 18 56 31q29 13 47 16l32 8q113 32 248 51q68 5 74 5q59 0 139 -17q30 -7 58 -16l8 -4q58 -24 114 -74 q103 -75 154 -201q59 -158 68 -321q6 -53 6 -101t-6 -100q-3 -56 -11 -98q0 -21 -2 -31q-7 -69 -20 -121q-4 -16 -6 -26q-8 -49 -31 -99q-26 -62 -80 -110q-47 -45 -110 -88q-142 -91 -310 -121q-92 -25 -182 -25q-58 0 -104 21q-45 17 -54 67q-16 57 -22 125q-6 70 -6 133 q0 86 2 115v12q0 27 6 150q5 88 6 106h-74q-31 0 -51 17q-18 15 -18 30zM274 174q0 -51 9 -98q3 -8 24 -8t55 6q40 8 58 12q15 3 35 10q98 36 172 101q162 148 180 368q18 132 18 260q0 66 -10 144q-24 210 -178 352q-88 70 -170 70q-63 0 -152 -29q11 -75 11 -125 q0 -81 -9 -164l-6 -80l-12 -202l283 4q41 0 59 -15t18 -32q0 -22 -24 -43t-64 -21q-78 0 -137 2q-23 0 -69.5 1t-69.5 1l-4 -57q-1 -24 -2 -73t-2 -73q0 -51 -4 -145q0 -35 -2 -53q-7 -68 -7 -113z"/>
            <glyph unicode="&#xd1;" horiz-adv-x="1028"
                   d="M135 326l2 125q15 393 31 587q2 23 6.5 140t17 184.5t39.5 93.5q24 21 60 21h14q22 -3 43 -17.5t25 -34.5q20 -74 20 -278q0 -129 -6 -273q28 107 47 160q88 241 215 387q75 82 166 82l31 -2q33 -6 66 -29.5t46 -52.5q31 -65 43 -213q13 -211 13 -485q-1 -61 -7.5 -182 t-7.5 -181q0 -21 5.5 -77.5t5.5 -87.5q0 -98 -39 -142q-45 -45 -88 -45q-15 0 -27 6q-27 17 -47 119q-14 62 -14 158l2 125v188q0 189 8 283q4 44 5.5 107.5t1.5 143.5t1 109q0 109 -47 109q-35 0 -85 -54.5t-75 -107.5q-92 -193 -145 -389q-47 -165 -72 -307 q-6 -28 -12.5 -79.5t-9.5 -68.5q-3 -20 -4.5 -69.5t-5 -92.5t-13 -88.5t-35 -74.5t-65.5 -33h-4q-105 0 -105 336zM381 1632v10q55 130 197 130q51 -1 111.5 -31.5t88.5 -30.5q44 0 92 23q12 4 19 4q14 0 24.5 -10t10.5 -25q0 -17 -17 -31q-79 -63 -162 -63q-15 0 -43 4 q-20 4 -72.5 25.5t-90.5 21.5l-31 -2q-21 -3 -37 -12.5t-33 -27.5l-16 -18q-6 -6 -14 -6q-11 0 -19 13t-8 26z"/>
            <glyph unicode="&#xd2;" horiz-adv-x="1038"
                   d="M143 698q0 139 31 322q10 63 25 106q35 110 108 203.5t170 132.5q87 35 178 35q186 -3 252 -147q5 -10 16.5 -34.5t16.5 -34.5t13.5 -30t12.5 -33.5t9 -32.5t8 -38q20 -125 26.5 -197.5t6.5 -195.5q-6 -236 -31 -344q-25 -125 -86 -226q-53 -95 -138.5 -144.5 t-191.5 -49.5q-49 0 -90 8q-55 11 -103 45t-80 78t-59 102.5t-42 109.5t-27 107q-25 131 -25 258zM342 635q0 -107 22.5 -209.5t63.5 -173.5q33 -56 95 -93.5t126 -37.5q92 0 142 76q31 55 38 73q38 87 62 196.5t24 199.5v10q0 305 -43 489q-12 53 -37.5 102t-67 85.5 t-87.5 36.5q-56 0 -111 -52q-52 -48 -90.5 -108t-60 -112.5t-37 -129.5t-21.5 -126.5t-14 -135.5q-4 -58 -4 -90zM489 1743q0 21 39 33q18 6 41 6q25 0 52 -10q89 -37 118 -130q1 -11 3.5 -24.5t4 -23t1.5 -21.5q0 -32 -19 -37l-8 -2l-10 2q-50 18 -116 76t-101 121z"/>
            <glyph unicode="&#xd3;" horiz-adv-x="1038"
                   d="M143 698q0 139 31 322q10 63 25 106q35 110 108 203.5t170 132.5q87 35 178 35q186 -3 252 -147q5 -10 16.5 -34.5t16.5 -34.5t13.5 -30t12.5 -33.5t9 -32.5t8 -38q20 -125 26.5 -197.5t6.5 -195.5q-6 -236 -31 -344q-25 -125 -86 -226q-53 -95 -138.5 -144.5 t-191.5 -49.5q-49 0 -90 8q-55 11 -103 45t-80 78t-59 102.5t-42 109.5t-27 107q-25 131 -25 258zM342 635q0 -107 22.5 -209.5t63.5 -173.5q33 -56 95 -93.5t126 -37.5q92 0 142 76q31 55 38 73q38 87 62 196.5t24 199.5v10q0 305 -43 489q-12 53 -37.5 102t-67 85.5 t-87.5 36.5q-56 0 -111 -52q-52 -48 -90.5 -108t-60 -112.5t-37 -129.5t-21.5 -126.5t-14 -135.5q-4 -58 -4 -90zM522 1649l6 12q40 43 78 63q46 24 103 45l8 -4l10 -2q29 -23 29 -47q-51 -67 -144 -129h-22q-36 6 -66 33q-4 21 -2 29z"/>
            <glyph unicode="&#xd4;" horiz-adv-x="1038"
                   d="M143 698q0 139 31 322q10 63 25 106q35 110 108 203.5t170 132.5q87 35 178 35q186 -3 252 -147q5 -10 16.5 -34.5t16.5 -34.5t13.5 -30t12.5 -33.5t9 -32.5t8 -38q20 -125 26.5 -197.5t6.5 -195.5q-6 -236 -31 -344q-25 -125 -86 -226q-53 -95 -138.5 -144.5 t-191.5 -49.5q-49 0 -90 8q-55 11 -103 45t-80 78t-59 102.5t-42 109.5t-27 107q-25 131 -25 258zM342 635q0 -107 22.5 -209.5t63.5 -173.5q33 -56 95 -93.5t126 -37.5q92 0 142 76q31 55 38 73q38 87 62 196.5t24 199.5v10q0 305 -43 489q-12 53 -37.5 102t-67 85.5 t-87.5 36.5q-56 0 -111 -52q-52 -48 -90.5 -108t-60 -112.5t-37 -129.5t-21.5 -126.5t-14 -135.5q-4 -58 -4 -90zM489 1597l5 15q3 9 6 12q41 52 86 100q10 13 30 19q28 4 37 4q40 0 76 -25q30 -24 80 -77q8 -8 8 -21q0 -6 -2 -10q-7 -17 -24 -23q-24 -6 -48 -6 q-45 0 -79 27l-21 18l-22 23q-20 -12 -31 -23l-15 -12l-14 -12q-21 -15 -41 -15q-16 0 -31 6z"/>
            <glyph unicode="&#xd5;" horiz-adv-x="1038"
                   d="M143 698q0 139 31 322q10 63 25 106q35 110 108 203.5t170 132.5q87 35 178 35q186 -3 252 -147q5 -10 16.5 -34.5t16.5 -34.5t13.5 -30t12.5 -33.5t9 -32.5t8 -38q20 -125 26.5 -197.5t6.5 -195.5q-6 -236 -31 -344q-25 -125 -86 -226q-53 -95 -138.5 -144.5 t-191.5 -49.5q-49 0 -90 8q-55 11 -103 45t-80 78t-59 102.5t-42 109.5t-27 107q-25 131 -25 258zM342 635q0 -107 22.5 -209.5t63.5 -173.5q33 -56 95 -93.5t126 -37.5q92 0 142 76q31 55 38 73q38 87 62 196.5t24 199.5v10q0 305 -43 489q-12 53 -37.5 102t-67 85.5 t-87.5 36.5q-56 0 -111 -52q-52 -48 -90.5 -108t-60 -112.5t-37 -129.5t-21.5 -126.5t-14 -135.5q-4 -58 -4 -90zM346 1585l2 10q54 129 197 129q51 -1 111.5 -31t88.5 -30q45 0 93 23q12 4 16 4q15 0 26 -10t11 -25q0 -14 -17 -31q-79 -63 -163 -63q-13 0 -41 4 q-22 4 -75.5 25.5t-90.5 21.5l-29 -2q-21 -3 -37 -12.5t-32 -27.5l-17 -18q-9 -6 -14 -6q-11 0 -20 13t-9 26z"/>
            <glyph unicode="&#xd6;" horiz-adv-x="1038"
                   d="M143 698q0 139 31 322q10 63 25 106q35 110 108 203.5t170 132.5q87 35 178 35q186 -3 252 -147q5 -10 16.5 -34.5t16.5 -34.5t13.5 -30t12.5 -33.5t9 -32.5t8 -38q20 -125 26.5 -197.5t6.5 -195.5q-6 -236 -31 -344q-25 -125 -86 -226q-53 -95 -138.5 -144.5 t-191.5 -49.5q-49 0 -90 8q-55 11 -103 45t-80 78t-59 102.5t-42 109.5t-27 107q-25 131 -25 258zM340 1679v7q4 30 33 48.5t69 18.5h17q41 -3 62.5 -22t21.5 -50v-8q-3 -32 -27 -55t-61 -23h-13q-43 3 -72.5 28t-29.5 56zM342 635q0 -107 22.5 -209.5t63.5 -173.5 q33 -56 95 -93.5t126 -37.5q92 0 142 76q31 55 38 73q38 87 62 196.5t24 199.5v10q0 305 -43 489q-12 53 -37.5 102t-67 85.5t-87.5 36.5q-56 0 -111 -52q-52 -48 -90.5 -108t-60 -112.5t-37 -129.5t-21.5 -126.5t-14 -135.5q-4 -58 -4 -90zM702 1679v7q4 29 33.5 48 t69.5 19h16q41 -3 62.5 -22t21.5 -50v-8q-3 -32 -27 -55t-61 -23h-12q-44 3 -73.5 28t-29.5 56z"/>
            <glyph unicode="&#xd7;" horiz-adv-x="837"
                   d="M164 530q0 19 16 33t49 15q101 0 187 2q0 80 -4 186v2q0 33 13.5 50.5t33.5 17.5q25 0 45 -22t20 -54l-2 -178q126 4 183 4h2q33 0 50 -13.5t17 -33.5q0 -24 -22 -44t-54 -20l-178 2l-4 -192q0 -26 -14.5 -43t-32.5 -17q-19 0 -32.5 17.5t-14.5 50.5l-2 186l-199 4 q-26 0 -41.5 14t-15.5 33z"/>
            <glyph unicode="&#xd8;" horiz-adv-x="1038"
                   d="M143 698q0 158 31 322q24 166 129 305q132 172 363 172q66 0 116 -20q8 30 29 55q18 21 72 27q11 0 18 -17q8 -16 8 -35q0 -26 -32 -108q80 -113 106 -252q33 -188 33 -393l-8 -172q-18 -246 -109 -398q-123 -194 -330 -194q-126 0 -207 63q-51 -99 -90 -108h-4 q-16 0 -32 22q-17 20 -17 53q0 62 47 148l-2 4q-121 230 -121 526zM342 635q0 -101 23 -209l45 125q215 544 331 823q-27 15 -61 15q-53 0 -111 -52q-131 -125 -172 -284q-55 -210 -55 -418zM434 242q34 -49 92 -86q59 -35 123 -35q41 0 78 18q54 24 102 131q86 195 86 402 q0 453 -88 608q-29 -66 -108 -281q-20 -56 -154 -409z"/>
            <glyph unicode="&#xd9;" horiz-adv-x="944"
                   d="M115 485q0 77 4 187t8 190.5t4 85.5q10 220 10 277t-2 86q-1 8 -3.5 27.5t-2.5 29.5q0 33 36.5 70t86.5 37q27 0 49 -19q9 -9 15 -26.5t8 -32t3.5 -37.5t2.5 -29q14 -89 14 -225v-59q0 -115 -21.5 -327t-21.5 -317q0 -55 6 -114q1 -7 3.5 -34t5 -42t8.5 -38.5t14 -36.5 t22 -23.5t33 -10.5q25 2 48 16t38 31.5t31 47.5t23.5 48.5t19.5 49.5q66 169 101.5 360t60.5 433q3 30 7.5 144.5t17 185t40.5 96.5q23 20 56 20l20 -2q24 -4 45.5 -16.5t22.5 -32.5q8 -88 8 -201l-6 -252q-4 -180 -6 -401t-6 -412l2 -86q0 -61 -22.5 -100t-66.5 -39 q-35 0 -57.5 19.5t-32.5 57t-13 70.5t-3 80q0 66 1 104.5t3.5 88t3.5 100.5q-13 -33 -53 -159t-74 -191q-70 -128 -137 -158q-55 -22 -98 -22q-62 0 -112.5 38.5t-80.5 99.5t-45.5 129.5t-15.5 135.5zM424 1745q0 23 39 33q15 6 39 6q26 0 53 -10q91 -38 119 -129 q6 -47 6 -70q0 -32 -16 -37l-9 -2l-10 2q-50 18 -116 76t-101 121z"/>
            <glyph unicode="&#xda;" horiz-adv-x="944"
                   d="M115 485q0 77 4 187t8 190.5t4 85.5q10 220 10 277t-2 86q-1 8 -3.5 27.5t-2.5 29.5q0 33 36.5 70t86.5 37q27 0 49 -19q9 -9 15 -26.5t8 -32t3.5 -37.5t2.5 -29q14 -89 14 -225v-59q0 -115 -21.5 -327t-21.5 -317q0 -55 6 -114q1 -7 3.5 -34t5 -42t8.5 -38.5t14 -36.5 t22 -23.5t33 -10.5q25 2 48 16t38 31.5t31 47.5t23.5 48.5t19.5 49.5q66 169 101.5 360t60.5 433q3 30 7.5 144.5t17 185t40.5 96.5q23 20 56 20l20 -2q24 -4 45.5 -16.5t22.5 -32.5q8 -88 8 -201l-6 -252q-4 -180 -6 -401t-6 -412l2 -86q0 -61 -22.5 -100t-66.5 -39 q-35 0 -57.5 19.5t-32.5 57t-13 70.5t-3 80q0 66 1 104.5t3.5 88t3.5 100.5q-13 -33 -53 -159t-74 -191q-70 -128 -137 -158q-55 -22 -98 -22q-62 0 -112.5 38.5t-80.5 99.5t-45.5 129.5t-15.5 135.5zM422 1634q0 5 4 13q47 47 78 63q40 21 102 45l8 -4l13 -2q25 -19 28 -47 q-60 -74 -145 -129h-23q-36 6 -63 33q-6 14 -2 28z"/>
            <glyph unicode="&#xdb;" horiz-adv-x="944"
                   d="M115 485q0 77 4 187t8 190.5t4 85.5q10 220 10 277t-2 86q-1 8 -3.5 27.5t-2.5 29.5q0 33 36.5 70t86.5 37q27 0 49 -19q9 -9 15 -26.5t8 -32t3.5 -37.5t2.5 -29q14 -89 14 -225v-59q0 -115 -21.5 -327t-21.5 -317q0 -55 6 -114q1 -7 3.5 -34t5 -42t8.5 -38.5t14 -36.5 t22 -23.5t33 -10.5q25 2 48 16t38 31.5t31 47.5t23.5 48.5t19.5 49.5q66 169 101.5 360t60.5 433q3 30 7.5 144.5t17 185t40.5 96.5q23 20 56 20l20 -2q24 -4 45.5 -16.5t22.5 -32.5q8 -88 8 -201l-6 -252q-4 -180 -6 -401t-6 -412l2 -86q0 -61 -22.5 -100t-66.5 -39 q-35 0 -57.5 19.5t-32.5 57t-13 70.5t-3 80q0 66 1 104.5t3.5 88t3.5 100.5q-13 -33 -53 -159t-74 -191q-70 -128 -137 -158q-55 -22 -98 -22q-62 0 -112.5 38.5t-80.5 99.5t-45.5 129.5t-15.5 135.5zM371 1597l4 15q0 9 6 12q41 52 86 100q10 13 31 19q24 4 37 4 q36 0 75 -25q30 -24 80 -77q8 -12 8 -21q0 -1 -1 -4.5t-1 -5.5q-7 -17 -24 -23q-24 -6 -47 -6q-45 0 -80 27l-21 18l-22 23q-20 -12 -31 -23l-14 -12l-15 -12q-21 -15 -41 -15q-15 0 -30 6z"/>
            <glyph unicode="&#xdc;" horiz-adv-x="944"
                   d="M115 485q0 77 4 187t8 190.5t4 85.5q10 220 10 277t-2 86q-1 8 -3.5 27.5t-2.5 29.5q0 33 36.5 70t86.5 37q27 0 49 -19q9 -9 15 -26.5t8 -32t3.5 -37.5t2.5 -29q14 -89 14 -225v-59q0 -115 -21.5 -327t-21.5 -317q0 -55 6 -114q1 -7 3.5 -34t5 -42t8.5 -38.5t14 -36.5 t22 -23.5t33 -10.5q25 2 48 16t38 31.5t31 47.5t23.5 48.5t19.5 49.5q66 169 101.5 360t60.5 433q3 30 7.5 144.5t17 185t40.5 96.5q23 20 56 20l20 -2q24 -4 45.5 -16.5t22.5 -32.5q8 -88 8 -201l-6 -252q-4 -180 -6 -401t-6 -412l2 -86q0 -61 -22.5 -100t-66.5 -39 q-35 0 -57.5 19.5t-32.5 57t-13 70.5t-3 80q0 66 1 104.5t3.5 88t3.5 100.5q-13 -33 -53 -159t-74 -191q-70 -128 -137 -158q-55 -22 -98 -22q-62 0 -112.5 38.5t-80.5 99.5t-45.5 129.5t-15.5 135.5zM246 1679v7q4 30 33 48.5t69 18.5h17q86 -6 86 -72l-2 -8 q-2 -32 -26.5 -55t-62.5 -23h-12q-42 3 -72 28t-30 56zM608 1679v7q4 29 34 48t71 19h14q86 -6 86 -72l-2 -8q-2 -32 -26 -55t-62 -23h-12q-42 3 -72.5 28t-30.5 56z"/>
            <glyph unicode="&#xdd;" horiz-adv-x="862"
                   d="M143 1352q0 46 25 71q42 45 80 45q34 0 61 -41q31 -44 62 -123t48 -137.5t44 -160.5t33 -123q1 -3 30 -107q23 47 131 313.5t117 286.5q11 25 16 35t15 26t22.5 22.5t28.5 6.5h4q47 -3 47 -45q0 -34 -45 -127q-21 -49 -90 -210.5t-104 -239.5q-3 -8 -36.5 -96.5 t-56.5 -135.5v-32q0 -90 -6 -238.5t-6 -173.5q0 -162 -98 -170h-6q-84 0 -84 223q0 52 5 127.5t5 83.5q0 109 4 162q-19 33 -84.5 232t-79.5 233q-20 52 -29.5 82.5t-20.5 70t-19 66.5q-13 50 -13 74zM457 1581q-3 16 0 29q0 4 4 12q42 45 78 64q41 21 102 45l8 -5l13 -2 q25 -22 28 -47q-60 -74 -145 -129h-23q-35 6 -65 33z"/>
            <glyph unicode="&#xde;" horiz-adv-x="952"
                   d="M147 639l3 184l6 488q0 196 43 241q22 25 61 25h14q23 -2 45.5 -15.5t28.5 -33.5q4 -24 4 -139l-8 -428q45 90 100 184q31 52 78.5 83.5t106.5 31.5l26 -3q75 -8 144 -60.5t92 -121.5q33 -106 33 -207l-2 -63q-1 -16 -11 -82q-20 -119 -69.5 -211t-136.5 -172 q-51 -46 -156 -86q-70 -18 -107 -18q-53 0 -98 26q7 -97 15.5 -169t14.5 -108l7 -36v-35q0 -142 -94 -158h-11q-26 0 -46.5 22.5t-33.5 62.5t-21.5 83t-13 98t-6.5 93t-3.5 81t-1.5 50zM330 442q0 -55 23 -88t85 -37h17q50 0 93 21t72.5 54t52 77t34.5 87.5t18 88.5 q6 38 6 74v90q0 80 -8 145q-8 49 -33.5 100.5t-62.5 59.5q-8 2 -21 2q-39 0 -65 -29q-35 -30 -60 -73q-120 -200 -143 -471q0 -8 -4 -44.5t-4 -56.5z"/>
            <glyph unicode="&#xdf;" horiz-adv-x="741"
                   d="M131 285q3 704 21 874q3 44 20 162q27 152 229 152q114 0 201 -78q113 -128 113 -297q0 -50 -17 -123q-18 -60 -57 -139q-14 -32 -14 -54q0 -34 22 -65q109 -157 109 -381q0 -56 -17 -133q-49 -217 -254 -217q-32 0 -90 4q-13 0 -22 30l4 9q16 25 33 28q68 12 104 109 q23 87 23 168q0 222 -90 368q-29 47 -29 91q0 45 22 88q58 132 58 282q0 206 -119 230q-106 -26 -115 -136q-12 -170 -24 -835q-3 -127 -9 -162v-2q0 -25 -26 -39l2 -2q-60 0 -78 68z"/>
            <glyph unicode="&#xe0;" horiz-adv-x="929"
                   d="M106 481q0 39 9 154q17 153 65 246q30 55 84.5 100.5t112.5 62.5q27 9 53 9q88 0 184 -78q91 -76 113 -201q0 7 1.5 36t2.5 38.5t2.5 34.5t3.5 36t5 31.5t6.5 31.5t8.5 25t11 23.5t14 16.5q18 18 52 18h18q22 -4 42.5 -16.5t23.5 -30.5q6 -68 6 -144q0 -141 -17.5 -389 t-17.5 -303q0 -154 -94 -164h-4q-99 0 -99 312l2 82q-31 -94 -67 -168q-26 -65 -84 -135q-72 -91 -154 -91q-24 0 -53 13q-73 31 -126.5 112t-80.5 172q-23 76 -23 166zM295 457q0 -131 41 -262q20 -64 55 -64q37 0 90 68q49 68 68 123q31 84 69.5 213t38.5 172v4 q-2 84 -48 148t-128 71h-4q-49 0 -92 -66q-48 -79 -76 -256q-14 -69 -14 -151zM401 1341q0 22 37 33q18 6 41 6q28 0 51 -10q91 -38 119 -129q8 -41 8 -70q0 -31 -18 -36l-6 -2l-12 2q-51 19 -117 76t-101 120z"/>
            <glyph unicode="&#xe1;" horiz-adv-x="929"
                   d="M106 481q0 39 9 154q17 153 65 246q30 55 84.5 100.5t112.5 62.5q27 9 53 9q88 0 184 -78q91 -76 113 -201q0 7 1.5 36t2.5 38.5t2.5 34.5t3.5 36t5 31.5t6.5 31.5t8.5 25t11 23.5t14 16.5q18 18 52 18h18q22 -4 42.5 -16.5t23.5 -30.5q6 -68 6 -144q0 -141 -17.5 -389 t-17.5 -303q0 -154 -94 -164h-4q-99 0 -99 312l2 82q-31 -94 -67 -168q-26 -65 -84 -135q-72 -91 -154 -91q-24 0 -53 13q-73 31 -126.5 112t-80.5 172q-23 76 -23 166zM295 457q0 -131 41 -262q20 -64 55 -64q37 0 90 68q49 68 68 123q31 84 69.5 213t38.5 172v4 q-2 84 -48 148t-128 71h-4q-49 0 -92 -66q-48 -79 -76 -256q-14 -69 -14 -151zM465 1182q-3 16 0 28q0 5 4 13q40 43 78 63q41 21 102 45l8 -4l13 -2q26 -23 26 -47q-52 -68 -143 -129h-23q-35 6 -65 33z"/>
            <glyph unicode="&#xe2;" horiz-adv-x="929"
                   d="M106 481q0 39 9 154q17 153 65 246q30 55 84.5 100.5t112.5 62.5q27 9 53 9q88 0 184 -78q91 -76 113 -201q0 7 1.5 36t2.5 38.5t2.5 34.5t3.5 36t5 31.5t6.5 31.5t8.5 25t11 23.5t14 16.5q18 18 52 18h18q22 -4 42.5 -16.5t23.5 -30.5q6 -68 6 -144q0 -141 -17.5 -389 t-17.5 -303q0 -154 -94 -164h-4q-99 0 -99 312l2 82q-31 -94 -67 -168q-26 -65 -84 -135q-72 -91 -154 -91q-24 0 -53 13q-73 31 -126.5 112t-80.5 172q-23 76 -23 166zM295 457q0 -131 41 -262q20 -64 55 -64q37 0 90 68q49 68 68 123q31 84 69.5 213t38.5 172v4 q-2 84 -48 148t-128 71h-4q-49 0 -92 -66q-48 -79 -76 -256q-14 -69 -14 -151zM393 1149l4 14q3 11 6 13q11 13 86 100q11 12 31 18q28 4 37 4q41 0 76 -24q26 -21 80 -78q8 -8 8 -20q0 -7 -2 -11q-6 -16 -25 -22q-24 -6 -47 -6q-44 0 -80 26l-20 19l-23 22q-1 -1 -12 -8.5 t-18 -13.5l-15 -13l-14 -12q-17 -14 -41 -14q-13 0 -31 6z"/>
            <glyph unicode="&#xe3;" horiz-adv-x="929"
                   d="M106 481q0 39 9 154q17 153 65 246q30 55 84.5 100.5t112.5 62.5q27 9 53 9q88 0 184 -78q91 -76 113 -201q0 7 1.5 36t2.5 38.5t2.5 34.5t3.5 36t5 31.5t6.5 31.5t8.5 25t11 23.5t14 16.5q18 18 52 18h18q22 -4 42.5 -16.5t23.5 -30.5q6 -68 6 -144q0 -141 -17.5 -389 t-17.5 -303q0 -154 -94 -164h-4q-99 0 -99 312l2 82q-31 -94 -67 -168q-26 -65 -84 -135q-72 -91 -154 -91q-24 0 -53 13q-73 31 -126.5 112t-80.5 172q-23 76 -23 166zM285 1174l2 10q54 129 196 129q51 -1 112 -31.5t89 -30.5q44 0 92 23q12 4 19 4q14 0 24 -10t10 -25 q0 -18 -16 -31q-79 -63 -164 -63q-13 0 -41 4q-22 4 -75.5 25.5t-90.5 21.5l-28 -2q-16 -2 -31 -10t-23.5 -15.5t-18.5 -18t-13 -13.5q-6 -6 -15 -6q-11 0 -19.5 13t-8.5 26zM295 457q0 -131 41 -262q20 -64 55 -64q37 0 90 68q49 68 68 123q31 84 69.5 213t38.5 172v4 q-2 84 -48 148t-128 71h-4q-49 0 -92 -66q-48 -79 -76 -256q-14 -69 -14 -151z"/>
            <glyph unicode="&#xe4;" horiz-adv-x="929"
                   d="M106 481q0 39 9 154q17 153 65 246q30 55 84.5 100.5t112.5 62.5q27 9 53 9q88 0 184 -78q91 -76 113 -201q0 7 1.5 36t2.5 38.5t2.5 34.5t3.5 36t5 31.5t6.5 31.5t8.5 25t11 23.5t14 16.5q18 18 52 18h18q22 -4 42.5 -16.5t23.5 -30.5q6 -68 6 -144q0 -141 -17.5 -389 t-17.5 -303q0 -154 -94 -164h-4q-99 0 -99 312l2 82q-31 -94 -67 -168q-26 -65 -84 -135q-72 -91 -154 -91q-24 0 -53 13q-73 31 -126.5 112t-80.5 172q-23 76 -23 166zM254 1214v7q4 30 33 48.5t69 18.5h17q84 -6 84 -71v-9q-3 -33 -26.5 -55.5t-61.5 -22.5h-13 q-43 3 -72.5 28t-29.5 56zM295 457q0 -131 41 -262q20 -64 55 -64q37 0 90 68q49 68 68 123q31 84 69.5 213t38.5 172v4q-2 84 -48 148t-128 71h-4q-49 0 -92 -66q-48 -79 -76 -256q-14 -69 -14 -151zM616 1214v7q4 29 34 48t71 19h14q84 -6 84 -71v-9q-3 -33 -26.5 -55.5 t-61.5 -22.5h-12q-44 3 -73.5 28t-29.5 56z"/>
            <glyph unicode="&#xe5;" horiz-adv-x="929"
                   d="M106 481q0 39 9 154q17 153 65 246q30 55 84.5 100.5t112.5 62.5q27 9 53 9q88 0 184 -78q91 -76 113 -201q0 7 1.5 36t2.5 38.5t2.5 34.5t3.5 36t5 31.5t6.5 31.5t8.5 25t11 23.5t14 16.5q18 18 52 18h18q22 -4 42.5 -16.5t23.5 -30.5q6 -68 6 -144q0 -141 -17.5 -389 t-17.5 -303q0 -154 -94 -164h-4q-99 0 -99 312l2 82q-31 -94 -67 -168q-26 -65 -84 -135q-72 -91 -154 -91q-24 0 -53 13q-73 31 -126.5 112t-80.5 172q-23 76 -23 166zM295 457q0 -131 41 -262q20 -64 55 -64q37 0 90 68q49 68 68 123q31 84 69.5 213t38.5 172v4 q-2 84 -48 148t-128 71h-4q-49 0 -92 -66q-48 -79 -76 -256q-14 -69 -14 -151zM315 1319q0 129 111 160q30 6 59 6q121 0 121 -156q0 -30 -10 -64.5t-29 -54.5q-38 -41 -110 -41q-76 4 -109 47.5t-33 102.5zM389 1321q0 -41 26.5 -74t69.5 -33q42 0 58 36.5t20 99.5 q0 42 -18 72t-56 30q-39 0 -69.5 -41.5t-30.5 -89.5z"/>
            <glyph unicode="&#xe6;" horiz-adv-x="1300"
                   d="M176 481q0 79 8 142v12q9 132 66 246q27 49 84 100q49 44 112 63q27 9 54 9q47 0 98 -23q46 -21 86 -55q95 -83 113 -201q0 19 2 27q3 78 12 145q8 64 41 101q24 18 51 18h19q12 -2 41 -14q19 -13 22 -29q60 51 127 51q50 0 98 -31q49 -36 74 -96q39 -79 39 -158 q0 -124 -133 -219q-90 -64 -201 -82l-2 -43q0 -70 12 -135q8 -57 39 -125q40 -73 97 -73q29 0 71 28q87 78 121 191q0 4 2 6q3 12 12 24q8 12 19 15l8 2q15 0 27 -12q14 -8 14 -25v-2q0 -16 -12 -53q-3 -8 -29 -80q-11 -25 -35 -68q-65 -103 -178 -127l-33 -2q-78 0 -143 45 q-20 11 -37 25q-15 -48 -78 -60h-4q-42 0 -63 52q-21 50 -27 123q-8 63 -8 137l2 82q-38 -104 -68 -168q-12 -27 -37 -72q-9 -15 -47 -63q-27 -37 -67 -64q-41 -27 -86 -27q-24 0 -53 13q-79 37 -132 121q-51 80 -75 163q-23 87 -23 166zM365 457q0 -131 41 -262 q21 -64 55 -64q24 0 45 21q25 22 45 47q5 8 13.5 21.5t15.5 24.5t12 21q11 21 26 56q1 3 41 116q40 126 48 158q20 73 20 111v4q-3 83 -45 145q-47 65 -131 74h-4q-31 0 -53 -19q-29 -29 -39 -47q-61 -116 -76 -256q-14 -71 -14 -151zM995 582q73 16 127 51q45 30 78 63 q31 45 31 101q0 45 -19 88q-8 18 -28 35q-20 14 -41 14t-35 -14q-50 -47 -72 -115q-21 -64 -30 -133z"/>
            <glyph unicode="&#xe7;" horiz-adv-x="761"
                   d="M152 502q0 41 12 182q15 139 147 305q74 86 160 86q17 0 66 -8q55 -6 108 -121q33 -62 33 -133q0 -25 -6 -49q-3 -23 -13 -33t-16 -10q-9 0 -18 6q-31 28 -31 84q-3 33 -12 59q-27 68 -74 68q-21 0 -39 -18q-51 -51 -72 -115q-49 -143 -49 -385q0 -137 51 -242 q38 -74 95 -74q33 0 75 29q82 73 123 197q12 41 43 41q30 0 39 -35q0 -35 -41 -135q-70 -164 -217 -199l-37 -2q1 -6 2 -21.5t2 -23.5q0 -19 4 -55q78 -57 78 -115q0 -48 -30 -78t-80 -33q-78 0 -84 25l-2 4q0 25 61 31q29 16 29 47q0 45 -62 98q-10 38 -10 74q0 57 6 63 q-109 42 -162 140q-79 158 -79 346z"/>
            <glyph unicode="&#xe8;" horiz-adv-x="661"
                   d="M53 510q0 135 40.5 261.5t115.5 217.5q75 84 162 84q54 0 99.5 -32.5t72.5 -94.5q41 -87 41 -158q0 -122 -135 -219q-86 -63 -201 -82v-43q0 -162 49 -260q39 -73 96 -73q37 0 72 28q32 25 56.5 61t34.5 58.5t32 77.5q14 33 30 39l11 2q15 0 24 -12q15 -11 15 -25v-2 q0 -26 -25.5 -96t-50.5 -105q-76 -114 -178 -127l-31 -2q-74 0 -145 44.5t-107 111.5q-78 156 -78 346zM195 1346q0 21 38 32q18 6 41 6q25 0 52 -10q89 -37 118 -129q1 -11 3.5 -24.5t4 -23t1.5 -21.5q0 -32 -19 -37l-8 -2l-10 2q-51 18 -116.5 75.5t-100.5 120.5zM254 582 q66 12 127 51q40 25 78 63q30 30 30 101q0 53 -18 88q-9 21 -28.5 35t-39.5 14q-19 0 -36 -14q-47 -45 -68.5 -104t-34.5 -144z"/>
            <glyph unicode="&#xe9;" horiz-adv-x="661"
                   d="M53 510q0 135 40.5 261.5t115.5 217.5q75 84 162 84q54 0 99.5 -32.5t72.5 -94.5q41 -87 41 -158q0 -122 -135 -219q-86 -63 -201 -82v-43q0 -162 49 -260q39 -73 96 -73q37 0 72 28q32 25 56.5 61t34.5 58.5t32 77.5q14 33 30 39l11 2q15 0 24 -12q15 -11 15 -25v-2 q0 -26 -25.5 -96t-50.5 -105q-76 -114 -178 -127l-31 -2q-74 0 -145 44.5t-107 111.5q-78 156 -78 346zM217 1210l6 13q40 43 78 63q47 24 100 45l11 -4l10 -2q26 -20 29 -47q-58 -71 -144 -129h-24q-34 6 -64 33q-4 20 -2 28zM254 582q66 12 127 51q40 25 78 63 q30 30 30 101q0 53 -18 88q-9 21 -28.5 35t-39.5 14q-19 0 -36 -14q-47 -45 -68.5 -104t-34.5 -144z"/>
            <glyph unicode="&#xea;" horiz-adv-x="661"
                   d="M53 510q0 135 40.5 261.5t115.5 217.5q75 84 162 84q54 0 99.5 -32.5t72.5 -94.5q41 -87 41 -158q0 -122 -135 -219q-86 -63 -201 -82v-43q0 -162 49 -260q39 -73 96 -73q37 0 72 28q32 25 56.5 61t34.5 58.5t32 77.5q14 33 30 39l11 2q15 0 24 -12q15 -11 15 -25v-2 q0 -26 -25.5 -96t-50.5 -105q-76 -114 -178 -127l-31 -2q-74 0 -145 44.5t-107 111.5q-78 156 -78 346zM199 1145l4 14q3 9 6 12q47 59 86 101q9 12 31 18q28 4 36 4q42 0 76 -24q26 -21 80 -78q8 -8 8 -21q0 -6 -2 -10q-6 -16 -24 -22q-24 -6 -47 -6q-47 0 -80 26l-21 19 l-22 22q-22 -14 -31 -22l-14 -13l-15 -12q-20 -14 -41 -14q-15 0 -30 6zM254 582q66 12 127 51q40 25 78 63q30 30 30 101q0 53 -18 88q-9 21 -28.5 35t-39.5 14q-19 0 -36 -14q-47 -45 -68.5 -104t-34.5 -144z"/>
            <glyph unicode="&#xeb;" horiz-adv-x="661"
                   d="M29 1217v6q4 31 32 49t70 18h16q84 -6 84 -71v-9q-3 -32 -27 -54.5t-61 -22.5h-12q-43 3 -72.5 28t-29.5 56zM41 510q0 135 40.5 261.5t115.5 217.5q75 84 161 84q54 0 99.5 -32.5t72.5 -94.5q41 -87 41 -158q0 -122 -135 -219q-87 -63 -200 -82v-43q0 -162 49 -260 q39 -73 96 -73q37 0 72 28q32 25 56.5 61.5t33.5 57.5t32 78q14 33 31 39l10 2q16 0 25 -12q14 -11 14 -25v-2q0 -27 -25 -96.5t-50 -104.5q-76 -113 -179 -127l-30 -2q-74 0 -145 44.5t-107 111.5q-78 156 -78 346zM242 582q66 12 127 51q37 23 77 63q31 31 31 101 q0 53 -18 88q-9 21 -28.5 35t-39.5 14t-37 -14q-33 -31 -54.5 -75.5t-30 -80.5t-17.5 -92zM391 1217v6q4 29 33.5 48t69.5 19h16q84 -6 84 -71v-9q-3 -32 -27 -54.5t-61 -22.5h-12q-44 3 -73.5 28t-29.5 56z"/>
            <glyph unicode="&#xec;" horiz-adv-x="403"
                   d="M102 193l2 55q7 83 15 234t12 206q1 18 2 79.5t3.5 97t17 81.5t41.5 72q20 20 51 20l20 -2q22 -4 43.5 -17t22.5 -32q6 -77 6 -160q0 -138 -17.5 -370.5t-17.5 -290.5q0 -164 -96 -174h-6q-29 0 -49.5 19t-31 51.5t-14.5 64t-4 66.5zM127 1276q0 22 37 33q18 6 41 6 q24 0 51 -10q91 -38 119 -129q8 -41 8 -70q0 -32 -18 -37l-9 -2l-10 2q-50 18 -116 76t-101 121z"/>
            <glyph unicode="&#xed;" horiz-adv-x="403"
                   d="M102 193l2 55q7 83 15 234t12 206q1 18 2 79.5t3.5 97t17 81.5t41.5 72q20 20 51 20l20 -2q22 -4 43.5 -17t22.5 -32q6 -77 6 -160q0 -138 -17.5 -370.5t-17.5 -290.5q0 -164 -96 -174h-6q-29 0 -49.5 19t-31 51.5t-14.5 64t-4 66.5zM152 1139l6 12q40 43 78 63 q55 28 102 46l8 -5l10 -2q29 -23 29 -47q-52 -68 -143 -129h-23q-34 6 -65 33q-2 10 -2 29z"/>
            <glyph unicode="&#xee;" horiz-adv-x="403"
                   d="M86 1092l4 14q3 9 6 12q47 59 86 101q9 12 31 18q28 4 37 4q42 0 76 -24q26 -21 80 -78q8 -8 8 -21q0 -6 -2 -10q-7 -17 -25 -23q-24 -6 -47 -6q-46 0 -80 27l-20 18l-23 23q-20 -12 -31 -23l-14 -12l-14 -12q-21 -15 -41 -15q-14 0 -31 7zM94 193l2 55q7 83 15 234 t12 206q1 19 2 80t3.5 97t16.5 81.5t41 71.5q20 20 52 20l20 -2q22 -4 43.5 -17t22.5 -32q6 -77 6 -160q0 -138 -17.5 -370.5t-17.5 -290.5q0 -164 -96 -174h-6q-29 0 -49.5 19t-31 51.5t-14.5 64t-4 66.5z"/>
            <glyph unicode="&#xef;" horiz-adv-x="403"
                   d="M-152 1143v6q4 30 33.5 49t69.5 19h16q41 -3 62.5 -22t21.5 -50v-8q-3 -32 -27 -55t-61 -23h-12q-44 3 -73.5 28t-29.5 56zM-25 193l2 55q7 83 15 234t12 206q1 18 2 79.5t3.5 97t17 81.5t41.5 72q20 20 51 20l20 -2q22 -4 43.5 -17t22.5 -32q6 -77 6 -160 q0 -138 -17.5 -370.5t-17.5 -290.5q0 -164 -96 -174h-6q-29 0 -49.5 19t-31 51.5t-14.5 64t-4 66.5zM211 1143v6q5 29 33.5 48.5t68.5 19.5h17q41 -3 62.5 -22t21.5 -50v-8q-3 -32 -27 -55t-61 -23h-13q-43 3 -72.5 28t-29.5 56z"/>
            <glyph unicode="&#xf0;" horiz-adv-x="876"
                   d="M-23 477q0 57 7 139q2 4 2 15q15 235 149 348q82 70 164 70q47 0 98 -23q90 -41 142 -117q0 194 -13 254l-217 -26q-34 0 -43 43v10q0 67 209 67q-29 29 -88 68q-66 38 -104 41q-43 12 -52 53q0 70 88 70q35 0 78 -14q42 -13 133 -80q88 -64 121 -103q61 10 105 13l67 10 q54 -9 54 -45v-13q0 -51 -175 -63q43 -104 46 -307q-13 -229 -13 -467q6 -114 6 -248q-6 -99 -22 -125q-30 -47 -62 -47q-61 9 -69 41q-7 46 -29 365q-2 -5 -14.5 -31.5t-18.5 -42.5q-47 -141 -114 -228q-72 -90 -152 -90q-24 0 -53 13q-78 37 -131 120q-57 90 -76 164 q-23 87 -23 166zM166 457q0 -133 41 -267q21 -63 55 -63q38 0 88 68q44 58 94 186q84 194 84 326q0 83 -45 145q-54 72 -141 72q-43 0 -86 -64q-90 -172 -90 -403z"/>
            <glyph unicode="&#xf1;" horiz-adv-x="833"
                   d="M143 289q0 52 3.5 124.5t3.5 80.5q1 17 1 66t1.5 101t5.5 97l4 94v51q0 62 7 97.5t32 60.5q20 22 75 22h19q24 -6 45 -20t22 -35v-31q0 -172 -18 -503l66 153q59 127 141 271q24 41 78 81q46 35 96 35q46 0 79 -30.5t40 -85.5q8 -60 8 -140q0 -30 -2 -93t-2 -93 q0 -15 -2 -21q0 -95 -9 -249t-10 -203q-1 -27 -2.5 -39t-9 -31t-20.5 -31q-19 -16 -43 -16q-15 0 -31 8q-14 9 -25 25t-18.5 40t-12 44.5t-7.5 52t-4.5 48t-3 46.5t-1.5 35q-2 33 -2 96q0 89 8 238t9 209q0 12 -2 16q-3 8 -11 12q-5 0 -11.5 -6t-11.5 -13t-11 -16t-7 -10 q-18 -25 -34.5 -56t-34.5 -71t-27 -57q-46 -87 -92 -199q-25 -57 -56 -189.5t-40 -158.5q-8 -37 -30 -63.5t-58 -30.5h-7q-88 0 -88 287zM289 1126l2 11q54 129 196 129q51 -1 112 -31.5t89 -30.5q44 0 92 23q12 4 17 4q15 0 26 -10t11 -25q0 -14 -17 -31q-1 -1 -9 -6.5 t-12 -8t-13.5 -8.5t-16.5 -10t-18 -9t-21.5 -8.5t-22.5 -6.5t-25 -4.5t-26 -1.5t-41 4q-22 4 -75.5 25.5t-90.5 21.5l-28 -2q-16 -2 -31 -10t-23.5 -15.5t-18.5 -18t-13 -13.5q-11 -7 -17 -7q-10 0 -18 13t-8 26z"/>
            <glyph unicode="&#xf2;" horiz-adv-x="823"
                   d="M-16.5 524q12.5 92 53.5 201q50 133 121 201q64 66 211 104q46 12 93 12.5t92 -10.5t81 -41t53 -76q8 -21 14 -48.5t9 -47t5 -57t2.5 -49.5t1.5 -55t1 -46q3 -42 -4 -100q-9 -83 -17 -134.5t-29.5 -120t-54.5 -118.5q-65 -101 -166 -137.5t-202.5 1t-169.5 138.5 q-63 95 -85 193t-9.5 190zM184 578q-9 -188 6 -306q8 -88 105 -143q38 -20 72.5 -22.5t61.5 10t51 38t42 56.5t33.5 70t25 74t17.5 73q9 54 12 88q28 234 -22 338q-21 45 -91.5 54.5t-144.5 -21.5t-102 -90q-24 -52 -34 -76.5t-19.5 -62t-12.5 -80.5zM289 1294q0 22 37 33 q18 6 41 6q28 0 51 -10q91 -38 119 -129q8 -41 8 -70q0 -32 -19 -37l-8 -2l-10 2q-50 18 -116 76t-101 121z"/>
            <glyph unicode="&#xf3;" horiz-adv-x="823"
                   d="M-16.5 524q12.5 92 53.5 201q50 133 121 201q64 66 211 104q46 12 93 12.5t92 -10.5t81 -41t53 -76q8 -21 14 -48.5t9 -47t5 -57t2.5 -49.5t1.5 -55t1 -46q3 -42 -4 -100q-9 -83 -17 -134.5t-29.5 -120t-54.5 -118.5q-65 -101 -166 -137.5t-202.5 1t-169.5 138.5 q-63 95 -85 193t-9.5 190zM184 578q-9 -188 6 -306q8 -88 105 -143q38 -20 72.5 -22.5t61.5 10t51 38t42 56.5t33.5 70t25 74t17.5 73q9 54 12 88q28 234 -22 338q-21 45 -91.5 54.5t-144.5 -21.5t-102 -90q-24 -52 -34 -76.5t-19.5 -62t-12.5 -80.5zM334 1182l6 12 q40 43 78 63q48 25 102 46l8 -5l13 -2q26 -23 26 -47q-52 -68 -143 -129h-23q-34 6 -65 33q-2 10 -2 29z"/>
            <glyph unicode="&#xf4;" horiz-adv-x="823"
                   d="M-16.5 524q12.5 92 53.5 201q50 133 121 201q64 66 211 104q46 12 93 12.5t92 -10.5t81 -41t53 -76q8 -21 14 -48.5t9 -47t5 -57t2.5 -49.5t1.5 -55t1 -46q3 -42 -4 -100q-9 -83 -17 -134.5t-29.5 -120t-54.5 -118.5q-65 -101 -166 -137.5t-202.5 1t-169.5 138.5 q-63 95 -85 193t-9.5 190zM184 578q-9 -188 6 -306q8 -88 105 -143q38 -20 72.5 -22.5t61.5 10t51 38t42 56.5t33.5 70t25 74t17.5 73q9 54 12 88q28 234 -22 338q-21 45 -91.5 54.5t-144.5 -21.5t-102 -90q-24 -52 -34 -76.5t-19.5 -62t-12.5 -80.5zM311 1130l4 15 q3 7 7 12q41 52 86 100q10 13 30 19q28 4 37 4q40 0 76 -25q30 -24 80 -77q8 -8 8 -21q0 -6 -2 -10q-7 -17 -25 -23q-24 -6 -47 -6q-45 0 -80 27l-20 18l-23 23q-18 -10 -30 -23l-15 -12l-14 -12q-21 -15 -41 -15q-16 0 -31 6z"/>
            <glyph unicode="&#xf5;" horiz-adv-x="823"
                   d="M-16.5 524q12.5 92 53.5 201q50 133 121 201q64 66 211 104q46 12 93 12.5t92 -10.5t81 -41t53 -76q8 -21 14 -48.5t9 -47t5 -57t2.5 -49.5t1.5 -55t1 -46q3 -42 -4 -100q-9 -83 -17 -134.5t-29.5 -120t-54.5 -118.5q-65 -101 -166 -137.5t-202.5 1t-169.5 138.5 q-63 95 -85 193t-9.5 190zM176 1122l2 11q54 129 197 129q51 -1 111.5 -31.5t88.5 -30.5q45 0 93 23q12 4 18 4q14 0 24.5 -10t10.5 -25q0 -18 -16 -31q-79 -63 -164 -63q-13 0 -41 4q-22 4 -75.5 25.5t-90.5 21.5l-29 -2q-16 -2 -31 -10t-23.5 -15.5t-18.5 -18t-13 -13.5 q-7 -7 -14 -7q-11 0 -20 13t-9 26zM184 578q-9 -188 6 -306q8 -88 105 -143q38 -20 72.5 -22.5t61.5 10t51 38t42 56.5t33.5 70t25 74t17.5 73q9 54 12 88q28 234 -22 338q-21 45 -91.5 54.5t-144.5 -21.5t-102 -90q-24 -52 -34 -76.5t-19.5 -62t-12.5 -80.5z"/>
            <glyph unicode="&#xf6;" horiz-adv-x="823"
                   d="M-16.5 524q12.5 92 53.5 201q50 133 121 201q64 66 211 104q46 12 93 12.5t92 -10.5t81 -41t53 -76q8 -21 14 -48.5t9 -47t5 -57t2.5 -49.5t1.5 -55t1 -46q3 -42 -4 -100q-9 -83 -17 -134.5t-29.5 -120t-54.5 -118.5q-65 -101 -166 -137.5t-202.5 1t-169.5 138.5 q-63 95 -85 193t-9.5 190zM154 1167v7q4 30 33 48.5t69 18.5h16q41 -3 62.5 -22t21.5 -50v-8q-3 -32 -27 -55t-61 -23h-12q-43 3 -72.5 28t-29.5 56zM184 578q-9 -188 6 -306q8 -88 105 -143q38 -20 72.5 -22.5t61.5 10t51 38t42 56.5t33.5 70t25 74t17.5 73q9 54 12 88 q28 234 -22 338q-21 45 -91.5 54.5t-144.5 -21.5t-102 -90q-24 -52 -34 -76.5t-19.5 -62t-12.5 -80.5zM516 1167v7q4 29 33 48t69 19h17q41 -3 62.5 -22t21.5 -50v-8q-3 -32 -27 -55t-61 -23h-13q-43 3 -72.5 28t-29.5 56z"/>
            <glyph unicode="&#xf7;" horiz-adv-x="991"
                   d="M326 623q0 19 19 32.5t56 14.5q181 0 541 8h4q36 0 55 -13.5t19 -33.5q0 -25 -23.5 -44.5t-60.5 -19.5q-59 0 -284.5 4t-258.5 4q-29 0 -48 15t-19 33zM582 397l2 6q3 30 31.5 49t70.5 19h16q41 -3 62.5 -22t21.5 -50v-8q-3 -32 -27.5 -55t-62.5 -23h-10q-44 3 -74 28 t-30 56zM586 831l2 7q3 29 32 48t70 19h17q84 -6 84 -71v-9q-3 -32 -28 -54.5t-63 -22.5h-10q-44 3 -74 27.5t-30 55.5z"/>
            <glyph unicode="&#xf8;" horiz-adv-x="774"
                   d="M41 449q0 192 109 382q64 114 167 162q113 49 211 49l43 -2l31 70q9 41 27 59t67 21q23 0 23 -45q0 -28 -49 -135q96 -56 108 -230q4 -110 4 -192q0 -49 -4 -76q-24 -245 -100 -373q-108 -153 -262 -153q-82 0 -142 32l-4 -12q-53 -115 -96 -121q-18 0 -33 21 q-16 19 -16 47l6 43q9 23 41 90l4 10q-26 30 -37 45q-98 151 -98 308zM242 473q0 -101 10 -194l4 12q49 134 258 618q-149 -6 -203 -112q-35 -75 -45 -107q-24 -76 -24 -217zM326 147q55 -41 114 -41q102 0 166 152q60 142 66 258q10 88 10 172q-3 93 -33 166q-9 20 -31 33 l-61 -154q-70 -183 -131 -330z"/>
            <glyph unicode="&#xf9;" horiz-adv-x="866"
                   d="M143 616l13 244q3 56 18 105q18 38 55 53q36 8 50 8q79 0 88 -96q-11 -101 -13 -148q-4 -63 -4 -204q0 -139 6 -256q12 -116 21 -172q15 -37 37 -37h4q24 0 43 37q173 377 211 751q6 27 6 53q4 44 8 62q12 98 98 98l27 -2q46 -6 59 -39q11 -26 11 -55l-7 -109 q-6 -68 -11.5 -291t-6.5 -239q-2 -23 -2 -70q0 -42 3.5 -119t4.5 -100q0 -47 -10 -67q-3 -6 -10 -13q-14 -14 -39.5 -22t-46.5 -8q-29 0 -48 20t-28 57t-12.5 75.5t-3.5 90.5l2 142q0 47 -2 63l-19 -57l-35 -97q-7 -25 -32 -86q-27 -71 -72 -133q-56 -65 -131 -65l-29 2 q-90 18 -133 108l-37 117q-33 149 -33 399zM340 1380q0 21 39 33q18 6 41 6q24 0 51 -10q91 -38 119 -129q8 -62 8 -70q0 -31 -18 -36l-9 -3l-10 3q-51 18 -116.5 75.5t-100.5 120.5z"/>
            <glyph unicode="&#xfa;" horiz-adv-x="866"
                   d="M143 616l13 244q3 56 18 105q18 38 55 53q36 8 50 8q79 0 88 -96q-11 -101 -13 -148q-4 -63 -4 -204q0 -139 6 -256q12 -116 21 -172q15 -37 37 -37h4q24 0 43 37q173 377 211 751q6 27 6 53q4 44 8 62q12 98 98 98l27 -2q46 -6 59 -39q11 -26 11 -55l-7 -109 q-6 -68 -11.5 -291t-6.5 -239q-2 -23 -2 -70q0 -42 3.5 -119t4.5 -100q0 -47 -10 -67q-3 -6 -10 -13q-14 -14 -39.5 -22t-46.5 -8q-29 0 -48 20t-28 57t-12.5 75.5t-3.5 90.5l2 142q0 47 -2 63l-19 -57l-35 -97q-7 -25 -32 -86q-27 -71 -72 -133q-56 -65 -131 -65l-29 2 q-90 18 -133 108l-37 117q-33 149 -33 399zM383 1214l6 13q40 43 78 63q47 24 100 45l11 -4l10 -2q28 -22 28 -47q-52 -68 -143 -129h-24q-34 6 -64 33q-4 20 -2 28z"/>
            <glyph unicode="&#xfb;" horiz-adv-x="866"
                   d="M143 616l13 244q3 56 18 105q18 38 55 53q36 8 50 8q79 0 88 -96q-11 -101 -13 -148q-4 -63 -4 -204q0 -139 6 -256q12 -116 21 -172q15 -37 37 -37h4q24 0 43 37q173 377 211 751q6 27 6 53q4 44 8 62q12 98 98 98l27 -2q46 -6 59 -39q11 -26 11 -55l-7 -109 q-6 -68 -11.5 -291t-6.5 -239q-2 -23 -2 -70q0 -42 3.5 -119t4.5 -100q0 -47 -10 -67q-3 -6 -10 -13q-14 -14 -39.5 -22t-46.5 -8q-29 0 -48 20t-28 57t-12.5 75.5t-3.5 90.5l2 142q0 47 -2 63l-19 -57l-35 -97q-7 -25 -32 -86q-27 -71 -72 -133q-56 -65 -131 -65l-29 2 q-90 18 -133 108l-37 117q-33 149 -33 399zM365 1192l4 14q3 10 6 13q41 52 86 100q9 12 31 18q28 4 36 4q42 0 76 -24q26 -21 80 -78q8 -8 8 -20q0 -7 -2 -11q-6 -16 -24 -22q-24 -6 -48 -6q-46 0 -79 26l-21 19l-22 22q-22 -13 -31 -22l-14 -13l-15 -12q-20 -14 -41 -14 q-15 0 -30 6z"/>
            <glyph unicode="&#xfc;" horiz-adv-x="866"
                   d="M143 616l13 244q3 56 18 105q18 38 55 53q36 8 50 8q79 0 88 -96q-11 -101 -13 -148q-4 -63 -4 -204q0 -139 6 -256q12 -116 21 -172q15 -37 37 -37h4q24 0 43 37q173 377 211 751q6 27 6 53q4 44 8 62q12 98 98 98l27 -2q46 -6 59 -39q11 -26 11 -55l-7 -109 q-6 -68 -11.5 -291t-6.5 -239q-2 -23 -2 -70q0 -42 3.5 -119t4.5 -100q0 -47 -10 -67q-3 -6 -10 -13q-14 -14 -39.5 -22t-46.5 -8q-29 0 -48 20t-28 57t-12.5 75.5t-3.5 90.5l2 142q0 47 -2 63l-19 -57l-35 -97q-7 -25 -32 -86q-27 -71 -72 -133q-56 -65 -131 -65l-29 2 q-90 18 -133 108l-37 117q-33 149 -33 399zM229 1268v6q4 30 33.5 48.5t69.5 18.5h16q84 -6 84 -71v-8q-3 -32 -27 -55t-61 -23h-12q-44 3 -73.5 28t-29.5 56zM592 1268v6q4 29 33 48t69 19h17q84 -6 84 -71v-8q-3 -32 -27 -55t-61 -23h-13q-43 3 -72.5 28t-29.5 56z"/>
            <glyph unicode="&#xfd;" horiz-adv-x="886"
                   d="M119 590l12 244q3 47 19 104q17 36 55 51q24 8 51 8q77 0 86 -94q-10 -89 -12 -147q-6 -94 -6 -205q0 -102 8 -254q9 -125 20 -174q15 -37 37 -37h4q26 3 41 37q168 360 213 772q4 32 4 53q4 20 8 60q12 98 99 98l26 -2q49 -6 62 -39q8 -28 8 -53l-2 -25q0 -49 -4 -84 l-6 -127v-31q0 -47 -3 -114.5t-3 -77.5v-4q-2 -27 -2 -76l-11 -446q-1 -52 -1.5 -112.5t-2 -113.5t-14 -111.5t-37.5 -105.5q-80 -157 -223 -174l-31 -2q-72 0 -136 35.5t-99 97.5q-34 63 -43 197v2q0 18 14 29.5t33 11.5q22 0 38.5 -16t20.5 -48q1 -7 2.5 -28t2.5 -29 t3 -25t5.5 -26.5t9 -23t13.5 -24.5t19 -22q44 -41 88 -41q35 0 66 25q20 16 27 28q17 26 25.5 65t9.5 62.5t1 67.5q0 98 3.5 205.5t10 243.5t9.5 204l-51 -151q-18 -50 -33 -84q-26 -68 -72 -133q-54 -66 -129 -66l-30 2q-90 15 -134 107l-36 116q-33 149 -33 400zM373 1139 q-3 16 0 28q0 5 4 13q47 47 78 63q41 21 102 45l8 -4l13 -2q25 -22 28 -47q-60 -74 -145 -129h-23q-35 6 -65 33z"/>
            <glyph unicode="&#xfe;" horiz-adv-x="960"
                   d="M66 -156l2 133q16 469 30 656q3 31 10.5 258.5t22.5 404.5t41 205q23 23 57 23h17q21 -4 42.5 -19.5t24.5 -36.5q6 -82 6 -208l-14 -553q53 146 137 284q76 117 185 117l30 -2q76 -8 147 -61.5t95 -124.5q33 -103 33 -207q0 -45 -2 -70q-2 -4 -2 -12q-31 -359 -316 -555 q-83 -60 -180 -60q-92 0 -147 58q-15 -352 -15 -418q0 -183 -98 -193h-6q-100 0 -100 381zM330 301q0 -66 30 -114.5t89 -51.5h12q47 0 89.5 26t71.5 66t52.5 90.5t36 95.5t18.5 85q4 27 8 69q2 23 2 70q0 77 -12 160q-8 50 -34 103t-64 61l-19 2q-36 0 -69 -29 q-30 -30 -62 -78q-147 -249 -147 -522v-12q-2 -6 -2 -21z"/>
            <glyph unicode="&#xff;" horiz-adv-x="886"
                   d="M119 590l12 244q3 47 19 104q17 36 55 51q24 8 51 8q77 0 86 -94q-10 -89 -12 -147q-6 -94 -6 -205q0 -102 8 -254q9 -125 20 -174q15 -37 37 -37h4q26 3 41 37q168 360 213 772q4 32 4 53q4 20 8 60q12 98 99 98l26 -2q49 -6 62 -39q8 -28 8 -53l-2 -25q0 -49 -4 -84 l-6 -127v-31q0 -47 -3 -114.5t-3 -77.5v-4q-2 -27 -2 -76l-11 -446q-1 -52 -1.5 -112.5t-2 -113.5t-14 -111.5t-37.5 -105.5q-80 -157 -223 -174l-31 -2q-72 0 -136 35.5t-99 97.5q-34 63 -43 197v2q0 18 14 29.5t33 11.5q22 0 38.5 -16t20.5 -48q1 -7 2.5 -28t2.5 -29 t3 -25t5.5 -26.5t9 -23t13.5 -24.5t19 -22q44 -41 88 -41q35 0 66 25q20 16 27 28q17 26 25.5 65t9.5 62.5t1 67.5q0 98 3.5 205.5t10 243.5t9.5 204l-51 -151q-18 -50 -33 -84q-26 -68 -72 -133q-54 -66 -129 -66l-30 2q-90 15 -134 107l-36 116q-33 149 -33 400zM205 1229 v6q4 30 33 49t69 19h17q86 -6 86 -72l-2 -8q-2 -32 -26.5 -55t-62.5 -23h-12q-42 3 -72 28t-30 56zM567 1229v6q5 29 34.5 48.5t70.5 19.5h14q86 -6 86 -72l-2 -8q-2 -32 -26 -55t-62 -23h-12q-42 3 -72.5 28t-30.5 56z"/>
            <glyph unicode="&#x152;" horiz-adv-x="1521"
                   d="M143 698q0 131 29 299q27 159 100 283q68 121 205 182q90 36 174 39q118 0 189 -65q9 8 39 16q338 70 653 96q35 0 55 -26q12 -18 12 -35q0 -31 -38 -45q-44 -16 -84 -19q-14 -2 -27 -3.5t-26.5 -2.5t-18.5 -2h-8q-168 -3 -310 -26q3 -18 3 -41q4 -90 4 -164 q0 -108 -7 -320q5 1 136 23q80 11 155 24l19 2q22 0 39 -10q16 -10 16 -26q0 -26 -53 -64q-37 -18 -66 -18h-39q-27 0 -41 -2q-14 0 -22 -2q-55 -2 -148 -15q-7 -209 -14 -319q-3 -59 -5 -115.5t-3 -104t-2 -63.5q0 -9 -4 -63q2 2 49 8q8 1 110 10q64 6 117 12q14 1 30 2 t25 1.5t13 0.5q3 1 33 5q5 1 22 4t27 4q36 4 49 4q30 0 41 -8q16 -16 16 -35q0 -22 -14 -39q-16 -20 -35 -29q-46 -18 -96 -18q-24 -1 -70 -3l-69 -3q-111 -6 -213 -9q-9 -1 -29 -3t-29 -3q-31 -8 -65 -8q-24 0 -47 10q-21 9 -37 41q-18 42 -23 72q-3 -3 -8 -9t-8 -9 q-104 -119 -275 -119q-49 0 -90 8q-145 38 -215 174q-73 139 -96 268q-25 134 -25 258zM342 635q0 -209 86 -383q33 -55 96 -94q61 -37 125 -37q41 0 78 18t64 58q39 68 67 147v2q4 74 4 105q1 9 8 147q2 94 13 238q2 36 4 70t3.5 64t2.5 40q0 5 1 15t1 15q-11 77 -23 125 q-19 81 -67 152q-54 72 -125 72q-50 0 -111 -52q-131 -125 -172 -284q-42 -163 -51 -328q-4 -58 -4 -90z"/>
            <glyph unicode="&#x153;" horiz-adv-x="1267"
                   d="M-47.5 524q12.5 92 53.5 201q50 133 121 201q64 66 211 104q46 12 93 12.5t92 -10.5t81 -41t53 -76q8 -21 14 -48.5t9 -47t5 -57t2.5 -49.5t1.5 -55t1 -46q3 -42 -4 -100q-9 -85 -16.5 -135t-29 -119.5t-54.5 -118.5q-65 -101 -166 -137.5t-203 1t-170 138.5 q-63 95 -85 193t-9.5 190zM154 578q-9 -188 6 -306q8 -88 104 -143q38 -20 72.5 -22.5t61.5 10t51 38t42 56.5t33.5 70t25 74t17.5 73q11 65 13 88q27 233 -23 338q-21 45 -91.5 54.5t-144.5 -21.5t-102 -90q-34 -73 -47.5 -115t-17.5 -104zM592 510q0 135 40.5 261.5 t115.5 217.5q75 84 161 84q54 0 99.5 -32.5t72.5 -94.5q41 -87 41 -158q0 -122 -135 -219q-86 -63 -201 -82v-43q0 -160 50 -260q39 -73 96 -73q37 0 72 28q32 25 56.5 61.5t33.5 57.5t32 78q14 33 31 39l10 2q16 0 25 -12q14 -11 14 -25v-2q0 -26 -25.5 -96t-50.5 -105 q-76 -114 -178 -127l-30 -2q-74 0 -145 44.5t-107 111.5q-78 156 -78 346zM793 582q66 12 127 51q37 23 77 63q31 31 31 101q0 53 -18 88q-9 21 -28.5 35t-39.5 14t-37 -14q-33 -31 -54.5 -75.5t-30 -80.5t-17.5 -92z"/>
            <glyph unicode="&#x2c6;" horiz-adv-x="331"
                   d="M8 1473l4 14q3 9 6 12q41 52 86 100q10 13 31 19q28 4 37 4q40 0 76 -25q30 -24 80 -77q8 -8 8 -21q0 -6 -2 -10q-7 -17 -25 -23q-24 -6 -47 -6q-46 0 -80 27l-20 18l-23 23q-18 -10 -30 -23l-15 -12l-14 -12q-21 -15 -41 -15q-14 0 -31 7z"/>
            <glyph unicode="&#x2dc;" horiz-adv-x="706"
                   d="M197 1489l2 10q54 129 196 129q51 -1 112 -31t89 -30q46 0 92 22q12 4 19 4q14 0 24 -9.5t10 -24.5q0 -18 -16 -31q-80 -64 -164 -64q-13 0 -41 4q-22 4 -75.5 26t-90.5 22l-28 -3q-16 -2 -31 -10t-23.5 -15.5t-18.5 -18t-13 -13.5q-6 -6 -15 -6q-11 0 -19.5 13t-8.5 26z "/>
            <glyph unicode="&#x2000;" horiz-adv-x="953"/>
            <glyph unicode="&#x2001;" horiz-adv-x="1907"/>
            <glyph unicode="&#x2002;" horiz-adv-x="953"/>
            <glyph unicode="&#x2003;" horiz-adv-x="1907"/>
            <glyph unicode="&#x2004;" horiz-adv-x="635"/>
            <glyph unicode="&#x2005;" horiz-adv-x="476"/>
            <glyph unicode="&#x2006;" horiz-adv-x="317"/>
            <glyph unicode="&#x2007;" horiz-adv-x="317"/>
            <glyph unicode="&#x2008;" horiz-adv-x="238"/>
            <glyph unicode="&#x2009;" horiz-adv-x="381"/>
            <glyph unicode="&#x200a;" horiz-adv-x="105"/>
            <glyph unicode="&#x2010;" horiz-adv-x="1019"
                   d="M438 666q0 19 16.5 32.5t49.5 14.5q159 0 475 8h2q33 0 50.5 -13.5t17.5 -33.5q0 -24 -22 -44t-54 -20q-50 0 -248.5 4t-228.5 4q-26 0 -42 14.5t-16 33.5z"/>
            <glyph unicode="&#x2011;" horiz-adv-x="1019"
                   d="M438 666q0 19 16.5 32.5t49.5 14.5q159 0 475 8h2q33 0 50.5 -13.5t17.5 -33.5q0 -24 -22 -44t-54 -20q-50 0 -248.5 4t-228.5 4q-26 0 -42 14.5t-16 33.5z"/>
            <glyph unicode="&#x2012;" horiz-adv-x="1019"
                   d="M438 666q0 19 16.5 32.5t49.5 14.5q159 0 475 8h2q33 0 50.5 -13.5t17.5 -33.5q0 -24 -22 -44t-54 -20q-50 0 -248.5 4t-228.5 4q-26 0 -42 14.5t-16 33.5z"/>
            <glyph unicode="&#x2013;" horiz-adv-x="1376"
                   d="M141 522q0 19 33.5 32.5t99.5 14.5l967 9q66 0 99.5 -14t33.5 -34q0 -25 -42.5 -44t-108.5 -19q-102 0 -504.5 4t-460.5 4q-52 0 -84.5 14.5t-32.5 32.5z"/>
            <glyph unicode="&#x2014;" horiz-adv-x="2091"
                   d="M205 553q0 12 21 22t70.5 17t121.5 8l1546 8q73 0 122.5 -6.5t71 -17t21.5 -23.5q0 -24 -69 -43.5t-175 -19.5q-165 0 -807 4t-733 4q-57 0 -101.5 7t-66.5 17.5t-22 22.5z"/>
            <glyph unicode="&#x2018;" horiz-adv-x="335"
                   d="M236 1282q4 40 49 113q7 8 20 25t20.5 26t19.5 20t24 17l10 2q4 0 8 -8q0 -22 -10 -35q-2 -6 -7 -19t-8 -24t-4 -21q0 -12 2 -20q0 -15 17 -35q2 -2 8.5 -11t9 -12.5t6.5 -11.5t5 -16l2 -25q-3 -28 -21.5 -47t-46.5 -22l-16 -4l-7 2q-60 4 -79 65z"/>
            <glyph unicode="&#x2019;" horiz-adv-x="335"
                   d="M215 1184q0 14 14 33q3 5 10.5 18t11.5 19.5t7.5 18t3.5 21.5q0 14 -15.5 45t-15.5 52q2 37 23.5 59.5t56.5 22.5q90 -7 90 -95q0 -60 -71 -131q-23 -21 -33.5 -30.5t-29.5 -22t-36 -18.5h-6q-10 0 -10 8z"/>
            <glyph unicode="&#x201a;" horiz-adv-x="335"
                   d="M215 -139q0 14 14 33q3 5 10.5 18t11.5 19.5t7.5 18t3.5 21.5q0 15 -15.5 44.5t-15.5 50.5q2 37 23.5 59t56.5 22q90 -4 90 -92q0 -60 -71 -131q-23 -21 -33.5 -30.5t-29.5 -22t-36 -18.5h-6q-10 0 -10 8z"/>
            <glyph unicode="&#x201c;" horiz-adv-x="575"
                   d="M238 1282q4 40 49 113q7 8 20 25t20.5 26t19.5 20t24 17l10 2q4 0 8 -8q0 -22 -10 -35q-2 -6 -7 -19t-8 -24t-4 -21q0 -12 2 -20q0 -15 17 -35q2 -2 8.5 -11t9 -12.5t6.5 -11.5t5 -16l2 -25q-3 -28 -21.5 -47t-46.5 -22l-16 -4l-7 2q-60 4 -79 65zM477 1282q4 40 49 113 q7 8 20 25t20.5 26t19.5 20t24 17l11 2q4 0 8 -8q0 -20 -11 -35q-18 -58 -18 -64q0 -12 2 -20q0 -16 16 -35q2 -2 8.5 -11t9 -12.5t6.5 -11.5t5 -16l2 -25q-3 -28 -21 -47t-46 -22l-17 -4l-6 2q-61 4 -80 65z"/>
            <glyph unicode="&#x201d;" horiz-adv-x="595"
                   d="M217 1184q0 14 14 33q3 5 10.5 18t11.5 19.5t7.5 18t3.5 21.5q0 14 -15.5 45t-15.5 52q2 37 23.5 59.5t56.5 22.5q90 -7 90 -95q0 -60 -71 -131q-23 -21 -33.5 -30.5t-29.5 -22t-36 -18.5h-6q-10 0 -10 8zM477 1184q0 13 15 33q2 4 10.5 18t11.5 20t6.5 17.5t3.5 21.5 q0 14 -15 45t-15 52q2 37 23.5 59.5t57.5 22.5q89 -7 89 -95q0 -59 -72 -131q-54 -51 -81 -64q-8 -4 -17 -7h-7q-10 0 -10 8z"/>
            <glyph unicode="&#x201e;" horiz-adv-x="595"
                   d="M217 -139q0 14 14 33q3 5 10.5 18t11.5 19.5t7.5 18t3.5 21.5q0 15 -15.5 44.5t-15.5 50.5q2 37 23.5 59t56.5 22q90 -4 90 -92q0 -60 -71 -131q-23 -21 -33.5 -30.5t-29.5 -22t-36 -18.5h-6q-10 0 -10 8zM477 -139q0 13 15 33q2 4 10.5 18t11.5 20t6.5 17.5t3.5 21.5 q0 15 -15 45t-15 50q2 37 23.5 59t57.5 22q89 -4 89 -92q0 -59 -72 -131q-54 -51 -81 -64q-8 -4 -17 -7h-7q-10 0 -10 8z"/>
            <glyph unicode="&#x2022;" horiz-adv-x="344"
                   d="M49 649v8q5 41 42 68t91 27l25 -2q56 -4 85.5 -29.5t29.5 -67.5v-12q-5 -42 -36.5 -73t-82.5 -31l-19 2q-58 4 -96.5 36t-38.5 74z"/>
            <glyph unicode="&#x2026;" horiz-adv-x="1024"
                   d="M166 84v6q3 30 31 50t67 20l19 -2q86 -6 86 -72v-8q-5 -32 -29 -55t-61 -23h-13q-44 4 -72 28.5t-28 55.5zM494 82v8q3 31 30.5 50.5t65.5 19.5l20 -2q84 -6 84 -68v-12q-3 -32 -26.5 -55t-61.5 -23h-12q-42 4 -71 28t-29 54zM819 84v6q4 31 32.5 50.5t66.5 19.5l20 -2 q84 -6 84 -72v-8q-3 -32 -26.5 -55t-61.5 -23h-12q-44 4 -73.5 28.5t-29.5 55.5z"/>
            <glyph unicode="&#x202f;" horiz-adv-x="381"/>
            <glyph unicode="&#x2039;" horiz-adv-x="808"
                   d="M520 119q0 38 35 82q13 15 98 84l33 26l35 27q28 21 61 49q31 25 54 25h6q23 -3 41 -56q0 -48 -37 -69l-88 -66q-65 -44 -113 -112q52 -70 125 -115l29 -19l28 -18q37 -22 54 -31q28 -22 28 -39q0 -14 -8 -22q-14 -17 -33 -17q-16 0 -47 17q-56 34 -73 43q-39 23 -89 57 q-114 78 -127 109q-12 21 -12 45z"/>
            <glyph unicode="&#x203a;" horiz-adv-x="743"
                   d="M389 -88q0 19 31 41q5 3 51 31l31 18l26 18q70 42 125 115q-50 71 -112 113l-88 65q-35 18 -35 66v4q15 52 41 55h6q21 0 51 -24q29 -25 64 -49l32 -27l35 -27q87 -73 96 -84q35 -44 35 -84q0 -20 -10 -43q-15 -29 -127 -108q-57 -38 -90 -58q-62 -37 -74 -43 q-29 -16 -47 -16q-20 0 -33 16q-8 8 -8 21z"/>
            <glyph unicode="&#x205f;" horiz-adv-x="476"/>
            <glyph unicode="&#x20ac;" horiz-adv-x="1081"
                   d="M74 672q0 14 22 30q21 12 68 15h57q0 4 6 127q-33 2 -73 2q-38 0 -58 14q-22 16 -22 33q0 15 22 31q23 13 68 16h76l12 66q11 67 22 106q35 103 105 197q71 92 174 135q87 35 176 35q86 0 148 -33t104 -113q14 -28 27 -78q10 -52 10 -92q0 -39 -17 -78q-20 -36 -43 -36 q-29 0 -47 43q-19 44 -22 73q-2 4 -2 15q-3 57 -33 123q-40 63 -100 63q-56 0 -109 -47q-130 -127 -170 -279q-4 -12 -24 -96l362 4q52 0 72 -14t20 -33q0 -21 -28 -43q-26 -20 -74 -20q-88 0 -160 2q-137 0 -209 2q-9 -58 -12 -121l391 6q52 0 72 -14t20 -33q0 -21 -28 -43 q-30 -23 -74 -23q-88 0 -160 2q-37 1 -110 2.5t-109 2.5h-6q3 -199 86 -367q53 -90 160 -127q38 -14 77 -14q60 0 115 34q64 47 105 117q21 43 30 70q5 17 29 63q3 13 18 31q15 15 29 18q12 0 18 -6q7 -2 15 -10q4 -6 8 -18v-9q0 -27 -16 -77q-11 -34 -35 -84 q-67 -119 -174 -181q-113 -67 -240 -67q-47 0 -88 8q-143 37 -213 172q-73 139 -96 268q-16 81 -23 181h-69q-36 0 -58 16t-22 33z"/>
            <glyph unicode="&#x2122;" horiz-adv-x="1163"
                   d="M25 1534q0 32 125 57q55 14 92 19q6 2 16 2q57 7 191 20h2q15 0 24 -12q4 -4 4 -12q0 -31 -96 -31q-79 -5 -86 -6q2 -16 2 -58q0 -81 -8 -244.5t-8 -181.5q0 -65 -45 -69h-2q-48 0 -48 135l2 49q0 9 2.5 58t6 107t4.5 71q3 16 5 57.5t5 60.5q-17 -4 -39 -10t-36.5 -9.5 t-18.5 -4.5l-29 -8q-29 -8 -43 -8q-12 0 -18 6q-4 4 -4 12zM479 1157l2 49q0 17 6 114t9 128q1 13 2.5 58t7 73.5t18.5 38.5q11 8 29 8h6q26 -5 31 -20q6 -18 6 -66q0 -38 -4.5 -120t-5.5 -103q3 10 20.5 81.5t24.5 90.5q6 22 33 61q13 17 18 21q15 12 35 12q6 0 26 -4 q24 -11 39 -37q20 -41 23 -86q2 -18 2 -53v-103v-32l2 4q3 7 7 23l5 20l15 45q3 10 12 41t16 47q38 94 99 158q31 28 67 28q27 0 48 -15t28 -42q8 -20 8 -66q0 -14 -1 -38.5t-1 -36.5q0 -28 -3.5 -81t-4.5 -71q0 -5 -1 -16t-1 -17v-12q0 -13 1 -44.5t1 -47.5q0 -51 -8 -82 q-5 -12 -18.5 -22.5t-26.5 -10.5q-7 0 -11 2q-34 7 -34 105q0 17 1 39t1 26v15q0 30 2.5 61t7 72.5t6.5 60.5q1 15 7.5 51t6.5 56v4q0 36 -16 47q-8 4 -14 4q-42 0 -90 -119q-27 -57 -41 -104q-26 -88 -33 -125q-3 -11 -6 -33t-4 -29q-1 -5 -4.5 -26t-6.5 -31 q-10 -30 -28 -37h-11q-23 0 -32 12q-7 14 -7 25q0 98 -2 149q-2 28 -4 79.5t-5 93.5t-9 79q0 5 -4 13q-3 10 -14 10q-8 0 -17 -6q-8 -11 -10 -21q-23 -58 -27 -75q-36 -134 -47 -179q-7 -26 -20 -88q-4 -18 -7 -51t-4 -39q-8 -51 -45 -55h-4q-47 0 -47 139z"/>
            <glyph unicode="&#x25fc;" horiz-adv-x="1095" d="M0 0v1096h1096v-1096h-1096z"/>
            </font>
</defs>
</svg>
