<?xml version="1.0" standalone="no"?>
<!DOCTYPE svg PUBLIC "-//W3C//DTD SVG 1.1//EN" "http://www.w3.org/Graphics/SVG/1.1/DTD/svg11.dtd" >
<svg xmlns="http://www.w3.org/2000/svg" xmlns:xlink="http://www.w3.org/1999/xlink" version="1.1">
    <metadata></metadata>
    <defs>
        <font id="christmas_wishmonoline" horiz-adv-x="415">
            <font-face units-per-em="2048" ascent="1638" descent="-410"/>
            <missing-glyph horiz-adv-x="512"/>
            <glyph horiz-adv-x="0"/>
            <glyph horiz-adv-x="682"/>
            <glyph unicode=" " horiz-adv-x="512"/>
            <glyph unicode="&#x09;" horiz-adv-x="512"/>
            <glyph unicode="&#xa0;" horiz-adv-x="512"/>
            <glyph unicode="0" horiz-adv-x="557"
                   d="M20 461q1 94 38.5 204.5t98.5 206.5t149.5 160t180.5 64v-29q-86 0 -169.5 -62t-140.5 -154t-92 -197t-36 -193q0 -77 31.5 -122.5t97.5 -45.5q63 0 125 54.5t105.5 134.5t71 171.5t28.5 165.5q0 148 -92 148q-69 0 -115 -76l-25 16q26 41 63 64.5t77 23.5 q60 0 89.5 -47.5t31.5 -128.5q0 -81 -29.5 -177.5t-77 -180.5t-115.5 -140.5t-137 -56.5q-79 0 -118.5 54t-39.5 143z"/>
            <glyph unicode="1" horiz-adv-x="313"
                   d="M41 713q158 146 299 372l25 -14v-2l-13 -18q-105 -186 -170.5 -387t-93.5 -381l-29 4q46 303 179 598q-81 -106 -177 -195z"/>
            <glyph unicode="2" horiz-adv-x="440"
                   d="M0 307q19 55 69.5 127t107 139t110.5 135.5t89.5 136.5t35.5 122q0 47 -27.5 73.5t-77.5 26.5q-79 0 -143 -62t-64 -126q0 -47 52 -64l-17 -24q-63 24 -63 88q0 81 74.5 149t160.5 68q60 0 96.5 -34.5t36.5 -94.5q0 -57 -34.5 -127t-87.5 -139t-108 -135t-105 -134 t-70 -117q34 11 69 11q27 0 83 -17t89 -16q59 0 107 26l8 -26q-57 -29 -115 -29q-37 0 -91.5 16.5t-80.5 16.5q-48 0 -86 -14z"/>
            <glyph unicode="3" horiz-adv-x="477"
                   d="M-31 291q199 62 329 188.5t130 253.5q0 56 -34.5 89.5t-92.5 33.5q-42 0 -84 -18l-4 -4h-2l-14 24q129 88 129 162q0 22 -18 34.5t-50 12.5q-65 0 -119.5 -39t-54.5 -86q0 -17 10 -28t25 -13v-29q-28 2 -46 21.5t-18 48.5q0 62 64.5 108t138.5 46q43 0 69.5 -20.5 t26.5 -55.5q0 -63 -80 -137q8 2 27 2q69 0 112.5 -42.5t43.5 -109.5q0 -137 -135 -270.5t-345 -200.5z"/>
            <glyph unicode="4" horiz-adv-x="466"
                   d="M-20 506q41 33 92 83t117 124t134 173t119 201l25 -12q-87 -175 -208 -321t-230 -242q130 14 288 59q36 120 89 248l28 -12q-45 -105 -84 -225q22 6 60 20l12 -24q-28 -12 -80 -29q-28 -92 -63 -270l-29 6q24 130 57 254q-180 -52 -319 -58z"/>
            <glyph unicode="5" horiz-adv-x="432"
                   d="M-31 293q91 22 166.5 70t123 107.5t73.5 123.5t26 123q0 73 -37 113t-102 40q-61 0 -102 -30l-21 18l54 186q167 -17 249 37l13 -24q-64 -49 -240 -41l-41 -135q34 18 88 18q76 0 122 -48.5t46 -133.5q0 -84 -47 -174t-143 -169t-220 -110z"/>
            <glyph unicode="6"
                   d="M0 440q0 95 46.5 205.5t114.5 201t143.5 159t133.5 90.5l8 -29q-95 -36 -219 -183.5t-174 -303.5q29 41 71 64.5t85 23.5q65 0 103 -42t38 -112q0 -99 -60.5 -174.5t-139.5 -75.5q-68 0 -109 48.5t-41 127.5zM29 440q0 -67 32.5 -107t88.5 -40q68 0 120 66.5t52 154.5 q0 60 -29.5 92.5t-83.5 32.5q-66 0 -123 -59t-57 -140z"/>
            <glyph unicode="7" horiz-adv-x="350"
                   d="M0 285q0 67 20.5 156.5t60 192t107.5 211t154 195.5q-54 -8 -128.5 2.5t-82.5 10.5q-68 0 -82 -72l-29 8q7 44 37.5 68t71.5 24q21 0 69 -7.5t95 -7.5t94 15l14 -24q-93 -85 -167.5 -196.5t-117.5 -217.5t-65 -198t-22 -160h-29z"/>
            <glyph unicode="8" horiz-adv-x="471"
                   d="M0 434q0 45 20.5 92t61.5 94t77 82t91 82q-41 71 -41 138q0 69 50 121.5t116 52.5q46 0 71 -22t25 -60q0 -37 -28.5 -80t-60.5 -73.5t-93 -82.5q13 -21 58.5 -83t66 -105.5t20.5 -89.5q0 -92 -71 -171t-181 -79q-86 0 -134 49.5t-48 134.5zM29 434q0 -73 40 -114t113 -41 q99 0 161.5 68.5t62.5 152.5q0 41 -19.5 80.5t-63.5 99t-57 80.5q-55 -46 -88 -77t-72.5 -75t-58 -87t-18.5 -87zM238 922q0 -54 34 -117q60 54 87.5 79.5t55 63.5t27.5 66q0 53 -67 53q-54 0 -95.5 -44t-41.5 -101z"/>
            <glyph unicode="9" horiz-adv-x="421"
                   d="M49 289q74 38 172.5 191.5t134.5 310.5q-30 -45 -74 -72t-89 -27q-65 0 -103.5 42t-38.5 112q0 98 61 174t140 76q67 0 108 -48t41 -128q0 -95 -36 -205.5t-88 -201t-109.5 -159t-101.5 -90.5zM80 846q0 -60 29.5 -92.5t83.5 -32.5q66 0 123 59t57 140q0 67 -32.5 107 t-88.5 40q-68 0 -120 -66.5t-52 -154.5z"/>
            <glyph unicode="A" horiz-adv-x="1060"
                   d="M-156 276q0 86 52.5 163.5t138 132.5t193.5 97t219.5 63.5t216.5 25.5q50 83 81.5 134.5t79.5 123.5t87 118.5t86 95t95 79t97 45.5q-92 57 -221 57q-102 -1 -191 -31t-153 -93t-78 -150l-29 4q15 95 83.5 164t163 101.5t204.5 33.5q77 0 150.5 -23.5t125.5 -64.5 q-12 -12 -14 -15h-2q-105 -101 -216.5 -255t-178.5 -332q107 -15 192 -58l-18 -24q-79 42 -185 55q-55 -167 -55 -311q0 -121 40 -181.5t110 -60.5q60 0 112 39l17 -23q-55 -47 -129 -47q-83 0 -131 68.5t-48 204.5q0 149 54 313q-58 4 -91 4h-24q-153 -264 -218 -359 q-159 -229 -302 -283q-50 -19 -101 -19q-97 0 -155 53.5t-58 154.5zM-127 276q0 -90 49.5 -135t134.5 -45q62 0 125.5 35t117.5 89.5t114 138t108.5 163t109.5 182.5q3 5 4.5 8t4 7t4.5 8q-129 -6 -261.5 -39.5t-248 -88.5t-189 -140t-73.5 -183zM694 758h8q39 0 101 -4 q60 168 163.5 316t209.5 249q-67 -28 -131.5 -83t-127 -137t-111 -157t-112.5 -184z"/>
            <glyph unicode="B" horiz-adv-x="1275"
                   d="M-184 369q0 118 82.5 221t220 164t293.5 61q64 0 123 -6q71 181 161 348q-226 -162 -389 -162q-79 0 -127.5 42t-48.5 110q0 99 91 193t241.5 153t312.5 59q167 0 250.5 -58.5t83.5 -154.5q0 -99 -78.5 -200t-208.5 -174q49 6 99 6q127 0 204.5 -65t77.5 -171 q0 -123 -85.5 -250.5t-219 -224.5t-306.5 -159t-339 -62q-204 0 -321 89.5t-117 240.5zM-156 369q0 -138 108.5 -219.5t301.5 -81.5q162 0 330.5 59.5t297.5 153t211.5 215t82.5 239.5q0 94 -69.5 150.5t-184.5 56.5q-121 0 -234 -41l-10 27h2v2q16 4 22 8q164 63 271.5 177 t107.5 224q0 83 -75 134t-230 51q-118 0 -232.5 -32.5t-198 -85t-134.5 -121.5t-51 -138q0 -56 40 -89.5t107 -33.5q89 0 190 48t234 145l23 -19l-2 -2q-112 -195 -189 -391q191 -24 320 -123l-13 -27q-119 96 -317 123q-111 -285 -111 -465h-28q0 184 110 467q-56 6 -112 6 q-111 0 -215.5 -34t-181.5 -90.5t-124 -133.5t-47 -159z"/>
            <glyph unicode="C" horiz-adv-x="1200"
                   d="M-246 729q0 97 76.5 157t198.5 60q99 0 168.5 -21t138.5 -61l-21 -20q-65 37 -129 55.5t-157 18.5q-109 0 -177.5 -52.5t-68.5 -136.5q0 -57 36.5 -103t98 -74t137.5 -43t158 -15q91 0 197 16q10 115 57.5 239.5t118 236.5t162.5 213t189 174.5t199.5 117t192.5 43.5 q83 0 136 -54.5t53 -142.5q0 -81 -42.5 -171.5t-116 -176t-177 -167t-221.5 -148t-253.5 -116t-269.5 -73.5q-2 -12 -2 -36q0 -132 59 -211.5t162 -79.5q162 0 316 111t274 290l21 -12q-123 -183 -282.5 -300.5t-328.5 -117.5q-117 0 -183 87.5t-66 232.5v32 q-106 -16 -195 -16q-119 0 -221.5 29t-170 90.5t-67.5 144.5zM440 514q198 35 392.5 126t337 206t231 246.5t88.5 244.5q0 75 -44.5 121.5t-115.5 46.5q-104 0 -224 -58t-230.5 -159t-204.5 -225.5t-155.5 -269.5t-74.5 -279z"/>
            <glyph unicode="D" horiz-adv-x="1351"
                   d="M-92 1016q0 91 48 178q49 89 136.5 159.5t223.5 114t296 43.5q248 0 420 -120q87 134 162 159l16 -24q-68 -24 -155 -152q122 -91 186 -223.5t64 -265.5q0 -174 -75 -325.5t-208 -243t-291 -91.5q-155 0 -297 99q-147 -144 -301 -144q-89 0 -132.5 40.5t-43.5 101.5 q0 71 59.5 122.5t153.5 51.5q29 0 55.5 -7t55 -24t47.5 -30t53 -40t51 -39q84 85 171.5 225.5t149 268.5t137 281t126.5 235q-166 117 -404 117q-126 0 -236.5 -27t-190 -73t-136.5 -106t-85 -128q-27 -66 -27 -132v-5q0 -101 67 -157t172 -56q61 0 127 38.5t105 108.5 l22 -18q-47 -76 -117.5 -116t-138.5 -40q-118 2 -192 64t-74 180zM-12 319q0 -47 36.5 -78.5t108.5 -31.5q146 0 281 129q-15 10 -49.5 36.5t-51 37.5t-44 26.5t-51 22t-48.5 6.5q-84 0 -133 -41.5t-49 -106.5zM455 342q135 -88 276 -88q150 0 276 87t197.5 232t71.5 312 q0 126 -61 252t-175 213q-51 -81 -126.5 -231.5t-137.5 -278t-149.5 -269.5t-171.5 -229z"/>
            <glyph unicode="E" horiz-adv-x="972"
                   d="M-121 1653l29 -4q-2 -25 -2 -48q0 -51 9 -99q13 -68 54.5 -133t109.5 -111.5t179.5 -74.5t257.5 -28h53q15 83 97.5 169.5t199.5 144t224 57.5q67 0 103 -29.5t36 -77.5q0 -75 -95.5 -140t-239 -103.5t-300.5 -47.5v-4q0 -77 51.5 -121.5t173.5 -70.5l-4 -29h-4 q-21 1 -41 1q-116 0 -220 -24q-122 -28 -208 -79.5t-148 -118t-92 -137.5t-30 -139q0 -140 81 -220t222 -80q109 0 211 46.5t165.5 125t63.5 166.5q0 66 -37 100t-96 34q-88 0 -170 -72l-18 22q87 74 188 74q71 0 116.5 -39.5t45.5 -118.5q0 -97 -70.5 -183t-178.5 -134.5 t-220 -48.5q-153 0 -242.5 88.5t-89.5 239.5q0 67 27.5 136.5t84.5 136.5t135.5 121t188.5 89.5t236 42.5q-78 29 -114 75t-36 117v2h-49q-150 0 -267 30t-189 79.5t-116 118.5q-44 68 -58 142q-9 47 -10 99q0 28 3 58zM598 1157q151 9 287.5 44.5t225.5 93.5t89 124 q0 34 -28 56t-82 22q-99 0 -209 -53t-188 -132.5t-95 -154.5z"/>
            <glyph unicode="F" horiz-adv-x="1212"
                   d="M-205 1208q0 133 101 210t276 77q92 0 194.5 -26.5t201 -69.5t189.5 -88.5t195.5 -94t184.5 -75.5q223 276 479 276q85 0 132.5 -32.5t47.5 -92.5q0 -57 -59 -109t-158.5 -83t-210.5 -31q-106 0 -221 39q-145 -191 -244 -459q60 5 121 6q89 0 180 -12l-4 -29 q-89 11 -175 11q-68 0 -134 -7q-42 -120 -66 -226.5t-24 -162.5h-29q0 128 90 387q-84 -9 -172 -30l-8 28q102 24 190 33q98 268 246 469q-93 32 -230 98t-240.5 118t-235 93t-240.5 41q-163 0 -255.5 -69t-92.5 -189q0 -71 42.5 -139.5t116.5 -120.5q73 -52 187 -75 q61 -12 126 -12q56 0 116 9l4 -28q-66 -9 -125 -9q-49 0 -93 6q-98 14 -173 50t-126 88t-77.5 111t-26.5 120zM1165 1133q107 -35 203 -35q177 0 288 62.5t111 131.5q0 46 -39 71.5t-112 25.5q-244 0 -451 -256z"/>
            <glyph unicode="G" horiz-adv-x="917"
                   d="M-403 1151q0 135 113.5 231.5t301.5 124.5l4 -28q-177 -25 -284 -115t-107 -213q0 -111 116.5 -178.5t309.5 -67.5q61 0 92 2q45 116 135.5 232t196.5 202t221.5 139.5t208.5 53.5q170 0 170 -137q0 -64 -43.5 -132.5t-126 -132.5t-192.5 -117t-253.5 -88.5t-297.5 -45.5 q-31 -88 -31 -170q0 -103 52.5 -155t146.5 -52q100 0 200 45t228 145l33 -12q-3 -83 -43.5 -229.5t-104.5 -278.5q59 -15 137.5 -47t138 -59t141.5 -48.5t159 -21.5q48 0 105.5 9.5t92.5 27.5l13 -25q-37 -21 -99 -31t-112 -10q-82 0 -166.5 22t-145.5 49.5t-139 60 t-137 46.5q-71 -143 -157.5 -230t-184.5 -87q-52 0 -85.5 33t-33.5 88q0 90 105 164.5t237 74.5q49 0 104 -10q58 123 97 257.5t47 221.5q-230 -184 -430 -184q-106 0 -167 59.5t-61 176.5q0 80 31 168q-27 -2 -82 -2q-206 0 -330 75t-124 199zM174 909q185 13 351.5 63 t278.5 119.5t177.5 150t65.5 155.5q0 108 -142 108q-120 0 -268 -84.5t-275.5 -223.5t-187.5 -288zM199 -49q0 -42 25.5 -67t64.5 -25q166 0 315 295q-62 8 -92 8q-120 0 -216.5 -66.5t-96.5 -144.5z"/>
            <glyph unicode="H" horiz-adv-x="1050"
                   d="M-92 997q0 90 47.5 181.5t123.5 162.5t180 115.5t210 44.5q138 0 228.5 -82.5t90.5 -234.5q0 -183 -67 -400q9 3 27.5 10.5t27.5 10.5l105 37q64 174 164.5 321.5t216 235.5t217.5 88q55 0 90 -37t35 -96t-25.5 -114.5t-75 -103.5t-110.5 -90t-145 -82.5t-164 -73.5 t-181 -69q-76 -209 -76 -399q0 -125 29 -207l-29 -8q-28 89 -28 215q0 183 69 387l-88 -31q-31 -11 -69 -26q-43 -129 -103.5 -243t-136 -206.5t-167.5 -146.5t-187 -54q-80 0 -132.5 46t-52.5 122q0 54 24.5 102t87.5 95t112 79t160 79.5t163.5 68t187.5 70.5q14 5 21 8 q72 216 72 412q0 141 -82.5 215t-208.5 74q-133 0 -257.5 -71.5t-199.5 -182t-75 -222.5q0 -92 50 -142t144 -50q182 0 346 145l21 -20q-178 -154 -367 -154q-106 0 -164.5 58.5t-58.5 162.5zM-39 270q0 -64 44 -101.5t112 -37.5q88 0 174.5 50t157.5 136t129 193t100 229 q-318 -118 -442 -180q-236 -119 -269 -243q-6 -23 -6 -46zM915 854q117 42 205 79t178 86t147.5 98t93.5 110t36 127q0 46 -26.5 75t-69.5 29q-93 0 -200.5 -82t-203.5 -220t-160 -302z"/>
            <glyph unicode="I" horiz-adv-x="880"
                   d="M-133 330q0 169 120 295.5t281 126.5q52 0 91.5 -15.5t61.5 -41t31.5 -56t5.5 -62.5t-22 -59l-24 17q17 27 17.5 59t-14 61t-53 48.5t-94.5 19.5q-149 0 -260.5 -118t-111.5 -275q0 -103 71 -167.5t185 -64.5q99 0 193.5 66t167.5 175t135.5 248t104 286.5t64.5 288.5 t25 257q-149 -2 -288.5 -44t-235 -125t-95.5 -187q0 -70 51.5 -117.5t104.5 -56.5l-4 -29q-25 4 -55 19.5t-58.5 40t-47.5 62.5t-19 81q0 88 63 163.5t162 123.5t217 74q110 25 217 24h16v-19q0 -107 -20 -241q-22 -146 -64.5 -299t-107.5 -300t-142.5 -262.5t-177.5 -186 t-206 -70.5q-126 0 -205.5 72.5t-79.5 187.5z"/>
            <glyph unicode="J" horiz-adv-x="792"
                   d="M-205 315q0 119 63.5 231t166.5 180.5t213 68.5q97 0 152 -44.5t56 -123.5v-7q0 -69 -37 -140q-39 -75 -90 -97l-12 25q43 19 77 88q34 66 34 127q0 70 -48 107q-46 36 -132 36q-102 0 -198.5 -65t-156 -170t-59.5 -216q0 -104 72.5 -169.5t189.5 -65.5q71 0 135 21.5 t114.5 54.5t100 91t85 112.5t76.5 138.5t69 149t67 164q-77 -25 -145 -25q-129 0 -218 64t-89 156q0 44 14.5 83t37 69.5t61 60t74.5 51t90.5 44.5t95.5 38.5t102 36.5q81 28 130.5 47t112.5 49.5t107 62.5l18 -20q0 -1 -1 -2t-1 -2l-2 -2q-52 -63 -98.5 -139t-91 -173.5 t-72.5 -164.5t-74 -185q134 55 232 146q86 80 86 144q0 9 -2 17l28 4q2 -9 2 -19q0 -49 -42 -106q-50 -70 -136 -129t-184 -94q-31 -80 -52.5 -132t-54 -124.5t-58.5 -120.5t-62.5 -107.5t-70.5 -97.5t-78.5 -77.5t-90 -62t-100.5 -36.5t-115 -14q-129 0 -210 73.5 t-81 190.5zM309 1006q0 -79 81 -135t198 -56q65 0 160 31l8 20q46 116 68 170t64.5 148.5t83 165.5t85.5 133q-98 -52 -293 -123q-204 -75 -279 -117q-158 -87 -174 -207q-2 -14 -2 -30z"/>
            <glyph unicode="K" horiz-adv-x="1112"
                   d="M-205 995q0 89 56 182.5t143.5 165.5t201.5 118t224 46q149 0 227 -79.5t78 -231.5q0 -103 -58.5 -259t-142 -305t-160 -268.5t-128.5 -183.5l-29 19q53 65 129.5 182t160 263.5t141.5 299t58 252.5q0 283 -276 283q-104 0 -213 -44t-192.5 -112.5t-137 -156.5 t-53.5 -171q0 -71 52 -117q50 -44 125 -44h7q82 1 166.5 52.5t161.5 145.5l20 -16q-78 -100 -168.5 -155t-179.5 -56h-7q-87 -1 -145 51q-60 54 -61 139zM688 815q56 20 105 55.5t94.5 91.5t76.5 102t78 124q19 32 45 78t41 72t37 58t41.5 48t46.5 27.5t58 11.5 q60 0 99.5 -43t39.5 -103q0 -75 -51.5 -153.5t-145.5 -130.5l-16 24q89 47 136.5 119t47.5 141q0 47 -31 82t-79 35q-32 0 -57.5 -12.5t-50 -42.5t-41 -57.5t-47 -81.5t-52.5 -89q-47 -76 -79.5 -122.5t-77 -102t-90 -91.5t-95.5 -56q100 -686 377 -686q54 0 108 41l17 -23 q-60 -47 -125 -47q-162 0 -261 188.5t-149 542.5z"/>
            <glyph unicode="L" horiz-adv-x="1214"
                   d="M-205 729l21 21q201 -175 549 -175h12q85 0 207 21q46 75 157 293q55 107 85 162t83 145t95 138t97 100.5t114.5 75t123.5 22.5q95 0 154 -54.5t59 -140.5q0 -160 -137 -323t-355 -281.5t-456 -163.5q-125 -202 -264 -295q47 7 74 7h17q54 1 110 -15q65 -18 121 -47.5 t112 -58.5t120 -49.5t124 -20.5q135 0 244 72l18 -23q-118 -78 -262 -78q-72 0 -153 29.5t-142.5 64.5t-141 65.5t-147.5 31.5h-10q-71 0 -178 -27l-8 29q166 55 325 309q-101 -16 -186 -16h-12q-362 0 -570 182zM625 604q170 36 333 112.5t288 174.5t201.5 216t76.5 230 q0 75 -48.5 120.5t-136.5 45.5q-52 0 -101 -18t-89.5 -47t-83 -77t-75.5 -95.5t-72.5 -115t-68.5 -123t-68 -132.5l-9 -18q-93 -181 -147 -273z"/>
            <glyph unicode="M" horiz-adv-x="1562"
                   d="M-246 373q0 99 57 180t146.5 124.5t189.5 43.5q92 0 183.5 -34.5t165.5 -98.5l-21 -21q-139 125 -328 125q-93 0 -175.5 -39.5t-135.5 -113.5t-53 -166q0 -131 91.5 -212t256.5 -81q101 0 203.5 34t198 96.5t178.5 157.5t145 210t97.5 261t35.5 304q-78 393 -440 393 q-133 0 -218 -68q-87 -70 -87 -173q0 -77 44 -136q45 -60 130 -96l-12 -25q-91 37 -141 105.5t-50 156.5q0 112 94 188.5t240 76.5q390 0 469 -420q20 -105 20 -237q0 -207 -49 -482q109 250 281.5 481.5t351.5 392.5l23 -14q-4 -4 -7 -4l2 -2q-8 -6 -22 -20 q-155 -161 -260 -404.5t-105 -427.5q0 -102 31 -165.5t90 -63.5q38 0 86 30l17 -22q-50 -37 -103 -37q-74 0 -112 72q-37 68 -37 175v11q1 149 63 326t162 333q-158 -179 -289 -391.5t-203 -431.5l-28 4v4q0 1 1 3.5t1 3.5q78 378 78 626q0 39 -2 74q-20 -167 -80 -316 t-147 -259t-193.5 -190.5t-223.5 -121.5t-233 -41q-177 0 -277 89.5t-100 232.5z"/>
            <glyph unicode="N" horiz-adv-x="1165"
                   d="M-205 1116q0 66 28 133t80 125t136.5 94.5t185.5 36.5q143 0 224 -107t81 -294q0 -197 -53 -475q158 403 332 632.5t303 229.5q49 0 79 -29t30 -82q0 -56 -32.5 -151.5t-78.5 -203.5t-92 -223t-78.5 -238.5t-32.5 -219.5q0 -92 42.5 -148.5t111.5 -56.5q53 0 92 51 l25 -16q-51 -63 -117 -63q-83 0 -132.5 64t-49.5 169q0 121 49 285t107.5 295.5t107.5 262t49 193.5q0 40 -21.5 61t-58.5 21q-136 0 -334 -296t-362 -793q-19 -68 -33 -103q-1 -2 -2 -7t-2 -7h-2v-2l-27 10q23 77 45 139q107 401 107 701q0 174 -74 273.5t-203 99.5 q-96 0 -175 -33.5t-127 -87t-73.5 -115.5t-25.5 -125q0 -100 52.5 -154.5t133.5 -54.5v-28q-93 0 -154 62t-61 175z"/>
            <glyph unicode="O" horiz-adv-x="1105"
                   d="M160 492q0 135 54 268.5t146 243.5q-65 87 -65 192q0 142 101.5 239t285.5 97q79 0 155.5 -31t139 -87t101 -145.5t38.5 -195.5q0 -71 -16 -153q195 95 264 301l29 -9q-37 -114 -115 -196.5t-184 -130.5q-31 -131 -99 -257t-155.5 -223.5t-196 -157t-213.5 -59.5 q-122 0 -196 78.5t-74 225.5zM188 492q0 -134 66 -204.5t176 -70.5q130 0 261.5 93t229 242.5t140.5 317.5q-125 -51 -270 -51q-128 0 -236.5 43t-175.5 119q-87 -106 -139 -234t-52 -255zM324 1196q0 -93 55 -170q82 92 175.5 150t185.5 70q20 3 39 3q69 0 128 -35l-16 -24 q-53 31 -114 31q-20 1 -41 -3q-85 -14 -173 -70t-166 -144q62 -73 165.5 -114.5t228.5 -41.5q150 0 278 55q18 86 18 170q0 100 -36.5 184t-95 136.5t-129.5 81t-144 28.5q-176 0 -267 -86t-91 -221z"/>
            <glyph unicode="P" horiz-adv-x="999"
                   d="M-53 430q0 66 24 120t62.5 87t83 50.5t88.5 17.5q36 0 76 -14t65 -36l-20 -20q-21 18 -56 29.5t-65 11.5q-55 0 -106 -25.5t-87.5 -83.5t-36.5 -137q0 -92 64.5 -148.5t169.5 -56.5q55 0 107.5 25t95.5 64t86.5 104t77.5 127.5t72.5 154t66 164t63.5 174.5 q-84 -88 -162 -127t-176 -39q-104 0 -165.5 53t-61.5 140q0 99 81.5 193t220 153t292.5 59q108 0 198.5 -28.5t148.5 -76t90 -108t32 -124.5q0 -78 -42.5 -154.5t-112 -135t-163 -94.5t-190.5 -36v28q122 0 233 57t177.5 148t66.5 187q0 59 -28.5 113.5t-81.5 98.5 t-138 70.5t-190 26.5q-150 0 -282 -55t-207.5 -142t-75.5 -180q0 -74 53.5 -119t144.5 -45q104 0 182 48t181 161l24 -10q-126 -349 -197 -499q-152 -317 -320 -384q-49 -20 -101 -20q-116 0 -189 64.5t-73 168.5z"/>
            <glyph unicode="Q" horiz-adv-x="1105"
                   d="M160 492q0 228 155 462q-2 18 -2 56q0 105 27 198t78.5 166t133.5 115.5t185 42.5q69 0 135.5 -31t121.5 -87t88.5 -145.5t33.5 -195.5q0 -215 -117 -438t-288 -346q265 -207 612 -207v-29q-362 0 -639 219q-130 -84 -254 -84q-122 0 -196 78.5t-74 225.5zM188 492 q0 -134 66 -204.5t176 -70.5q115 0 232 74q-143 120 -232 281t-111 335q-131 -217 -131 -415zM342 993q133 183 300 269q91 47 168 47q64 0 118 -33l-17 -25q-50 28 -106 28q-36 0 -75 -11q-99 -29 -201.5 -115t-184.5 -207q15 -178 104.5 -346.5t239.5 -292.5 q169 118 284 334.5t115 431.5q0 100 -31.5 184t-82.5 136.5t-112 81t-124 28.5q-99 0 -176 -38.5t-124 -106.5t-71 -156t-24 -192v-17z"/>
            <glyph unicode="R" horiz-adv-x="1179"
                   d="M-102 410q0 66 26.5 120t68.5 86.5t88.5 50t90.5 17.5q69 0 125 -49l-21 -21q-48 41 -104 41q-41 0 -82.5 -15t-79 -44t-61 -77.5t-23.5 -108.5q0 -92 65 -148.5t169 -56.5q55 0 107.5 25.5t95 65.5t86.5 107t77.5 131.5t72.5 158.5t66 168t64 179q-83 -89 -162 -128.5 t-176 -39.5q-104 0 -165.5 53t-61.5 140q0 99 81.5 193t220 153t292.5 59q108 0 198.5 -28.5t148.5 -76t90 -108t32 -124.5q0 -141 -127 -263.5t-299 -150.5q37 -27 54 -91t20.5 -134t9.5 -136.5t29.5 -109.5t70.5 -43q39 0 88 43l14 -23q-52 -49 -102 -49q-49 0 -78 29.5 t-39.5 77t-14.5 104.5t-7 114.5t-12 105t-35.5 77t-71.5 29.5h-8v28q122 0 233 57t177.5 148t66.5 187q0 59 -28.5 113.5t-81.5 98.5t-138 70.5t-190 26.5q-150 0 -282 -55t-207.5 -142t-75.5 -180q0 -74 53.5 -119t144.5 -45q104 0 182 48t181 161l24 -10 q-126 -357 -197 -510q-152 -325 -320 -394q-49 -20 -101 -20q-116 0 -189 65t-73 169z"/>
            <glyph unicode="S" horiz-adv-x="1024"
                   d="M-205 471q0 131 108 225.5t257 94.5q145 0 257.5 -81t137.5 -202l-29 -4q-22 110 -126.5 184t-239.5 74q-137 0 -236.5 -86.5t-99.5 -204.5q0 -91 43.5 -162t115.5 -113t156.5 -63.5t175.5 -21.5q251 0 402 101t151 267q0 62 -20.5 133.5t-55.5 161.5t-49 141 q-228 1 -416.5 55t-296.5 147.5t-108 205.5q0 95 59 150t162 55q117 0 222 -86t170 -234l-25 -12q-63 141 -161.5 222t-205.5 81q-91 0 -141.5 -46.5t-50.5 -129.5q0 -103 103.5 -189.5t283.5 -137t397 -52.5q-20 78 -20 139q0 137 100 237.5t234 100.5q100 0 160.5 -47 t60.5 -125q0 -135 -144.5 -231.5t-353.5 -102.5q13 -43 49.5 -136t56 -164t19.5 -136q0 -180 -159.5 -288.5t-422.5 -108.5q-73 0 -145.5 14t-140.5 45t-119.5 75.5t-83 110t-31.5 144.5zM743 1083q0 -57 21 -139q199 3 338 92.5t139 212.5q0 65 -52.5 104.5t-139.5 39.5 q-123 0 -214.5 -92t-91.5 -218z"/>
            <glyph unicode="T" horiz-adv-x="1009"
                   d="M-205 1227q0 108 85 183t247 75q50 0 108 -7.5t102.5 -15.5t118 -28.5t109 -31t124 -38.5t118.5 -37q141 -46 274 -78q85 120 164 172l17 -24q-73 -51 -150 -154q203 -47 385 -47q120 0 201.5 59.5t81.5 145.5h28q0 -98 -90 -166t-221 -68q-178 0 -401 52 q-91 -137 -195 -383q-13 -30 -38 -90q-49 -118 -75.5 -177.5t-77.5 -150.5t-94 -135.5t-107 -79.5t-136 -35q-105 0 -164 60t-59 145q0 80 53 151.5t151 100.5l8 -29q-90 -27 -138 -89q-46 -60 -46 -128v-6q2 -74 52.5 -125t142.5 -51q38 0 73 10.5t64 25.5t58.5 44t51 54.5 t48 70t43.5 76t42 87t39.5 89.5t41 97.5t40.5 96.5q98 232 191 377q-149 37 -272 75q-23 7 -119.5 36.5t-127.5 38.5t-107 30t-116.5 28.5t-96 15t-99.5 7.5q-147 0 -225 -66.5t-78 -162.5q0 -59 31 -114.5t87.5 -97.5t147.5 -60q47 -9 98 -10q48 0 101 9l4 -28 q-52 -8 -100 -8q-58 0 -111 12q-97 20 -158 66t-95 106.5t-34 124.5z"/>
            <glyph unicode="U" horiz-adv-x="1095"
                   d="M-205 1036q0 80 40.5 163t109 150.5t170 110.5t213.5 43q111 0 181.5 -63.5t70.5 -165.5q0 -71 -49.5 -195t-108.5 -238.5t-108.5 -247t-49.5 -218.5q0 -158 139 -158q50 0 104 30.5t105.5 82t109.5 132.5t110.5 168.5t113.5 203.5t113 224.5t115 244.5l24 -13l-61 -133 q-279 -581 -279 -838q0 -82 33.5 -124.5t81.5 -42.5q37 0 74 16l14 -27q-45 -18 -88 -18q-63 0 -103.5 50t-40.5 146q0 74 22.5 182.5t59.5 211.5q-65 -117 -124.5 -206t-124.5 -164t-131 -115t-128 -40q-80 0 -123.5 48t-43.5 139q0 72 32.5 173t79 200.5t92.5 196 t78.5 185.5t32.5 144q0 90 -62 145.5t-161 55.5q-108 0 -204.5 -40.5t-160.5 -104t-101.5 -141t-37.5 -153.5q0 -119 91 -174q53 -32 115 -32q44 0 91 16l8 -29q-48 -17 -93 -17q-15 0 -30 2q-60 8 -107 35t-75.5 80t-28.5 119z"/>
            <glyph unicode="V" horiz-adv-x="948"
                   d="M-205 1036q0 80 40.5 163t109 150.5t170 110.5t213.5 43q111 0 181.5 -63.5t70.5 -165.5q0 -73 -49.5 -199.5t-108.5 -243.5t-108.5 -253t-49.5 -224q0 -60 25 -98.5t80 -38.5q88 0 209 118.5t224.5 287.5t176.5 366.5t74 343.5q0 191 -115 248l14 25q129 -53 129 -263 v-10q0 -101 -35 -229.5t-91 -253.5t-131 -246t-152.5 -212.5t-158 -147.5t-144.5 -56q-67 0 -100 47t-33 119q0 74 32.5 177t79 205t92.5 201t78.5 190t32.5 147q0 90 -62 145.5t-161 55.5q-108 0 -204.5 -40.5t-160.5 -104t-101.5 -141t-37.5 -153.5q0 -119 91 -174 q53 -32 115 -32q44 0 91 16l8 -29q-48 -17 -93 -17q-15 0 -30 2q-60 8 -107 35t-75.5 80t-28.5 119z"/>
            <glyph unicode="W" horiz-adv-x="1191"
                   d="M-184 1382q0 76 33 148.5t94 120.5l16 -25q-58 -44 -86.5 -108.5t-28.5 -135.5q0 -57 31.5 -113t88.5 -101.5t147 -74t196 -28.5h6q86 141 186.5 227t196.5 86q46 0 72.5 -25.5t26.5 -68.5q0 -55 -62 -111.5t-172 -95t-233 -41.5q-75 -129 -120.5 -273.5t-45.5 -266.5 q0 -258 104 -258q66 0 178.5 190.5t208.5 468.5v2l29 -8q-60 -174 -80 -331q-8 -67 -9 -122q-1 -75 15 -129q26 -94 92 -94q41 0 99 47t120.5 136.5t116 204t88.5 267t35 306.5q0 75 -23 142t-77 115t-131 48v28q53 0 97 -21t73.5 -54.5t50 -77.5t30 -89.5t9.5 -90.5 q0 -157 -36.5 -312.5t-93.5 -274t-123.5 -212t-128.5 -142.5t-106 -49q-92 0 -122 130q-13 57 -14 128q0 90 22 201q-90 -201 -175 -318.5t-145 -117.5q-133 0 -133 287q0 121 44.5 265.5t119.5 274.5q-109 1 -202 32.5t-153 81t-93 110t-33 122.5zM346 1065q93 4 175 28.5 t134 57.5t81.5 68.5t29.5 64.5q0 31 -18.5 48.5t-51.5 17.5q-87 0 -179 -78t-171 -207z"/>
            <glyph unicode="X" horiz-adv-x="978"
                   d="M-195 1057q0 80 36 156.5t98 136.5t152.5 96.5t191.5 36.5q166 0 247.5 -88.5t81.5 -243.5q0 -71 -16 -203q158 205 314.5 330t289.5 125q67 0 107.5 -35t40.5 -94q0 -57 -30.5 -113t-80.5 -90l-16 25q43 29 70.5 79t27.5 99q0 46 -32 73t-87 27q-134 0 -294 -133 t-318 -348q-33 -210 -33 -320q0 -39 2 -71.5t9.5 -78t20 -81.5t36.5 -74t57 -63.5t82.5 -41.5t111.5 -16q58 0 123 37l15 -22q-67 -43 -138 -43q-85 0 -149 29t-101 73.5t-60 107.5t-30.5 120.5t-7.5 123.5q0 90 25 269q-112 -157 -201.5 -324.5t-134.5 -294.5l-29 8 q47 135 148 317.5t225 350.5q25 175 25 252q0 143 -74 223t-227 80q-97 0 -182 -34t-142.5 -89.5t-91 -127t-33.5 -146.5q0 -119 91 -175q53 -33 115 -32q43 0 91 16l8 -28q-48 -17 -93 -17q-15 -1 -30 1q-60 8 -107 35.5t-75.5 80.5t-28.5 119z"/>
            <glyph unicode="Y" horiz-adv-x="1060"
                   d="M-205 1038q0 102 86.5 207t221.5 172.5t266 67.5q126 0 199 -52t73 -143q0 -64 -22.5 -143t-42.5 -125t-62 -133q-32 -65 -45.5 -95t-28 -74t-14.5 -75q0 -119 109 -119q68 0 141 48t131.5 119.5t111 157.5t86 160.5t50.5 129.5l28 -6v-2v-3q-35 -212 -130 -488 t-220 -478q70 -21 187 -76q63 -29 96 -43t92 -30.5t105.5 -16.5t111 12.5t133.5 42.5l12 -24q-52 -23 -102.5 -36.5t-89.5 -18.5q-20 -3 -43 -3q-20 0 -42 2q-46 5 -75 10t-74 21.5t-67.5 26t-69.5 30.5q-113 56 -190 76q-189 -289 -381 -289q-62 0 -96.5 29.5t-34.5 83.5 q0 98 96 165t236 67q83 0 170 -23q102 166 185 386.5t132 426.5q-32 -66 -69.5 -129.5t-87.5 -129.5t-101.5 -115t-112 -80t-118.5 -31q-66 0 -102 38.5t-36 108.5q0 34 15 81t29 78.5t46 98.5q41 84 61 129t42 120.5t22 137.5q0 77 -64.5 121.5t-178.5 44.5 q-93 0 -192 -38.5t-176 -98t-127 -135.5t-50 -146q0 -123 96 -178q53 -31 119 -31q54 0 117 21l8 -29q-66 -21 -124 -21q-76 0 -137 36q-108 64 -108 202zM233 -39q0 -40 27 -62t76 -22q180 0 354 268q-74 19 -153 19q-127 0 -215.5 -59t-88.5 -144z"/>
            <glyph unicode="Z" horiz-adv-x="894"
                   d="M0 274q631 707 1006 1004q-41 -6 -80 -6q-58 0 -135.5 23.5t-142.5 51t-149 51t-153 23.5q-127 0 -211 -68t-84 -179q0 -151 144 -197l-9 -29q-163 56 -163 226q0 122 92.5 199t230.5 77q74 0 159.5 -23.5t149 -51.5t139 -51.5t132.5 -23.5h12q82 0 145 37l17 -24 q-355 -258 -1018 -989q62 22 151 22q54 0 119 -26t125 -62.5t119.5 -73t121.5 -62.5t113 -26q77 0 142 41l12 -24q-68 -45 -154 -45q-51 0 -114 25.5t-122.5 62t-120 73.5t-124.5 62.5t-117 25.5q-30 0 -47.5 -1t-49 -6.5t-61 -20t-57.5 -37.5z"/>
            <glyph unicode="a"
                   d="M-41 354q0 44 26.5 103t70.5 113t110 89q56 30 115 30q10 0 20 -1l-6 -26q-9 1 -18 1l-100 -28q-59 -33 -99 -83t-65 -104.5t-25 -93.5q0 -41 30 -41q38 0 91 58t92.5 122.5t66.5 122.5l27 -8q-107 -210 -107 -270q0 -45 33 -45q23 0 53.5 23.5t67.5 70.5t61 81t62 91 l20 -12q-40 -61 -66 -98.5t-65 -86.5t-72 -73.5t-61 -24.5q-27 0 -44 19t-17 55q0 21 14 68q-35 -49 -79 -85t-77 -36q-27 0 -43 18t-16 51z"/>
            <glyph unicode="b" horiz-adv-x="464"
                   d="M-205 1163l25 17q68 -123 167 -183.5t236 -66.5q79 119 162 194.5t147 75.5q39 0 62.5 -22.5t23.5 -61.5q0 -56 -53.5 -106t-138 -79.5t-172.5 -29.5h-14q-82 -125 -135.5 -253t-53.5 -208q0 -127 86 -127q68 0 137 86q-60 8 -90 50q-28 39 -28 91v7q2 61 39 108t92 47 q41 0 66.5 -32t25.5 -84q0 -74 -49 -160q44 2 87 29t93 104l20 -12q-61 -91 -111 -120.5t-110 -29.5q-36 -51 -82.5 -81.5t-89.5 -30.5q-57 0 -85.5 41t-28.5 114q0 83 51 209.5t131 253.5q-136 8 -236.5 71t-173.5 189zM184 545q0 -49 27.5 -82.5t83.5 -36.5q55 82 55 160 q0 41 -17 64.5t-46 23.5q-43 0 -73 -40t-30 -89zM258 930q79 1 156 27t126.5 69.5t49.5 89.5q0 55 -58 55q-54 0 -127.5 -67t-146.5 -174z"/>
            <glyph unicode="c" horiz-adv-x="346"
                   d="M-10 385q0 60 27.5 121.5t67 105t82.5 71.5t75 28q52 0 55 -47q0 -35 -43 -103l-25 17q39 55 39 86q0 18 -26 18q-37 0 -89 -40.5t-93.5 -112t-41.5 -144.5q0 -72 66 -72q42 0 90.5 27t91.5 69t74.5 79t54.5 71l21 -12q-21 -34 -55 -75.5t-79 -85t-98.5 -72.5t-99.5 -29 t-70 26.5t-24 73.5z"/>
            <glyph unicode="d" horiz-adv-x="401"
                   d="M-45 344q0 33 17 79.5t48 94.5t69 88.5t85 63.5q36 18 71 18q11 0 21 -2l-8 -29q-7 1 -14 1q-52 0 -110 -51q-66 -58 -108 -135t-42 -128q0 -31 22 -31q40 0 102.5 67t104.5 144q1 2 18.5 34t20.5 38t18.5 35.5t20.5 41t17 38t17.5 42.5t14 39t13.5 43.5t9 41.5 q-140 4 -210.5 52t-73.5 113v5q0 44 30 75q32 33 93 33q78 0 138 -52t60 -145q0 -17 -4 -53q181 1 284 44.5t103 109.5q0 28 -22 53t-53 31l4 28q41 -7 70.5 -40.5t29.5 -71.5q0 -83 -110.5 -132t-309.5 -50q-7 -39 -19 -77.5t-33 -85t-32 -69t-40.5 -78t-33.5 -63.5v-2 q-61 -115 -61 -164q0 -45 33 -45q42 0 109 75t139 191l20 -12q-173 -283 -268 -283q-27 0 -44.5 19.5t-17.5 54.5q0 10 9 51q-86 -104 -146 -104q-51 0 -51 59zM175 950q67 -42 192 -45q4 36 4 56q0 75 -52.5 120t-117.5 45q-45 0 -71 -24q-25 -22 -24 -55q0 -54 69 -97z "/>
            <glyph unicode="e" horiz-adv-x="348"
                   d="M-8 399q0 69 43 143.5t101.5 121.5t105.5 47q55 0 55 -52q0 -59 -78 -107q-62 -38 -129 -39q-18 0 -37 3q-33 -64 -33 -117q0 -86 74 -86q62 0 145.5 65.5t157.5 180.5l21 -12q-80 -124 -167 -193t-157 -69q-102 0 -102 114zM68 543q12 -1 23 -2q61 1 115 37q62 42 62 81 q0 23 -26 23q-37 0 -87 -40t-87 -99z"/>
            <glyph unicode="f" horiz-adv-x="315"
                   d="M-332 72q78 32 205 32q79 0 147 -12q-14 96 -14 182v41q-15 -3 -33 -6l-8 29l43 6q9 124 46.5 248.5t92 223t117 176t125 119.5t113.5 42q30 0 49.5 -17.5t19.5 -50.5q0 -68 -86 -178t-201 -207.5t-212 -150.5q-27 -105 -35 -199q117 23 191.5 71.5t133.5 137.5l21 -12 q-65 -99 -144.5 -151t-203.5 -77v-45q0 -100 16 -188q136 -31 215.5 -103t79.5 -153q0 -43 -26 -68q-23 -22 -62 -22h-6q-69 3 -132 89.5t-93 231.5q-88 15 -154 15q-118 0 -195 -33zM57 53q30 -128 84.5 -204.5t110.5 -79.5q31 -2 48 14t17 47q0 69 -70 131t-190 92z M82 588q103 60 210.5 155t179 190.5t71.5 151.5q0 39 -41 39q-98 0 -226.5 -157t-193.5 -379z"/>
            <glyph unicode="g" horiz-adv-x="372"
                   d="M-248 6q0 48 49.5 93.5t143.5 45.5q50 0 137 -24q104 157 168 405q-50 -104 -106.5 -172t-110.5 -69q-34 0 -52 21.5t-18 58.5q0 51 34.5 118.5t97.5 127t132 75.5l9 -29q-64 -14 -122.5 -70t-90 -117.5t-31.5 -104.5q0 -52 41 -52q55 1 130.5 114.5t121.5 262.5l28 -6 v-2v-2q-28 -162 -81.5 -310.5t-122.5 -256.5q19 -6 90 -30t104 -34t85 -21t89 -12q122 0 195 64l20 -21q-80 -71 -215 -71q-41 1 -95.5 12.5t-91.5 22.5t-106 34.5t-92 30.5q-119 -178 -231 -178q-50 0 -79.5 26t-29.5 70zM-219 6q0 -67 80 -67q92 0 205 157q-82 21 -121 21 q-84 0 -124 -35t-40 -76z"/>
            <glyph unicode="h" horiz-adv-x="479"
                   d="M-10 285q0 117 50 267t122.5 276t159.5 213t155 87q28 0 46 -16t18 -45q0 -54 -44.5 -125t-116.5 -140.5t-150 -131.5t-156 -113q-36 -96 -49 -190q55 103 127 182.5t127 79.5q20 0 34.5 -14.5t14.5 -36.5q0 -29 -38 -117.5t-38 -128.5q0 -39 29 -39q16 0 35.5 10 t41 31.5t38.5 40t40.5 51.5t35 49t33 48.5t23.5 35.5l21 -12q-2 -3 -16 -25t-21 -32.5t-24 -35t-27.5 -38.5t-28.5 -37t-31 -36.5t-30 -30.5t-31.5 -26t-30 -15.5t-28.5 -6.5q-28 0 -43 19.5t-15 48.5q0 41 38 130t38 116q0 22 -20 22q-57 0 -143.5 -111.5t-119.5 -212.5z M88 600q169 117 296.5 248.5t127.5 218.5q0 33 -35 33q-58 0 -132 -73.5t-141 -186.5t-116 -240z"/>
            <glyph unicode="i" horiz-adv-x="247"
                   d="M-25 348q0 53 37 139.5t84 159.5l27 -10q-45 -70 -82 -154.5t-37 -134.5q0 -55 45 -55q26 0 58.5 24t68.5 70t61.5 82.5t59.5 89.5l20 -12q-8 -13 -32 -49.5t-41 -62t-44 -60.5t-49.5 -57t-50 -38t-51.5 -16q-32 0 -53 20.5t-21 63.5zM78 764l94 20l4 -28l-94 -21z"/>
            <glyph unicode="j" horiz-adv-x="188"
                   d="M-451 12q0 24 16.5 53t46.5 56.5t80 46t109 18.5q41 0 90 -12q104 197 183 469l26 -6q-93 -305 -180 -471q58 -15 169 -55.5t204.5 -67.5t163.5 -27q125 0 202 80l21 -20q-85 -88 -214 -88h-9q-75 2 -173 30t-208.5 68.5t-167.5 54.5q-127 -231 -252 -231 q-50 0 -78.5 27.5t-28.5 74.5zM-422 12q0 -73 78 -73q104 0 221 208q-49 11 -76 11q-104 0 -163.5 -48.5t-59.5 -97.5zM80 764l94 20l4 -28l-94 -21z"/>
            <glyph unicode="k" horiz-adv-x="464"
                   d="M-373 1106q0 79 62.5 130.5t158.5 51.5v-28q-83 0 -137.5 -43.5t-54.5 -110.5q0 -100 123.5 -173t308.5 -73q67 0 119 8q74 107 150.5 171.5t140.5 64.5q36 0 56.5 -18t20.5 -50q0 -66 -102.5 -119.5t-249.5 -74.5q-70 -106 -123 -227.5t-73 -225.5q63 140 142 232 t153 92q38 0 57.5 -19t19.5 -51q0 -63 -68.5 -122.5t-158.5 -80.5q25 -22 37 -71q5 -21 8 -31.5t10 -22.5t17 -17t26 -5q42 0 109.5 77t138.5 189l21 -12q-83 -130 -149.5 -206.5t-119.5 -76.5q-23 0 -39.5 8t-26 25t-13.5 29.5t-9 35.5q-5 17 -8 25.5t-9.5 20t-16 17.5 t-23.5 9l2 29q86 7 165 65.5t79 114.5q0 41 -49 41q-75 0 -161 -119t-145 -278l-28 4v4q1 115 56.5 263t141.5 278q-83 -5 -98 -5q-199 0 -330 80t-131 195zM248 874q126 23 212.5 67.5t86.5 94.5q0 39 -49 39q-52 0 -118 -54.5t-132 -146.5z"/>
            <glyph unicode="l" horiz-adv-x="356"
                   d="M20 385q0 114 49 256t119 257t149.5 194t137.5 79q31 0 50.5 -17.5t19.5 -49.5q0 -62 -83 -176t-193.5 -219.5t-196.5 -159.5q-23 -94 -23 -164q0 -92 55 -92q53 0 138.5 72t160.5 194l21 -12q-88 -138 -172 -210.5t-148 -72.5q-39 0 -61.5 31t-22.5 90zM84 590 q142 97 287 268t145 246q0 39 -41 39q-56 0 -133.5 -82.5t-148.5 -211.5t-109 -259z"/>
            <glyph unicode="m" horiz-adv-x="657"
                   d="M-51 285q13 90 61 197t94 182l25 -13q-84 -132 -131 -284q186 292 260 292q20 0 31.5 -12t11.5 -31q0 -17 -10 -47t-33 -85.5t-31 -77.5q65 100 148.5 188t124.5 88q20 0 31.5 -12t11.5 -31q0 -36 -67.5 -150.5t-67.5 -156.5q0 -39 28 -39q45 0 129 85.5t142 180.5 l20 -12q-62 -101 -149.5 -192t-141.5 -91q-26 0 -41.5 19t-15.5 49q0 37 33.5 99.5t67.5 121t34 86.5q0 14 -14 14q-49 0 -163.5 -144t-148.5 -226l-24 10q15 55 43 131.5t46.5 127.5t18.5 64q0 15 -14 15q-33 0 -111 -98t-172 -259z"/>
            <glyph unicode="n" horiz-adv-x="409"
                   d="M-45 289q58 211 141 387l27 -12q-44 -89 -92 -226q62 114 126.5 184t106.5 70q24 0 36.5 -14t12.5 -31q0 -35 -63.5 -153.5t-63.5 -161.5q0 -39 31 -39q22 0 47 17t53.5 51.5t48.5 62.5t50.5 75t42.5 64l22 -12q-8 -13 -30 -47t-36 -54.5t-36.5 -52.5t-40.5 -52 t-39.5 -40.5t-42 -30.5t-39.5 -10q-29 0 -44 19t-15 49q0 46 62.5 164t62.5 149q0 6 -5 12.5t-14 6.5q-48 0 -128.5 -111.5t-153.5 -271.5z"/>
            <glyph unicode="o" horiz-adv-x="395"
                   d="M-20 387q0 48 24 102t62 97q-7 24 -7 43q0 57 30.5 94t76.5 37q58 0 97.5 -49t39.5 -121q0 -49 -20 -107q100 5 161 76l21 -12q-71 -90 -195 -92q-33 -72 -88.5 -121t-109.5 -49q-43 0 -67.5 27.5t-24.5 74.5zM8 387q0 -35 17 -54.5t47 -19.5q43 0 89.5 41t78.5 103 q-52 4 -95.5 30.5t-66.5 67.5q-30 -40 -50 -86t-20 -82zM88 629q0 -13 2 -17q55 52 100 52q16 0 39 -15l-14 -22q-11 8 -27 8q-38 0 -90 -55q19 -41 60.5 -67.5t93.5 -29.5q22 55 22 107q0 61 -31 101t-77 40q-34 0 -56 -28.5t-22 -73.5z"/>
            <glyph unicode="p" horiz-adv-x="430"
                   d="M-145 29q24 87 101.5 296.5t127.5 319.5l25 -12l-52 -135q53 94 117.5 152.5t112.5 58.5q40 0 62 -34.5t22 -80.5q0 -56 -23 -117q94 20 131 82l21 -12q-27 -49 -65.5 -69.5t-98.5 -31.5q-37 -70 -94 -115.5t-99 -45.5q-33 0 -53 16.5t-20 46.5q0 25 19.5 45.5t51.5 34 t58 21t51 12.5q47 8 65 10q27 62 27 123q0 34 -14 60t-41 26q-79 0 -190 -176t-214 -479zM98 348q0 -35 45 -35q34 0 80 36t78 93q-7 -1 -20.5 -4t-20.5 -4q-162 -33 -162 -86z"/>
            <glyph unicode="q" horiz-adv-x="397"
                   d="M-43 365q0 30 15.5 72.5t47 87.5t71.5 83.5t96 61.5q48 19 97 19q8 0 17 -1l-6 -24q-9 1 -18 1q-51 0 -101 -29q-60 -34 -100 -85t-65 -102.5t-25 -83.5q0 -52 41 -52q51 0 123.5 94t113.5 214l29 -7v-2l-12 -32q-102 -274 -170 -484q50 69 131 176q134 180 204 287 l21 -14q-133 -198 -203 -289q-13 -19 -56 -76.5t-70.5 -96.5t-53.5 -79q-2 -2 -2 -4l-27 6q30 112 138 412q-92 -133 -166 -133q-34 0 -52 21.5t-18 58.5z"/>
            <glyph unicode="r" horiz-adv-x="301"
                   d="M6 631q0 46 21.5 81.5t52.5 35.5q20 0 33.5 -15t13.5 -37q0 -41 -41 -123q73 0 123 60l22 -19q-57 -57 -119.5 -154t-62.5 -143q0 -24 21 -24q44 0 137 91t143 175l21 -12q-59 -98 -154 -190.5t-147 -92.5q-23 0 -36.5 14.5t-13.5 38.5q0 38 37 105.5t88 134.5 q-35 -12 -61 -12q-37 0 -57.5 23t-20.5 63zM35 631q0 -38 22 -51q39 78 39 116q0 10 -5 16.5t-11 6.5q-19 0 -32 -27t-13 -61z"/>
            <glyph unicode="s" horiz-adv-x="313"
                   d="M-10 281q0 21 11.5 38.5t39.5 34.5t48 26t65 28q12 4 16 8q-11 27 -39 57t-53.5 52.5t-45.5 60t-20 80.5q0 36 18.5 61t45.5 25q21 0 33 -15.5t12 -40.5q0 -55 -43 -133q8 -10 56 -56.5t63 -78.5q111 57 163 131l23 -12q-63 -88 -178 -146q4 -20 4 -34q0 -67 -43 -108.5 t-98 -41.5q-34 0 -56 18t-22 46zM18 281q0 -15 14 -25t36 -10q46 0 79 32.5t33 88.5q0 14 -2 22l-12 -6q-99 -42 -121 -58q-27 -21 -27 -44zM41 666q0 -42 20 -80q31 67 31 110q0 24 -16 27q-12 3 -23.5 -15t-11.5 -42z"/>
            <glyph unicode="t" horiz-adv-x="290"
                   d="M-334 1063q0 53 32 94t79 66l20 -21q-102 -54 -102 -139q0 -59 53.5 -95t171.5 -36q100 0 322 55q12 49 12 92q0 35 -21 47l17 25q31 -22 31 -72q0 -31 -11 -84q258 66 365 66q87 0 127 -51l-25 -19q-26 41 -102 41q-49 0 -119.5 -11.5t-115.5 -22t-138 -33.5 q-25 -90 -90.5 -220t-115.5 -233.5t-50 -153.5q0 -65 47 -65q29 0 73.5 32.5t89.5 82t74.5 86t51.5 65.5l20 -12q-20 -30 -52 -70t-78.5 -91.5t-95 -86.5t-83.5 -35t-55.5 25.5t-20.5 68.5q0 55 48 157t114 230t92 211q-203 -53 -311 -53q-135 0 -194.5 44.5t-59.5 115.5z "/>
            <glyph unicode="u" horiz-adv-x="468"
                   d="M-12 375q0 103 125 311l24 -16q-121 -203 -121 -295q0 -31 13 -47.5t34 -14.5q30 2 62 26.5t57.5 57t55 82.5t48.5 87.5t44 88.5l4.5 9t3.5 7.5t4 8.5l25 -14q-40 -78 -60 -121t-38.5 -100t-18.5 -99q0 -23 9.5 -38t27.5 -15q21 0 43.5 15.5t48 48t44.5 59.5t49.5 74.5 t45.5 68.5l21 -12q-14 -21 -41.5 -64t-43 -67t-40 -57t-43 -51t-41 -31t-43.5 -13q-30 0 -48 23.5t-18 58.5q0 22 8 72q-81 -133 -166 -133q-33 0 -54 24t-21 66z"/>
            <glyph unicode="v" horiz-adv-x="495"
                   d="M18 442q0 99 88 217l25 -16q-84 -107 -84 -201q0 -57 18 -93t46 -36q35 0 79 34t82 87q-77 42 -77 139q0 57 30 101.5t80 44.5q36 0 56 -25t20 -65q0 -75 -66 -178q25 -5 31 -5q114 0 199 113l20 -12q-100 -129 -219 -129q-25 0 -49 6q-44 -60 -95 -99.5t-93 -39.5 q-43 0 -67 43t-24 114zM223 573q0 -82 66 -114q63 100 63 170q0 61 -47 61q-36 0 -59 -37t-23 -80z"/>
            <glyph unicode="w" horiz-adv-x="737"
                   d="M29 442q0 107 65 217l25 -16q-62 -100 -62 -201q0 -58 16.5 -93.5t43.5 -35.5t59.5 32.5t60.5 81.5t50.5 97t36.5 88l6 17l26 -8q-22 -65 -29.5 -99.5t-7.5 -79.5q0 -57 18 -93t46 -36q35 0 74.5 35t70.5 88q-82 39 -82 137q0 43 25.5 78t65.5 35q36 0 55.5 -25t19.5 -65 q0 -63 -43 -141q24 -4 37 -4q117 0 180 108l21 -12q-73 -125 -201 -125q-30 0 -51 6q-37 -62 -84.5 -102.5t-89.5 -40.5q-43 0 -66.5 43t-23.5 114v31q-39 -80 -86 -134t-90 -54t-64.5 42.5t-21.5 114.5zM475 573q0 -82 68 -110q41 77 41 133q0 61 -47 61q-27 0 -44.5 -26.5 t-17.5 -57.5z"/>
            <glyph unicode="x" horiz-adv-x="423"
                   d="M6 289q17 51 68 119q-29 76 -29 161q0 71 16 113l29 -8q-16 -40 -16 -105q0 -68 20 -133q69 87 156 161.5t133 88.5l8 -29q-44 -12 -132.5 -88.5t-154.5 -162.5q23 -52 54.5 -82.5t60.5 -30.5q20 0 39 8t39 25t36 33.5t36.5 45.5t34 48.5t36 54t33.5 51.5l21 -12 l-31.5 -49t-33.5 -51t-32 -46t-34 -45t-33.5 -36t-36.5 -31t-35.5 -17.5t-38.5 -7.5q-35 0 -71 30.5t-62 82.5q-37 -54 -51 -96z"/>
            <glyph unicode="y" horiz-adv-x="421"
                   d="M-197 12q0 24 16.5 53t46.5 56.5t80 46t109 18.5q39 0 86 -12q63 116 131 299q-107 -188 -198 -188q-36 0 -55 22t-19 58q0 41 14.5 95.5t29.5 92.5t43 104l9 21l29 -12q-96 -222 -96 -301q0 -52 45 -52q53 0 136 113.5t130 251.5l27 -10v-2q0 -1 -1 -3.5t-1 -3.5 q-96 -307 -195 -491q54 -15 161 -56.5t197.5 -68.5t161.5 -27q126 0 203 80l20 -20q-85 -88 -214 -88h-9q-75 2 -170 30t-202 68.5t-162 54.5q-128 -231 -246 -231q-50 0 -78.5 27.5t-28.5 74.5zM-168 12q0 -73 78 -73q96 0 217 211q-50 8 -72 8q-104 0 -163.5 -48.5 t-59.5 -97.5z"/>
            <glyph unicode="z"
                   d="M-14 293q117 131 182 198t137 132q-30 -5 -35 -5q-29 1 -78.5 22.5t-78.5 21.5q-30 0 -47 -15.5t-17 -34.5q0 -53 82 -73l-12 -25q-99 29 -99 98q0 29 26 53.5t67 24.5q33 0 82 -21.5t75 -21.5q41 0 78 12l12 -26q-137 -116 -319 -322q14 4 37 4q31 0 69.5 -11t57.5 -11 t39.5 8.5t42.5 28.5t38 35.5t40.5 49t34.5 47.5t35.5 52.5t29.5 44.5l20 -12q-7 -11 -35 -54t-43 -64.5t-44.5 -58.5t-51.5 -56t-50.5 -34.5t-55.5 -15.5q-23 0 -61.5 11.5t-65.5 11.5q-33 0 -74 -15z"/>
            <glyph unicode="&#x2000;" horiz-adv-x="826"/>
            <glyph unicode="&#x2001;" horiz-adv-x="1653"/>
            <glyph unicode="&#x2002;" horiz-adv-x="826"/>
            <glyph unicode="&#x2003;" horiz-adv-x="1653"/>
            <glyph unicode="&#x2004;" horiz-adv-x="551"/>
            <glyph unicode="&#x2005;" horiz-adv-x="413"/>
            <glyph unicode="&#x2006;" horiz-adv-x="275"/>
            <glyph unicode="&#x2007;" horiz-adv-x="275"/>
            <glyph unicode="&#x2008;" horiz-adv-x="206"/>
            <glyph unicode="&#x2009;" horiz-adv-x="330"/>
            <glyph unicode="&#x200a;" horiz-adv-x="91"/>
            <glyph unicode="&#x202f;" horiz-adv-x="330"/>
            <glyph unicode="&#x205f;" horiz-adv-x="413"/>
            <glyph unicode="&#x25fc;" horiz-adv-x="686" d="M0 0v686h686v-686h-686z"/>
            </font>
</defs>
</svg>
