<?xml version="1.0" standalone="no"?>
<!DOCTYPE svg PUBLIC "-//W3C//DTD SVG 1.1//EN" "http://www.w3.org/Graphics/SVG/1.1/DTD/svg11.dtd" >
<svg xmlns="http://www.w3.org/2000/svg" xmlns:xlink="http://www.w3.org/1999/xlink" version="1.1">
    <metadata></metadata>
    <defs>
        <font id="christmas_wishcalligraphy" horiz-adv-x="1196">
            <font-face units-per-em="2048" ascent="1638" descent="-410"/>
            <missing-glyph horiz-adv-x="512"/>
            <glyph horiz-adv-x="0"/>
            <glyph horiz-adv-x="682"/>
            <glyph unicode=" " horiz-adv-x="512"/>
            <glyph unicode="&#x09;" horiz-adv-x="512"/>
            <glyph unicode="&#xa0;" horiz-adv-x="512"/>
            <glyph unicode="!" horiz-adv-x="364"
                   d="M61 41q0 32 22.5 50t49.5 18q11 0 42 -5t48 -4q0 -46 -26.5 -85.5t-69.5 -39.5q-29 0 -47.5 19t-18.5 47zM132 314q-3 69 26.5 157.5t66 179t67 189t30.5 164.5q42 5 73 -19.5t31 -73.5q0 -56 -48 -166.5t-101.5 -211t-86 -194.5t-8.5 -126q-47 32 -50 101z"/>
            <glyph unicode="&#x22;" horiz-adv-x="618"
                   d="M205 1098q25 33 31.5 65.5t0.5 54.5t-14 48.5t-8 40.5q0 31 22 49t50 18q39 0 60.5 -23.5t21.5 -62.5q0 -67 -56 -128.5t-108 -61.5zM414 1098q25 33 31.5 65.5t0.5 54.5t-14 48.5t-8 40.5q0 31 22 49t50 18q39 0 60.5 -23.5t21.5 -62.5q0 -67 -56 -128.5t-108 -61.5z "/>
            <glyph unicode="#" horiz-adv-x="724"
                   d="M111 188q0 7 10 14t24 7l52 2l59 158h-92q0 7 9.5 13.5t25.5 6.5l67 2q49 144 58 178q23 -2 41 -28.5t18 -63.5q0 -35 -18 -82l92 2q44 124 57 172q21 -2 38 -28.5t17 -63.5q0 -30 -16 -76l61 2q-3 -14 -17.5 -24t-31.5 -10h-22q-20 -50 -68 -148l86 2q-5 -13 -20 -24 t-29 -11h-53q-75 -158 -88 -213q-37 3 -37 60q0 50 41 153h-105q-75 -158 -88 -213q-35 3 -35 60q0 50 41 153h-77zM283 213l102 4l59 152h-90q-20 -52 -71 -156z"/>
            <glyph unicode="$" horiz-adv-x="1447"
                   d="M20 279q0 107 62.5 190.5t158.5 125.5t205 42q159 0 255 -75.5t77 -184.5q-88 105 -174 148.5t-213 43.5q-137 0 -229 -85.5t-92 -217.5q0 -76 30.5 -141t81.5 -110.5t118.5 -78t141.5 -48t150 -15.5h18l314 827q-56 87 -82.5 131t-54 115t-27.5 127q0 91 38 165 t100.5 119t137.5 69t154 24h20l72 188q13 -10 19 -31.5t-5 -58.5l-41 -106q104 -25 185.5 -107.5t81.5 -183.5q0 -51 -18.5 -102t-53.5 -95.5t-94.5 -72t-132.5 -27.5q-43 0 -81 26t-48 66q151 0 243.5 86t92.5 199q0 64 -53.5 115t-133.5 65l-219 -569q117 -153 152 -210 q84 -135 84 -235q0 -231 -167.5 -389t-457.5 -170l-66 -168q-23 29 -4 86l31 82h-4q-83 0 -162.5 16t-154.5 51t-131 85.5t-90 125t-34 163.5zM649 -125q205 17 328 139.5t123 288.5q0 55 -23.5 120.5t-50 112t-74.5 121.5zM872 1139q0 -54 31.5 -115.5t89.5 -140.5l203 532 h-6q-63 0 -118.5 -16.5t-101 -49t-72 -86.5t-26.5 -124z"/>
            <glyph unicode="%" horiz-adv-x="909"
                   d="M184.5 27q0.5 22 10.5 39l503 856q9 -6 16 -18.5t10 -32t-11 -40.5l-514 -851q-15 25 -14.5 47zM231 666q0 31 22 49t50 18q11 0 42 -4.5t48 -3.5q0 -46 -26.5 -85.5t-69.5 -39.5q-29 0 -47.5 19t-18.5 47zM504 238q0 31 21.5 49t49.5 18q11 0 42.5 -4.5t48.5 -3.5 q0 -46 -27 -85.5t-70 -39.5q-29 0 -47 19t-18 47z"/>
            <glyph unicode="&#x26;" horiz-adv-x="1318"
                   d="M51 227q0 68 26.5 144.5t82 153t131.5 139t184.5 103.5t231.5 46q-78 27 -122 82t-44 129q0 78 50.5 144t130 102.5t165.5 36.5q96 0 147 -40.5t51 -92.5q0 -32 -27.5 -52t-66.5 -18q25 36 26.5 76t-28 69t-86.5 29q-92 0 -160.5 -73t-68.5 -181q0 -84 23.5 -132 t80.5 -71q27 -11 23 -30q-95 4 -184 -21t-156 -70.5t-123 -105t-91.5 -124.5t-55 -127.5t-19.5 -115.5q0 -131 71 -209.5t214 -78.5q122 0 230.5 63.5t170 164t57.5 206.5q-3 78 -48 120.5t-130 43.5q-114 3 -203.5 -53.5t-89.5 -153.5q0 -43 21.5 -72t51.5 -37.5 t62.5 -11.5t53.5 6q0 -22 -23 -43.5t-55 -21.5q-60 0 -103.5 49t-43.5 116q0 136 99.5 216.5t242.5 80.5q56 0 167 -22.5t160 -22.5q77 0 119.5 33.5t42.5 81.5q0 52 -47 71.5t-96 2.5q-4 22 12.5 35.5t46.5 13.5q55 0 84 -33t29 -92q0 -51 -22.5 -93t-60 -67t-83 -38 t-93 -11.5t-89.5 16.5q24 -49 24 -114q3 -89 -39.5 -175.5t-115 -153t-176 -107.5t-214.5 -41q-160 0 -254 93t-94 238z"/>
            <glyph unicode="'" horiz-adv-x="409"
                   d="M205 1098q25 33 31.5 65.5t0.5 54.5t-14 48.5t-8 40.5q0 31 22 49t50 18q39 0 60.5 -23.5t21.5 -62.5q0 -67 -56 -128.5t-108 -61.5z"/>
            <glyph unicode="(" horiz-adv-x="622"
                   d="M102 147q0 108 30.5 233t82.5 245.5t125 234t155 201t176.5 145.5t184.5 68q-170 -90 -322 -289.5t-240.5 -439t-88.5 -447.5q0 -170 25 -289.5t73 -244.5q-85 36 -143 209.5t-58 373.5z"/>
            <glyph unicode=")" horiz-adv-x="548"
                   d="M-307 -436q173 91 322.5 280.5t239 429t89.5 467.5q0 175 -24.5 290t-73.5 243q56 -24 102.5 -113.5t72 -215t25.5 -255.5q0 -157 -42 -318.5t-116.5 -298.5t-169 -248t-205.5 -179.5t-220 -81.5z"/>
            <glyph unicode="*" horiz-adv-x="614"
                   d="M98 1036l56 60l-54 47l103 -10l45 24l-45 27l-105 -13l54 50l-54 57l76 -18l14 67l39 -90l52 -31v54l-62 81l68 -20l22 78l23 -76l65 20l-59 -81v-56l43 25l41 96l16 -70l80 21l-55 -57l53 -50l-102 13l-47 -27l43 -24l104 10l-55 -49l57 -58l-78 21l-14 -70l-43 96 l-43 25v-53l59 -82l-65 22l-23 -77l-22 77l-68 -22l62 84v49l-46 -27l-40 -92l-15 68z"/>
            <glyph unicode="," horiz-adv-x="360"
                   d="M61 -168q32 42 34.5 80.5t-10.5 76.5t-13 52q0 32 22 50t49 18q39 0 60.5 -23.5t21.5 -62.5q0 -67 -56 -129t-108 -62z"/>
            <glyph unicode="-" horiz-adv-x="778" d="M205 266q0 8 10 19.5t25 11.5l333 4q-3 -13 -17 -22t-32 -9z"/>
            <glyph unicode="." horiz-adv-x="358"
                   d="M61 41q0 32 22.5 50t49.5 18q11 0 42 -5t48 -4q0 -46 -26.5 -85.5t-69.5 -39.5q-29 0 -47.5 19t-18.5 47z"/>
            <glyph unicode="/" horiz-adv-x="526"
                   d="M-92.5 -201q0.5 22 10.5 39l768 1534q8 -6 14.5 -18t9 -31t-9.5 -41l-778 -1530q-15 25 -14.5 47z"/>
            <glyph unicode="0" horiz-adv-x="712"
                   d="M37 244q0 81 27 178.5t79 194t119 176.5t155.5 130t180.5 50q35 0 63.5 -13.5t28.5 -35.5q-85 16 -168 -17.5t-146.5 -103.5t-113 -162t-76 -196t-26.5 -201q0 -224 106 -224q96 0 191 111t152 264.5t57 282.5q0 143 -111 143q-63 0 -129 -73q17 42 55 75t82 33 q68 0 101.5 -49.5t35.5 -128.5q0 -102 -37.5 -224.5t-97.5 -229t-146.5 -178t-174.5 -71.5q-104 0 -155.5 74.5t-51.5 194.5z"/>
            <glyph unicode="1" horiz-adv-x="407"
                   d="M0 539q141 40 247 152t169 270q18 -3 18 -37q0 -36 -33 -151.5t-72.5 -241t-72.5 -277.5t-33 -254q-37 -13 -67.5 18t-30.5 91q0 56 25.5 145.5t54 162.5t76.5 187.5t67 163.5q-47 -83 -106 -152t-111 -96q-35 -15 -77 -8.5t-54 27.5z"/>
            <glyph unicode="2" horiz-adv-x="600"
                   d="M0 29q0 38 47.5 115.5t116 168.5t136.5 186t115.5 189.5t47.5 157.5q0 42 -25.5 67t-70.5 25q-91 0 -165.5 -62t-74.5 -128q0 -25 8 -44t25.5 -32.5t27 -19t29.5 -15.5q-21 -31 -57 -31q-33 0 -54.5 33t-21.5 74q0 97 90 178.5t193 81.5q89 0 142.5 -56t53.5 -153 q0 -60 -33 -128t-84 -127.5t-115 -125t-122 -120.5t-109 -115t-73 -107q54 28 108 37.5t98.5 4.5t87 -12.5t90.5 -7.5t91 15q-21 -43 -67.5 -73t-100.5 -30q-71 0 -164.5 18.5t-112.5 18.5q-27 0 -49 -12q-8 11 -8 29z"/>
            <glyph unicode="3" horiz-adv-x="647"
                   d="M0 8q231 76 381.5 232.5t150.5 314.5q0 60 -36 95.5t-99 35.5q-72 0 -125 -47q-4 6 -1.5 23t14.5 26q106 111 106 195q0 55 -61 55q-62 0 -117 -38t-55 -81q0 -39 23.5 -54.5t54.5 -10.5q-4 -16 -19.5 -32.5t-36.5 -16.5q-34 0 -56 24t-22 59q0 76 73.5 130.5t166.5 54.5 q64 0 105.5 -28t41.5 -73q0 -75 -122 -155l30 4q95 0 154 -66t59 -172q0 -36 -14.5 -85.5t-41.5 -107t-71 -113t-98 -101t-128.5 -73.5t-156.5 -28q-71 0 -100 33z"/>
            <glyph unicode="4" horiz-adv-x="557"
                   d="M-61 266q50 40 126.5 113.5t167.5 173.5t163 212t91 198q23 -15 39.5 -43.5t16.5 -61.5q0 -41 -20 -87.5t-50 -89t-77 -90t-89 -84.5t-97.5 -80.5t-91.5 -69.5t-82 -59q-16 -12 -24 -17q48 13 114.5 33t115.5 33t94 20q51 111 115 194q36 45 61 45q-47 -93 -90 -229h37 q98 0 98 -45q-62 17 -145 8q-61 -214 -41 -340q-48 -11 -80.5 26.5t-32.5 86.5q0 82 59 213q-70 -13 -190 -47.5t-147 -34.5q-23 0 -41 22z"/>
            <glyph unicode="5" horiz-adv-x="604"
                   d="M-37 8q237 76 384 226.5t147 310.5q0 75 -45.5 122.5t-120.5 47.5q-94 0 -154 -72q-16 22 -10 45l65 223q84 -18 177.5 -3t121.5 48q15 -16 17.5 -40.5t-6.5 -47t-37.5 -39t-69.5 -16.5q-18 0 -36.5 2t-30.5 3.5t-32 6.5t-27 7t-29.5 8.5t-26.5 7.5l-41 -133 q58 35 119 35q107 0 173 -78t66 -207q0 -73 -38 -158t-101.5 -159t-159 -123.5t-198.5 -49.5q-87 0 -107 33z"/>
            <glyph unicode="6" horiz-adv-x="575"
                   d="M37 231q0 110 54.5 242.5t136.5 242t185 183.5t193 74q59 0 80 -35q-64 17 -142 -25t-147 -122.5t-125.5 -198.5t-78.5 -242q72 94 167 94q60 0 91.5 -43.5t31.5 -109.5q0 -121 -72.5 -218.5t-166.5 -97.5q-93 0 -150 70t-57 186zM180 205q0 -178 101 -178q66 0 118 82 t52 182q0 119 -91 119q-60 0 -120 -63t-60 -142z"/>
            <glyph unicode="7" horiz-adv-x="477"
                   d="M61 127q0 66 35.5 156.5t99 193t121.5 187t130 184.5q25 33 36 49q-123 -90 -254 -90q-34 0 -64.5 8.5t-56 27.5t-29 50.5t16.5 77.5q77 -42 207.5 -48t233.5 33q8 -12 -28.5 -76.5t-95 -164.5t-116.5 -214.5t-96.5 -250.5t-32.5 -250q-45 -15 -76 22t-31 105z"/>
            <glyph unicode="8" horiz-adv-x="614"
                   d="M37 180q0 47 20 95t62 98.5t78 87t94 90.5q-43 114 -43 213q0 83 60 146t138 63q53 0 85 -33.5t32 -81.5q0 -61 -41 -121.5t-116 -130.5q14 -26 48.5 -82.5t52 -89t34 -82t16.5 -94.5q0 -110 -85 -204.5t-216 -94.5q-102 0 -160.5 59.5t-58.5 161.5zM72 180 q0 -89 48 -138.5t136 -49.5q71 0 116.5 56.5t45.5 125.5q0 42 -12 89.5t-25 79.5t-39 88.5t-37 84.5q-53 -47 -88 -81t-72 -78.5t-55 -88.5t-18 -88zM342 813q0 -84 45 -172q141 134 141 217q0 33 -21.5 56.5t-60.5 23.5q-40 0 -72 -39t-32 -86z"/>
            <glyph unicode="9" horiz-adv-x="569"
                   d="M-12 8q193 38 339.5 220.5t166.5 428.5q-31 -74 -92 -113.5t-130 -39.5q-80 0 -127 54t-47 132q0 110 80 196.5t191 86.5q186 0 186 -346q0 -78 -20.5 -166t-61 -174t-94 -156t-127 -113t-152.5 -43q-91 0 -112 33zM184 741q0 -61 36 -104t102 -43q59 0 113 48.5 t54 129.5q0 77 -34 120.5t-90 43.5q-69 0 -125 -57.5t-56 -137.5z"/>
            <glyph unicode=":" horiz-adv-x="358"
                   d="M61 41q0 32 22.5 50t49.5 18q11 0 42 -5t48 -4q0 -46 -26.5 -85.5t-69.5 -39.5q-29 0 -47.5 19t-18.5 47zM111 385q0 32 22 50t49 18q11 0 42 -5t48 -4q0 -46 -26.5 -85.5t-69.5 -39.5q-29 0 -47 19t-18 47z"/>
            <glyph unicode=";" horiz-adv-x="348"
                   d="M61 -168q32 42 34.5 80.5t-10.5 76.5t-13 52q0 32 22 50t49 18q39 0 60.5 -23.5t21.5 -62.5q0 -67 -56 -129t-108 -62zM135 385q0 32 22.5 50t49.5 18q11 0 42 -5t48 -4q0 -46 -26.5 -85.5t-69.5 -39.5q-29 0 -47.5 19t-18.5 47z"/>
            <glyph unicode="?" horiz-adv-x="567"
                   d="M61 692q0 38 20.5 82t57.5 85.5t98 69t132 27.5q107 0 183.5 -63.5t76.5 -167.5q0 -60 -33.5 -108.5t-83 -78.5t-108 -63t-108 -63t-83 -78.5t-33.5 -108.5q-53 11 -53 68q0 53 22 96t57 72.5t77 55.5t84.5 52t77.5 54.5t57 69.5t22 91q0 64 -44.5 101t-108.5 37 q-60 0 -106.5 -24.5t-71.5 -62t-36 -79.5t-4.5 -80t27.5 -60q-46 -27 -82.5 -1.5t-36.5 77.5zM74 41q0 32 22 50t49 18q11 0 42.5 -5t48.5 -4q0 -46 -27 -85.5t-70 -39.5q-29 0 -47 19t-18 47z"/>
            <glyph unicode="@" horiz-adv-x="739"
                   d="M51 141q0 65 34 139.5t89.5 138t137.5 106t169 42.5q97 0 152 -58.5t55 -148.5q0 -110 -70 -195t-133 -85q-32 0 -52.5 20t-20.5 54q-55 -68 -107 -68q-34 0 -53 22t-19 60q0 41 27.5 92.5t70 90t94 55t99.5 -12.5q-61 -6 -137 -90.5t-76 -148.5q0 -27 19 -27 q30 0 62.5 46.5t51.5 96.5t19 72q30 0 52 -15t22 -38q0 -27 -32 -87t-32 -79q0 -14 16 -14q50 0 110 75.5t60 175.5q0 77 -47 128t-131 51q-90 0 -169.5 -54.5t-126 -143.5t-46.5 -187q0 -84 48.5 -137.5t119.5 -53.5q88 0 152 55q7 -20 -29 -49q-61 -51 -156 -51 q-101 0 -162 59.5t-61 163.5z"/>
            <glyph unicode="A"
                   d="M-354 72q0 121 82 236t212.5 197t298.5 131.5t334 49.5q45 0 123 -4q84 124 157 221t162.5 198.5t186 179.5t195.5 128q-63 38 -189 70t-237 32q-109 0 -201 -26t-154 -69t-109 -99.5t-71.5 -117.5t-36.5 -123q-10 -49 -9 -92v-22q3 -53 16 -94q-106 52 -112 171v14 q0 114 93 233q117 150 315 217q126 43 267 43q129 0 266.5 -36.5t230.5 -94.5q-130 -142 -244.5 -360t-187.5 -449q145 -63 154 -131q-39 59 -162 105q-78 -264 -78 -461q0 -135 40.5 -203t115.5 -68q59 0 123 41q-51 -77 -137 -77q-120 0 -194.5 93.5t-74.5 246.5 q0 199 94 460q-97 22 -196 31q-38 -58 -100.5 -157.5t-99.5 -158t-94.5 -142t-97.5 -133.5t-94.5 -107.5t-100.5 -88.5t-100 -52t-108 -21q-109 0 -193.5 79t-84.5 210zM-236 41q0 -88 52.5 -144.5t138.5 -56.5q42 0 86.5 19.5t84 48.5t87.5 82t85.5 100t90.5 124.5t90 134 t97 148.5t98 150q-66 4 -101 4q-152 0 -300 -49t-259.5 -131t-180.5 -195.5t-69 -234.5zM741 676q96 -8 187 -35q79 203 193.5 392.5t224.5 309.5q-86 -52 -169.5 -126t-160 -165t-140 -178.5t-135.5 -197.5z"/>
            <glyph unicode="B" horiz-adv-x="1495"
                   d="M-295 27q0 101 72.5 203.5t187.5 180t268 126.5t304 49q56 139 180 401q-89 -64 -220 -106.5t-239 -42.5q-88 0 -138 49.5t-50 132.5q0 80 68.5 165t176.5 152t254 110.5t289 43.5q215 0 354.5 -92t139.5 -234q0 -113 -98 -204t-275 -138h29q167 0 275 -85.5t108 -223.5 q0 -115 -73 -234.5t-199.5 -220.5t-285 -181.5t-342.5 -126.5t-358 -46q-201 0 -314.5 85t-113.5 237zM-250 39q0 -124 82.5 -193t230.5 -69q167 0 345.5 50t331 134t276 187.5t194 219t70.5 218.5q0 93 -71.5 147.5t-200.5 54.5q-104 0 -177 -18l-61 -22q-25 -53 -88 -179 q146 -35 279 -129q-157 79 -295 101q-56 -110 -90 -181.5t-69.5 -165.5t-43.5 -159q-25 5 -40 28t-15 60q0 143 116 428q-187 -3 -368 -78t-293.5 -193.5t-112.5 -240.5zM102 1020q0 -67 41.5 -107.5t114.5 -40.5q94 0 211 43.5t225 127t156 182.5q45 -7 79 -35t34 -70 q0 -21 -19 -59.5t-68.5 -121t-76.5 -132.5q178 46 298 173.5t120 260.5q0 59 -29.5 102.5t-81 68t-113 35.5t-135.5 11q-140 0 -280.5 -40.5t-243.5 -103t-167.5 -141.5t-64.5 -153z"/>
            <glyph unicode="C" horiz-adv-x="1533"
                   d="M-506 430q0 168 146 281.5t368 113.5q70 0 132.5 -12.5t110 -34.5t85.5 -51t62 -63q24 -32 37 -68q13 -34 13 -69q0 -37 -14 -70q-37 91 -92 158t-116.5 102.5t-121.5 52t-120 16.5q-160 0 -262.5 -91.5t-102.5 -229.5q0 -89 37.5 -157t101 -107t139 -58.5t160.5 -19.5 q236 0 508 88v10q0 138 51.5 292t137 293t199.5 267t235.5 221.5t248 149t234.5 55.5q85 0 140 -51.5t55 -134.5q0 -127 -93 -279t-247 -295.5t-360 -275t-425 -221.5q-2 -23 -2 -68q0 -115 54.5 -191.5t164.5 -76.5q151 0 326 125t301 329q10 -3 13.5 -12.5t-3.5 -21.5 q-315 -488 -721 -488q-137 0 -217.5 91t-89.5 247q-278 -88 -510 -88q-255 0 -409 94.5t-154 247.5zM745 279q214 89 414 219t347 269.5t236 284.5t89 261q0 67 -38 109t-97 42q-70 0 -164.5 -50t-193.5 -134.5t-198.5 -202t-180.5 -246t-139 -274t-75 -278.5z"/>
            <glyph unicode="D" horiz-adv-x="1740"
                   d="M-158 791q0 172 114 312.5t308 219t426 78.5q261 0 490 -131q152 172 329 180q-64 -18 -122.5 -78.5t-118.5 -159.5q154 -114 244 -274.5t90 -351.5q0 -79 -21 -164t-69 -170.5t-116.5 -153t-172 -109.5t-226.5 -42t-224 29.5t-216 82.5q-152 -108 -332 -108 q-90 0 -137 38.5t-47 94.5q0 50 46 85.5t114 35.5q78 0 148.5 -21t164.5 -61q69 70 137 181.5t126 233t114.5 244t124.5 245.5t135 206q-204 133 -461 133q-115 0 -230.5 -24t-218 -72t-182 -113t-126 -154t-46.5 -188q0 -64 30.5 -115t79.5 -81q49 -29 113 -39q28 -4 55 -5 q37 -1 74 7q65 12 130 52.5t114 104.5q5 -21 5 -41q0 -72 -68 -136q-86 -82 -227 -83q-151 0 -251 82.5t-100 229.5zM78 82q0 -38 39 -67t108 -29q136 0 258 106q-171 78 -282 78q-55 0 -89 -24.5t-34 -63.5zM594 86q187 -82 317 -82q109 0 201 39t156 104t109 150t66 176.5 t21 183.5q0 308 -223 508q-44 -79 -106 -210.5t-115.5 -242.5t-119 -231.5t-143.5 -223t-163 -171.5z"/>
            <glyph unicode="E" horiz-adv-x="1044"
                   d="M-222 1402q4 81 42 161q0 -85 23.5 -170.5t76 -169t128.5 -147t191 -103t253 -39.5q82 0 147 8q-10 38 -10 68q0 77 43 152.5t117 134t182 94.5t229 36q86 0 132 -37.5t46 -95.5q0 -83 -86 -158.5t-218.5 -128t-291.5 -81.5q42 -110 166 -148q31 -9 38 -19.5t1 -31.5 q-102 21 -191 21q-48 0 -94 -6q-128 -18 -227 -70.5t-166.5 -128t-102 -156.5t-34.5 -156q0 -149 79.5 -229t213.5 -80q160 0 278.5 108.5t118.5 239.5q0 64 -38 106q-38 43 -88 54q-21 5 -43 5q-30 0 -60 -9q-53 -15 -82 -55q-1 8 -1 15q0 54 39 94q44 46 113 46 q60 0 105 -23t68.5 -60t35 -75.5t11.5 -76.5q0 -74 -38.5 -150.5t-104.5 -138.5t-163.5 -101.5t-205.5 -39.5q-186 0 -292 100.5t-106 280.5q0 74 30.5 149t96 145.5t156.5 124.5t223 87q128 32 276 32h9q-107 42 -150 127q-73 -8 -161 -8q-139 0 -257.5 27t-203.5 73.5 t-145 110.5t-86 138q-23 63 -22 131q-1 11 0 23zM764 1040q0 -43 8 -82q153 27 280.5 75.5t209 117.5t81.5 143q0 43 -36 71t-107 28q-107 0 -209 -51.5t-164.5 -134t-62.5 -167.5z"/>
            <glyph unicode="F" horiz-adv-x="1388"
                   d="M-492 1079q0 115 62.5 201t165.5 129t231 43q150 0 289.5 -37.5t256 -98t224.5 -124t239 -128t255 -97.5q145 181 326.5 287t388.5 106q86 0 133 -40t47 -95q0 -89 -78 -166t-211 -121.5t-287 -44.5q-114 0 -219 12q-149 -218 -270 -516q37 2 71 3q66 0 122 -10 q86 -14 112 -36q-48 6 -112 6q-91 0 -212 -12q-54 -140 -85 -256t-31 -160q-17 0 -37.5 23.5t-20.5 68.5q0 144 43 306q-151 -22 -272 -56q120 77 287 107q91 308 272 551q-158 30 -310.5 88.5t-267.5 119t-227 117.5t-233.5 93t-243.5 36q-168 0 -267.5 -75.5t-99.5 -194.5 q0 -127 105 -223q104 -95 274 -135q104 -24 214 -25q70 0 143 10q-84 -84 -260 -84q-86 0 -176 30t-166.5 83.5t-125.5 136.5t-49 178zM1358 940q103 -14 192 -14q143 0 268 40t199 109.5t74 149.5q0 43 -38.5 71.5t-106.5 28.5q-310 0 -588 -385z"/>
            <glyph unicode="G" horiz-adv-x="1150"
                   d="M-483 1040q0 81 36 157.5t99.5 136t158 96t203.5 36.5q-205 -56 -301 -162.5t-96 -244.5t124.5 -224.5t354.5 -86.5q51 0 76 2q73 186 233.5 360.5t350.5 281.5t346 107q87 0 137.5 -45t50.5 -119q0 -92 -75 -190.5t-204.5 -184t-319 -150t-402.5 -87.5q-31 -95 -31 -180 q0 -117 48 -190.5t136 -73.5q101 0 252.5 73.5t214.5 149.5q78 -17 78 -183q0 -112 -44.5 -246.5t-121.5 -258.5q49 -14 189 -62.5t243 -72t209 -23.5q137 0 267 65q-27 -68 -96 -109.5t-160 -41.5q-88 0 -184.5 23t-166.5 51.5t-168.5 69.5t-158.5 61q-97 -144 -216 -232 t-243 -88q-88 0 -134 38.5t-46 105.5q0 97 122.5 176.5t278.5 79.5q62 0 135 -13q85 147 144 317.5t75 291.5q-272 -222 -516 -222q-127 0 -199.5 71t-72.5 212q0 98 35 201q-31 -2 -97 -2q-248 0 -396 89.5t-148 239.5zM188 -401q0 -39 31 -62.5t78 -23.5q191 0 375 294 q-63 13 -115 13q-140 0 -254.5 -69.5t-114.5 -151.5zM301 758q163 18 314 62.5t265 104.5t200 130t130.5 142t44.5 138q0 59 -40 94t-113 35q-122 0 -285 -100.5t-307.5 -266.5t-208.5 -339z"/>
            <glyph unicode="H" horiz-adv-x="1323"
                   d="M-147 856q0 107 56.5 216.5t148 194.5t216.5 139t252 54q195 0 307.5 -134t112.5 -376q0 -154 -49 -325q153 55 211 77q81 201 204.5 370.5t263 269.5t259.5 100q67 0 109.5 -44.5t42.5 -115.5q0 -64 -61 -137.5t-168 -146t-237 -141t-284 -134.5q-123 -316 -123 -608 q0 -104 29 -182t82 -115q-101 0 -163.5 102.5t-62.5 263.5q0 229 95 480q-18 -8 -195 -72q-8 -4 -12 -4q-47 -154 -125 -296t-178 -257.5t-226 -184.5t-256 -69q-96 0 -158.5 55t-62.5 148q0 55 28 107.5t66.5 94.5t114.5 89.5t135.5 79t169 77.5t176 71t191.5 72 q90 253 90 453q0 209 -82.5 303t-243.5 94q-120 0 -238.5 -51t-205.5 -131t-141 -183.5t-54 -203.5q0 -92 61 -142t173 -50q100 0 188.5 44t186.5 132q-32 -78 -100 -137t-139.5 -86t-135.5 -27q-127 0 -197.5 70t-70.5 196zM-84 -16q0 -65 43.5 -102.5t110.5 -37.5 q103 0 206 57.5t189.5 156t158 219.5t124.5 258q-119 -44 -183 -69t-166.5 -68t-159.5 -73t-128 -74t-107 -82.5t-62 -86.5t-26 -98zM1253 762q145 62 267 127t221 132.5t155 135t56 125.5q0 56 -32.5 91.5t-84.5 35.5q-140 0 -303.5 -185t-278.5 -462z"/>
            <glyph unicode="I" horiz-adv-x="1032"
                   d="M-147 53q0 97 41 198.5t112.5 185t179 137t228.5 53.5q57 0 103 -18t72 -47q25 -28 37 -64q7 -23 8 -46q0 -14 -2 -26q-6 -36 -32 -67.5t-68 -51.5q21 33 29 71q4 19 4 38.5t-4 37.5q-8 38 -29 69t-61 50t-94 19q-100 0 -192.5 -50.5t-156.5 -129t-102.5 -174 t-38.5 -185.5q0 -105 69.5 -171t180.5 -66q95 0 189.5 55t173.5 148t152.5 214.5t131 255t105.5 268.5t79.5 257t48.5 218.5t17 153.5q-19 1 -38 1q-126 0 -241 -41q-133 -47 -215.5 -133.5t-82.5 -188.5q0 -132 129 -264q-73 11 -145 78.5t-72 165.5q0 123 108.5 224.5 t284.5 153.5q141 42 292 42q38 0 76 -3q0 -181 -33 -377.5t-91.5 -382t-145 -353t-188 -293t-225.5 -199.5t-252 -74q-152 0 -247 86.5t-95 224.5z"/>
            <glyph unicode="J" horiz-adv-x="1107"
                   d="M-147 -12q0 138 75 266.5t197.5 207.5t253.5 79q90 0 161 -51q72 -52 72 -137q0 -65 -55 -117q-57 -55 -147 -68q108 100 108 211q0 58 -39 90.5t-96 32.5q-92 0 -183 -44.5t-159.5 -115.5t-111 -165t-42.5 -189q0 -115 67 -185.5t185 -70.5q53 0 100.5 12t85.5 30.5 t74.5 52t64 66.5t57 84.5t50.5 94.5t48.5 109.5t46 116t48 126t50.5 129.5h-10q-154 0 -261.5 76t-107.5 186q0 53 17.5 100t45 84t73.5 72.5t89.5 61t108.5 53.5t114.5 46.5t122.5 43.5q220 76 304 119q93 48 126 96q15 -14 18 -41.5t-15 -52.5q-139 -152 -239 -340.5 t-194 -433.5q168 55 302.5 177t166.5 234q9 -24 9 -50q0 -56 -42 -120q-63 -93 -186.5 -171.5t-265.5 -114.5q-11 -27 -31 -81q-48 -126 -73 -188.5t-73 -167.5t-83.5 -158.5t-92.5 -124t-114 -104.5t-133.5 -59t-163.5 -25q-149 0 -236 88t-87 230zM420 815 q0 -94 97 -160.5t237 -66.5h24q92 228 205 419t277 353q-89 -43 -293 -119q-234 -85 -327 -135q-182 -98 -213 -229q-7 -30 -7 -62z"/>
            <glyph unicode="K" horiz-adv-x="1501"
                   d="M-270 727q0 134 63 268t166.5 237.5t247 168.5t293.5 65q184 0 283.5 -104t99.5 -318q0 -108 -23 -248t-69.5 -287t-106.5 -273.5t-143 -216t-172 -107.5q28 32 69.5 98.5t96.5 183t100.5 248t77.5 306.5t32 346q0 166 -64 253t-181 87q-114 0 -226 -40.5t-202.5 -110.5 t-160.5 -159t-108.5 -192.5t-38.5 -204.5q0 -120 56.5 -182t154.5 -62q119 0 232.5 91t171.5 212q3 -20 3 -40q0 -62 -32 -122q-43 -80 -134.5 -132t-205.5 -52q-129 0 -204.5 74t-75.5 213zM846 637q45 16 89 46t75 58t73 80t62.5 81t64.5 93.5t60 87.5q15 22 51 74 t50.5 73t45.5 62t49 58.5t48 44.5t54 38t55 20t63 9q81 0 129.5 -57t48.5 -150q0 -31 -12.5 -69t-38 -76t-59 -69t-81.5 -49q-43 -17 -90 -17h-10q104 56 173 160.5t69 175.5q0 55 -34.5 85.5t-94.5 30.5q-53 0 -101 -48.5t-80 -112t-83 -159.5t-95 -157 q-132 -184 -438 -344q17 -150 83.5 -299t154.5 -256q89 -107 193 -166q80 -45 151 -45q22 0 42 4q-16 -23 -58 -43t-95 -20q-127 0 -227 68t-162 186.5t-93.5 271t-31.5 330.5z"/>
            <glyph unicode="L" horiz-adv-x="1474"
                   d="M-221 733q82 -169 282.5 -277t430.5 -108q102 0 227 23q28 51 41 75q28 55 73.5 146.5t75 150t74.5 143.5t78 140.5t78.5 125.5t84 115.5t87 93t94.5 74.5t99 44.5t108 17.5q82 0 132 -57.5t50 -149.5q0 -184 -123 -367.5t-327 -324t-447 -215.5q-45 -78 -106 -151.5 t-126.5 -132t-124 -102.5t-116.5 -79q71 8 129 8q31 0 59 -2q78 -6 163 -25.5t150.5 -39.5t148.5 -36t157 -16q161 0 325 111q-83 -118 -186 -164.5t-231 -46.5q-68 0 -138 19t-125 45t-121 53.5t-125 45.5t-139 20h-12q-74 0 -149 -23q-22 -3 -34.5 3.5t-14.5 16.5 q203 71 419 449q-117 -21 -231 -21q-303 0 -491.5 113.5t-198.5 304.5zM920 422q168 58 320.5 151.5t267.5 207t183 247t68 262.5q0 80 -39 126t-108 46q-65 0 -123 -30.5t-108 -90t-93 -130.5t-89 -170.5t-85 -190t-91.5 -209.5t-98.5 -209q-4 -8 -4 -10z"/>
            <glyph unicode="M" horiz-adv-x="1722"
                   d="M-492 106q0 131 80.5 238.5t207 165t267.5 57.5q185 0 275 -70q75 -58 75 -157q0 -21 -3 -43q-56 113 -152 173t-211 60q-86 0 -168 -25.5t-147.5 -71.5t-105.5 -118.5t-40 -158.5q0 -156 119.5 -262.5t319.5 -106.5q163 0 324 94t291.5 255t225 388.5t127.5 481.5 q-72 495 -514 495q-102 0 -191 -42.5t-143.5 -117t-54.5 -163.5q0 -84 50.5 -160.5t142.5 -128.5q-130 14 -198.5 81.5t-68.5 184.5q0 67 33.5 134t92.5 122.5t149.5 90t195.5 34.5q96 0 177.5 -21.5t141 -57.5t107.5 -88.5t80 -107t55.5 -121.5t36 -124t20 -122t9.5 -108.5 t2 -89.5q0 -177 -31 -342q61 122 139.5 242.5t174 237.5t163.5 194t169 186q52 66 92 103q35 33 77 51q26 11 46 12q12 0 22 -4q-84 -47 -181 -198t-174 -336.5t-128 -389.5t-51 -352q0 -62 12.5 -107t32 -68.5t46 -34.5t52 -10.5t53.5 9.5q-57 -49 -114 -49q-89 0 -144 84 t-55 250q0 179 76.5 405t195.5 429q-449 -518 -598 -969q-14 -33 -41.5 -50.5t-56.5 -8.5q114 492 114 815q0 36 -1 69q-48 -244 -153.5 -457.5t-244 -364t-307.5 -237t-340 -86.5q-213 0 -333 107t-120 280z"/>
            <glyph unicode="N" horiz-adv-x="1261"
                   d="M-467 997q0 79 34 160t96 150t163 113t223 44q214 0 335.5 -142t121.5 -392q0 -108 -19 -228q92 181 178.5 316.5t156 216t137 130t119 66.5t104.5 17q92 0 147 -57t55 -162q0 -84 -44 -203.5t-107 -245t-126 -255.5t-107 -270.5t-44 -254.5q0 -79 32.5 -126.5 t84.5 -47.5q29 0 66 16.5t65 44.5q-8 -40 -50 -68t-101 -28q-99 0 -159 77.5t-60 203.5q0 119 43.5 265t106 279.5t124.5 261t105.5 244t43.5 193.5q0 96 -90 96q-101 0 -220 -110.5t-228 -286t-207 -398.5q-45 -97 -114.5 -308t-92.5 -261q-14 -31 -31 -52.5t-31 -30 t-27.5 -13.5t-21 -3t-12.5 1l49 149q150 534 150 885q0 210 -88 328.5t-244 118.5q-109 0 -199 -36t-144.5 -93.5t-84 -124.5t-29.5 -134q0 -60 24.5 -108t65.5 -78q41 -28 92 -44q46 -14 96 -15q5 1 10 1q55 2 106 17q-17 -56 -62 -79t-133 -23q-112 0 -185 74.5t-73 209.5 z"/>
            <glyph unicode="O" horiz-adv-x="1251"
                   d="M86 266q0 168 73.5 339.5t194.5 309.5q-57 94 -57 203q0 81 25 153t72.5 128.5t123.5 89.5t170 33q71 0 146 -26t147 -81.5t129 -133t92 -190t35 -243.5q0 -22 -4 -80q182 122 262 408q21 -52 21 -104q0 -77 -46 -154q-78 -130 -245 -207q-21 -113 -68.5 -232.5 t-121.5 -232.5t-162.5 -201.5t-200 -142.5t-226.5 -54q-118 0 -201.5 58.5t-121 151t-37.5 208.5zM229 207q0 -160 64.5 -234.5t177.5 -74.5q88 0 173 45t153.5 121t126 175t97 207t60.5 218q-97 -23 -188 -23q-131 0 -247 43.5t-200 118.5q-98 -142 -157.5 -301t-59.5 -295 zM332 1118q0 -94 45 -176q107 115 222 181.5t216 66.5q108 0 146 -57q-35 18 -68 18q-95 0 -209.5 -88.5t-218.5 -231.5q78 -72 189 -113.5t239 -41.5q106 0 194 26q15 82 15 162q0 154 -34.5 275.5t-93 196t-131.5 113t-155 38.5q-176 0 -266 -103t-90 -266z"/>
            <glyph unicode="P" horiz-adv-x="960"
                   d="M-221 174q0 81 30.5 146.5t79 104t102.5 59t105 20.5q87 0 136 -48t49 -110q-82 88 -215 88q-42 0 -84.5 -15.5t-81 -45t-62.5 -81.5t-24 -118q0 -108 65.5 -174t179.5 -66q107 0 208 92.5t175.5 238.5t127 311t77.5 325q-62 -84 -158.5 -140t-216.5 -56q-124 0 -198 64 t-74 167q0 89 58.5 178t154.5 156.5t228.5 110t271.5 42.5q155 0 274.5 -36.5t189.5 -98.5t105 -137.5t35 -159.5q0 -83 -35.5 -159.5t-94.5 -129t-135 -90t-158 -44.5q-24 -2 -47 -2q-57 0 -114 12q127 0 233.5 64.5t165 165t58.5 210.5q0 57 -16 109.5t-52.5 100.5 t-90.5 83.5t-136 56.5t-182 21q-167 0 -318.5 -58.5t-241.5 -152.5t-90 -195q0 -102 72.5 -166.5t194.5 -64.5q62 0 122.5 28.5t102 69t69 78t35.5 63.5q44 0 75.5 -26t31.5 -78q0 -72 -22 -171.5t-61 -210.5t-100 -220t-133 -196t-165 -141t-191 -54q-138 0 -226.5 78 t-88.5 202z"/>
            <glyph unicode="Q" horiz-adv-x="1263"
                   d="M86 293q0 145 49 294t135 281v2q0 126 32.5 238t94 199.5t160 138.5t221.5 51q83 0 163 -37t145.5 -105t106 -174.5t40.5 -234.5q0 -244 -124.5 -496.5t-315.5 -408.5q170 -131 353.5 -207t338.5 -76q-30 -80 -166 -80q-152 0 -316 78.5t-309 216.5q-144 -88 -284 -88 q-157 0 -240.5 110.5t-83.5 297.5zM221 293q0 -172 63.5 -262t168.5 -90q98 0 202 71q-132 134 -226.5 299.5t-133.5 341.5q-74 -175 -74 -360zM307 922q96 132 214 215.5t245 102.5q27 5 54 5q97 0 188 -55q-30 5 -61 5q-149 0 -313 -113q-196 -137 -310 -367 q37 -171 147.5 -333.5t269.5 -297.5q157 155 261 416t104 516q0 104 -29.5 191t-77 141t-105 84t-116.5 30q-112 0 -200.5 -42t-145.5 -117t-88.5 -171t-36.5 -210z"/>
            <glyph unicode="R" horiz-adv-x="1220"
                   d="M-246 174q0 81 31 146.5t79.5 104t102.5 59t105 20.5q87 0 135.5 -48t48.5 -110q-82 88 -215 88q-42 0 -84.5 -15.5t-81 -45t-62.5 -81.5t-24 -118q0 -107 66 -173.5t180 -66.5q107 0 208 92.5t175.5 238.5t127 311t77.5 325q-62 -84 -158.5 -140t-216.5 -56 q-124 0 -198.5 64t-74.5 167q0 89 58.5 178t154.5 156.5t228.5 110t271.5 42.5q155 0 278 -36.5t197 -98.5t112 -137.5t38 -159.5q0 -100 -55.5 -185t-142 -137t-193.5 -74q-60 -12 -119 -12q-45 0 -90 7q76 -22 125.5 -69t72 -104t35.5 -121.5t24.5 -127t30.5 -116t61 -93 t109 -53.5q-41 -5 -76 -5q-39 0 -71 6q-62 12 -99 42.5t-59.5 73t-33 94.5t-16.5 106t-12.5 109t-18 101.5t-37.5 85.5t-66 59q-31 -98 -73 -191t-100.5 -183.5t-124 -158.5t-147.5 -109.5t-167 -41.5q-139 0 -227.5 78t-88.5 202zM51 991q0 -104 72 -171.5t182 -67.5 q62 0 123 28.5t102.5 69t69 78t35.5 63.5q44 0 75 -26t31 -78q0 -113 -51 -285q212 8 343.5 117.5t131.5 298.5q0 57 -16 109.5t-52.5 100.5t-90.5 83.5t-136 56.5t-182 21t-196.5 -22t-175 -61t-139 -89t-93.5 -108.5t-33 -117.5z"/>
            <glyph unicode="S" horiz-adv-x="1327"
                   d="M-221 1264q0 115 92.5 182t234.5 67q136 0 256.5 -82.5t153.5 -179.5q-66 98 -175 163t-235 65q-100 0 -157.5 -49.5t-57.5 -135.5q0 -88 47 -166t138 -140.5t240.5 -99t338.5 -36.5q75 0 160 10q-33 112 -33 174q0 84 27.5 154.5t72.5 117.5t104 80t121.5 47.5 t125.5 14.5q116 0 185 -54t69 -145q0 -116 -141 -227t-363 -166q5 -11 26 -54.5t28.5 -59t25 -55.5t25 -60.5t20 -56.5t17.5 -61t9.5 -55.5t4.5 -58.5q0 -117 -46 -217.5t-135 -177t-229.5 -120.5t-318.5 -44q-75 0 -154 16t-158 51.5t-141 85.5t-100.5 125t-38.5 163 q0 107 64 190.5t162.5 125.5t209.5 42q137 0 243 -40q105 -39 157 -109q39 -53 40 -115q0 -19 -4 -39q-99 113 -217.5 174t-273.5 61q-141 0 -236.5 -85.5t-95.5 -217.5q0 -75 35.5 -141t92 -111t128.5 -77.5t145.5 -48t141.5 -15.5q137 0 247 35t179.5 94.5t106 136.5 t36.5 164q0 62 -17 136.5t-36.5 127.5t-53 137.5t-47.5 124.5q-88 -10 -170 -10q-171 0 -315 24t-246 65.5t-174 98t-106.5 121.5t-34.5 136zM895 1139q0 -88 74 -250q213 50 348 153t135 209q0 75 -59.5 119.5t-159.5 44.5q-86 0 -160 -27.5t-126 -92t-52 -156.5z"/>
            <glyph unicode="T" horiz-adv-x="1064"
                   d="M-295 1130q0 130 101.5 220t295.5 90q101 0 232 -31t231.5 -66.5t266 -98.5t253.5 -93q143 176 330 213q-125 -65 -227 -248q262 -80 448 -80q125 0 214 75.5t89 178.5q22 -49 22 -90q0 -38 -18 -70q-37 -66 -130 -102.5t-220 -36.5q-228 0 -446 45q-37 -76 -79 -180.5 t-75 -196t-74.5 -194.5t-79.5 -187.5t-89.5 -164t-105.5 -133.5t-125.5 -86.5t-151.5 -32.5q-133 0 -209 83.5t-76 202.5q0 73 47.5 138.5t124.5 94.5q38 14 81 14q44 0 93 -15q-51 -17 -85 -31.5t-74.5 -39.5t-64.5 -53t-40.5 -70.5t-16.5 -94.5q0 -82 58 -139t162 -57 q71 0 130.5 41.5t104.5 115.5t84 166.5t77 205.5t74.5 219.5t86 222t102.5 200.5q-113 31 -232 77t-209 86t-180 76.5t-177 58t-167 21.5q-155 0 -238 -74t-83 -180q0 -91 90.5 -157t236.5 -88q70 -11 148 -11q86 0 182 13q-23 -45 -57.5 -65.5t-93.5 -26.5q-40 -5 -79 -5 q-67 0 -129 14q-100 22 -172.5 69t-116.5 115t-44 142z"/>
            <glyph unicode="U" horiz-adv-x="1282"
                   d="M-295 950q0 87 46.5 177.5t126.5 165t200 122t254 47.5q146 0 245 -88.5t99 -220.5q0 -74 -38 -183.5t-92.5 -225t-108.5 -234t-92 -240t-38 -213.5q0 -65 31.5 -102t95.5 -37q82 0 181.5 93t192 240.5t180.5 327.5t155 357.5t108 327.5q43 -14 80 -48t37 -86 q0 -60 -40 -167.5t-97 -229.5t-113.5 -249t-96.5 -258t-40 -226q0 -79 39.5 -119.5t97.5 -40.5q81 0 144 60q-7 -37 -52 -66t-92 -29q-137 0 -217 85.5t-80 228.5q0 49 10 90q-217 -324 -397 -324q-121 0 -185.5 70t-64.5 207q0 99 54 253t118 287.5t118 278t54 227.5 q0 96 -48.5 152.5t-172.5 56.5q-121 0 -229.5 -44t-181 -112t-114.5 -150.5t-42 -160.5q0 -86 36 -135t94 -57q20 -3 41 -3q41 1 85 11q68 16 135 55q3 -11 3 -22q0 -37 -36 -71q-46 -44 -145 -44q-41 0 -81.5 13t-79.5 41t-63 83t-24 129z"/>
            <glyph unicode="V" horiz-adv-x="1142"
                   d="M-233 950q0 87 46.5 177.5t126 165t199.5 122t254 47.5q135 0 227.5 -90t92.5 -225q0 -74 -37 -183t-89.5 -223t-104.5 -231t-89 -237.5t-37 -211.5q0 -143 115 -143q105 0 233.5 125t234 308t177.5 405t72 401q0 182 -80 293q7 1 14 1q50 0 93 -61q49 -70 49 -184 q0 -119 -33.5 -265.5t-90 -292t-135 -284t-164.5 -244.5t-183.5 -170.5t-186.5 -64.5q-238 0 -238 273q0 82 37 197.5t89 230.5t104.5 228t89.5 219t37 175q0 96 -48.5 152.5t-172.5 56.5q-121 0 -229.5 -44t-181 -112t-115 -150.5t-42.5 -160.5q0 -86 36 -135 q37 -49 95 -57q20 -3 40 -3q42 1 86 11q68 16 135 55q3 -11 3 -22q0 -37 -36 -71q-47 -44 -146 -44q-41 0 -81 13t-79 41t-63 83t-24 129z"/>
            <glyph unicode="W" horiz-adv-x="1458"
                   d="M-221 1378q0 104 57 173q50 60 120 60q10 0 21 -1q-67 -64 -91.5 -124t-24.5 -143q0 -136 119 -257.5t313 -159.5q110 175 256.5 281t312.5 106q55 0 87 -31t32 -82t-40 -107.5t-108.5 -104.5t-171.5 -79.5t-217 -31.5h-20q-87 -162 -139 -346t-52 -343 q0 -118 26.5 -181.5t70.5 -63.5q71 0 176.5 142t195.5 345.5t123 376.5q33 0 71 -29.5t38 -75.5q0 -36 -15 -101.5t-35.5 -136t-42.5 -149.5t-36 -148.5t-17 -126.5v-15q0 -47 16 -75q20 -34 64 -34q50 0 119 65t139 178t130.5 249.5t98.5 296t38 299.5q0 90 -25 162.5 t-65.5 117.5t-88 71t-98.5 31q44 12 83 12q93 0 158 -68q93 -97 93 -286q0 -165 -40.5 -340.5t-105.5 -318.5t-142 -259t-155 -180.5t-139 -64.5q-51 0 -89.5 22t-59.5 60t-31 82q-9 40 -8 85v9q3 101 37 242q-96 -207 -198 -339t-189 -132q-117 0 -178.5 94.5t-61.5 274.5 q0 141 48.5 305.5t135.5 310.5q-109 23 -203.5 75t-157.5 118t-98.5 142t-35.5 148zM442 911h2q98 0 183.5 21t142.5 53t98 71.5t59.5 76.5t18.5 67q0 37 -21.5 57.5t-62.5 20.5q-104 0 -214.5 -100.5t-205.5 -266.5z"/>
            <glyph unicode="X" horiz-adv-x="1214"
                   d="M-233 926q0 96 43 188t117 164t182.5 116t230.5 44q151 0 243.5 -50t143 -171t57.5 -328q184 204 360 328t314 124q99 0 149 -49t50 -125q1 -96 -63 -154q-48 -44 -99 -44q-15 0 -31 4q53 35 86 95t33 120q0 55 -38.5 87t-104.5 32q-124 0 -297 -127t-357 -344v-21 q0 -246 24 -427t76 -312t138 -196.5t207 -65.5q64 0 88 12q-26 -33 -117 -33q-248 0 -380.5 228.5t-153.5 666.5q-271 -354 -445 -751q-2 10 -2 23q0 94 115 303q130 237 330 485q-2 33 -2 102q0 214 -35 335.5t-103.5 169.5t-185.5 48q-116 0 -218 -40.5t-171.5 -107 t-109.5 -153t-40 -176.5q0 -100 67 -158.5t167 -58.5q89 0 188 55q-7 -57 -54.5 -89t-121.5 -32q-120 0 -200 79t-80 204z"/>
            <glyph unicode="Y" horiz-adv-x="1351"
                   d="M-274 905q0 91 62 188.5t159 173t222.5 124.5t244.5 49q169 0 266.5 -75t97.5 -208q0 -90 -36 -200.5t-78.5 -197.5t-78.5 -193t-36 -187q0 -88 63 -88q82 0 173.5 63.5t167 159.5t137.5 202t96 199q31 85 31 134v8q46 0 76 -22.5t30 -67.5q0 -230 -110.5 -557 t-286.5 -572q59 -19 166.5 -63.5t186.5 -67t157 -22.5q104 0 184.5 24t185.5 84q-22 -74 -105.5 -126t-176.5 -52q-101 0 -201.5 29t-231 84t-192.5 75q-249 -327 -526 -327q-74 0 -115 35.5t-41 99.5q0 118 114.5 198t282.5 80q95 0 193 -20q130 206 234 476.5t155 504.5 q-37 -80 -80.5 -157t-103 -158t-121 -141.5t-135 -99t-144.5 -38.5q-89 0 -136.5 60t-47.5 173q0 67 39 170t85 194t85 199t39 185q0 78 -69.5 123t-192.5 45q-107 0 -222 -44t-204 -112t-147 -155t-58 -168q0 -82 42.5 -131.5t110.5 -62.5q37 -7 77 -7q35 0 72 5 q81 11 163 44q-1 -3 -10.5 -24t-13 -26t-14 -22.5t-20 -24.5t-25 -19t-36 -19.5t-45.5 -13.5q-26 -8 -55 -8q-11 0 -21 1q-41 4 -80.5 15t-76 36t-64.5 57.5t-44.5 79t-16.5 99.5zM250 -389q0 -47 32.5 -73.5t90.5 -26.5q199 0 413 325q-104 19 -172 19q-153 0 -258.5 -71 t-105.5 -173z"/>
            <glyph unicode="Z" horiz-adv-x="1077"
                   d="M10 29q0 50 65.5 123t171 154.5t233.5 172.5t257.5 187.5t238 190t181 190t80.5 176.5q-50 -30 -132.5 -50t-129.5 -20q-100 0 -180.5 20.5t-131.5 49.5t-95 58.5t-95 50t-108 20.5q-126 0 -212.5 -71.5t-86.5 -186.5q0 -63 33 -111.5t83.5 -73.5t98 -37t88.5 -12 q-9 -26 -41 -44.5t-90 -18.5q-90 0 -156 76.5t-66 193.5q0 147 112 239.5t278 92.5q73 0 144 -18.5t129 -45t115 -53t124 -45t135 -18.5q116 0 188 45q33 -11 33 -68q0 -103 -37 -198t-100.5 -172t-146.5 -148t-177 -131t-189 -114.5t-186 -105t-165.5 -96.5t-129.5 -95 t-75 -95q164 92 360 92q88 0 171.5 -27t147 -66t123 -78t123 -66t123.5 -27q72 0 141 29q-34 -29 -55.5 -44t-59 -27.5t-81.5 -12.5q-80 0 -164 25.5t-154.5 62t-137.5 73.5t-136.5 62.5t-128.5 25.5q-97 0 -189.5 -24.5t-121.5 -77.5q-19 32 -19 68z"/>
            <glyph unicode="[" horiz-adv-x="823" d="M102 -442l406 1855h336v-35h-207l-387 -1786h229l-2 -34h-375z"/>
            <glyph unicode="\" horiz-adv-x="526"
                   d="M-183.5 1323q2.5 19 9 31t14.5 18l768 -1534q10 -17 10.5 -39t-14.5 -47l-778 1530q-12 22 -9.5 41z"/>
            <glyph unicode="]" horiz-adv-x="741" d="M-102 -408h206l388 1786h-230l2 35h375l-406 -1855h-335v34z"/>
            <glyph unicode="_" horiz-adv-x="778" d="M102 -82q0 8 10 19.5t25 11.5l559 4q-3 -13 -17 -22t-32 -9z"/>
            <glyph unicode="`" horiz-adv-x="385"
                   d="M61 688q0 39 35 66q28 -57 91 -110.5t137 -82.5q-58 -11 -120 3t-102.5 48t-40.5 76z"/>
            <glyph unicode="a" horiz-adv-x="516"
                   d="M-74 109q0 51 21.5 105.5t56.5 101.5t81 84q46 36 93 56q40 17 80 17q7 -1 15 -1q48 -4 85 -34q-12 1 -23 1q-44 0 -85 -21q-52 -27 -87 -71.5t-62 -96.5t-39.5 -95.5t-12.5 -68.5t17 -25q33 0 82 58.5t83 135.5q28 64 28 107q0 9 -1 17q44 -8 79.5 -31t35.5 -63 q0 -49 -44 -140.5t-44 -111.5q0 -17 12 -17q44 0 127.5 100.5t136.5 231.5q12 0 18.5 -9.5t0.5 -21.5q-61 -144 -150 -243t-149 -99q-37 0 -60.5 27.5t-23.5 79.5q0 15 8 61q-92 -143 -178 -143q-37 0 -69 29.5t-32 79.5z"/>
            <glyph unicode="b" horiz-adv-x="587"
                   d="M-242 1036q57 -91 171 -165.5t251 -104.5q83 126 181 201t194 75q42 0 68 -24.5t26 -63.5q0 -40 -24.5 -82t-67.5 -77t-109 -57.5t-141 -22.5h-39q-74 -139 -121 -296.5t-47 -281.5q0 -102 56 -102q59 0 123 106q-53 21 -80 63t-27 91q0 75 43.5 128.5t108.5 53.5 q71 0 111 -44.5t40 -100.5q0 -85 -55 -168q119 21 223 192q11 -1 16 -13t0 -21q-107 -179 -268 -197q-50 -57 -111.5 -91t-123.5 -34q-85 0 -126.5 59.5t-41.5 147.5q0 116 45 254.5t121 263.5q-128 17 -223 59q-95 40 -143 106q-35 48 -35 103q0 21 5 43zM211 295 q0 -39 21.5 -72t62.5 -51q57 114 57 199q0 28 -12.5 47.5t-32.5 19.5q-37 0 -66.5 -46t-29.5 -97zM289 752q14 -2 47 -2q110 0 194 67.5t84 136.5q0 25 -16.5 39.5t-42.5 14.5q-60 0 -129.5 -69.5t-136.5 -186.5z"/>
            <glyph unicode="c" horiz-adv-x="360"
                   d="M-74 158q0 64 40 137t108 124.5t137 51.5q33 0 57 -17t25 -44q0 -63 -68 -113q33 56 33 106q0 31 -27 31q-30 0 -76 -55.5t-81 -138.5t-35 -150q0 -51 43 -51q72 0 180.5 114t153.5 205q11 -2 16.5 -13.5t-0.5 -22.5q-13 -29 -50.5 -79t-88.5 -106t-114.5 -96.5 t-115.5 -40.5q-60 0 -98.5 39t-38.5 119z"/>
            <glyph unicode="d" horiz-adv-x="530"
                   d="M-49 127q0 76 33.5 147t85.5 119.5t120 70.5q40 13 78 14q27 0 54 -7q-90 -29 -171 -156t-81 -231q0 -39 24 -39q18 0 51 29t66 71q14 63 67 169t109 221.5t76 201.5q-144 4 -231 63t-89 132v8q1 52 37 88q40 38 117 39q108 0 188 -76t80 -213q93 13 173.5 55.5 t129.5 94.5t77 103t28 87q21 -22 29 -51.5t1 -63t-26.5 -68t-57.5 -66.5t-87 -59t-118.5 -46t-150.5 -25q-8 -81 -51.5 -191t-90 -197.5t-84.5 -174.5t-38 -131q0 -22 18 -22q47 0 127 98.5t138 236.5q15 0 20 -11t-2 -28q-70 -155 -157.5 -249.5t-157.5 -94.5 q-32 0 -54.5 29t-23.5 86q-44 -44 -78 -67t-68 -23q-47 0 -78.5 36t-31.5 91zM176 934q3 -59 84.5 -109t208.5 -53q6 34 6 64q0 80 -59.5 138t-134.5 58q-49 0 -78 -28q-27 -27 -27 -65v-5z"/>
            <glyph unicode="e" horiz-adv-x="368"
                   d="M-49 143q0 119 90 221.5t203 102.5q31 0 48 -16t17 -45q1 -48 -65 -106q-59 -52 -124 -53q-7 0 -14 1q-47 -92 -47 -162q0 -47 35 -47q68 0 158.5 91t169.5 235q13 -5 18.5 -16.5t-2.5 -26.5q-94 -151 -188 -236.5t-172 -85.5q-63 0 -95 38t-32 105zM123 281 q56 3 103.5 48.5t47.5 76.5q0 16 -16 16q-27 0 -64 -40.5t-71 -100.5z"/>
            <glyph unicode="f" horiz-adv-x="389"
                   d="M-678 -457q-2 13 -2 26q0 81 60 147q70 77 177 115t220 38q107 0 205 -16q-11 79 -11 139v49q-15 -1 -28 -1q-30 0 -52 5q43 6 82 18q8 146 46 293t93 262.5t118 207t124.5 141t108.5 49.5q35 0 58.5 -22t23.5 -60q0 -74 -66 -181.5t-151 -200.5t-178 -173 q-34 -132 -50 -275q237 89 342 252q26 -18 9 -41q-58 -80 -154 -144.5t-199 -100.5q-4 -70 -4 -107q0 -86 8 -141q125 -43 191.5 -116.5t66.5 -147.5q0 -45 -23.5 -71t-66.5 -26q-87 0 -167.5 95.5t-114.5 255.5q-49 8 -121 8q-154 0 -314 -75.5t-231 -201.5zM106 -213 q21 -137 72.5 -208t102.5 -71q47 0 47 50q0 68 -57 131t-165 98zM164 438q137 127 242.5 271.5t105.5 224.5q0 47 -49 47q-60 0 -148 -159t-151 -384z"/>
            <glyph unicode="g" horiz-adv-x="501"
                   d="M-307 -373q0 32 20.5 69t59.5 72.5t108.5 58.5t155.5 23q33 0 49 -2q69 134 119 293q-88 -141 -160 -141q-52 0 -85.5 29.5t-33.5 101.5q0 50 39 121.5t100.5 130t136.5 81.5q26 8 51 8q50 0 99 -30q-12 2 -25 2q-35 0 -69 -18q-48 -25 -85 -70t-66.5 -97.5t-45.5 -99.5 t-16 -75q0 -27 25 -27q28 0 72.5 51t80 129t35.5 142q39 0 76 -27t37 -71q0 -83 -45 -205.5t-119 -239.5q81 -13 169 -41.5t148 -54t130.5 -45t127.5 -19.5q69 0 134.5 19t101.5 47q-91 -131 -268 -131q-64 0 -136.5 23.5t-130.5 53.5t-141 64t-158 49q-86 -126 -182 -204 t-188 -78q-55 0 -88 29t-33 79zM-272 -373q0 -61 61 -61q70 0 142 66.5t137 183.5h-31q-81 0 -144 -19.5t-97 -49.5t-51 -60.5t-17 -59.5z"/>
            <glyph unicode="h" horiz-adv-x="552"
                   d="M-25 96q0 196 71.5 409.5t189 359t235.5 145.5q35 0 56.5 -20t21.5 -54q0 -94 -114 -224t-265 -235q-28 -81 -47 -180q127 192 211 192q51 0 84 -35t33 -81q0 -36 -33.5 -103.5t-67 -133t-33.5 -95.5q0 -25 17 -25q38 0 129.5 113.5t140.5 230.5q29 -6 14 -38 q-31 -61 -65.5 -117.5t-76 -110.5t-85.5 -86.5t-82 -32.5q-45 0 -72.5 33t-27.5 80q0 51 27 115.5t54 121.5t27 91q0 24 -20 24q-21 0 -70.5 -60.5t-107 -167t-90.5 -214.5q-23 0 -38.5 26.5t-15.5 71.5zM186 532q136 100 232 212.5t96 191.5q0 39 -43 39q-58 0 -139 -128.5 t-146 -314.5z"/>
            <glyph unicode="i" horiz-adv-x="290"
                   d="M-49 86q0 62 25 136t50 137t25 98q47 0 85 -25t38 -63q0 -44 -60.5 -164.5t-60.5 -153.5q0 -16 17 -16q36 0 123 102.5t151 218.5q8 -3 12.5 -13t-0.5 -21q-23 -46 -60.5 -102.5t-83.5 -113t-96.5 -94t-88.5 -37.5q-35 0 -55.5 29.5t-20.5 81.5zM63 596q0 34 22 51t50 17 q11 0 42 -4t48 -3q0 -47 -26.5 -86t-69.5 -39q-29 0 -47.5 17.5t-18.5 46.5z"/>
            <glyph unicode="j" horiz-adv-x="258"
                   d="M-590 -332q0 77 80.5 145t218.5 68q44 0 129 -18q77 136 129 294t58 285q11 3 22 3q31 0 61 -21q42 -27 42 -78q0 -65 -57 -223t-146 -293q43 -14 136 -47.5t149.5 -52t132 -35.5t131.5 -17q108 0 201.5 46.5t150.5 105.5q-20 -105 -98 -168q-75 -59 -179 -59h-10 q-81 1 -182.5 29.5t-257 89.5t-197.5 75q-177 -248 -383 -248q-53 0 -92 33.5t-39 85.5zM-555 -332q0 -38 28.5 -61t67.5 -23q65 0 137.5 67t141.5 181q-66 16 -111 16q-128 0 -196 -55t-68 -125zM45 588q0 34 21.5 50.5t48.5 16.5q12 0 43 -3.5t49 -2.5q0 -47 -26.5 -86 t-69.5 -39q-29 0 -47.5 17.5t-18.5 46.5z"/>
            <glyph unicode="k" horiz-adv-x="579"
                   d="M-455 1022q0 64 46 122q45 57 111 76q23 7 47 7q44 0 91 -23q-108 0 -169.5 -67.5t-61.5 -143.5q0 -91 72.5 -155.5t188 -93.5t261.5 -29q31 0 47 2q94 132 205 211.5t215 79.5q42 0 67 -21.5t25 -60.5q0 -81 -117.5 -146.5t-287.5 -89.5q-63 -103 -116.5 -222 t-82.5 -216q69 109 147 173t152 64q52 0 85.5 -29t33.5 -69q0 -70 -91.5 -120.5t-211.5 -53.5q59 -12 96 -65q12 -17 25.5 -49t26 -47t32.5 -15q39 0 113 83t137 236q27 -3 16 -38q-68 -154 -158 -250.5t-153 -96.5q-42 0 -72 20.5t-46 53.5t-28 66.5t-26.5 66.5t-32.5 47 q83 9 177.5 84t94.5 119q0 23 -18 23q-63 0 -142.5 -66.5t-140 -175.5t-67.5 -215q-23 -5 -46.5 22.5t-23.5 81.5q0 142 51.5 294t137.5 284h-23q-259 0 -422.5 94t-163.5 248zM311 731q145 26 244.5 80t99.5 115q0 47 -57 47q-128 0 -287 -242z"/>
            <glyph unicode="l" horiz-adv-x="378"
                   d="M-23 164q0 119 52.5 271t129 279t168.5 214.5t165 87.5q36 0 59.5 -21.5t23.5 -60.5q0 -71 -74 -182t-172 -211.5t-200 -182.5q-43 -147 -43 -249q0 -50 10.5 -71.5t34.5 -21.5q47 0 135.5 101.5t163.5 242.5q11 -3 16 -12.5t-2 -23.5q-93 -162 -181 -255.5t-154 -93.5 q-54 0 -93 45.5t-39 143.5zM145 414q155 127 275.5 281t120.5 239q0 47 -49 47q-64 0 -171 -177.5t-176 -389.5z"/>
            <glyph unicode="m" horiz-adv-x="833"
                   d="M-66 74q0 51 34 132.5t63 151.5q23 56 23 86q0 7 -1 13q17 3 32 3q27 0 52 -9q38 -14 49 -54q97 97 162 97q35 0 54.5 -20.5t19.5 -55.5q0 -15 -4 -39q111 115 186 115q44 0 72.5 -29.5t28.5 -79.5q0 -33 -36 -100t-72 -138.5t-36 -113.5q0 -21 14 -21q32 0 97.5 61.5 t125 144t79.5 138.5q14 -3 18.5 -14t-0.5 -23q-40 -90 -151.5 -217t-180.5 -127q-51 0 -77.5 31t-26.5 82q0 60 34.5 142.5t69.5 145.5t35 75q0 8 -10 8q-36 0 -100 -72.5t-126 -185t-90 -213.5q-73 28 -73 86q0 39 33.5 121t67.5 156t34 93q0 15 -12 15q-20 0 -66.5 -45.5 t-96.5 -112t-93 -154.5t-52 -161q-28 4 -54 27t-26 61z"/>
            <glyph unicode="n" horiz-adv-x="573"
                   d="M-61 78q0 70 24 148q25 78 43 132q13 38 12 63q0 11 -2 19q22 7 42 7q29 0 56 -14q46 -24 46 -64q95 110 174 110q44 0 75 -31t31 -77t-67.5 -166t-67.5 -166q0 -23 14 -23q44 0 143.5 109.5t166.5 239.5q12 0 19.5 -13.5t-1.5 -32.5q-33 -55 -75.5 -112t-90.5 -110.5 t-97.5 -87.5t-86.5 -34q-42 0 -70 30t-28 83q0 51 32.5 128t65.5 139t33 75q0 16 -19 16t-59 -34.5t-86.5 -91.5t-93.5 -146t-74 -184q-25 0 -42 23.5t-17 64.5z"/>
            <glyph unicode="o" horiz-adv-x="468"
                   d="M-35 180q0 62 31.5 121.5t81.5 99.5q-2 12 -2 37q0 63 37 102.5t92 39.5q69 0 112 -59.5t43 -147.5q0 -65 -18 -123q113 12 184 115q24 -17 6 -41q-25 -29 -46.5 -48.5t-63.5 -39t-90 -23.5q-34 -92 -95 -152.5t-122 -60.5q-63 0 -106.5 47t-43.5 133zM84 123 q0 -82 47 -82q44 0 90.5 48.5t75.5 123.5q-99 3 -164 74q-49 -81 -49 -164zM111 426q47 30 91 36q9 1 17 1q34 0 62 -19q-69 -43 -129 -125q58 -71 153 -71h4q19 62 19 125q0 74 -33.5 123t-89.5 49q-41 0 -67.5 -28.5t-26.5 -78.5v-12z"/>
            <glyph unicode="p" horiz-adv-x="598"
                   d="M-147 -244q0 82 31.5 195t69 202.5t66.5 173.5q25 74 25 108v9q52 0 88 -22t37 -66q84 109 164 109q57 0 95 -38t38 -110q0 -40 -16 -90q146 43 198 131q12 -3 17 -14t-4 -22q-67 -94 -230 -134q-37 -79 -102 -133.5t-131 -54.5q-49 0 -75 21t-26 55q0 50 55.5 79 t161.5 48q43 101 43 168q0 59 -39 59q-80 0 -198 -217q-14 -31 -52.5 -113.5t-60.5 -130.5q-59 -146 -98 -280q-26 1 -41.5 20.5t-15.5 46.5zM133 76q0 -41 41 -41q54 0 121 127q-84 -16 -123 -35.5t-39 -50.5z"/>
            <glyph unicode="q" horiz-adv-x="495"
                   d="M-76 119q0 50 40 126t103 139t140 86q23 7 45 7q54 0 106 -39q-66 0 -127 -36t-102 -90.5t-65.5 -117t-24.5 -116.5q0 -31 22 -31q34 1 84 57.5t86 136.5q32 70 32 124q0 7 -1 14q39 0 73 -24.5t34 -59.5q0 -57 -30 -131t-68 -134t-80 -133t-58 -122q45 62 158 211 q15 20 62 84t71.5 98.5t62 91t66.5 105.5q27 -16 14 -37q-95 -159 -250 -363q-161 -217 -219 -307q-16 5 -23.5 9t-17.5 25.5t-10 59.5q0 115 88 295q-53 -47 -98 -47q-52 0 -82.5 30t-30.5 89z"/>
            <glyph unicode="r" horiz-adv-x="419"
                   d="M-4 422q0 35 18.5 63.5t44.5 28.5q25 0 39.5 -17.5t14.5 -39.5q0 -40 -31 -101q6 -2 16 -2q72 0 146 90q61 -36 61 -79q0 -24 -22.5 -58.5t-54.5 -71t-64.5 -73t-55 -74t-22.5 -65.5q0 -13 10 -13q64 0 192.5 117.5t186.5 232.5q10 -3 14.5 -13.5t-0.5 -22.5 q-61 -117 -188.5 -233t-212.5 -116q-40 0 -65 25.5t-25 69.5q0 49 39 122t88 132q-20 -5 -27 -5q-44 0 -73 25.5t-29 77.5zM29 422q0 -37 22 -53q25 61 25 88q0 22 -17 22q-11 0 -20.5 -17t-9.5 -40z"/>
            <glyph unicode="s" horiz-adv-x="385"
                   d="M-37 37q0 92 139 149q-6 29 -24 58t-34.5 49.5t-30 56t-13.5 78.5q0 46 21 74t51 28q27 0 43 -17t16 -46q0 -43 -39 -109q13 -13 40 -38t48.5 -47.5t36.5 -45.5q83 30 137.5 61t85.5 77q12 -4 14.5 -15t-3.5 -20q-62 -77 -215 -131q12 -30 12 -64q0 -81 -57.5 -134.5 t-127.5 -53.5q-48 0 -74 25.5t-26 64.5zM-2 37q0 -45 43 -45q25 0 45 42.5t20 110.5v9q-108 -47 -108 -117zM41 453q0 -34 27 -68q28 45 28 82q0 14 -7 21.5t-17 7.5q-11 0 -21 -12t-10 -31z"/>
            <glyph unicode="t" horiz-adv-x="315"
                   d="M-209 860q0 73 43 121.5t94 58.5q-59 -69 -59 -135q0 -74 75.5 -112.5t211.5 -38.5q31 0 49 2q61 142 61 217q11 2 20 2q34 -1 56 -23q28 -28 29 -88q0 -32 -19 -84q6 1 63 11.5t73 13t64.5 10.5t75 10.5t65.5 5.5t71 3q88 0 148.5 -29.5t74.5 -75.5q-65 70 -223 70 q-41 0 -82.5 -3.5t-95.5 -13t-79.5 -14t-94 -20t-78.5 -17.5q-29 -69 -109.5 -223t-133 -275.5t-52.5 -193.5q0 -29 22 -29q32 0 78 39.5t90 97t79.5 111.5t56.5 94q27 -13 16 -35q-20 -39 -56.5 -93.5t-83 -112t-99.5 -97t-93 -39.5q-43 0 -74.5 32.5t-31.5 101.5 q0 46 26 122.5t55.5 140t81.5 171t76 159.5q-46 -6 -86 -6q-142 0 -223.5 43.5t-81.5 120.5z"/>
            <glyph unicode="u" horiz-adv-x="614"
                   d="M-37 123q0 53 24 121t49 128.5t27 92.5q41 0 75 -22.5t34 -65.5q0 -40 -29 -102.5t-57.5 -119t-28.5 -83.5q0 -31 25 -31q42 0 103 69.5t110.5 166.5t62.5 174q40 -5 72.5 -32.5t32.5 -62.5q0 -49 -53.5 -158t-53.5 -151q0 -14 6.5 -23.5t18.5 -9.5q50 0 133.5 104.5 t149.5 235.5q31 -12 16 -35q-89 -162 -168.5 -253t-155.5 -91q-36 0 -59.5 21.5t-31 45.5t-7.5 48q0 30 12 74q-107 -164 -213 -164q-46 0 -70 36.5t-24 86.5z"/>
            <glyph unicode="v" horiz-adv-x="540"
                   d="M-25 156q0 49 22 109.5t44 108.5t22 68q31 0 63 -27.5t32 -70.5q0 -34 -40 -128.5t-40 -141.5q0 -39 31 -39q37 0 88.5 42.5t99.5 108.5q-44 23 -68 65.5t-24 94.5q0 68 36.5 121t94.5 53q43 0 67.5 -29.5t24.5 -76.5q0 -88 -80 -211q24 -4 37 -4q67 0 120 44.5t87 114.5 q8 0 16 -9t4 -17q-39 -71 -97.5 -119.5t-129.5 -48.5q-36 0 -57 8q-56 -75 -117.5 -123.5t-110.5 -48.5q-56 0 -90.5 41t-34.5 115zM238 346q0 -41 21 -76.5t56 -54.5q78 121 78 199q0 73 -57 73q-43 0 -70.5 -44.5t-27.5 -96.5z"/>
            <glyph unicode="w" horiz-adv-x="751"
                   d="M-49 156q0 43 44 149t44 137q33 0 70.5 -27.5t37.5 -70.5q0 -34 -47 -129.5t-47 -142.5q0 -37 25 -37q49 0 104.5 74t91 170t35.5 163h5l77 -26q41 -28 41 -72q0 -34 -46 -129.5t-46 -142.5q0 -37 25 -37q39 0 90.5 49.5t93.5 120.5q-39 20 -61.5 58t-22.5 83 q0 56 25.5 96.5t74.5 40.5q34 0 58 -26.5t24 -67.5q0 -74 -49 -164q8 -2 25 -2q54 0 100.5 38.5t79.5 96.5q12 -1 17.5 -10t0.5 -18q-86 -142 -198 -142q-11 0 -41 5q-49 -81 -110.5 -137t-111.5 -56q-47 0 -80 31.5t-42 89.5q-81 -121 -162 -121q-56 0 -90.5 41t-34.5 115z M500 346q0 -34 18 -63.5t47 -44.5q47 86 47 151q0 28 -14.5 45t-32.5 17q-33 0 -49 -31.5t-16 -73.5z"/>
            <glyph unicode="x" horiz-adv-x="512"
                   d="M-27 446q22 8 47 8q16 0 33 -3q45 -8 68 -31q40 -40 65 -144q69 69 132.5 113.5t99.5 44.5q31 0 59 -24q-118 -16 -280 -174q3 -13 8 -35t8 -35t7.5 -32t8.5 -30.5t9.5 -26t11 -23t12 -16.5t14.5 -11.5t17 -3.5q51 0 130 106t138 229q1 -1 6 -4t8 -6t5.5 -9.5t-2.5 -14.5 q-32 -66 -67 -124.5t-76 -111t-86 -83t-87 -30.5q-93 0 -160 156q-69 -92 -77 -135q-17 3 -17 27q0 45 80 145q-11 30 -25 73.5t-23.5 74t-21 60.5t-22.5 47.5t-23 22.5z"/>
            <glyph unicode="y" horiz-adv-x="567"
                   d="M-268 -332q0 80 79.5 146.5t217.5 66.5q51 0 112 -12q65 119 127 274q-99 -143 -194 -143q-63 0 -95 35.5t-32 97.5q0 50 58 188t61 162q40 -4 75 -28.5t35 -65.5q0 -31 -19.5 -77.5t-43 -87t-43 -84.5t-19.5 -70q0 -35 27 -35q68 0 149.5 110.5t137.5 317.5q18 -2 35 -7 t36 -16t31 -32t12 -50q0 -85 -66 -230.5t-165 -281.5q34 -9 176.5 -49.5t231.5 -58t165 -17.5q134 0 238 107q-13 -90 -74.5 -137t-193.5 -47q-71 0 -164.5 29t-212.5 76t-189 67q-94 -121 -190.5 -194t-179.5 -73q-60 0 -91.5 34t-31.5 85zM-233 -332q0 -37 22.5 -60.5 t65.5 -23.5q118 0 268 256q-62 8 -94 8q-122 0 -192 -57.5t-70 -122.5z"/>
            <glyph unicode="z" horiz-adv-x="444"
                   d="M-27 53q0 27 17.5 55.5t52 58t66 53t78.5 56t71 50.5q-58 -21 -96 -21q-127 0 -135 101q0 42 32 81q10 -31 58.5 -49t113.5 -18q99 0 146 24q16 -8 16 -26q0 -25 -57 -74t-126 -95.5t-130.5 -98.5t-69.5 -82q28 32 76 32q26 0 68.5 -14t66.5 -14q57 0 137 78.5t136 209.5 q25 -10 18 -30q-24 -48 -48.5 -91.5t-59 -93.5t-68 -86t-73.5 -60t-77 -24q-29 0 -78 13.5t-63 13.5q-32 0 -57 -10q-15 18 -15 61z"/>
            <glyph unicode="{" horiz-adv-x="688"
                   d="M102 -209q0 63 30.5 145t67 148.5t67 144.5t30.5 133q0 121 -147 195q52 8 97 25.5t79.5 38.5t64.5 53.5t51 61.5t40 73t30.5 76.5t24 82.5t18.5 81.5t16 83.5q12 62 24 109.5t32.5 96.5t45.5 80.5t62 51.5t82 20q67 0 114 -48t30 -136q-18 73 -50.5 106t-81.5 33 q-37 0 -61.5 -25t-38.5 -74.5t-21.5 -97t-16 -119t-17.5 -114.5q-35 -175 -139 -293t-299 -180q159 -98 159 -242q0 -52 -19.5 -113t-47.5 -117.5l-56 -113t-47.5 -116.5t-19.5 -111q0 -99 114 -99q55 0 109 21q-49 -74 -154 -74q-69 0 -120.5 59t-51.5 154z"/>
            <glyph unicode="}" horiz-adv-x="757"
                   d="M-100 -190q44 -138 139 -132q37 3 60 30t33.5 77t15 98.5t8.5 120.5t10 115q23 177 118 302t285 200q-166 87 -176 231q-4 63 20.5 145t55.5 148.5t55 148t19 142.5q-6 96 -121 90q-58 -6 -107 -29q41 76 148 84q69 5 124.5 -51t61.5 -150q5 -63 -19.5 -147t-56 -153 t-56.5 -148.5t-21 -134.5q6 -118 159 -185q-76 -17 -135 -50t-98 -84.5t-64.5 -98.5t-42.5 -121t-24 -120.5t-17 -127.5q-8 -79 -21 -138t-37 -115t-64.5 -87t-96.5 -35q-67 -5 -116.5 40.5t-38.5 134.5z"/>
            <glyph unicode="&#xa1;" horiz-adv-x="425"
                   d="M-61 -401q0 46 32 128.5t74 163t82.5 168.5t57 145t-2.5 93q39 -27 47 -81t-9.5 -118.5t-46 -145.5t-58.5 -155t-52 -153.5t-22 -135.5q-41 -6 -71.5 18t-30.5 73zM139 469q0 31 23 49.5t49 18.5q11 0 42.5 -5t49.5 -4q0 -47 -26.5 -86t-69.5 -39q-29 0 -48.5 19 t-19.5 47z"/>
            <glyph unicode="&#xa2;" horiz-adv-x="360"
                   d="M-74 158q0 64 40 137t108 124.5t137 51.5q16 0 22 -2l56 125q25 -18 -4 -86l-23 -51q28 -15 31 -47q0 -63 -68 -113q33 56 33 106q0 20 -8 25l-168 -389q72 0 180.5 114t153.5 205q11 -2 16.5 -13.5t-0.5 -22.5q-13 -29 -50.5 -78.5t-88.5 -105.5t-114.5 -96.5 t-115.5 -41.5l-53 -125q-22 28 4 86l19 41q-48 10 -77.5 49t-29.5 107zM39 90q0 -27 14 -41l166 383q-33 -13 -75 -69t-73.5 -133.5t-31.5 -139.5z"/>
            <glyph unicode="&#xa3;" horiz-adv-x="1214"
                   d="M20 -31q64 22 122 56t119.5 89.5t121.5 138.5t117 193q3 7 10 20.5t10 20.5h-260q0 8 10 17.5t25 9.5l237 2q41 89 80.5 200t66.5 198.5t59 180.5t66 160.5t78 123t105.5 84t138.5 28.5q111 0 179.5 -76.5t68.5 -185.5q0 -77 -42 -169.5t-116.5 -160.5t-152.5 -68 q-29 0 -51.5 4.5t-30.5 7.5t-26.5 15t-22.5 14q184 28 295.5 133.5t111.5 223.5q0 98 -58 162.5t-155 64.5q-65 0 -111.5 -27t-76 -79t-49 -117t-37.5 -152.5t-35 -173.5t-47 -192t-68 -197l459 4q-3 -14 -17.5 -24.5t-31.5 -10.5h-422q-18 -41 -26 -55q-131 -259 -478 -430 q104 10 180 2.5t159 -26.5t147.5 -38.5t145.5 -35t153 -15.5q161 0 325 111q-83 -118 -186 -164.5t-231 -46.5q-68 0 -138 19t-125 45t-121 53.5t-125 45.5t-139 20t-161 -23q-22 -3 -35 3.5t-15 16.5z"/>
            <glyph unicode="&#xa5;" horiz-adv-x="1351"
                   d="M-274 905q0 91 62 188.5t159 173t222.5 124.5t244.5 49q169 0 266.5 -75t97.5 -208q0 -90 -36 -200.5t-78.5 -197.5t-78.5 -193t-36 -187q0 -88 63 -88q82 0 173.5 63.5t167 159.5t137.5 202t96 199t31 142q46 0 76 -22.5t30 -67.5q0 -163 -59.5 -389.5t-161.5 -442.5 l364 4q-3 -14 -17.5 -24.5t-31.5 -10.5h-330q-7 -14 -30.5 -59t-36.5 -68l323 3q-3 -14 -17.5 -24.5t-31.5 -10.5h-295q-129 -214 -282.5 -341.5t-317.5 -127.5q-70 0 -119.5 32.5t-63.5 79.5t-6 94.5t51.5 83t109.5 39.5q-23 -24 -38.5 -71.5t-17 -95t23.5 -83.5t75 -36 q256 0 481 426h-453q0 8 10 17t25 9l434 4q47 96 60 129h-406q0 8 10 17.5t25 9.5l385 4q137 330 213 719q-36 -79 -79.5 -157t-103 -159.5t-121.5 -142.5t-136.5 -100t-145.5 -39q-89 0 -136.5 60t-47.5 173q0 67 39 170t85 194t85 199t39 185q0 78 -69.5 123t-192.5 45 q-107 0 -222 -44t-204 -112t-147 -155t-58 -168q0 -82 42.5 -131.5t110.5 -62.5t149 -2t163 44q-1 -3 -10.5 -24t-13 -26t-14 -22.5t-20 -24.5t-25 -19t-36 -19.5t-45.5 -13.5q-36 -11 -76.5 -7t-80 15t-76 36t-64.5 57.5t-44.5 79t-16.5 99.5z"/>
            <glyph unicode="&#xa8;" horiz-adv-x="481"
                   d="M61 588q0 34 21.5 50.5t50.5 16.5q11 0 42 -3.5t48 -2.5q0 -47 -26.5 -86t-69.5 -39q-29 0 -47.5 17.5t-18.5 46.5zM258 588q0 34 21.5 50.5t50.5 16.5q11 0 42 -3.5t48 -2.5q0 -47 -26.5 -86t-69.5 -39q-29 0 -47.5 17.5t-18.5 46.5z"/>
            <glyph unicode="&#xab;" horiz-adv-x="915"
                   d="M205 299l411 274l-243 -270l256 -240zM451 299l411 274l-244 -270l256 -240z"/>
            <glyph unicode="&#xad;" horiz-adv-x="778" d="M205 266q0 8 10 19.5t25 11.5l333 4q-3 -13 -17 -22t-32 -9z"/>
            <glyph unicode="&#xaf;" horiz-adv-x="450"
                   d="M61 639q0 9 10 21t25 12l293 2q-5 -14 -19.5 -24.5t-29.5 -10.5h-279z"/>
            <glyph unicode="&#xb4;" horiz-adv-x="391"
                   d="M61 569q75 28 141 80.5t95 108.5q33 -29 33 -68q0 -63 -88.5 -101.5t-180.5 -19.5z"/>
            <glyph unicode="&#xb7;" horiz-adv-x="358"
                   d="M61 434q0 32 22.5 50t49.5 18q11 0 42 -4.5t48 -3.5q0 -46 -26.5 -85.5t-69.5 -39.5q-29 0 -47.5 18.5t-18.5 46.5z"/>
            <glyph unicode="&#xb8;" horiz-adv-x="346"
                   d="M70 -78q46 -53 110 -53q28 0 49 13t21 32q0 21 -35 23t-82 -11l37 90l35 -8l-17 -41q37 5 67 -8t30 -45q0 -35 -35.5 -61.5t-87.5 -26.5q-60 0 -85.5 30.5t-6.5 65.5z"/>
            <glyph unicode="&#xbb;" horiz-adv-x="915"
                   d="M205 63l256 240l-244 270l412 -274zM451 63l256 240l-244 270l411 -274z"/>
            <glyph unicode="&#xbf;" horiz-adv-x="505"
                   d="M-123 -260q0 52 25 94.5t64.5 72t87.5 56t96.5 53t88 56t64.5 72t25 94.5q51 -8 51 -66q0 -53 -22 -96t-56.5 -72.5t-76.5 -55.5t-84.5 -52t-77 -54.5t-56.5 -69.5t-22 -91q0 -64 43.5 -101t107.5 -37q60 0 106.5 24.5t71.5 62t36.5 79t5 79.5t-26.5 60q46 27 81 1.5 t35 -78.5q0 -37 -20 -81t-56.5 -85.5t-97.5 -69t-133 -27.5q-107 0 -183.5 64t-76.5 168zM270 422q0 31 22 49t50 18q11 0 42 -4.5t48 -3.5q0 -46 -26.5 -85.5t-69.5 -39.5q-29 0 -47.5 19t-18.5 47z"/>
            <glyph unicode="&#xc0;"
                   d="M-354 72q0 121 82 236t212.5 197t298.5 131.5t334 49.5q45 0 123 -4q84 124 157 221t162.5 198.5t186 179.5t195.5 128q-63 38 -189 70t-237 32q-109 0 -201 -26t-154 -69t-109 -99.5t-71.5 -117.5t-36.5 -122.5t-9 -114.5t16 -94q-106 52 -112 171q-6 121 93 247 q117 150 315 217q126 43 267 43q129 0 266.5 -36.5t230.5 -94.5q-130 -142 -244.5 -360t-187.5 -449q145 -63 154 -131q-39 59 -162 105q-78 -264 -78 -461q0 -135 40.5 -203t115.5 -68q59 0 123 41q-51 -77 -137 -77q-120 0 -194.5 93.5t-74.5 246.5q0 199 94 460 q-97 22 -196 31q-38 -58 -100.5 -157.5t-99.5 -158t-94.5 -142t-97.5 -133.5t-94.5 -107.5t-100.5 -88.5t-100 -52t-108 -21q-109 0 -193.5 79t-84.5 210zM-236 41q0 -88 52.5 -144.5t138.5 -56.5q42 0 86.5 19.5t84 48.5t87.5 82t85.5 100t90.5 124.5t90 134t97 148.5 t98 150q-66 4 -101 4q-152 0 -300 -49t-259.5 -131t-180.5 -195.5t-69 -234.5zM741 676q96 -8 187 -35q79 203 193.5 392.5t224.5 309.5q-86 -52 -169.5 -126t-160 -165t-140 -178.5t-135.5 -197.5zM1051 1827q0 38 34 65q40 -88 131 -169.5t199 -125.5q-82 -20 -167 5.5 t-141 87.5t-56 137z"/>
            <glyph unicode="&#xc1;"
                   d="M-354 72q0 121 82 236t212.5 197t298.5 131.5t334 49.5q45 0 123 -4q84 124 157 221t162.5 198.5t186 179.5t195.5 128q-63 38 -189 70t-237 32q-109 0 -201 -26t-154 -69t-109 -99.5t-71.5 -117.5t-36.5 -122.5t-9 -114.5t16 -94q-106 52 -112 171q-6 121 93 247 q117 150 315 217q126 43 267 43q129 0 266.5 -36.5t230.5 -94.5q-130 -142 -244.5 -360t-187.5 -449q145 -63 154 -131q-39 59 -162 105q-78 -264 -78 -461q0 -135 40.5 -203t115.5 -68q59 0 123 41q-51 -77 -137 -77q-120 0 -194.5 93.5t-74.5 246.5q0 199 94 460 q-97 22 -196 31q-38 -58 -100.5 -157.5t-99.5 -158t-94.5 -142t-97.5 -133.5t-94.5 -107.5t-100.5 -88.5t-100 -52t-108 -21q-109 0 -193.5 79t-84.5 210zM-236 41q0 -88 52.5 -144.5t138.5 -56.5q42 0 86.5 19.5t84 48.5t87.5 82t85.5 100t90.5 124.5t90 134t97 148.5 t98 150q-66 4 -101 4q-152 0 -300 -49t-259.5 -131t-180.5 -195.5t-69 -234.5zM741 676q96 -8 187 -35q79 203 193.5 392.5t224.5 309.5q-86 -52 -169.5 -126t-160 -165t-140 -178.5t-135.5 -197.5zM1190 1579q127 43 238 124t161 167q33 -29 33 -68q0 -77 -67 -137 t-167.5 -83t-197.5 -3z"/>
            <glyph unicode="&#xc2;"
                   d="M-354 72q0 121 82 236t212.5 197t298.5 131.5t334 49.5q45 0 123 -4q84 124 157 221t162.5 198.5t186 179.5t195.5 128q-63 38 -189 70t-237 32q-109 0 -201 -26t-154 -69t-109 -99.5t-71.5 -117.5t-36.5 -122.5t-9 -114.5t16 -94q-106 52 -112 171q-6 121 93 247 q117 150 315 217q126 43 267 43q129 0 266.5 -36.5t230.5 -94.5q-130 -142 -244.5 -360t-187.5 -449q145 -63 154 -131q-39 59 -162 105q-78 -264 -78 -461q0 -135 40.5 -203t115.5 -68q59 0 123 41q-51 -77 -137 -77q-120 0 -194.5 93.5t-74.5 246.5q0 199 94 460 q-97 22 -196 31q-38 -58 -100.5 -157.5t-99.5 -158t-94.5 -142t-97.5 -133.5t-94.5 -107.5t-100.5 -88.5t-100 -52t-108 -21q-109 0 -193.5 79t-84.5 210zM-236 41q0 -88 52.5 -144.5t138.5 -56.5q42 0 86.5 19.5t84 48.5t87.5 82t85.5 100t90.5 124.5t90 134t97 148.5 t98 150q-66 4 -101 4q-152 0 -300 -49t-259.5 -131t-180.5 -195.5t-69 -234.5zM741 676q96 -8 187 -35q79 203 193.5 392.5t224.5 309.5q-86 -52 -169.5 -126t-160 -165t-140 -178.5t-135.5 -197.5zM1120.5 1595.5q4.5 17.5 20.5 28.5l215 162l145 -125q23 -18 18.5 -53 t-34.5 -47l-152 159l-211 -145q-6 3 -1.5 20.5z"/>
            <glyph unicode="&#xc3;"
                   d="M-354 72q0 121 82 236t212.5 197t298.5 131.5t334 49.5q45 0 123 -4q84 124 157 221t162.5 198.5t186 179.5t195.5 128q-63 38 -189 70t-237 32q-109 0 -201 -26t-154 -69t-109 -99.5t-71.5 -117.5t-36.5 -122.5t-9 -114.5t16 -94q-106 52 -112 171q-6 121 93 247 q117 150 315 217q126 43 267 43q129 0 266.5 -36.5t230.5 -94.5q-130 -142 -244.5 -360t-187.5 -449q145 -63 154 -131q-39 59 -162 105q-78 -264 -78 -461q0 -135 40.5 -203t115.5 -68q59 0 123 41q-51 -77 -137 -77q-120 0 -194.5 93.5t-74.5 246.5q0 199 94 460 q-97 22 -196 31q-38 -58 -100.5 -157.5t-99.5 -158t-94.5 -142t-97.5 -133.5t-94.5 -107.5t-100.5 -88.5t-100 -52t-108 -21q-109 0 -193.5 79t-84.5 210zM-236 41q0 -88 52.5 -144.5t138.5 -56.5q42 0 86.5 19.5t84 48.5t87.5 82t85.5 100t90.5 124.5t90 134t97 148.5 t98 150q-66 4 -101 4q-152 0 -300 -49t-259.5 -131t-180.5 -195.5t-69 -234.5zM741 676q96 -8 187 -35q79 203 193.5 392.5t224.5 309.5q-86 -52 -169.5 -126t-160 -165t-140 -178.5t-135.5 -197.5zM1163 1645q0 90 94 90q37 0 114.5 -31t113.5 -31q22 0 42 10t29 27 q26 -38 0 -77.5t-83 -39.5q-35 0 -74.5 25.5t-79.5 51.5t-76 26q-32 0 -80 -51z"/>
            <glyph unicode="&#xc4;"
                   d="M-354 72q0 121 82 236t212.5 197t298.5 131.5t334 49.5q45 0 123 -4q84 124 157 221t162.5 198.5t186 179.5t195.5 128q-63 38 -189 70t-237 32q-109 0 -201 -26t-154 -69t-109 -99.5t-71.5 -117.5t-36.5 -122.5t-9 -114.5t16 -94q-106 52 -112 171q-6 121 93 247 q117 150 315 217q126 43 267 43q129 0 266.5 -36.5t230.5 -94.5q-130 -142 -244.5 -360t-187.5 -449q145 -63 154 -131q-39 59 -162 105q-78 -264 -78 -461q0 -135 40.5 -203t115.5 -68q59 0 123 41q-51 -77 -137 -77q-120 0 -194.5 93.5t-74.5 246.5q0 199 94 460 q-97 22 -196 31q-38 -58 -100.5 -157.5t-99.5 -158t-94.5 -142t-97.5 -133.5t-94.5 -107.5t-100.5 -88.5t-100 -52t-108 -21q-109 0 -193.5 79t-84.5 210zM-236 41q0 -88 52.5 -144.5t138.5 -56.5q42 0 86.5 19.5t84 48.5t87.5 82t85.5 100t90.5 124.5t90 134t97 148.5 t98 150q-66 4 -101 4q-152 0 -300 -49t-259.5 -131t-180.5 -195.5t-69 -234.5zM741 676q96 -8 187 -35q79 203 193.5 392.5t224.5 309.5q-86 -52 -169.5 -126t-160 -165t-140 -178.5t-135.5 -197.5zM1247 1634q0 34 22 51t50 17q11 0 42 -3.5t48 -2.5q0 -47 -26.5 -86 t-69.5 -39q-30 0 -48 17t-18 46zM1444 1634q0 34 22 51t50 17q11 0 42 -3.5t48 -2.5q0 -47 -27 -86t-70 -39q-29 0 -47 17t-18 46z"/>
            <glyph unicode="&#xc5;"
                   d="M-354 72q0 121 82 236t212.5 197t298.5 131.5t334 49.5q45 0 123 -4q84 124 157 221t162.5 198.5t186 179.5t195.5 128q-63 38 -189 70t-237 32q-109 0 -201 -26t-154 -69t-109 -99.5t-71.5 -117.5t-36.5 -122.5t-9 -114.5t16 -94q-106 52 -112 171q-6 121 93 247 q117 150 315 217q126 43 267 43q129 0 266.5 -36.5t230.5 -94.5q-130 -142 -244.5 -360t-187.5 -449q145 -63 154 -131q-39 59 -162 105q-78 -264 -78 -461q0 -135 40.5 -203t115.5 -68q59 0 123 41q-51 -77 -137 -77q-120 0 -194.5 93.5t-74.5 246.5q0 199 94 460 q-97 22 -196 31q-38 -58 -100.5 -157.5t-99.5 -158t-94.5 -142t-97.5 -133.5t-94.5 -107.5t-100.5 -88.5t-100 -52t-108 -21q-109 0 -193.5 79t-84.5 210zM-236 41q0 -88 52.5 -144.5t138.5 -56.5q42 0 86.5 19.5t84 48.5t87.5 82t85.5 100t90.5 124.5t90 134t97 148.5 t98 150q-66 4 -101 4q-152 0 -300 -49t-259.5 -131t-180.5 -195.5t-69 -234.5zM741 676q96 -8 187 -35q79 203 193.5 392.5t224.5 309.5q-86 -52 -169.5 -126t-160 -165t-140 -178.5t-135.5 -197.5zM1233 1659q0 59 46.5 102t104.5 43q51 0 83 -30t32 -76q0 -53 -46 -95 t-110 -42q-51 0 -80.5 27.5t-29.5 70.5zM1309 1686q0 -27 18 -46.5t45 -19.5q43 0 67.5 27t24.5 65q0 25 -19 41t-52 16q-36 0 -60 -23.5t-24 -59.5z"/>
            <glyph unicode="&#xc6;" horiz-adv-x="1894"
                   d="M-354 72q0 121 82 236t212.5 197t298.5 131.5t334 49.5q65 0 123 -6q84 125 157 222.5t162.5 199t186 179.5t195.5 128q-63 38 -189 70t-237 32q-109 0 -201 -26t-154 -69t-109 -99.5t-71.5 -117.5t-36.5 -122.5t-9 -114.5t16 -94q-106 52 -112 171q-6 121 93 247 q117 150 315 217q126 43 267 43q129 0 266.5 -36.5t230.5 -94.5q-145 -157 -255 -367.5t-160 -459.5q104 90 259 141.5t353 50.5q-90 36 -132 98.5t-42 131.5q0 76 33 144.5t87 119t122 87.5t140 56t138 19q99 0 159 -40.5t60 -125.5q0 -127 -89.5 -205t-211.5 -78 q-45 0 -72.5 28.5t-27.5 63.5q94 -17 181 4t139.5 71.5t52.5 115.5q0 69 -48 104t-124 35q-52 0 -107.5 -15t-108.5 -46t-95 -74t-67.5 -104t-25.5 -130q0 -211 184 -262q31 -9 38 -19.5t1 -31.5q-196 39 -350 4.5t-261 -118.5t-163.5 -185.5t-56.5 -196.5q0 -147 86.5 -228 t222.5 -81q160 0 278.5 108.5t118.5 239.5q0 64 -37.5 106.5t-88 53.5t-103.5 -4t-82 -55q-6 63 38.5 109t113.5 46q60 0 104.5 -23t68.5 -60t35 -75t11 -77q0 -74 -38.5 -150.5t-104.5 -138.5t-163.5 -101.5t-205.5 -39.5q-186 0 -292 100.5t-106 280.5q0 160 50 342 q-90 42 -203 57q-35 -54 -89.5 -140.5t-89.5 -140.5t-84.5 -129.5t-86.5 -123.5t-84 -105t-87.5 -92t-86.5 -66.5t-92.5 -46t-94.5 -14.5q-109 0 -193.5 79t-84.5 210zM-236 41q0 -88 52.5 -144.5t138.5 -56.5q42 0 86.5 19.5t83.5 48t87.5 82t85.5 100t91 124.5t90 133.5 t97 149.5t98 150q-66 4 -101 4q-152 0 -300 -49t-259.5 -131t-180.5 -195.5t-69 -234.5zM739 674q110 -14 193 -56q63 210 177 403t232 320q-164 -101 -307 -267t-295 -400z"/>
            <glyph unicode="&#xc7;" horiz-adv-x="1533"
                   d="M-506 430q0 168 146 281.5t368 113.5q70 0 132.5 -12.5t110 -34.5t85.5 -51t62 -62.5t37 -69t12.5 -71t-13.5 -67.5q-37 91 -92 158t-116.5 102.5t-121.5 52t-120 16.5q-160 0 -262.5 -91.5t-102.5 -229.5q0 -89 37.5 -157t101 -107t139 -58.5t160.5 -19.5q236 0 508 88 v10q0 138 51.5 292t137 293t199.5 267t235.5 221.5t248 149t234.5 55.5q85 0 140 -51.5t55 -134.5q0 -127 -93 -279t-247 -295.5t-360 -275t-425 -221.5q-2 -23 -2 -68q0 -115 54.5 -191.5t164.5 -76.5q151 0 326 125t301 329q10 -3 13.5 -12.5t-3.5 -21.5 q-307 -473 -694 -488l-14 -45q45 10 83 -6.5t38 -62.5q0 -47 -51.5 -84t-127.5 -37q-40 0 -71.5 7t-51 18.5t-29.5 26t-9 31t12 31.5q68 -71 168 -71q50 0 87.5 23t37.5 55q0 25 -21 37t-53 9t-65 -18l30 86q-133 4 -210.5 94.5t-86.5 243.5q-278 -88 -510 -88 q-255 0 -409 94.5t-154 247.5zM745 279q214 89 414 219t347 269.5t236 284.5t89 261q0 67 -38 109t-97 42q-70 0 -164.5 -50t-193.5 -134.5t-198.5 -202t-180.5 -246t-139 -274t-75 -278.5z"/>
            <glyph unicode="&#xc8;" horiz-adv-x="1044"
                   d="M-221.5 1402q4.5 81 41.5 161q0 -85 23.5 -170.5t76 -169t128.5 -147t191 -103t253 -39.5q82 0 147 8q-10 38 -10 68q0 77 43 152.5t117 134t182 94.5t229 36q86 0 132 -37.5t46 -95.5q0 -83 -86 -158.5t-218.5 -128t-291.5 -81.5q42 -110 166 -148q31 -9 38 -19.5 t1 -31.5q-157 33 -285.5 15t-227 -70.5t-166 -128t-102 -156.5t-34.5 -156q0 -149 79.5 -229t213.5 -80q160 0 278.5 108.5t118.5 239.5q0 64 -37.5 106.5t-88 53.5t-103.5 -4t-82 -55q-6 63 38 109t113 46q60 0 105 -23t68.5 -60t35 -75.5t11.5 -76.5q0 -74 -38.5 -150.5 t-104.5 -138.5t-163.5 -101.5t-205.5 -39.5q-186 0 -292 100.5t-106 280.5q0 74 30.5 149t96 145.5t156.5 124.5t223 87t285 32q-107 42 -150 127q-73 -8 -161 -8q-139 0 -257.5 27t-203.5 73.5t-144.5 110.5t-86 137.5t-22 154.5zM764 1040q0 -43 8 -82q153 27 280.5 75.5 t209 117.5t81.5 143q0 43 -36 71t-107 28q-107 0 -209 -51.5t-164.5 -134t-62.5 -167.5zM795 1741q0 38 34 65q40 -88 131 -169.5t199 -125.5q-82 -20 -167 5.5t-141 87.5t-56 137z"/>
            <glyph unicode="&#xc9;" horiz-adv-x="1044"
                   d="M-221.5 1402q4.5 81 41.5 161q0 -85 23.5 -170.5t76 -169t128.5 -147t191 -103t253 -39.5q82 0 147 8q-10 38 -10 68q0 77 43 152.5t117 134t182 94.5t229 36q86 0 132 -37.5t46 -95.5q0 -83 -86 -158.5t-218.5 -128t-291.5 -81.5q42 -110 166 -148q31 -9 38 -19.5 t1 -31.5q-157 33 -285.5 15t-227 -70.5t-166 -128t-102 -156.5t-34.5 -156q0 -149 79.5 -229t213.5 -80q160 0 278.5 108.5t118.5 239.5q0 64 -37.5 106.5t-88 53.5t-103.5 -4t-82 -55q-6 63 38 109t113 46q60 0 105 -23t68.5 -60t35 -75.5t11.5 -76.5q0 -74 -38.5 -150.5 t-104.5 -138.5t-163.5 -101.5t-205.5 -39.5q-186 0 -292 100.5t-106 280.5q0 74 30.5 149t96 145.5t156.5 124.5t223 87t285 32q-107 42 -150 127q-73 -8 -161 -8q-139 0 -257.5 27t-203.5 73.5t-144.5 110.5t-86 137.5t-22 154.5zM764 1040q0 -43 8 -82q153 27 280.5 75.5 t209 117.5t81.5 143q0 43 -36 71t-107 28q-107 0 -209 -51.5t-164.5 -134t-62.5 -167.5zM934 1493q127 43 238 124t161 167q33 -29 33 -68q0 -77 -67 -137t-167.5 -83t-197.5 -3z"/>
            <glyph unicode="&#xca;" horiz-adv-x="1044"
                   d="M-221.5 1402q4.5 81 41.5 161q0 -85 23.5 -170.5t76 -169t128.5 -147t191 -103t253 -39.5q82 0 147 8q-10 38 -10 68q0 77 43 152.5t117 134t182 94.5t229 36q86 0 132 -37.5t46 -95.5q0 -83 -86 -158.5t-218.5 -128t-291.5 -81.5q42 -110 166 -148q31 -9 38 -19.5 t1 -31.5q-157 33 -285.5 15t-227 -70.5t-166 -128t-102 -156.5t-34.5 -156q0 -149 79.5 -229t213.5 -80q160 0 278.5 108.5t118.5 239.5q0 64 -37.5 106.5t-88 53.5t-103.5 -4t-82 -55q-6 63 38 109t113 46q60 0 105 -23t68.5 -60t35 -75.5t11.5 -76.5q0 -74 -38.5 -150.5 t-104.5 -138.5t-163.5 -101.5t-205.5 -39.5q-186 0 -292 100.5t-106 280.5q0 74 30.5 149t96 145.5t156.5 124.5t223 87t285 32q-107 42 -150 127q-73 -8 -161 -8q-139 0 -257.5 27t-203.5 73.5t-144.5 110.5t-86 137.5t-22 154.5zM764 1040q0 -43 8 -82q153 27 280.5 75.5 t209 117.5t81.5 143q0 43 -36 71t-107 28q-107 0 -209 -51.5t-164.5 -134t-62.5 -167.5zM864.5 1509.5q4.5 17.5 20.5 28.5l215 162l145 -125q23 -18 18.5 -53t-34.5 -47l-152 159l-211 -145q-6 3 -1.5 20.5z"/>
            <glyph unicode="&#xcb;" horiz-adv-x="1044"
                   d="M-221.5 1402q4.5 81 41.5 161q0 -85 23.5 -170.5t76 -169t128.5 -147t191 -103t253 -39.5q82 0 147 8q-10 38 -10 68q0 77 43 152.5t117 134t182 94.5t229 36q86 0 132 -37.5t46 -95.5q0 -83 -86 -158.5t-218.5 -128t-291.5 -81.5q42 -110 166 -148q31 -9 38 -19.5 t1 -31.5q-157 33 -285.5 15t-227 -70.5t-166 -128t-102 -156.5t-34.5 -156q0 -149 79.5 -229t213.5 -80q160 0 278.5 108.5t118.5 239.5q0 64 -37.5 106.5t-88 53.5t-103.5 -4t-82 -55q-6 63 38 109t113 46q60 0 105 -23t68.5 -60t35 -75.5t11.5 -76.5q0 -74 -38.5 -150.5 t-104.5 -138.5t-163.5 -101.5t-205.5 -39.5q-186 0 -292 100.5t-106 280.5q0 74 30.5 149t96 145.5t156.5 124.5t223 87t285 32q-107 42 -150 127q-73 -8 -161 -8q-139 0 -257.5 27t-203.5 73.5t-144.5 110.5t-86 137.5t-22 154.5zM764 1040q0 -43 8 -82q153 27 280.5 75.5 t209 117.5t81.5 143q0 43 -36 71t-107 28q-107 0 -209 -51.5t-164.5 -134t-62.5 -167.5zM991 1548q0 34 22 51t50 17q11 0 42 -3.5t48 -2.5q0 -47 -26.5 -86t-69.5 -39q-30 0 -48 17t-18 46zM1188 1548q0 34 22 51t50 17q11 0 42 -3.5t48 -2.5q0 -47 -27 -86t-70 -39 q-29 0 -47 17t-18 46z"/>
            <glyph unicode="&#xcc;" horiz-adv-x="1032"
                   d="M-147 53q0 97 41 198.5t112.5 185t179 137t228.5 53.5q57 0 103 -18t72 -46.5t37.5 -64.5t5 -71.5t-32 -67.5t-67.5 -52q21 33 29 71.5t0 76t-29 68.5t-61 50t-94 19q-100 0 -192.5 -50.5t-156.5 -129t-102.5 -174t-38.5 -185.5q0 -105 69.5 -171t180.5 -66 q95 0 189.5 55t173.5 148t152.5 214.5t131 255t105.5 268.5t79.5 257t48.5 218.5t17 153.5q-146 7 -279 -40t-215.5 -133.5t-82.5 -188.5q0 -132 129 -264q-73 11 -145 78.5t-72 165.5q0 123 108.5 224.5t284.5 153.5t368 39q0 -181 -33 -377.5t-91.5 -382t-145 -353 t-188 -293t-225.5 -199.5t-252 -74q-152 0 -247 86.5t-95 224.5zM612 1772q0 38 35 65q40 -88 131 -169.5t199 -125.5q-82 -20 -167 5.5t-141.5 87.5t-56.5 137z"/>
            <glyph unicode="&#xcd;" horiz-adv-x="1032"
                   d="M-147 53q0 97 41 198.5t112.5 185t179 137t228.5 53.5q57 0 103 -18t72 -46.5t37.5 -64.5t5 -71.5t-32 -67.5t-67.5 -52q21 33 29 71.5t0 76t-29 68.5t-61 50t-94 19q-100 0 -192.5 -50.5t-156.5 -129t-102.5 -174t-38.5 -185.5q0 -105 69.5 -171t180.5 -66 q95 0 189.5 55t173.5 148t152.5 214.5t131 255t105.5 268.5t79.5 257t48.5 218.5t17 153.5q-146 7 -279 -40t-215.5 -133.5t-82.5 -188.5q0 -132 129 -264q-73 11 -145 78.5t-72 165.5q0 123 108.5 224.5t284.5 153.5t368 39q0 -181 -33 -377.5t-91.5 -382t-145 -353 t-188 -293t-225.5 -199.5t-252 -74q-152 0 -247 86.5t-95 224.5zM752 1524q127 43 238 124t161 167q33 -29 33 -68q0 -77 -67 -137t-167.5 -83t-197.5 -3z"/>
            <glyph unicode="&#xce;" horiz-adv-x="1032"
                   d="M-147 53q0 97 41 198.5t112.5 185t179 137t228.5 53.5q57 0 103 -18t72 -46.5t37.5 -64.5t5 -71.5t-32 -67.5t-67.5 -52q21 33 29 71.5t0 76t-29 68.5t-61 50t-94 19q-100 0 -192.5 -50.5t-156.5 -129t-102.5 -174t-38.5 -185.5q0 -105 69.5 -171t180.5 -66 q95 0 189.5 55t173.5 148t152.5 214.5t131 255t105.5 268.5t79.5 257t48.5 218.5t17 153.5q-146 7 -279 -40t-215.5 -133.5t-82.5 -188.5q0 -132 129 -264q-73 11 -145 78.5t-72 165.5q0 123 108.5 224.5t284.5 153.5t368 39q0 -181 -33 -377.5t-91.5 -382t-145 -353 t-188 -293t-225.5 -199.5t-252 -74q-152 0 -247 86.5t-95 224.5zM682 1540.5q4 17.5 20 28.5l216 162l145 -125q23 -18 18.5 -53.5t-34.5 -47.5l-152 160l-211 -145q-6 3 -2 20.5z"/>
            <glyph unicode="&#xcf;" horiz-adv-x="1032"
                   d="M-147 53q0 97 41 198.5t112.5 185t179 137t228.5 53.5q57 0 103 -18t72 -46.5t37.5 -64.5t5 -71.5t-32 -67.5t-67.5 -52q21 33 29 71.5t0 76t-29 68.5t-61 50t-94 19q-100 0 -192.5 -50.5t-156.5 -129t-102.5 -174t-38.5 -185.5q0 -105 69.5 -171t180.5 -66 q95 0 189.5 55t173.5 148t152.5 214.5t131 255t105.5 268.5t79.5 257t48.5 218.5t17 153.5q-146 7 -279 -40t-215.5 -133.5t-82.5 -188.5q0 -132 129 -264q-73 11 -145 78.5t-72 165.5q0 123 108.5 224.5t284.5 153.5t368 39q0 -181 -33 -377.5t-91.5 -382t-145 -353 t-188 -293t-225.5 -199.5t-252 -74q-152 0 -247 86.5t-95 224.5zM809 1579q0 34 22 51t50 17q11 0 42 -4t48 -3q0 -47 -27 -85.5t-70 -38.5q-29 0 -47 17t-18 46zM1006 1579q0 34 21.5 51t49.5 17q11 0 42 -4t48 -3q0 -47 -26.5 -85.5t-69.5 -38.5q-29 0 -47 17t-18 46z"/>
            <glyph unicode="&#xd0;" horiz-adv-x="1740"
                   d="M-158 791q0 172 114 312.5t308 219t426 78.5q261 0 490 -131q152 172 329 180q-64 -18 -122.5 -78.5t-118.5 -159.5q154 -114 244 -274.5t90 -351.5q0 -79 -21 -164t-69 -170.5t-116.5 -153t-172 -109.5t-226.5 -42t-224 29.5t-216 82.5q-152 -108 -332 -108 q-90 0 -137 38.5t-47 94.5q0 50 46 85.5t114 35.5q78 0 148.5 -21t164.5 -61q125 127 274 440h-239q0 9 10 21t25 12h221q14 30 62.5 132.5t70.5 146.5t62.5 121t76.5 133t74 104q-204 133 -461 133q-115 0 -230.5 -24t-218 -72t-182 -113t-126 -154t-46.5 -188 q0 -64 30.5 -115t79.5 -81t113 -39.5t129 3t130 52.5t114 104q24 -95 -62.5 -177.5t-227.5 -82.5q-151 0 -251 82.5t-100 229.5zM78 82q0 -38 39 -67t108 -29q136 0 258 106q-171 78 -282 78q-55 0 -89 -24.5t-34 -63.5zM594 86q187 -82 317 -82q109 0 201 39t156 104 t109 150t66 176.5t21 183.5q0 308 -223 508q-49 -87 -141 -283.5t-137 -283.5h180q-5 -14 -19.5 -24.5t-29.5 -10.5h-148q-175 -333 -352 -477z"/>
            <glyph unicode="&#xd1;" horiz-adv-x="1261"
                   d="M-467 997q0 79 34 160t96 150t163 113t223 44q214 0 335.5 -142t121.5 -392q0 -108 -19 -228q92 181 178.5 316.5t156 216t137 130t119 66.5t104.5 17q92 0 147 -57t55 -162q0 -84 -44 -203.5t-107 -245t-126 -255.5t-107 -270.5t-44 -254.5q0 -79 32.5 -126.5 t84.5 -47.5q29 0 66 16.5t65 44.5q-8 -40 -50 -68t-101 -28q-99 0 -159 77.5t-60 203.5q0 119 43.5 265t106 279.5t124.5 261t105.5 244t43.5 193.5q0 96 -90 96q-101 0 -220 -110.5t-228 -286t-207 -398.5q-45 -97 -114.5 -308t-92.5 -261q-14 -31 -31 -52.5t-31 -30 t-27.5 -13.5t-21 -3t-12.5 1l49 149q150 534 150 885q0 210 -88 328.5t-244 118.5q-109 0 -199 -36t-144.5 -93.5t-84 -124.5t-29.5 -134q0 -60 24.5 -108t65.5 -77.5t92 -45t106 -14t106 17.5q-17 -56 -62 -79t-133 -23q-112 0 -185 74.5t-73 209.5zM885 1620q0 90 94 90 q37 0 114 -30.5t113 -30.5q22 0 42.5 10t29.5 27q25 -39 -1 -78t-83 -39q-35 0 -74.5 25.5l-79 51t-75.5 25.5q-32 0 -80 -51z"/>
            <glyph unicode="&#xd2;" horiz-adv-x="1251"
                   d="M86 266q0 168 73.5 339.5t194.5 309.5q-57 94 -57 203q0 81 25 153t72.5 128.5t123.5 89.5t170 33q71 0 146 -26t147 -81.5t129 -133t92 -190t35 -243.5q0 -22 -4 -80q182 122 262 408q53 -128 -25.5 -258t-244.5 -207q-21 -113 -68.5 -232.5t-121.5 -232.5 t-162.5 -201.5t-200 -142.5t-226.5 -54q-118 0 -201.5 58.5t-121 151t-37.5 208.5zM229 207q0 -160 64.5 -234.5t177.5 -74.5q88 0 173 45t153.5 121t126 175t97 207t60.5 218q-97 -23 -188 -23q-131 0 -247 43.5t-200 118.5q-98 -142 -157.5 -301t-59.5 -295zM332 1118 q0 -94 45 -176q107 115 222 181.5t216 66.5q108 0 146 -57q-35 18 -68 18q-95 0 -209.5 -88.5t-218.5 -231.5q78 -72 189 -113.5t239 -41.5q106 0 194 26q15 82 15 162q0 154 -34.5 275.5t-93 196t-131.5 113t-155 38.5q-176 0 -266 -103t-90 -266zM860 1745q0 38 35 65 q40 -87 131 -168.5t199 -125.5q-82 -20 -167 5.5t-141.5 87t-56.5 136.5z"/>
            <glyph unicode="&#xd3;" horiz-adv-x="1251"
                   d="M86 266q0 168 73.5 339.5t194.5 309.5q-57 94 -57 203q0 81 25 153t72.5 128.5t123.5 89.5t170 33q71 0 146 -26t147 -81.5t129 -133t92 -190t35 -243.5q0 -22 -4 -80q182 122 262 408q53 -128 -25.5 -258t-244.5 -207q-21 -113 -68.5 -232.5t-121.5 -232.5 t-162.5 -201.5t-200 -142.5t-226.5 -54q-118 0 -201.5 58.5t-121 151t-37.5 208.5zM229 207q0 -160 64.5 -234.5t177.5 -74.5q88 0 173 45t153.5 121t126 175t97 207t60.5 218q-97 -23 -188 -23q-131 0 -247 43.5t-200 118.5q-98 -142 -157.5 -301t-59.5 -295zM332 1118 q0 -94 45 -176q107 115 222 181.5t216 66.5q108 0 146 -57q-35 18 -68 18q-95 0 -209.5 -88.5t-218.5 -231.5q78 -72 189 -113.5t239 -41.5q106 0 194 26q15 82 15 162q0 154 -34.5 275.5t-93 196t-131.5 113t-155 38.5q-176 0 -266 -103t-90 -266zM999 1497 q128 43 239.5 124t160.5 167q33 -29 33 -68q0 -77 -67.5 -137t-168 -83t-197.5 -3z"/>
            <glyph unicode="&#xd4;" horiz-adv-x="1251"
                   d="M86 266q0 168 73.5 339.5t194.5 309.5q-57 94 -57 203q0 81 25 153t72.5 128.5t123.5 89.5t170 33q71 0 146 -26t147 -81.5t129 -133t92 -190t35 -243.5q0 -22 -4 -80q182 122 262 408q53 -128 -25.5 -258t-244.5 -207q-21 -113 -68.5 -232.5t-121.5 -232.5 t-162.5 -201.5t-200 -142.5t-226.5 -54q-118 0 -201.5 58.5t-121 151t-37.5 208.5zM229 207q0 -160 64.5 -234.5t177.5 -74.5q88 0 173 45t153.5 121t126 175t97 207t60.5 218q-97 -23 -188 -23q-131 0 -247 43.5t-200 118.5q-98 -142 -157.5 -301t-59.5 -295zM332 1118 q0 -94 45 -176q107 115 222 181.5t216 66.5q108 0 146 -57q-35 18 -68 18q-95 0 -209.5 -88.5t-218.5 -231.5q78 -72 189 -113.5t239 -41.5q106 0 194 26q15 82 15 162q0 154 -34.5 275.5t-93 196t-131.5 113t-155 38.5q-176 0 -266 -103t-90 -266zM930 1513.5 q4 17.5 20 28.5l215 162l146 -125q23 -18 18 -53t-35 -47l-151 159l-211 -145q-6 3 -2 20.5z"/>
            <glyph unicode="&#xd5;" horiz-adv-x="1251"
                   d="M86 266q0 168 73.5 339.5t194.5 309.5q-57 94 -57 203q0 81 25 153t72.5 128.5t123.5 89.5t170 33q71 0 146 -26t147 -81.5t129 -133t92 -190t35 -243.5q0 -22 -4 -80q182 122 262 408q53 -128 -25.5 -258t-244.5 -207q-21 -113 -68.5 -232.5t-121.5 -232.5 t-162.5 -201.5t-200 -142.5t-226.5 -54q-118 0 -201.5 58.5t-121 151t-37.5 208.5zM229 207q0 -160 64.5 -234.5t177.5 -74.5q88 0 173 45t153.5 121t126 175t97 207t60.5 218q-97 -23 -188 -23q-131 0 -247 43.5t-200 118.5q-98 -142 -157.5 -301t-59.5 -295zM332 1118 q0 -94 45 -176q107 115 222 181.5t216 66.5q108 0 146 -57q-35 18 -68 18q-95 0 -209.5 -88.5t-218.5 -231.5q78 -72 189 -113.5t239 -41.5q106 0 194 26q15 82 15 162q0 154 -34.5 275.5t-93 196t-131.5 113t-155 38.5q-176 0 -266 -103t-90 -266zM973 1563q0 90 94 90 q37 0 114 -31t113 -31q22 0 42.5 10t29.5 27q25 -39 -1 -78t-83 -39q-28 0 -59 16t-54.5 35.5t-55 35.5t-60.5 16q-32 0 -80 -51z"/>
            <glyph unicode="&#xd6;" horiz-adv-x="1251"
                   d="M86 266q0 168 73.5 339.5t194.5 309.5q-57 94 -57 203q0 81 25 153t72.5 128.5t123.5 89.5t170 33q71 0 146 -26t147 -81.5t129 -133t92 -190t35 -243.5q0 -22 -4 -80q182 122 262 408q53 -128 -25.5 -258t-244.5 -207q-21 -113 -68.5 -232.5t-121.5 -232.5 t-162.5 -201.5t-200 -142.5t-226.5 -54q-118 0 -201.5 58.5t-121 151t-37.5 208.5zM229 207q0 -160 64.5 -234.5t177.5 -74.5q88 0 173 45t153.5 121t126 175t97 207t60.5 218q-97 -23 -188 -23q-131 0 -247 43.5t-200 118.5q-98 -142 -157.5 -301t-59.5 -295zM332 1118 q0 -94 45 -176q107 115 222 181.5t216 66.5q108 0 146 -57q-35 18 -68 18q-95 0 -209.5 -88.5t-218.5 -231.5q78 -72 189 -113.5t239 -41.5q106 0 194 26q15 82 15 162q0 154 -34.5 275.5t-93 196t-131.5 113t-155 38.5q-176 0 -266 -103t-90 -266zM1057 1552q0 34 21.5 51 t49.5 17q11 0 42.5 -3.5t48.5 -2.5q0 -47 -27 -86t-70 -39q-29 0 -47 17t-18 46zM1253 1552q0 34 22 51t50 17q11 0 42 -3.5t48 -2.5q0 -47 -26.5 -86t-69.5 -39q-30 0 -48 17t-18 46z"/>
            <glyph unicode="&#xd8;" horiz-adv-x="1251"
                   d="M86 266q0 168 73.5 339.5t194.5 309.5q-57 94 -57 203q0 81 25 153t72.5 128.5t123.5 89.5t170 33q100 0 205.5 -52t185.5 -149l117 207q14 0 19 -13t-7 -36l-106 -187q135 -183 135 -444q0 -22 -4 -80q182 122 262 408q53 -128 -25.5 -258t-244.5 -207 q-21 -113 -68.5 -232.5t-121.5 -232.5t-162.5 -201.5t-200 -142.5t-226.5 -54q-80 0 -141 27l-88 -156q-13 4 -13.5 22.5t9.5 33.5l63 112q-94 49 -142 150t-48 229zM229 207q0 -180 84 -254l398 711q-155 40 -265 139q-98 -142 -157.5 -301t-59.5 -295zM332 1118 q0 -94 45 -176q107 115 222 181.5t216 66.5q108 0 146 -57q-35 18 -68 18q-95 0 -209.5 -88.5t-218.5 -231.5q111 -100 264 -137l303 543q-55 123 -146.5 186.5t-197.5 63.5q-176 0 -266 -103t-90 -266zM338 -68q50 -34 133 -34q88 0 173 45t153.5 121t126 175t97 207 t60.5 218q-97 -23 -188 -23q-66 0 -148 14zM762 688q65 -12 131 -12q106 0 194 26q15 82 15 162q0 187 -53 332z"/>
            <glyph unicode="&#xd9;" horiz-adv-x="1282"
                   d="M-295 950q0 87 46.5 177.5t126.5 165t200 122t254 47.5q146 0 245 -88.5t99 -220.5q0 -74 -38 -183.5t-92.5 -225t-108.5 -234t-92 -240t-38 -213.5q0 -65 31.5 -102t95.5 -37q82 0 181.5 93t192 240.5t180.5 327.5t155 357.5t108 327.5q43 -14 80 -48t37 -86 q0 -60 -40 -167.5t-97 -229.5t-113.5 -249t-96.5 -258t-40 -226q0 -79 39.5 -119.5t97.5 -40.5q81 0 144 60q-7 -37 -52 -66t-92 -29q-137 0 -217 85.5t-80 228.5q0 49 10 90q-217 -324 -397 -324q-121 0 -185.5 70t-64.5 207q0 99 54 253t118 287.5t118 278t54 227.5 q0 96 -48.5 152.5t-172.5 56.5q-121 0 -229.5 -44t-181 -112t-114.5 -150.5t-42 -160.5q0 -86 36 -135t94 -57.5t125.5 8t135.5 55.5q14 -49 -32.5 -93t-145.5 -44q-41 0 -81.5 13t-79.5 41t-63 83t-24 129zM713 1661q0 38 35 65q40 -87 130.5 -168.5t198.5 -125.5 q-82 -20 -167 5.5t-141 87t-56 136.5z"/>
            <glyph unicode="&#xda;" horiz-adv-x="1282"
                   d="M-295 950q0 87 46.5 177.5t126.5 165t200 122t254 47.5q146 0 245 -88.5t99 -220.5q0 -74 -38 -183.5t-92.5 -225t-108.5 -234t-92 -240t-38 -213.5q0 -65 31.5 -102t95.5 -37q82 0 181.5 93t192 240.5t180.5 327.5t155 357.5t108 327.5q43 -14 80 -48t37 -86 q0 -60 -40 -167.5t-97 -229.5t-113.5 -249t-96.5 -258t-40 -226q0 -79 39.5 -119.5t97.5 -40.5q81 0 144 60q-7 -37 -52 -66t-92 -29q-137 0 -217 85.5t-80 228.5q0 49 10 90q-217 -324 -397 -324q-121 0 -185.5 70t-64.5 207q0 99 54 253t118 287.5t118 278t54 227.5 q0 96 -48.5 152.5t-172.5 56.5q-121 0 -229.5 -44t-181 -112t-114.5 -150.5t-42 -160.5q0 -86 36 -135t94 -57.5t125.5 8t135.5 55.5q14 -49 -32.5 -93t-145.5 -44q-41 0 -81.5 13t-79.5 41t-63 83t-24 129zM852 1413q127 43 238 124t161 167q33 -29 33 -68q0 -77 -67 -137 t-167.5 -83t-197.5 -3z"/>
            <glyph unicode="&#xdb;" horiz-adv-x="1282"
                   d="M-295 950q0 87 46.5 177.5t126.5 165t200 122t254 47.5q146 0 245 -88.5t99 -220.5q0 -74 -38 -183.5t-92.5 -225t-108.5 -234t-92 -240t-38 -213.5q0 -65 31.5 -102t95.5 -37q82 0 181.5 93t192 240.5t180.5 327.5t155 357.5t108 327.5q43 -14 80 -48t37 -86 q0 -60 -40 -167.5t-97 -229.5t-113.5 -249t-96.5 -258t-40 -226q0 -79 39.5 -119.5t97.5 -40.5q81 0 144 60q-7 -37 -52 -66t-92 -29q-137 0 -217 85.5t-80 228.5q0 49 10 90q-217 -324 -397 -324q-121 0 -185.5 70t-64.5 207q0 99 54 253t118 287.5t118 278t54 227.5 q0 96 -48.5 152.5t-172.5 56.5q-121 0 -229.5 -44t-181 -112t-114.5 -150.5t-42 -160.5q0 -86 36 -135t94 -57.5t125.5 8t135.5 55.5q14 -49 -32.5 -93t-145.5 -44q-41 0 -81.5 13t-79.5 41t-63 83t-24 129zM782.5 1429.5q4.5 17.5 20.5 28.5l215 162l145 -125 q23 -18 18.5 -53t-34.5 -47l-152 159l-211 -145q-6 3 -1.5 20.5z"/>
            <glyph unicode="&#xdc;" horiz-adv-x="1282"
                   d="M-295 950q0 87 46.5 177.5t126.5 165t200 122t254 47.5q146 0 245 -88.5t99 -220.5q0 -74 -38 -183.5t-92.5 -225t-108.5 -234t-92 -240t-38 -213.5q0 -65 31.5 -102t95.5 -37q82 0 181.5 93t192 240.5t180.5 327.5t155 357.5t108 327.5q43 -14 80 -48t37 -86 q0 -60 -40 -167.5t-97 -229.5t-113.5 -249t-96.5 -258t-40 -226q0 -79 39.5 -119.5t97.5 -40.5q81 0 144 60q-7 -37 -52 -66t-92 -29q-137 0 -217 85.5t-80 228.5q0 49 10 90q-217 -324 -397 -324q-121 0 -185.5 70t-64.5 207q0 99 54 253t118 287.5t118 278t54 227.5 q0 96 -48.5 152.5t-172.5 56.5q-121 0 -229.5 -44t-181 -112t-114.5 -150.5t-42 -160.5q0 -86 36 -135t94 -57.5t125.5 8t135.5 55.5q14 -49 -32.5 -93t-145.5 -44q-41 0 -81.5 13t-79.5 41t-63 83t-24 129zM909 1468q0 34 22 51t50 17q11 0 42 -3.5t48 -2.5 q0 -47 -26.5 -86t-69.5 -39q-30 0 -48 17t-18 46zM1106 1468q0 34 22 51t50 17q11 0 42 -3.5t48 -2.5q0 -47 -27 -86t-70 -39q-29 0 -47 17t-18 46z"/>
            <glyph unicode="&#xdd;" horiz-adv-x="1351"
                   d="M-274 905q0 91 62 188.5t159 173t222.5 124.5t244.5 49q169 0 266.5 -75t97.5 -208q0 -90 -36 -200.5t-78.5 -197.5t-78.5 -193t-36 -187q0 -88 63 -88q82 0 173.5 63.5t167 159.5t137.5 202t96 199t31 142q46 0 76 -22.5t30 -67.5q0 -230 -110.5 -557t-286.5 -572 q59 -19 166.5 -63.5t186.5 -67t157 -22.5q104 0 184.5 24t185.5 84q-22 -74 -105.5 -126t-176.5 -52q-101 0 -201.5 29t-231 84t-192.5 75q-249 -327 -526 -327q-74 0 -115 35.5t-41 99.5q0 118 114.5 198t282.5 80q95 0 193 -20q130 206 234 476.5t155 504.5 q-37 -80 -80.5 -157t-103 -158t-121 -141.5t-135 -99t-144.5 -38.5q-89 0 -136.5 60t-47.5 173q0 67 39 170t85 194t85 199t39 185q0 78 -69.5 123t-192.5 45q-107 0 -222 -44t-204 -112t-147 -155t-58 -168q0 -82 42.5 -131.5t110.5 -62.5t149 -2t163 44q-1 -3 -10.5 -24 t-13 -26t-14 -22.5t-20 -24.5t-25 -19t-36 -19.5t-45.5 -13.5q-36 -11 -76.5 -7t-80 15t-76 36t-64.5 57.5t-44.5 79t-16.5 99.5zM250 -389q0 -47 32.5 -73.5t90.5 -26.5q199 0 413 325q-104 19 -172 19q-153 0 -258.5 -71t-105.5 -173zM926 1413q127 43 238 124t161 167 q33 -29 33 -68q0 -77 -67 -137t-167.5 -83t-197.5 -3z"/>
            <glyph unicode="&#xde;" horiz-adv-x="1302"
                   d="M-82 682q0 125 94 231.5t254 169t346 62.5q223 0 406 -94q158 266 397 313q-88 -46 -158.5 -142t-136.5 -239q183 -146 183 -342q0 -67 -17.5 -130t-51 -116.5t-90 -86t-128.5 -32.5q-31 0 -67.5 19.5t-43.5 48.5q121 9 208 105t87 223q0 138 -106 250 q-30 -71 -69 -174.5t-67.5 -183.5t-69 -176t-76.5 -167.5t-85.5 -142.5t-101 -116t-118 -73t-140.5 -28q-133 0 -209 83.5t-76 202.5q0 73 47.5 138.5t124.5 94.5t174 -1q-51 -17 -85 -31.5t-74.5 -39.5t-64.5 -53t-40.5 -70.5t-16.5 -94.5q0 -82 58 -139t162 -57 q79 0 145 53t110.5 136.5t91 203.5t82.5 235t88.5 250.5t106.5 233.5q-161 104 -379 104q-176 0 -328 -58.5t-241.5 -157t-89.5 -212.5q0 -72 43 -109.5t102.5 -37.5t122.5 25t103 67q31 -62 -32 -109t-142 -49q-92 -3 -162 53t-70 160z"/>
            <glyph unicode="&#xdf;" horiz-adv-x="632"
                   d="M-33 -41q0 140 37 298t100.5 298t140 255.5t162.5 183t162 67.5q36 0 57 -24t21 -60q0 -43 -18.5 -87t-47.5 -81.5t-64.5 -74.5t-70.5 -71.5t-64 -67.5t-47 -68.5t-18 -67.5q0 -30 17.5 -60.5t40.5 -52.5t51 -55t43 -62q80 29 133 60t84 76q12 -4 15 -15t-5 -20 q-67 -79 -213 -131q11 -33 11 -64q0 -81 -57.5 -134.5t-127.5 -53.5q-48 0 -74 25.5t-26 64.5q0 92 139 149q-7 40 -33 81.5t-47.5 79t-21.5 73.5q0 45 26.5 94.5t66.5 91.5t87 90.5t87 91.5t66.5 95t26.5 100q0 20 -11 31.5t-26 11.5q-73 0 -170 -139.5t-177.5 -330.5 t-136.5 -395t-56 -327q-25 0 -43.5 30.5t-18.5 94.5zM244 37q0 -45 43 -45q25 0 45 42.5t20 110.5v9q-108 -47 -108 -117z"/>
            <glyph unicode="&#xe0;" horiz-adv-x="516"
                   d="M-74 109q0 51 21.5 105.5t56.5 101.5t81 84t93 56.5t95 16t85 -34.5q-56 7 -108 -20t-87 -71.5t-62 -96.5t-39.5 -95.5t-12.5 -68.5t17 -25q33 0 82 58.5t83 135.5t27 124q44 -8 79.5 -31t35.5 -63q0 -49 -44 -140.5t-44 -111.5q0 -17 12 -17q44 0 127.5 100.5 t136.5 231.5q12 0 18.5 -9.5t0.5 -21.5q-61 -144 -150 -243t-149 -99q-37 0 -60.5 27.5t-23.5 79.5q0 15 8 61q-92 -143 -178 -143q-37 0 -69 29.5t-32 79.5zM180 641q0 39 35 66q28 -57 90.5 -110.5t136.5 -82.5q-58 -11 -119.5 3t-102 48t-40.5 76z"/>
            <glyph unicode="&#xe1;" horiz-adv-x="516"
                   d="M-74 109q0 51 21.5 105.5t56.5 101.5t81 84t93 56.5t95 16t85 -34.5q-56 7 -108 -20t-87 -71.5t-62 -96.5t-39.5 -95.5t-12.5 -68.5t17 -25q33 0 82 58.5t83 135.5t27 124q44 -8 79.5 -31t35.5 -63q0 -49 -44 -140.5t-44 -111.5q0 -17 12 -17q44 0 127.5 100.5 t136.5 231.5q12 0 18.5 -9.5t0.5 -21.5q-61 -144 -150 -243t-149 -99q-37 0 -60.5 27.5t-23.5 79.5q0 15 8 61q-92 -143 -178 -143q-37 0 -69 29.5t-32 79.5zM217 522q75 28 141 80.5t95 108.5q32 -28 32 -68q0 -63 -88 -101.5t-180 -19.5z"/>
            <glyph unicode="&#xe2;" horiz-adv-x="516"
                   d="M-74 109q0 51 21.5 105.5t56.5 101.5t81 84t93 56.5t95 16t85 -34.5q-56 7 -108 -20t-87 -71.5t-62 -96.5t-39.5 -95.5t-12.5 -68.5t17 -25q33 0 82 58.5t83 135.5t27 124q44 -8 79.5 -31t35.5 -63q0 -49 -44 -140.5t-44 -111.5q0 -17 12 -17q44 0 127.5 100.5 t136.5 231.5q12 0 18.5 -9.5t0.5 -21.5q-61 -144 -150 -243t-149 -99q-37 0 -60.5 27.5t-23.5 79.5q0 15 8 61q-92 -143 -178 -143q-37 0 -69 29.5t-32 79.5zM153 534q5 17 19 29l150 129l90 -88q21 -20 17 -54t-34 -46l-96 123l-145 -113q-6 3 -1 20z"/>
            <glyph unicode="&#xe3;" horiz-adv-x="516"
                   d="M-74 109q0 51 21.5 105.5t56.5 101.5t81 84t93 56.5t95 16t85 -34.5q-56 7 -108 -20t-87 -71.5t-62 -96.5t-39.5 -95.5t-12.5 -68.5t17 -25q33 0 82 58.5t83 135.5t27 124q44 -8 79.5 -31t35.5 -63q0 -49 -44 -140.5t-44 -111.5q0 -17 12 -17q44 0 127.5 100.5 t136.5 231.5q12 0 18.5 -9.5t0.5 -21.5q-61 -144 -150 -243t-149 -99q-37 0 -60.5 27.5t-23.5 79.5q0 15 8 61q-92 -143 -178 -143q-37 0 -69 29.5t-32 79.5zM150 551q0 90 94 90q26 0 83 -20.5t83 -20.5q22 0 42 10t29 27q26 -38 9 -77.5t-62 -39.5q-30 0 -98.5 40 t-100.5 40q-47 0 -79 -49z"/>
            <glyph unicode="&#xe4;" horiz-adv-x="516"
                   d="M-74 109q0 51 21.5 105.5t56.5 101.5t81 84t93 56.5t95 16t85 -34.5q-56 7 -108 -20t-87 -71.5t-62 -96.5t-39.5 -95.5t-12.5 -68.5t17 -25q33 0 82 58.5t83 135.5t27 124q44 -8 79.5 -31t35.5 -63q0 -49 -44 -140.5t-44 -111.5q0 -17 12 -17q44 0 127.5 100.5 t136.5 231.5q12 0 18.5 -9.5t0.5 -21.5q-61 -144 -150 -243t-149 -99q-37 0 -60.5 27.5t-23.5 79.5q0 15 8 61q-92 -143 -178 -143q-37 0 -69 29.5t-32 79.5zM131 561q0 34 22 51t50 17q11 0 42 -3.5t48 -2.5q0 -47 -26.5 -86t-69.5 -39q-30 0 -48 17t-18 46zM328 561 q0 34 21.5 51t49.5 17q11 0 42 -3.5t48 -2.5q0 -47 -26.5 -86t-69.5 -39q-29 0 -47 17t-18 46z"/>
            <glyph unicode="&#xe5;" horiz-adv-x="516"
                   d="M-74 109q0 51 21.5 105.5t56.5 101.5t81 84t93 56.5t95 16t85 -34.5q-56 7 -108 -20t-87 -71.5t-62 -96.5t-39.5 -95.5t-12.5 -68.5t17 -25q33 0 82 58.5t83 135.5t27 124q44 -8 79.5 -31t35.5 -63q0 -49 -44 -140.5t-44 -111.5q0 -17 12 -17q44 0 127.5 100.5 t136.5 231.5q12 0 18.5 -9.5t0.5 -21.5q-61 -144 -150 -243t-149 -99q-37 0 -60.5 27.5t-23.5 79.5q0 15 8 61q-92 -143 -178 -143q-37 0 -69 29.5t-32 79.5zM178 606q0 59 47 102.5t105 43.5q50 0 82 -30.5t32 -76.5q0 -53 -45.5 -95t-109.5 -42q-51 0 -81 28t-30 70z M254 633q0 -27 18 -46.5t45 -19.5q43 0 68 27t25 65q0 25 -19.5 41.5t-52.5 16.5q-36 0 -60 -24t-24 -60z"/>
            <glyph unicode="&#xe6;" horiz-adv-x="634"
                   d="M-74 109q0 51 21.5 105.5t56.5 101.5t81 84t93 56.5t95 16t85 -34.5q-56 7 -108 -20t-87 -71.5t-62 -96.5t-39.5 -95.5t-12.5 -68.5t17 -25q33 0 82 58.5t83 135.5t27 124q19 -3 49 -14q89 102 203 102q31 0 48 -16t17 -45q0 -49 -65.5 -106.5t-136.5 -51.5 q-47 -92 -47 -162q0 -47 34 -47q68 0 158.5 91t169.5 235q13 -5 19 -16t-2 -27q-90 -150 -186 -236t-175 -86q-63 0 -95 38t-32 105v19q-98 -162 -190 -162q-37 0 -69 29.5t-32 79.5zM389 281q56 3 104 48.5t48 76.5q0 16 -17 16q-27 0 -64 -40.5t-71 -100.5z"/>
            <glyph unicode="&#xe7;" horiz-adv-x="360"
                   d="M-74 158q0 64 40 137t108 124.5t137 51.5q33 0 57 -17t25 -44q0 -63 -68 -113q33 56 33 106q0 31 -27 31q-30 0 -76 -55.5t-81 -138.5t-35 -150q0 -51 43 -51q72 0 180.5 114t153.5 205q11 -2 16.5 -13.5t-0.5 -22.5q-12 -26 -46 -72.5t-80.5 -99t-105 -95.5t-108.5 -53 l-14 -35q37 5 66.5 -8t29.5 -45q0 -35 -35.5 -61.5t-87.5 -26.5q-60 0 -85.5 30.5t-6.5 65.5q46 -53 111 -53q28 0 48.5 13t20.5 32q0 41 -116 12l30 74q-56 3 -91.5 42.5t-35.5 115.5z"/>
            <glyph unicode="&#xe8;" horiz-adv-x="368"
                   d="M-49 143q0 119 90 221.5t203 102.5q31 0 48 -16t17 -45q0 -49 -65.5 -106.5t-137.5 -51.5q-47 -92 -47 -162q0 -47 35 -47q68 0 158.5 91t169.5 235q13 -5 18.5 -16.5t-2.5 -26.5q-94 -151 -188 -236.5t-172 -85.5q-63 0 -95 38t-32 105zM123 281q56 3 103.5 48.5 t47.5 76.5q0 16 -16 16q-27 0 -64 -40.5t-71 -100.5zM123 647q0 39 35 66q28 -57 90.5 -110.5t136.5 -82.5q-58 -11 -119.5 3t-102 48t-40.5 76z"/>
            <glyph unicode="&#xe9;" horiz-adv-x="368"
                   d="M-49 143q0 119 90 221.5t203 102.5q31 0 48 -16t17 -45q0 -49 -65.5 -106.5t-137.5 -51.5q-47 -92 -47 -162q0 -47 35 -47q68 0 158.5 91t169.5 235q13 -5 18.5 -16.5t-2.5 -26.5q-94 -151 -188 -236.5t-172 -85.5q-63 0 -95 38t-32 105zM123 281q56 3 103.5 48.5 t47.5 76.5q0 16 -16 16q-27 0 -64 -40.5t-71 -100.5zM160 528q75 28 140.5 80.5t94.5 108.5q33 -29 33 -68q0 -63 -88 -101.5t-180 -19.5z"/>
            <glyph unicode="&#xea;" horiz-adv-x="368"
                   d="M-49 143q0 119 90 221.5t203 102.5q31 0 48 -16t17 -45q0 -49 -65.5 -106.5t-137.5 -51.5q-47 -92 -47 -162q0 -47 35 -47q68 0 158.5 91t169.5 235q13 -5 18.5 -16.5t-2.5 -26.5q-94 -151 -188 -236.5t-172 -85.5q-63 0 -95 38t-32 105zM95.5 540q5.5 16 19.5 29 l149 129l90 -88q21 -20 17.5 -54t-33.5 -46l-96 123l-146 -113q-6 4 -0.5 20zM123 281q56 3 103.5 48.5t47.5 76.5q0 16 -16 16q-27 0 -64 -40.5t-71 -100.5z"/>
            <glyph unicode="&#xeb;" horiz-adv-x="368"
                   d="M-49 143q0 119 90 221.5t203 102.5q31 0 48 -16t17 -45q0 -49 -65.5 -106.5t-137.5 -51.5q-47 -92 -47 -162q0 -47 35 -47q68 0 158.5 91t169.5 235q13 -5 18.5 -16.5t-2.5 -26.5q-94 -151 -188 -236.5t-172 -85.5q-63 0 -95 38t-32 105zM74 567q0 34 21.5 51t49.5 17 q11 0 42.5 -3.5t48.5 -2.5q0 -47 -27 -86t-70 -39q-29 0 -47 17t-18 46zM123 281q56 3 103.5 48.5t47.5 76.5q0 16 -16 16q-27 0 -64 -40.5t-71 -100.5zM270 567q0 34 22 51t50 17q11 0 42 -3.5t48 -2.5q0 -47 -26.5 -86t-69.5 -39q-30 0 -48 17t-18 46z"/>
            <glyph unicode="&#xec;" horiz-adv-x="290"
                   d="M-49 86q0 62 25 136t50 137t25 98q47 0 85 -25t38 -63q0 -44 -60.5 -164.5t-60.5 -153.5q0 -16 17 -16q36 0 123 102.5t151 218.5q8 -3 12.5 -13t-0.5 -21q-23 -46 -60.5 -102.5t-83.5 -113t-96.5 -94t-88.5 -37.5q-35 0 -55.5 29.5t-20.5 81.5zM-27 641q0 39 35 66 q28 -57 91 -110.5t137 -82.5q-58 -11 -120 3t-102.5 48t-40.5 76z"/>
            <glyph unicode="&#xed;" horiz-adv-x="290"
                   d="M-49 86q0 62 25 136t50 137t25 98q47 0 85 -25t38 -63q0 -44 -60.5 -164.5t-60.5 -153.5q0 -16 17 -16q36 0 123 102.5t151 218.5q8 -3 12.5 -13t-0.5 -21q-23 -46 -60.5 -102.5t-83.5 -113t-96.5 -94t-88.5 -37.5q-35 0 -55.5 29.5t-20.5 81.5zM10 522q75 28 141 80.5 t95 108.5q33 -29 33 -68q0 -63 -88.5 -101.5t-180.5 -19.5z"/>
            <glyph unicode="&#xee;" horiz-adv-x="290"
                   d="M-54 534q5 17 19 29l150 129l90 -88q21 -20 17 -54t-34 -46l-96 123l-145 -113q-6 3 -1 20zM-49 86q0 62 25 136t50 137t25 98q47 0 85 -25t38 -63q0 -44 -60.5 -164.5t-60.5 -153.5q0 -16 17 -16q36 0 123 102.5t151 218.5q8 -3 12.5 -13t-0.5 -21q-23 -46 -60.5 -102.5 t-83.5 -113t-96.5 -94t-88.5 -37.5q-35 0 -55.5 29.5t-20.5 81.5z"/>
            <glyph unicode="&#xef;" horiz-adv-x="290"
                   d="M-76 561q0 34 22 51t50 17q11 0 42 -3.5t48 -2.5q0 -47 -26.5 -86t-69.5 -39q-30 0 -48 17t-18 46zM-49 86q0 62 25 136t50 137t25 98q47 0 85 -25t38 -63q0 -44 -60.5 -164.5t-60.5 -153.5q0 -16 17 -16q36 0 123 102.5t151 218.5q8 -3 12.5 -13t-0.5 -21 q-23 -46 -60.5 -102.5t-83.5 -113t-96.5 -94t-88.5 -37.5q-35 0 -55.5 29.5t-20.5 81.5zM121 561q0 34 22 51t50 17q11 0 42 -3.5t48 -2.5q0 -47 -27 -86t-70 -39q-29 0 -47 17t-18 46z"/>
            <glyph unicode="&#xf0;" horiz-adv-x="530"
                   d="M-49 127q0 96 53 180.5t135.5 126t163.5 21.5q-80 -29 -151.5 -150.5t-71.5 -220.5q0 -39 24 -39q43 0 104.5 84t109 216.5t47.5 250.5q0 39 -9 109q-84 -23 -137 -23q-32 0 -56 13.5t-24 29.5q94 0 205 27q-14 47 -37 80.5t-49.5 50.5t-51.5 24.5t-50 7.5q14 29 59 29 q55 0 113 -44.5t94 -127.5q110 34 176 80q-28 -63 -162 -119q27 -83 27 -178q1 -136 -52.5 -265t-143 -209.5t-187.5 -80.5q-53 0 -91 36t-38 91z"/>
            <glyph unicode="&#xf1;" horiz-adv-x="573"
                   d="M-61 78q0 70 24 147.5t42.5 132t10.5 82.5q52 17 98 -7t46 -64q95 110 174 110q44 0 75 -31t31 -77t-67.5 -166t-67.5 -166q0 -23 14 -23q44 0 143.5 109.5t166.5 239.5q12 0 19.5 -13.5t-1.5 -32.5q-33 -55 -75.5 -112t-90.5 -110.5t-97.5 -87.5t-86.5 -34q-42 0 -70 30 t-28 83q0 51 32.5 128t65.5 139t33 75q0 16 -19 16t-59 -34.5t-86.5 -91.5t-93.5 -146t-74 -184q-25 0 -42 23.5t-17 64.5zM174 559q0 90 94 90q26 0 83 -20.5t83 -20.5q22 0 42.5 10t29.5 27q26 -38 9 -77.5t-62 -39.5q-30 0 -98.5 40t-100.5 40q-48 0 -80 -49z"/>
            <glyph unicode="&#xf2;" horiz-adv-x="468"
                   d="M-35 180q0 62 31.5 121.5t81.5 99.5q-2 12 -2 37q0 63 37 102.5t92 39.5q69 0 112 -59.5t43 -147.5q0 -65 -18 -123q113 12 184 115q24 -17 6 -41q-25 -29 -46.5 -48.5t-63.5 -39t-90 -23.5q-34 -92 -95 -152.5t-122 -60.5q-63 0 -106.5 47t-43.5 133zM84 123 q0 -82 47 -82q44 0 90.5 48.5t75.5 123.5q-99 3 -164 74q-49 -81 -49 -164zM111 426q46 30 90.5 36t79.5 -18q-69 -43 -129 -125q58 -71 153 -71h4q19 62 19 125q0 74 -33.5 123t-89.5 49q-41 0 -67.5 -28.5t-26.5 -78.5v-12zM156 743q0 39 34 66q28 -57 91 -110.5 t137 -82.5q-58 -11 -119.5 3t-102 48t-40.5 76z"/>
            <glyph unicode="&#xf3;" horiz-adv-x="468"
                   d="M-35 180q0 62 31.5 121.5t81.5 99.5q-2 12 -2 37q0 63 37 102.5t92 39.5q69 0 112 -59.5t43 -147.5q0 -65 -18 -123q113 12 184 115q24 -17 6 -41q-25 -29 -46.5 -48.5t-63.5 -39t-90 -23.5q-34 -92 -95 -152.5t-122 -60.5q-63 0 -106.5 47t-43.5 133zM84 123 q0 -82 47 -82q44 0 90.5 48.5t75.5 123.5q-99 3 -164 74q-49 -81 -49 -164zM111 426q46 30 90.5 36t79.5 -18q-69 -43 -129 -125q58 -71 153 -71h4q19 62 19 125q0 74 -33.5 123t-89.5 49q-41 0 -67.5 -28.5t-26.5 -78.5v-12zM193 625q75 28 140.5 80t94.5 108 q33 -29 33 -68q0 -63 -88 -101t-180 -19z"/>
            <glyph unicode="&#xf4;" horiz-adv-x="468"
                   d="M-35 180q0 62 31.5 121.5t81.5 99.5q-2 12 -2 37q0 63 37 102.5t92 39.5q69 0 112 -59.5t43 -147.5q0 -65 -18 -123q113 12 184 115q24 -17 6 -41q-25 -29 -46.5 -48.5t-63.5 -39t-90 -23.5q-34 -92 -95 -152.5t-122 -60.5q-63 0 -106.5 47t-43.5 133zM84 123 q0 -82 47 -82q44 0 90.5 48.5t75.5 123.5q-99 3 -164 74q-49 -81 -49 -164zM111 426q46 30 90.5 36t79.5 -18q-69 -43 -129 -125q58 -71 153 -71h4q19 62 19 125q0 74 -33.5 123t-89.5 49q-41 0 -67.5 -28.5t-26.5 -78.5v-12zM128 636.5q5 17.5 19 29.5l150 129l90 -88 q21 -20 17.5 -54.5t-33.5 -46.5l-97 123l-145 -113q-6 3 -1 20.5z"/>
            <glyph unicode="&#xf5;" horiz-adv-x="468"
                   d="M-35 180q0 62 31.5 121.5t81.5 99.5q-2 12 -2 37q0 63 37 102.5t92 39.5q69 0 112 -59.5t43 -147.5q0 -65 -18 -123q113 12 184 115q24 -17 6 -41q-25 -29 -46.5 -48.5t-63.5 -39t-90 -23.5q-34 -92 -95 -152.5t-122 -60.5q-63 0 -106.5 47t-43.5 133zM84 123 q0 -82 47 -82q44 0 90.5 48.5t75.5 123.5q-99 3 -164 74q-49 -81 -49 -164zM111 426q46 30 90.5 36t79.5 -18q-69 -43 -129 -125q58 -71 153 -71h4q19 62 19 125q0 74 -33.5 123t-89.5 49q-41 0 -67.5 -28.5t-26.5 -78.5v-12zM125 653q0 90 94 90q27 0 83.5 -20.5 t82.5 -20.5q22 0 42.5 10t29.5 27q25 -38 8 -77t-62 -39q-30 0 -98 39.5t-100 39.5q-48 0 -80 -49z"/>
            <glyph unicode="&#xf6;" horiz-adv-x="468"
                   d="M-35 180q0 62 31.5 121.5t81.5 99.5q-2 12 -2 37q0 63 37 102.5t92 39.5q69 0 112 -59.5t43 -147.5q0 -65 -18 -123q113 12 184 115q24 -17 6 -41q-25 -29 -46.5 -48.5t-63.5 -39t-90 -23.5q-34 -92 -95 -152.5t-122 -60.5q-63 0 -106.5 47t-43.5 133zM84 123 q0 -82 47 -82q44 0 90.5 48.5t75.5 123.5q-99 3 -164 74q-49 -81 -49 -164zM106 664q0 34 21.5 50.5t50.5 16.5q11 0 42 -3.5t48 -2.5q0 -47 -26.5 -86t-69.5 -39q-29 0 -47.5 17.5t-18.5 46.5zM111 426q46 30 90.5 36t79.5 -18q-69 -43 -129 -125q58 -71 153 -71h4 q19 62 19 125q0 74 -33.5 123t-89.5 49q-41 0 -67.5 -28.5t-26.5 -78.5v-12zM303 664q0 34 21.5 50.5t50.5 16.5q11 0 42 -3.5t48 -2.5q0 -47 -26.5 -86t-69.5 -39q-29 0 -47.5 17.5t-18.5 46.5z"/>
            <glyph unicode="&#xf8;" horiz-adv-x="468"
                   d="M-35 180q0 62 31.5 121.5t81.5 99.5q-2 12 -2 37q0 63 37 102.5t92 39.5q85 0 129 -86l78 141q12 -9 13 -29t-17 -57l-58 -100q10 -42 10 -76q0 -65 -18 -123q113 12 184 115q24 -17 6 -41q-25 -29 -46.5 -48.5t-63.5 -39t-90 -23.5q-34 -92 -95 -152.5t-122 -60.5h-15 l-69 -125q-26 32 4 86l26 49q-42 16 -69 60t-27 110zM84 123q0 -35 10 -55l99 174q-37 19 -60 45q-49 -81 -49 -164zM111 426q46 30 90.5 36t79.5 -18q-69 -43 -129 -125q24 -30 57 -47l104 187q-34 86 -108 86q-41 0 -67.5 -28.5t-26.5 -78.5v-12zM123 41h8q44 0 90.5 48.5 t75.5 123.5q-24 0 -70 12zM244 258q33 -10 61 -10h4q19 62 19 125q0 20 -2 30z"/>
            <glyph unicode="&#xf9;" horiz-adv-x="614"
                   d="M-37 123q0 53 24 121t49 128.5t27 92.5q41 0 75 -22.5t34 -65.5q0 -40 -29 -102.5t-57.5 -119t-28.5 -83.5q0 -31 25 -31q42 0 103 69.5t110.5 166.5t62.5 174q40 -5 72.5 -32.5t32.5 -62.5q0 -49 -53.5 -158t-53.5 -151q0 -14 6.5 -23.5t18.5 -9.5q50 0 133.5 104.5 t149.5 235.5q31 -12 16 -35q-89 -162 -168.5 -253t-155.5 -91q-36 0 -59.5 21.5t-31 45.5t-7.5 48q0 30 12 74q-107 -164 -213 -164q-46 0 -70 36.5t-24 86.5zM158 657q0 39 35 66q28 -57 90.5 -110.5t136.5 -82.5q-58 -11 -119.5 3t-102 48t-40.5 76z"/>
            <glyph unicode="&#xfa;" horiz-adv-x="614"
                   d="M-37 123q0 53 24 121t49 128.5t27 92.5q41 0 75 -22.5t34 -65.5q0 -40 -29 -102.5t-57.5 -119t-28.5 -83.5q0 -31 25 -31q42 0 103 69.5t110.5 166.5t62.5 174q40 -5 72.5 -32.5t32.5 -62.5q0 -49 -53.5 -158t-53.5 -151q0 -14 6.5 -23.5t18.5 -9.5q50 0 133.5 104.5 t149.5 235.5q31 -12 16 -35q-89 -162 -168.5 -253t-155.5 -91q-36 0 -59.5 21.5t-31 45.5t-7.5 48q0 30 12 74q-107 -164 -213 -164q-46 0 -70 36.5t-24 86.5zM195 539q75 28 140.5 80t94.5 108q33 -29 33 -68q0 -63 -88 -101t-180 -19z"/>
            <glyph unicode="&#xfb;" horiz-adv-x="614"
                   d="M-37 123q0 53 24 121t49 128.5t27 92.5q41 0 75 -22.5t34 -65.5q0 -40 -29 -102.5t-57.5 -119t-28.5 -83.5q0 -31 25 -31q42 0 103 69.5t110.5 166.5t62.5 174q40 -5 72.5 -32.5t32.5 -62.5q0 -49 -53.5 -158t-53.5 -151q0 -14 6.5 -23.5t18.5 -9.5q50 0 133.5 104.5 t149.5 235.5q31 -12 16 -35q-89 -162 -168.5 -253t-155.5 -91q-36 0 -59.5 21.5t-31 45.5t-7.5 48q0 30 12 74q-107 -164 -213 -164q-46 0 -70 36.5t-24 86.5zM130.5 550.5q5.5 17.5 19.5 29.5l149 129l90 -88q21 -20 17.5 -54.5t-33.5 -46.5l-97 123l-145 -113 q-6 3 -0.5 20.5z"/>
            <glyph unicode="&#xfc;" horiz-adv-x="614"
                   d="M-37 123q0 53 24 121t49 128.5t27 92.5q41 0 75 -22.5t34 -65.5q0 -40 -29 -102.5t-57.5 -119t-28.5 -83.5q0 -31 25 -31q42 0 103 69.5t110.5 166.5t62.5 174q40 -5 72.5 -32.5t32.5 -62.5q0 -49 -53.5 -158t-53.5 -151q0 -14 6.5 -23.5t18.5 -9.5q50 0 133.5 104.5 t149.5 235.5q31 -12 16 -35q-89 -162 -168.5 -253t-155.5 -91q-36 0 -59.5 21.5t-31 45.5t-7.5 48q0 30 12 74q-107 -164 -213 -164q-46 0 -70 36.5t-24 86.5zM109 578q0 34 21.5 50.5t49.5 16.5q11 0 42 -3.5t48 -2.5q0 -47 -26.5 -86t-69.5 -39q-29 0 -47 17.5t-18 46.5z M305 578q0 34 21.5 50.5t50.5 16.5q11 0 42 -3.5t48 -2.5q0 -47 -26.5 -86t-69.5 -39q-29 0 -47.5 17.5t-18.5 46.5z"/>
            <glyph unicode="&#xfd;" horiz-adv-x="567"
                   d="M-268 -332q0 80 79.5 146.5t217.5 66.5q51 0 112 -12q65 119 127 274q-99 -143 -194 -143q-63 0 -95 35.5t-32 97.5q0 50 58 188t61 162q40 -4 75 -28.5t35 -65.5q0 -31 -19.5 -77.5t-43 -87t-43 -84.5t-19.5 -70q0 -35 27 -35q68 0 149.5 110.5t137.5 317.5q18 -2 35 -7 t36 -16t31 -32t12 -50q0 -85 -66 -230.5t-165 -281.5q34 -9 176.5 -49.5t231.5 -58t165 -17.5q134 0 238 107q-13 -90 -74.5 -137t-193.5 -47q-71 0 -164.5 29t-212.5 76t-189 67q-94 -121 -190.5 -194t-179.5 -73q-60 0 -91.5 34t-31.5 85zM-233 -332q0 -37 22.5 -60.5 t65.5 -23.5q118 0 268 256q-62 8 -94 8q-122 0 -192 -57.5t-70 -122.5zM219 553q75 28 141 80.5t95 107.5q32 -28 32 -67q0 -63 -88 -101.5t-180 -19.5z"/>
            <glyph unicode="&#xfe;" horiz-adv-x="598"
                   d="M-147 -244q0 94 57.5 265t125.5 326t121.5 305t47.5 208q50 0 83.5 -24t33.5 -74q0 -15 -4.5 -35t-14 -47.5t-19.5 -52t-27.5 -62.5t-31 -65.5t-36.5 -75.5t-37 -78q91 119 182 119q57 0 95 -38t38 -110q0 -40 -16 -90q146 43 198 131q12 -3 17 -14t-4 -22 q-67 -94 -230 -134q-37 -79 -102 -133.5t-131 -54.5q-49 0 -75 21t-26 55q0 50 55.5 79t161.5 48q43 101 43 168q0 59 -39 59q-62 0 -140 -97t-151 -269.5t-118 -374.5q-26 1 -41.5 20.5t-15.5 46.5zM133 76q0 -41 41 -41q54 0 121 127q-84 -16 -123 -35.5t-39 -50.5z"/>
            <glyph unicode="&#xff;" horiz-adv-x="567"
                   d="M-268 -332q0 80 79.5 146.5t217.5 66.5q51 0 112 -12q65 119 127 274q-99 -143 -194 -143q-63 0 -95 35.5t-32 97.5q0 50 58 188t61 162q40 -4 75 -28.5t35 -65.5q0 -31 -19.5 -77.5t-43 -87t-43 -84.5t-19.5 -70q0 -35 27 -35q68 0 149.5 110.5t137.5 317.5q18 -2 35 -7 t36 -16t31 -32t12 -50q0 -85 -66 -230.5t-165 -281.5q34 -9 176.5 -49.5t231.5 -58t165 -17.5q134 0 238 107q-13 -90 -74.5 -137t-193.5 -47q-71 0 -164.5 29t-212.5 76t-189 67q-94 -121 -190.5 -194t-179.5 -73q-60 0 -91.5 34t-31.5 85zM-233 -332q0 -37 22.5 -60.5 t65.5 -23.5q118 0 268 256q-62 8 -94 8q-122 0 -192 -57.5t-70 -122.5zM133 592q0 34 21.5 50.5t50.5 16.5q11 0 42 -3.5t48 -2.5q0 -47 -26.5 -86t-69.5 -39q-29 0 -47.5 17.5t-18.5 46.5zM330 592q0 34 21.5 50.5t49.5 16.5q11 0 42.5 -3.5t48.5 -2.5q0 -47 -27 -86 t-70 -39q-29 0 -47 17.5t-18 46.5z"/>
            <glyph unicode="&#x152;" horiz-adv-x="2105"
                   d="M86 905q0 86 27.5 173.5t83 167t132 141.5t182.5 98.5t226 36.5q127 0 236.5 -42.5t194 -124t132.5 -212t48 -295.5q0 -99 -31 -217q221 152 557 149q-90 36 -132 98.5t-42 131.5q0 76 33 144.5t87 119t122 87.5t140 56t138 19q99 0 159 -40.5t60 -125.5 q0 -127 -89.5 -205t-211.5 -78q-45 0 -72.5 28.5t-27.5 63.5q94 -17 180.5 4t139 71.5t52.5 115.5q0 69 -48 104t-124 35q-52 0 -107 -15t-108 -46t-95 -74t-67.5 -104t-25.5 -130q0 -211 184 -262q31 -9 38 -19.5t1 -31.5q-196 39 -350 4.5t-261 -118.5t-163.5 -185.5 t-56.5 -196.5q0 -147 86.5 -228t222.5 -81q160 0 278.5 108.5t118.5 239.5q0 64 -37.5 106.5t-88 53.5t-103.5 -4t-82 -55q-6 63 38.5 109t113.5 46q60 0 104.5 -23t68.5 -60t35 -75t11 -77q0 -74 -38.5 -150.5t-104.5 -138.5t-163.5 -101.5t-205.5 -39.5q-163 0 -266 79.5 t-125 223.5q-111 -145 -247 -230.5t-286 -85.5q-118 0 -201.5 58.5t-121 151t-37.5 208.5q0 127 47 273q-158 121 -158 366zM121 905q0 -236 135 -336q62 165 176.5 308.5t247 228t246.5 84.5q107 0 145 -57q-35 18 -67 18q-98 0 -217 -93t-222 -240.5t-164 -309.5 q35 -6 70 -6q121 0 213.5 47.5t187.5 136.5q27 -89 -66 -162t-231 -78q-102 -3 -188 23q-47 -146 -47 -262q0 -160 64.5 -234.5t177.5 -74.5q105 0 205 63t175 165.5t132.5 229t87.5 259t30 249.5q0 316 -118.5 469.5t-356.5 153.5q-147 0 -267.5 -51t-194.5 -134.5 t-114 -186t-40 -210.5z"/>
            <glyph unicode="&#x153;" horiz-adv-x="708"
                   d="M-35 180q0 62 31.5 121.5t81.5 99.5q-2 12 -2 37q0 63 37 102.5t92 39.5q69 0 112 -59.5t43 -147.5q0 -23 -2 -35q43 59 102.5 94t123.5 35q31 0 48 -16t17 -45q0 -40 -60 -92.5t-151 -80.5q-39 -90 -39 -147q0 -47 35 -47q68 0 158.5 91t169.5 235q13 -5 18.5 -16.5 t-2.5 -26.5q-90 -150 -185.5 -236t-174.5 -86q-60 0 -92 34.5t-35 96.5q-36 -60 -83 -95.5t-93 -35.5q-63 0 -106.5 47t-43.5 133zM84 123q0 -82 47 -82q44 0 90.5 48.5t75.5 123.5q-99 3 -164 74q-49 -81 -49 -164zM111 426q46 30 90.5 36t79.5 -18q-69 -43 -129 -125 q58 -71 153 -71h4q19 62 19 125q0 74 -33.5 123t-89.5 49q-41 0 -67.5 -28.5t-26.5 -78.5v-12zM461 274q68 26 110.5 65.5t42.5 66.5q0 16 -16 16q-28 0 -65.5 -42t-71.5 -106z"/>
            <glyph unicode="&#x178;" horiz-adv-x="1351"
                   d="M-274 905q0 91 62 188.5t159 173t222.5 124.5t244.5 49q169 0 266.5 -75t97.5 -208q0 -90 -36 -200.5t-78.5 -197.5t-78.5 -193t-36 -187q0 -88 63 -88q82 0 173.5 63.5t167 159.5t137.5 202t96 199t31 142q46 0 76 -22.5t30 -67.5q0 -230 -110.5 -557t-286.5 -572 q59 -19 166.5 -63.5t186.5 -67t157 -22.5q104 0 184.5 24t185.5 84q-22 -74 -105.5 -126t-176.5 -52q-101 0 -201.5 29t-231 84t-192.5 75q-249 -327 -526 -327q-74 0 -115 35.5t-41 99.5q0 118 114.5 198t282.5 80q95 0 193 -20q130 206 234 476.5t155 504.5 q-37 -80 -80.5 -157t-103 -158t-121 -141.5t-135 -99t-144.5 -38.5q-89 0 -136.5 60t-47.5 173q0 67 39 170t85 194t85 199t39 185q0 78 -69.5 123t-192.5 45q-107 0 -222 -44t-204 -112t-147 -155t-58 -168q0 -82 42.5 -131.5t110.5 -62.5t149 -2t163 44q-1 -3 -10.5 -24 t-13 -26t-14 -22.5t-20 -24.5t-25 -19t-36 -19.5t-45.5 -13.5q-36 -11 -76.5 -7t-80 15t-76 36t-64.5 57.5t-44.5 79t-16.5 99.5zM250 -389q0 -47 32.5 -73.5t90.5 -26.5q199 0 413 325q-104 19 -172 19q-153 0 -258.5 -71t-105.5 -173zM983 1468q0 34 22 51t50 17 q11 0 42 -3.5t48 -2.5q0 -47 -26.5 -86t-69.5 -39q-30 0 -48 17t-18 46zM1180 1468q0 34 21.5 51t49.5 17q11 0 42 -3.5t48 -2.5q0 -47 -26.5 -86t-69.5 -39q-29 0 -47 17t-18 46z"/>
            <glyph unicode="&#x2c6;" horiz-adv-x="401"
                   d="M62.5 581q5.5 16 19.5 29l149 129l91 -88q21 -20 17 -54t-34 -46l-96 123l-146 -113q-6 4 -0.5 20z"/>
            <glyph unicode="&#x2dc;" horiz-adv-x="528"
                   d="M61 598q0 90 95 90q37 0 114 -30.5t113 -30.5q22 0 42.5 10t29.5 27q25 -39 -1 -78t-83 -39q-35 0 -74.5 25.5t-79.5 51t-76 25.5q-32 0 -80 -51z"/>
            <glyph unicode="&#x2000;" horiz-adv-x="946"/>
            <glyph unicode="&#x2001;" horiz-adv-x="1892"/>
            <glyph unicode="&#x2002;" horiz-adv-x="946"/>
            <glyph unicode="&#x2003;" horiz-adv-x="1892"/>
            <glyph unicode="&#x2004;" horiz-adv-x="630"/>
            <glyph unicode="&#x2005;" horiz-adv-x="473"/>
            <glyph unicode="&#x2006;" horiz-adv-x="315"/>
            <glyph unicode="&#x2007;" horiz-adv-x="315"/>
            <glyph unicode="&#x2008;" horiz-adv-x="236"/>
            <glyph unicode="&#x2009;" horiz-adv-x="378"/>
            <glyph unicode="&#x200a;" horiz-adv-x="105"/>
            <glyph unicode="&#x2010;" horiz-adv-x="778" d="M205 266q0 8 10 19.5t25 11.5l333 4q-3 -13 -17 -22t-32 -9z"/>
            <glyph unicode="&#x2011;" horiz-adv-x="778" d="M205 266q0 8 10 19.5t25 11.5l333 4q-3 -13 -17 -22t-32 -9z"/>
            <glyph unicode="&#x2012;" horiz-adv-x="778" d="M205 266q0 8 10 19.5t25 11.5l333 4q-3 -13 -17 -22t-32 -9z"/>
            <glyph unicode="&#x2013;" horiz-adv-x="1434" d="M205 266q0 8 28 19.5t69 11.5l927 4q-8 -13 -47 -22t-89 -9z"/>
            <glyph unicode="&#x2014;" horiz-adv-x="2458"
                   d="M205 266q0 8 55.5 19.5t139.5 11.5l1853 4q-17 -13 -95 -22t-178 -9z"/>
            <glyph unicode="&#x2018;" horiz-adv-x="409"
                   d="M205 1184q0 67 56 128.5t108 61.5q-32 -42 -34.5 -80.5t10.5 -76.5t13 -52q0 -31 -21.5 -49t-49.5 -18q-39 0 -60.5 23.5t-21.5 62.5z"/>
            <glyph unicode="&#x2019;" horiz-adv-x="409"
                   d="M205 1098q25 33 31.5 65.5t0.5 54.5t-14 48.5t-8 40.5q0 31 22 49t50 18q39 0 60.5 -23.5t21.5 -62.5q0 -67 -56 -128.5t-108 -61.5z"/>
            <glyph unicode="&#x201a;" horiz-adv-x="1228"
                   d="M61 -168q32 42 34.5 80.5t-10.5 76.5t-13 52q0 32 22 50t49 18q39 0 60.5 -23.5t21.5 -62.5q0 -67 -56 -129t-108 -62z"/>
            <glyph unicode="&#x201c;" horiz-adv-x="618"
                   d="M205 1184q0 67 56 128.5t108 61.5q-32 -42 -34.5 -80.5t10.5 -76.5t13 -52q0 -31 -21.5 -49t-49.5 -18q-39 0 -60.5 23.5t-21.5 62.5zM414 1184q0 67 56 128.5t108 61.5q-32 -42 -34.5 -80.5t10.5 -76.5t13 -52q0 -31 -21.5 -49t-49.5 -18q-39 0 -60.5 23.5t-21.5 62.5z "/>
            <glyph unicode="&#x201d;" horiz-adv-x="618"
                   d="M205 1098q25 33 31.5 65.5t0.5 54.5t-14 48.5t-8 40.5q0 31 22 49t50 18q39 0 60.5 -23.5t21.5 -62.5q0 -67 -56 -128.5t-108 -61.5zM414 1098q25 33 31.5 65.5t0.5 54.5t-14 48.5t-8 40.5q0 31 22 49t50 18q39 0 60.5 -23.5t21.5 -62.5q0 -67 -56 -128.5t-108 -61.5z "/>
            <glyph unicode="&#x201e;" horiz-adv-x="1228"
                   d="M61 -168q32 42 34.5 80.5t-10.5 76.5t-13 52q0 32 22 50t49 18q39 0 60.5 -23.5t21.5 -62.5q0 -67 -56 -129t-108 -62z"/>
            <glyph unicode="&#x202f;" horiz-adv-x="378"/>
            <glyph unicode="&#x2039;" horiz-adv-x="669" d="M205 299l411 274l-243 -270l256 -240z"/>
            <glyph unicode="&#x203a;" horiz-adv-x="669" d="M205 63l256 240l-244 270l412 -274z"/>
            <glyph unicode="&#x205f;" horiz-adv-x="473"/>
            <glyph unicode="&#x20ac;" horiz-adv-x="1292"
                   d="M20 512q0 7 10.5 17t24.5 10l213 2q24 67 70 151h-264q0 8 10 17.5t25 9.5l245 2q88 153 219.5 296t275.5 249t298 169.5t283 63.5q85 0 139.5 -51.5t54.5 -134.5q0 -41 -14 -90.5t-42 -98.5t-65 -90t-88.5 -66.5t-107.5 -25.5q-97 0 -125 55q49 0 114 30.5t124 79.5 t100 119t41 140q0 44 -34 71t-95 27q-110 0 -272.5 -101t-329 -274t-279.5 -366l424 4q-3 -14 -17.5 -24.5t-31.5 -10.5h-394q-21 -37 -73 -149l463 4q-5 -13 -20.5 -24t-29.5 -11h-426q-61 -160 -61 -305q0 -61 19 -114t58 -95.5t104.5 -67t150.5 -24.5q151 0 325.5 125 t300.5 329q10 -3 14 -12.5t-3 -21.5q-315 -488 -721 -488q-201 0 -311.5 112.5t-110.5 303.5q0 125 47 258h-238z"/>
            <glyph unicode="&#x25fc;" horiz-adv-x="450" d="M0 0v451h451v-451h-451z"/>
            </font>
</defs>
</svg>
